<svg width="53" height="52" viewBox="0 0 53 52" fill="none" xmlns="http://www.w3.org/2000/svg">
<path d="M29.7495 19.0939C29.874 19.1284 29.9985 19.163 30.1268 19.1986C33.2815 20.1623 36.0008 22.321 37.5934 25.2117C38.1918 26.3459 38.6101 27.4922 38.8901 28.7423C38.915 28.8474 38.9399 28.9526 38.9655 29.0609C39.5739 32.1818 38.8563 35.6049 37.1283 38.2574C35.2697 40.9956 32.4705 43.0683 29.1923 43.7224C25.7308 44.3461 22.3144 43.7851 19.36 41.8248C17.7328 40.6445 16.4205 39.234 15.4292 37.4767C15.375 37.381 15.3208 37.2853 15.265 37.1867C13.7038 34.2544 13.4618 30.7224 14.3982 27.5555C14.9152 25.9253 15.7452 24.4561 16.8511 23.1564C16.9262 23.0659 17.0014 22.9754 17.0788 22.8822C18.6668 21.0371 20.9237 19.7491 23.2495 19.0939C23.3628 19.0613 23.476 19.0287 23.5927 18.9951C25.4794 18.5498 27.8857 18.5583 29.7495 19.0939ZM20.061 25.6097C18.3751 27.5458 17.82 29.7911 17.946 32.3088C18.1111 34.4846 19.3552 36.5022 20.9466 37.9417C22.8052 39.5182 25.1261 40.0972 27.5151 39.9142C29.5574 39.6879 31.268 38.6983 32.6948 37.2736C32.8079 37.1622 32.8079 37.1622 32.9233 37.0486C34.5957 35.2946 35.1017 33.0427 35.0617 30.6938C34.9802 28.4622 33.8366 26.4293 32.2453 24.8992C28.5638 21.8098 23.3647 22.1569 20.061 25.6097Z" fill="#58B347"/>
<path d="M30.7436 25.5259C31.1137 25.8303 31.4497 26.1619 31.7809 26.5078C31.8433 26.5717 31.9056 26.6356 31.9698 26.7014C33.3539 28.2139 33.7001 30.1593 33.6268 32.143C33.4975 34.0032 32.4736 35.6829 31.1081 36.9021C29.4936 38.1514 27.6146 38.6566 25.5908 38.4636C23.7494 38.2133 22.0549 37.2947 20.9074 35.8388C19.6316 34.1557 19.1467 32.2364 19.4189 30.148C19.7359 28.2335 20.8249 26.5909 22.3864 25.4505C24.8977 23.8535 28.2854 23.692 30.7436 25.5259ZM29.028 29.3393C28.9575 29.4108 28.8871 29.4823 28.8145 29.5559C28.7339 29.6372 28.6533 29.7185 28.5702 29.8023C28.4418 29.9332 28.4418 29.9332 28.3108 30.0668C28.2218 30.1566 28.1328 30.2463 28.0412 30.3388C27.7575 30.6249 27.4744 30.9117 27.1916 31.1987C26.8183 31.5774 26.4444 31.9553 26.07 32.3329C25.9838 32.4208 25.8976 32.5088 25.8088 32.5993C25.7291 32.6797 25.6494 32.76 25.5673 32.8428C25.4971 32.9141 25.4269 32.9853 25.3546 33.0587C25.1794 33.2109 25.1794 33.2109 24.9763 33.2109C24.942 33.1479 24.9077 33.0849 24.8724 33.02C24.7158 32.7337 24.5573 32.4486 24.3986 32.1635C24.3178 32.0148 24.3178 32.0148 24.2354 31.863C24.182 31.7678 24.1287 31.6725 24.0737 31.5744C24.0253 31.4866 23.9769 31.3989 23.927 31.3085C23.7284 31.0385 23.5531 30.9134 23.2497 30.7734C22.9234 30.8229 22.9234 30.8229 22.6403 30.9765C22.4029 31.2668 22.4029 31.2668 22.455 31.6166C22.5416 32.0051 22.6643 32.275 22.8641 32.6178C22.9302 32.7319 22.9963 32.846 23.0644 32.9635C23.0991 33.0219 23.1337 33.0803 23.1694 33.1405C23.2746 33.318 23.3779 33.4965 23.481 33.6753C23.9948 34.6881 23.9948 34.6881 24.8557 35.3247C26.0268 35.0262 27.1032 33.4543 27.9569 32.6074C28.1665 32.3995 28.3771 32.1925 28.5884 31.9863C28.8455 31.7353 29.1011 31.4828 29.3557 31.2292C29.499 31.0871 29.6438 30.9466 29.7886 30.8061C30.3149 30.3092 30.3149 30.3092 30.5785 29.6582C30.5818 29.3534 30.5818 29.3534 30.4479 29.1103C29.9103 28.6443 29.4983 28.9196 29.028 29.3393Z" fill="#58B347"/>
<path d="M44.07 10.9687C44.4875 11.3208 44.6919 11.664 44.9028 12.1633C44.9611 12.295 45.0197 12.4266 45.0783 12.5582C45.1685 12.7635 45.2574 12.969 45.3435 13.176C45.6459 13.9724 45.6459 13.9724 46.2248 14.5508C46.4928 14.6069 46.7417 14.6188 47.0153 14.625C47.2365 14.6554 47.4574 14.6882 47.6779 14.7229C48.0288 14.7731 48.3798 14.8226 48.7312 14.8699C48.8444 14.8864 48.9577 14.9028 49.0744 14.9197C49.1764 14.9339 49.2784 14.948 49.3836 14.9625C49.6794 15.0371 49.8396 15.1296 50.0622 15.3359C50.1919 15.6558 50.181 15.7986 50.0575 16.1218C49.8051 16.5432 49.4935 16.8269 49.1291 17.1513C48.9921 17.277 48.8551 17.4028 48.7181 17.5286C48.4984 17.7284 48.2774 17.9264 48.0548 18.1229C47.982 18.1898 47.9092 18.2567 47.8342 18.3256C47.7725 18.38 47.7109 18.4343 47.6473 18.4903C47.2124 19.1808 47.7099 20.4167 47.8594 21.147C47.8826 21.2655 47.9059 21.3841 47.9298 21.5062C47.9516 21.6134 47.9734 21.7205 47.9959 21.831C48.0411 22.2303 48.0223 22.5861 47.8215 22.9404C47.4942 23.1304 47.1746 23.1146 46.8122 23.0546C46.4202 22.8932 46.0604 22.6847 45.695 22.4707C45.4095 22.308 45.1238 22.1457 44.8367 21.9859C44.5778 21.8359 44.5778 21.8359 44.3684 21.6859C44.158 21.5468 44.0153 21.4687 43.7653 21.4296C43.3366 21.5513 42.9735 21.763 42.591 21.9882C42.4892 22.0448 42.3875 22.1014 42.2826 22.1596C41.9224 22.3607 41.5656 22.5668 41.2117 22.7787C40.7835 23.0327 40.5106 23.1306 40.0075 23.0546C39.76 22.9023 39.76 22.9023 39.6013 22.6484C39.5305 21.7516 39.7668 20.8746 39.9375 19.999C39.9608 19.8757 39.984 19.7524 40.0079 19.6253C40.0297 19.5135 40.0515 19.4016 40.074 19.2864C40.1075 19.006 40.1128 18.8451 40.0075 18.5859C39.8153 18.388 39.6244 18.208 39.4172 18.0273C39.2975 17.9191 39.178 17.8108 39.0586 17.7024C38.9667 17.6194 38.9667 17.6194 38.8729 17.5348C38.5775 17.2681 38.284 17.0001 37.9953 16.726C37.9424 16.6786 37.8895 16.6312 37.8349 16.5824C37.5602 16.3179 37.4707 16.1625 37.4102 15.7822C37.4797 15.3712 37.5483 15.2821 37.8747 15.0312C38.144 14.9615 38.3855 14.9145 38.6591 14.8804C38.7344 14.8698 38.8098 14.8591 38.8874 14.848C39.1273 14.8144 39.3674 14.7831 39.6076 14.7519C39.7696 14.7294 39.9315 14.7068 40.0934 14.6841C41.253 14.5234 41.253 14.5234 41.6325 14.5234C41.6599 14.4363 41.6873 14.3492 41.7155 14.2595C41.9021 13.7231 42.1525 13.219 42.3983 12.7076C42.4897 12.517 42.5798 12.3259 42.6698 12.1347C42.7275 12.0144 42.7851 11.8941 42.8445 11.7701C42.897 11.6602 42.9494 11.5502 43.0034 11.4369C43.2717 10.9707 43.5581 10.897 44.07 10.9687Z" fill="#58B347"/>
<path d="M26.6904 3.59914C27.1378 3.82282 27.2969 4.1281 27.5156 4.57033C27.583 4.7748 27.6465 4.98057 27.7068 5.18724C27.9387 5.91083 28.167 6.58128 28.7344 7.10939C29.6216 7.53481 30.7529 7.54577 31.7207 7.55857C32.076 7.56937 32.2817 7.61272 32.5876 7.7998C32.7969 8.02345 32.7969 8.02345 32.8667 8.41344C32.8325 8.9264 32.5557 9.17376 32.1875 9.50246C32.1272 9.55934 32.0669 9.61623 32.0048 9.67484C31.8308 9.83783 31.6545 9.99757 31.4766 10.1563C31.3938 10.2305 31.3111 10.3047 31.2258 10.3812C31.1001 10.4917 30.9734 10.6011 30.845 10.7085C30.7853 10.7609 30.7256 10.8132 30.6641 10.8672C30.5753 10.9407 30.4865 11.0142 30.395 11.0899C30.125 11.353 30.125 11.353 30.1452 11.6869C30.1811 11.8583 30.1811 11.8583 30.2177 12.0332C30.2423 12.1599 30.2668 12.2865 30.2921 12.417C30.3207 12.55 30.3495 12.683 30.3784 12.8159C30.7633 14.6985 30.7633 14.6985 30.6641 15.336C30.4546 15.6089 30.4546 15.6089 30.1562 15.7422C29.6351 15.707 29.2658 15.577 28.8125 15.3233C28.6975 15.2599 28.5825 15.1965 28.464 15.1312C28.3446 15.0641 28.2253 14.997 28.106 14.9297C27.87 14.7979 27.6336 14.6669 27.397 14.5361C27.241 14.4486 27.241 14.4486 27.0819 14.3592C26.7538 14.1843 26.7538 14.1843 26.3984 14.1172C26.0945 14.2317 26.0945 14.2317 25.7732 14.4112C25.6842 14.458 25.6842 14.458 25.5934 14.5058C25.4041 14.6058 25.2157 14.7074 25.0273 14.8091C24.9006 14.8765 24.7738 14.9437 24.6469 15.0108C24.4134 15.1345 24.1804 15.2589 23.9476 15.3839C23.8515 15.4351 23.7553 15.4863 23.6562 15.5391C23.5827 15.5799 23.5092 15.6207 23.4335 15.6627C23.1451 15.7876 22.9367 15.7225 22.6406 15.6406C22.4352 15.4818 22.3475 15.3917 22.2944 15.1351C22.2977 14.6088 22.369 14.1352 22.4934 13.6233C22.8567 12.3751 22.8567 12.3751 22.7513 11.1219C22.4758 10.7114 22.1098 10.4336 21.6975 10.1683C21.4658 10.0171 21.2688 9.83634 21.0664 9.64845C20.8491 9.46019 20.6295 9.27758 20.4062 9.09621C20.1981 8.82955 20.1623 8.74665 20.1396 8.42336C20.2031 8.02345 20.2031 8.02345 20.4126 7.79784C20.7793 7.57582 21.0698 7.57129 21.4846 7.57713C23.0561 7.58699 23.0561 7.58699 24.431 6.95903C25.0596 6.19806 25.3812 5.20656 25.671 4.2765C25.7814 3.98145 25.844 3.83966 26.0938 3.65627C26.3984 3.5547 26.3984 3.5547 26.6904 3.59914Z" fill="#58B347"/>
<path d="M9.53898 10.9687C9.91188 11.2733 10.0899 11.6215 10.2959 12.0517C10.3269 12.1161 10.3579 12.1804 10.3898 12.2466C10.4547 12.3818 10.5193 12.5172 10.5834 12.6528C10.6818 12.8608 10.7815 13.068 10.8815 13.2753C11.3671 14.2898 11.3671 14.2898 11.3671 14.5234C11.4729 14.5356 11.4729 14.5356 11.5808 14.5481C11.9074 14.5861 12.2339 14.6246 12.5605 14.663C12.6714 14.6758 12.7822 14.6887 12.8965 14.7019C13.2334 14.7418 13.5698 14.7844 13.9062 14.8281C14.019 14.8417 14.1317 14.8553 14.2479 14.8694C14.4095 14.8917 14.4095 14.8917 14.5743 14.9145C14.6705 14.9272 14.7668 14.9398 14.866 14.9529C15.1848 15.0493 15.3229 15.1807 15.5312 15.4374C15.601 15.7167 15.601 15.7167 15.5312 16.0468C15.331 16.3526 15.0771 16.6007 14.8202 16.8593C14.7136 16.9685 14.607 17.0778 14.5005 17.187C13.5789 18.1237 13.5789 18.1237 13.1516 18.4339C12.8597 18.662 12.8597 18.662 12.8648 18.9874C12.8995 19.1531 12.8995 19.1531 12.935 19.3222C12.9705 19.5088 12.9705 19.5088 13.0068 19.6991C13.0209 19.7653 13.035 19.8315 13.0495 19.8997C13.1116 20.1941 13.1652 20.4899 13.2183 20.786C13.2445 20.9317 13.2717 21.0773 13.3001 21.2226C13.5286 22.4399 13.5286 22.4399 13.2397 22.9023C12.8983 23.1123 12.6785 23.0864 12.2812 23.0546C11.9491 22.9132 11.9491 22.9132 11.6111 22.7178C11.5201 22.6667 11.5201 22.6667 11.4272 22.6146C11.1699 22.4702 10.9147 22.3223 10.6593 22.1744C10.4716 22.0664 10.2829 21.9604 10.094 21.8545C9.92687 21.758 9.92687 21.758 9.75636 21.6595C9.38051 21.5083 9.21315 21.5195 8.82804 21.6327C8.54526 21.7502 8.54526 21.7502 8.26826 21.9021C8.16621 21.9559 8.06415 22.0096 7.95901 22.065C7.85408 22.1213 7.74914 22.1777 7.64103 22.2358C7.53492 22.2917 7.42881 22.3477 7.31948 22.4054C6.74225 22.711 6.74225 22.711 6.18742 23.0546C5.99064 23.0852 5.99064 23.0852 5.78117 23.0864C5.71204 23.0881 5.64292 23.0898 5.57169 23.0915C5.31064 23.0426 5.2339 22.9573 5.07023 22.7499C4.95388 22.14 5.07625 21.5583 5.25273 20.973C5.65867 19.7119 5.65867 19.7119 5.41092 18.4664C4.8843 17.7903 4.2311 17.2664 3.54679 16.7577C3.05254 16.3786 3.05254 16.3786 2.93742 16.1484C2.87911 15.5186 2.87911 15.5186 3.09351 15.22C3.42169 14.9723 3.73069 14.9353 4.128 14.8911C4.20335 14.8812 4.2787 14.8712 4.35633 14.8609C4.59623 14.8293 4.83634 14.7999 5.07658 14.7709C5.31715 14.7414 5.55761 14.7114 5.79792 14.6799C5.94719 14.6603 6.09662 14.6419 6.24621 14.6249C6.51856 14.5894 6.74504 14.5575 6.97691 14.4046C7.15835 14.1338 7.29127 13.8512 7.42799 13.5553C7.48992 13.4235 7.55188 13.2916 7.61385 13.1598C7.71027 12.9527 7.80633 12.7455 7.90195 12.538C7.99484 12.3371 8.08902 12.1369 8.18336 11.9367C8.23886 11.8168 8.29436 11.697 8.35155 11.5735C8.6498 11.0525 8.93633 10.8808 9.53898 10.9687Z" fill="#58B347"/>
<path d="M15.8359 40.625C16.2873 40.8355 16.5746 41.1395 16.9059 41.5105C18.0381 42.7248 19.5676 43.5086 21.0156 44.2812C20.8869 44.704 20.7288 45.0646 20.5031 45.4441C20.4423 45.547 20.3816 45.65 20.319 45.7561C20.2556 45.8622 20.1922 45.9683 20.127 46.0776C19.6632 46.8592 19.2106 47.6442 18.7812 48.4453C18.7142 48.4453 18.6472 48.4453 18.5781 48.4453C18.3987 48.2352 18.2305 48.0242 18.064 47.8042C17.9635 47.674 17.863 47.5439 17.7625 47.4138C17.712 47.3484 17.6616 47.2829 17.6097 47.2155C17.3922 46.9348 17.1704 46.6582 16.9468 46.3823C16.8744 46.2926 16.802 46.203 16.7274 46.1106C16.5625 45.8982 16.5625 45.8982 16.3438 45.8047C15.5121 45.8107 14.6823 45.9686 13.8644 46.1077C13.4675 46.1741 13.0917 46.2297 12.6875 46.2109C12.833 45.8215 13.0129 45.4705 13.2195 45.11C13.2855 44.9946 13.3515 44.8793 13.4195 44.7604C13.4907 44.6366 13.562 44.5129 13.6333 44.3892C13.706 44.2624 13.7788 44.1356 13.8515 44.0088C14.5029 42.8749 15.1661 41.7481 15.8359 40.625Z" fill="#58B347"/>
<path d="M36.961 40.625C37.3614 40.7585 37.3978 40.9082 37.601 41.2729C37.6661 41.3885 37.7312 41.5041 37.7983 41.6232C37.8684 41.7496 37.9384 41.876 38.0084 42.0024C38.1168 42.1959 38.2256 42.3893 38.3343 42.5826C38.4086 42.7146 38.4828 42.8468 38.5569 42.979C38.8046 43.4203 39.0571 43.8584 39.314 44.2943C39.3796 44.4057 39.4453 44.5172 39.5129 44.6319C39.6381 44.8439 39.7636 45.0557 39.8894 45.2673C39.9453 45.3622 40.0011 45.457 40.0587 45.5547C40.1079 45.6377 40.1571 45.7207 40.2079 45.8061C40.3126 46.0078 40.3126 46.0078 40.3126 46.2109C38.6646 46.0274 38.6646 46.0274 37.9132 45.8936C37.2876 45.7823 37.2876 45.7823 36.6563 45.8047C36.2472 46.1745 35.8954 46.5971 35.5392 47.0171C35.4618 47.1077 35.4618 47.1077 35.3828 47.2002C35.3318 47.2601 35.2807 47.32 35.2281 47.3817C35.1782 47.4402 35.1284 47.4987 35.077 47.559C34.9784 47.6764 34.8814 47.7951 34.7858 47.9149C34.6686 48.0613 34.5458 48.203 34.422 48.3438C34.3549 48.3438 34.2879 48.3438 34.2188 48.3438C34.1764 48.2701 34.134 48.1965 34.0903 48.1207C33.9292 47.8413 33.7681 47.5619 33.607 47.2825C33.5045 47.1046 33.4019 46.9268 33.2994 46.7489C33.233 46.6337 33.1665 46.5185 33.0981 46.3998C33.0318 46.2844 32.9656 46.169 32.8973 46.0501C32.7613 45.8164 32.624 45.585 32.4828 45.3546C32.4169 45.246 32.3511 45.1374 32.2832 45.0255C32.2233 44.9285 32.1634 44.8316 32.1017 44.7316C31.9845 44.4844 31.9845 44.4844 32.086 44.1797C32.257 44.0648 32.257 44.0648 32.4788 43.9563C32.6003 43.8954 32.6003 43.8954 32.7243 43.8332C32.8111 43.7904 32.8979 43.7477 32.9874 43.7036C34.0614 43.155 34.9689 42.4995 35.8883 41.7231C35.9484 41.6724 36.0085 41.6217 36.0705 41.5695C36.4075 41.2789 36.6939 40.984 36.961 40.625Z" fill="#58B347"/>
</svg>
