<svg width="68" height="68" viewBox="0 0 68 68" fill="none" xmlns="http://www.w3.org/2000/svg">
<path d="M34.3985 11.6874C35.4452 12.438 36.0004 13.205 36.2185 14.4796C36.2315 14.5662 36.2445 14.6529 36.2579 14.7421C36.3767 14.7344 36.4955 14.7267 36.6179 14.7188C37.7142 14.6779 38.555 14.7257 39.4454 15.4062C40.3131 16.2411 40.7365 17.2137 40.7984 18.4111C40.7902 18.5152 40.782 18.6193 40.7735 18.7265C40.8968 18.6608 40.8968 18.6608 41.0225 18.5937C41.873 18.3215 42.6431 18.3596 43.463 18.7182C44.4169 19.255 44.827 20.0695 45.2061 21.0673C45.888 23.5944 45.3243 26.4762 45.0798 29.0376C45.0676 29.1659 45.0554 29.2942 45.0428 29.4264C45.0195 29.6692 44.9958 29.9119 44.9717 30.1546C44.8772 31.1306 44.8135 31.8299 45.2891 32.7216C45.3631 32.8624 45.4371 33.0031 45.5133 33.1481C45.5708 33.2539 45.6283 33.3597 45.6876 33.4687C45.7841 33.4158 45.8807 33.3629 45.9802 33.3084C48.0199 32.2336 50.3574 31.8493 52.6078 32.526C54.0012 33.0544 55.135 33.7202 56.1798 34.7968C56.2655 34.8814 56.3513 34.966 56.4397 35.0531C57.8597 36.5442 58.3505 38.4945 58.3048 40.5078C58.0271 44.2372 55.8779 47.5123 53.3928 50.1808C53.1371 50.4557 52.8943 50.7382 52.6519 51.0248C51.9202 51.8596 51.0544 52.5299 50.1866 53.2163C50.1088 53.2779 50.0309 53.3395 49.9508 53.4029C49.473 53.777 48.9857 54.1228 48.4766 54.4531C48.5524 55.1637 48.637 55.8712 48.7423 56.5781C48.8628 56.5616 48.9833 56.5452 49.1075 56.5283C50.0094 56.5319 50.8861 57.0516 51.5562 57.6224C52.4503 58.5839 52.9083 59.7489 52.8885 61.061C52.7657 62.3214 52.2083 63.3129 51.2657 64.1484C50.056 65.0314 48.9937 65.1193 47.5246 65.1331C47.3498 65.1357 47.1751 65.1383 46.995 65.141C46.5175 65.1479 46.0401 65.1532 45.5626 65.158C45.2637 65.1611 44.9648 65.1645 44.6659 65.1681C43.5147 65.1816 42.3635 65.1929 41.2123 65.2025C40.4601 65.2088 39.7079 65.2164 38.9558 65.2246C37.9196 65.2357 36.8834 65.2433 35.8472 65.2487C35.4535 65.2509 35.0598 65.2542 34.6661 65.2586C34.1146 65.2646 33.5632 65.2662 33.0118 65.2674C32.7697 65.2709 32.7697 65.2709 32.5228 65.2745C31.1196 65.2709 29.9441 64.9895 28.9153 63.9943C28.0555 63.0718 27.7081 62.1477 27.5753 60.8862C27.711 59.6416 28.1478 58.4939 29.1083 57.6546C29.3615 57.4632 29.6165 57.2817 29.8829 57.1093C29.5678 54.6541 28.048 53.1226 26.1766 51.6728C25.6301 51.2581 25.0681 50.8673 24.504 50.477C21.437 48.348 18.8063 45.7578 17.963 42.0019C17.6773 40.7926 17.3508 39.5999 16.9965 38.4093C14.9987 31.6838 14.9987 31.6838 16.2198 28.9033C16.7115 28.005 17.4719 27.4936 18.4337 27.1791C18.7399 27.0898 19.0463 27.0182 19.358 26.9505C19.5171 26.9158 19.5171 26.9158 19.6794 26.8803C19.7595 26.8631 19.8395 26.8458 19.9219 26.8281C19.9796 26.6099 19.9796 26.6099 20.0385 26.3874C20.4021 25.0133 20.7674 23.6397 21.1343 22.2665C21.3229 21.5606 21.5109 20.8545 21.6975 20.1481C21.8778 19.4657 22.0597 18.7837 22.2426 18.102C22.312 17.8426 22.3807 17.583 22.4489 17.3232C22.5449 16.9579 22.643 16.5932 22.7415 16.2285C22.7689 16.1223 22.7963 16.0161 22.8245 15.9066C23.2009 14.5345 23.8515 13.4948 25.0705 12.737C25.9914 12.3065 27.2602 12.3145 28.2258 12.5746C28.4801 12.6835 28.4801 12.6835 28.8204 12.8828C28.8767 12.8122 28.933 12.7417 28.9911 12.669C30.3541 11.0273 32.4877 10.5562 34.3985 11.6874ZM30.4888 14.0532C30.3964 14.4128 30.452 14.7117 30.506 15.0749C30.682 16.499 30.4777 17.7569 30.0634 19.1108C29.9736 19.4054 29.8877 19.7009 29.8027 19.997C29.561 20.837 29.3144 21.6754 29.0616 22.5122C28.0284 25.5858 28.0284 25.5858 28.4583 28.7011C28.6261 29.1393 28.7266 29.595 28.8391 30.0498C28.8853 30.2249 28.932 30.4 28.9791 30.5748C29.0021 30.6604 29.0251 30.746 29.0488 30.8341C29.0964 31.0103 29.1443 31.1864 29.1925 31.3624C29.8401 33.7366 29.8401 33.7366 29.4678 34.3984C29.0933 34.5981 28.8395 34.5908 28.4219 34.5312C27.9818 34.1705 27.8089 33.8735 27.6698 33.3267C27.6348 33.1928 27.5999 33.0589 27.5639 32.9209C27.5284 32.7767 27.493 32.6325 27.4565 32.484C27.4186 32.3346 27.3807 32.1852 27.3417 32.0313C27.2621 31.7152 27.1834 31.3988 27.1057 31.0822C26.9869 30.6004 26.8638 30.12 26.7403 29.6394C26.6633 29.3315 26.5866 29.0235 26.5102 28.7155C26.4734 28.5729 26.4366 28.4304 26.3987 28.2835C26.0289 26.7481 26.3266 25.5374 26.7537 24.0424C26.8347 23.7588 26.9141 23.4748 26.9931 23.1907C27.2178 22.384 27.4452 21.578 27.6735 20.7723C27.8137 20.2768 27.9523 19.7809 28.0899 19.2848C28.1422 19.0974 28.1952 18.9102 28.2489 18.7231C28.7996 16.9603 28.7996 16.9603 28.4635 15.2153C27.9594 14.6567 27.5949 14.4529 26.8448 14.4018C26.2346 14.4254 25.8659 14.5561 25.4427 15.0011C24.6214 16.0749 24.4174 17.7296 24.0749 19.0233C24.0165 19.2423 23.958 19.4613 23.8995 19.6803C23.7778 20.1365 23.6565 20.5928 23.5355 21.0492C23.381 21.6325 23.2253 22.2155 23.0693 22.7984C22.9487 23.2495 22.8286 23.7007 22.7087 24.152C22.6515 24.367 22.5942 24.582 22.5367 24.7969C22.4564 25.0973 22.3768 25.3979 22.2974 25.6985C22.2739 25.786 22.2504 25.8735 22.2261 25.9637C22.0815 26.5151 21.9541 27.0556 21.9141 27.6249C22.0958 27.8384 22.2794 28.0505 22.4713 28.2548C24.5429 30.8465 24.9094 35.4525 25.6329 38.6484C25.7143 38.6636 25.7957 38.6789 25.8796 38.6946C27.6362 39.0308 29.2051 39.4594 30.8126 40.2421C30.9441 40.286 31.0755 40.3298 31.211 40.3749C31.2144 40.2209 31.2179 40.0668 31.2214 39.908C31.2894 37.7804 31.7449 36.0375 33.2364 34.4316C35.0044 32.7857 37.2195 32.0727 39.5932 32.1063C40.7887 32.1856 41.9289 32.4744 43.0313 32.9374C43.0094 32.8553 42.9875 32.7731 42.9649 32.6884C42.8 31.6575 42.9134 30.6056 43.0147 29.5725C43.039 29.3105 43.0632 29.0485 43.0874 28.7865C43.1254 28.3821 43.1637 27.9778 43.2028 27.5735C43.3375 26.1698 43.4541 24.773 43.4609 23.362C43.4618 23.2541 43.4628 23.1463 43.4637 23.0352C43.4588 22.25 43.3661 21.5081 42.8985 20.8515C42.5528 20.5423 42.4502 20.4513 41.9771 20.4614C41.2984 20.6692 40.8791 21.0699 40.4953 21.6618C40.2499 22.1766 40.2242 22.7399 40.1686 23.3013C40.154 23.4349 40.1394 23.5686 40.1243 23.7063C40.094 23.9886 40.0648 24.271 40.0367 24.5535C39.9936 24.9815 39.946 25.4087 39.8978 25.8361C39.7514 27.2013 39.65 28.4071 39.9766 29.7499C40.0264 30.2247 40.0684 30.6492 39.8272 31.0781C39.4527 31.2778 39.1989 31.2705 38.7813 31.2109C38.4237 31.0023 38.292 30.8023 38.1588 30.4125C37.6472 28.1495 38.0422 25.6775 38.3082 23.4081C38.4261 22.3793 38.5415 21.3503 38.6485 20.3203C38.6598 20.2127 38.6711 20.1051 38.6827 19.9943C38.7117 19.704 38.7372 19.4136 38.7611 19.1229C38.7819 18.885 38.7819 18.885 38.8031 18.6423C38.7693 17.9487 38.5655 17.4435 38.0592 16.9501C37.6514 16.6796 37.6514 16.6796 37.1876 16.6015C36.5674 16.8341 36.212 17.1048 35.8594 17.664C35.5334 18.4771 35.3512 19.3139 35.1943 20.1729C35.1716 20.2935 35.1489 20.414 35.1255 20.5382C35.054 20.9192 34.9835 21.3004 34.9132 21.6816C34.865 21.9393 34.8167 22.1969 34.7684 22.4546C34.6611 23.027 34.5545 23.5996 34.4488 24.1724C34.4086 24.384 34.3647 24.595 34.3194 24.8057C34.1055 25.9836 34.3438 27.1361 34.5894 28.289C35.2068 31.236 35.2068 31.236 34.881 31.7793C34.6641 32.0078 34.6641 32.0078 34.4021 32.069C33.6312 32.0373 33.6312 32.0373 33.336 31.7421C33.2474 31.3753 33.1728 31.0148 33.1067 30.6438C33.0864 30.5333 33.0662 30.4228 33.0453 30.309C33.0026 30.0741 32.9604 29.839 32.9188 29.6039C32.8557 29.2497 32.7899 28.8961 32.7238 28.5424C32.6825 28.3132 32.6413 28.084 32.6004 27.8548C32.5809 27.7512 32.5613 27.6477 32.5413 27.541C32.279 26.0239 32.4025 24.5989 32.7119 23.1C32.7434 22.9404 32.7749 22.7808 32.8073 22.6163C32.9073 22.1107 33.0095 21.6056 33.1119 21.1005C33.3677 19.823 33.6201 18.5448 33.8673 17.2656C33.8931 17.1343 33.9189 17.003 33.9455 16.8677C34.0129 16.5197 34.0765 16.1712 34.1386 15.8223C34.1678 15.6755 34.1678 15.6755 34.1975 15.5258C34.3176 14.8138 34.1988 14.43 33.8673 13.8124C33.3859 13.3066 32.8128 13.1038 32.1241 13.0654C31.3258 13.1071 30.9785 13.4358 30.4888 14.0532ZM18.212 29.7001C17.2063 31.2975 17.757 33.3545 18.1381 35.0865C18.5355 36.7899 19.0549 38.4611 19.5603 40.1349C19.7459 40.7529 19.9167 41.3732 20.0779 41.998C20.5708 43.8954 21.4782 45.1255 22.8438 46.4843C22.9671 46.6076 23.0904 46.7309 23.2174 46.8579C24.2458 47.8406 25.3842 48.6475 26.5433 49.4683C29.1537 51.3335 31.2316 53.1744 31.8751 56.4453C32.0055 56.6049 32.0055 56.6049 32.2524 56.5944C32.36 56.5943 32.4676 56.5942 32.5785 56.594C32.7016 56.5942 32.8247 56.5944 32.9515 56.5946C33.1557 56.5939 33.1557 56.5939 33.3641 56.5932C33.5066 56.5932 33.6491 56.5932 33.7959 56.5932C34.2695 56.5931 34.7431 56.5921 35.2167 56.591C35.544 56.5908 35.8714 56.5906 36.1987 56.5905C37.0623 56.59 37.9258 56.5887 38.7894 56.5872C39.6698 56.5858 40.5502 56.5852 41.4306 56.5846C43.1595 56.5831 44.8884 56.5809 46.6173 56.5781C46.5734 56.1836 46.5296 55.7892 46.4844 55.3828C46.4036 55.4062 46.3228 55.4297 46.2396 55.4538C45.0153 55.6969 44.1824 55.1691 43.1955 54.5214C41.6029 53.4428 40.0908 52.2716 38.6485 50.9999C38.5364 50.9025 38.4242 50.8051 38.3087 50.7048C36.5587 49.162 35.0365 47.5028 33.668 45.6127C31.6788 42.8732 29.3833 41.2125 26.0313 40.6406C25.641 40.5918 25.2551 40.5527 24.8625 40.5311C24.5747 40.5081 24.3165 40.453 24.0391 40.3749C24.0131 40.2563 23.9871 40.1377 23.9603 40.0154C23.8437 39.4858 23.7253 38.9566 23.6068 38.4274C23.5347 38.1043 23.4628 37.781 23.3913 37.4577C22.7247 32.7447 22.7247 32.7447 20.4532 28.9531C19.5719 28.8506 18.8573 29.1109 18.212 29.7001ZM34.2631 36.1986C33.3417 37.3363 33.0938 38.5343 33.1743 39.9668C33.5324 43.3759 36.5629 46.2813 38.8311 48.5512C39.0042 48.7267 39.0042 48.7267 39.1808 48.9058C39.9797 49.7065 40.8179 50.4297 41.7032 51.1328C41.8791 51.2767 42.0549 51.4209 42.2303 51.5654C43.692 52.9288 43.692 52.9288 45.4308 53.6806C45.726 53.6239 45.9505 53.5265 46.2188 53.3906C46.3275 53.3404 46.4363 53.2902 46.5483 53.2386C48.2381 52.3924 49.6423 51.0976 51.0001 49.8046C51.0939 49.7178 51.1877 49.631 51.2844 49.5416C53.7861 47.1569 56.1726 43.5498 56.3245 40.0403C56.2808 38.3467 55.6485 36.9871 54.4283 35.8178C52.8436 34.5008 51.1584 34.1051 49.1407 34.2656C47.7532 34.5262 46.5548 35.157 45.5216 36.1166C45.1563 36.3906 45.1563 36.3906 44.7081 36.4985C44.0861 36.3591 43.8729 36.0755 43.4516 35.616C42.3388 34.5013 40.7258 33.9952 39.1798 33.9584C37.2369 33.9782 35.5914 34.8116 34.2631 36.1986ZM45.4523 58.4421C43.8613 58.4467 42.2703 58.4578 40.6794 58.4688C39.8066 58.4747 38.9338 58.4799 38.061 58.4835C37.2111 58.4869 36.3613 58.4923 35.5115 58.499C35.1892 58.5012 34.8668 58.5027 34.5444 58.5035C34.0945 58.5048 33.6446 58.5085 33.1946 58.5128C33.0627 58.5126 32.9308 58.5125 32.7948 58.5123C31.917 58.5241 31.1173 58.6123 30.411 59.1876C29.9102 59.8275 29.5814 60.2965 29.6173 61.1352C29.7165 61.8266 30.0231 62.359 30.5469 62.8203C31.2067 63.1499 31.6829 63.2683 32.4315 63.266C32.5226 63.2663 32.6137 63.2666 32.7075 63.2668C33.0085 63.2672 33.3095 63.2648 33.6105 63.2623C33.825 63.2619 34.0395 63.2618 34.2541 63.2618C34.8282 63.2612 35.4024 63.258 35.9765 63.2541C36.4516 63.2511 36.9266 63.2493 37.4017 63.2475C38.5902 63.2427 39.7787 63.235 40.9672 63.2258C41.6943 63.2203 42.4213 63.2166 43.1484 63.2146C43.995 63.2123 44.8414 63.2066 45.6879 63.1979C45.99 63.1952 46.292 63.1935 46.5941 63.1929C47.0085 63.1917 47.4226 63.1863 47.837 63.1798C47.955 63.1803 48.0731 63.1808 48.1948 63.1814C49.0155 63.1619 49.565 62.9413 50.2032 62.4218C50.6668 61.8988 50.8412 61.4217 50.8885 60.7357C50.8387 60.0182 50.4799 59.4597 49.9542 58.9853C49.2613 58.5142 48.6736 58.4043 47.844 58.4199C47.6539 58.4224 47.4639 58.4248 47.2738 58.4272C47.1694 58.429 47.0649 58.4307 46.9572 58.4326C46.4556 58.4398 45.954 58.4406 45.4523 58.4421Z" fill="#58B347"/>
<path d="M46.2936 37.1128C46.8299 37.2006 46.9491 37.3004 47.2814 37.7188C47.3773 38.0834 47.3773 38.0834 47.4225 38.498C47.5623 40.1348 47.5623 40.1348 48.2769 41.5439C48.694 41.7405 49.0928 41.8541 49.5392 41.9688C49.8875 42.1196 50.223 42.2927 50.5602 42.4668C50.7951 42.5808 50.7951 42.5808 51.0349 42.6971C51.3985 42.8984 51.3985 42.8984 51.5314 43.1641C51.5812 43.5376 51.5812 43.5376 51.5314 43.9609C51.0685 44.5454 50.5437 44.8043 49.8776 45.1216C48.7822 45.616 48.7822 45.616 47.9874 46.4652C47.924 46.8814 47.9278 47.2592 47.9454 47.6797C47.9099 48.036 47.8689 48.3877 47.8209 48.7422C47.8033 48.9065 47.7856 49.0709 47.7675 49.2402C47.6781 49.68 47.6022 49.8936 47.2814 50.2031C46.7384 50.3043 46.4263 50.3346 45.9553 50.0361C45.6737 49.7939 45.4146 49.5404 45.1564 49.2734C44.9492 49.06 44.7417 48.847 44.5338 48.6343C44.4401 48.5348 44.3465 48.4353 44.25 48.3329C43.9165 48.0389 43.7336 47.9079 43.297 47.8125C42.854 47.8593 42.4268 47.9589 41.9938 48.0615C39.9184 48.5413 39.9184 48.5413 39.3209 48.1943C39.1221 47.8435 39.0825 47.5499 39.047 47.1484C39.1702 46.7881 39.1702 46.7881 39.3629 46.4258C39.4642 46.2274 39.4642 46.2274 39.5676 46.025C39.7134 45.7496 39.8593 45.4743 40.0055 45.1991C40.0728 45.067 40.1402 44.9349 40.2096 44.7988C40.273 44.6794 40.3365 44.5599 40.4019 44.4369C40.5413 44.095 40.5413 44.095 40.4135 43.7521C40.2566 43.4567 40.0986 43.1656 39.9258 42.8792C39.8372 42.7279 39.8372 42.7279 39.7468 42.5734C39.6238 42.3647 39.4993 42.1568 39.3733 41.9498C38.9706 41.2542 38.8044 40.7825 38.9142 39.9766C39.0714 39.7135 39.0714 39.7135 39.3126 39.5781C39.6161 39.5299 39.6161 39.5299 39.985 39.5366C40.1254 39.5387 40.2657 39.5407 40.4104 39.5428C40.7862 39.5696 41.1398 39.6112 41.5102 39.6715C42.5855 39.8909 42.5855 39.8909 43.6238 39.6917C43.8665 39.4485 44.0415 39.2032 44.2267 38.9141C44.3847 38.7293 44.5452 38.5467 44.7081 38.3662C44.9721 38.0646 45.2317 37.7611 45.4884 37.4531C45.8204 37.1875 45.8204 37.1875 46.2936 37.1128ZM45.5548 40.375C45.4462 40.5332 45.4462 40.5332 45.3353 40.6946C44.5475 41.7612 44.5475 41.7612 43.9297 41.9051C43.2274 41.9656 42.5353 41.9114 41.836 41.8359C41.9946 42.2506 42.1713 42.6303 42.3922 43.0146C42.6652 43.5616 42.6686 43.892 42.5001 44.4922C42.3692 44.8109 42.2304 45.1226 42.0804 45.4328C41.9511 45.6817 41.9511 45.6817 41.9689 45.9531C42.173 45.9197 42.173 45.9197 42.3813 45.8857C42.562 45.8583 42.7427 45.8309 42.9234 45.8037C43.0129 45.7888 43.1024 45.7739 43.1945 45.7586C43.7565 45.6763 44.1304 45.6652 44.6251 45.9531C44.9468 46.2405 44.9468 46.2405 45.256 46.5674C45.4422 46.7629 45.6299 46.9571 45.8204 47.1484C45.8642 47.1484 45.9081 47.1484 45.9532 47.1484C45.9647 47.0123 45.9762 46.8762 45.988 46.736C46.0067 46.5553 46.0255 46.3745 46.0445 46.1938C46.0516 46.1044 46.0587 46.0149 46.0661 45.9228C46.1438 45.2303 46.3467 44.9248 46.8829 44.4922C47.2383 44.253 47.2383 44.253 47.5885 44.0522C47.7058 43.9843 47.823 43.9163 47.9439 43.8463C48.032 43.7965 48.1202 43.7466 48.211 43.6953C47.8276 43.384 47.4631 43.2002 47.0074 43.0146C46.4048 42.72 46.4048 42.72 46.1862 42.3615C46.0842 42.0544 46.0137 41.7552 45.9532 41.4375C45.9013 41.2353 45.8488 41.0333 45.7955 40.8315C45.7599 40.6809 45.7243 40.5302 45.6876 40.375C45.6438 40.375 45.5999 40.375 45.5548 40.375Z" fill="#58B347"/>
<path d="M50.6016 13.1485C50.859 13.2979 50.859 13.2979 51.0001 13.5469C51.0665 13.9951 51.0665 13.9951 51.0001 14.4766C50.4638 15.1269 49.7702 15.5257 49.0577 15.9624C48.8318 16.1027 48.606 16.2429 48.3802 16.3832C48.231 16.4749 48.231 16.4749 48.0789 16.5685C47.8547 16.7082 47.634 16.8535 47.4141 17C46.8948 17.0567 46.6013 17.0779 46.1607 16.7842C45.8871 16.3683 45.8633 16.1613 45.9532 15.6719C46.4335 15.1221 46.9811 14.7363 47.5885 14.3438C47.677 14.2862 47.7655 14.2286 47.8567 14.1693C48.0304 14.0564 48.2043 13.9438 48.3784 13.8314C48.5696 13.7059 48.7569 13.5745 48.943 13.4416C49.5378 13.0245 49.9013 12.9287 50.6016 13.1485Z" fill="#58B347"/>
<path d="M20.9844 6.90625C21.663 7.47494 22.1223 8.21771 22.6113 8.94824C22.6959 9.07048 22.7805 9.19272 22.8676 9.31867C23.6541 10.49 23.6541 10.49 23.6406 11.2891C23.3215 11.7436 23.1244 11.9223 22.5781 12.0361C21.8424 11.8829 21.4854 11.2641 21.0824 10.6712C20.9299 10.4378 20.7783 10.2038 20.6274 9.96924C20.5503 9.85222 20.4732 9.73521 20.3937 9.61464C19.6697 8.49725 19.6697 8.49725 19.5234 7.83594C19.7247 7.03083 20.1768 6.79319 20.9844 6.90625Z" fill="#58B347"/>
<path d="M13.6797 15.1407C14.0959 15.2907 14.0959 15.2907 14.5118 15.4997C14.6628 15.5752 14.8138 15.6507 14.9694 15.7285C15.1245 15.8084 15.2796 15.8884 15.4395 15.9708C15.5981 16.0496 15.7569 16.1283 15.9157 16.2068C17.2183 16.867 17.2183 16.867 17.5312 17.3985C17.6013 17.8789 17.5923 18.1026 17.3237 18.5108C16.8802 18.8065 16.5978 18.7645 16.0703 18.7266C15.6541 18.5787 15.6541 18.5787 15.2382 18.3723C15.0872 18.2974 14.9362 18.2225 14.7806 18.1453C14.6255 18.0659 14.4704 17.9866 14.3105 17.9048C14.1534 17.828 13.9962 17.7513 13.8343 17.6722C13.684 17.5964 13.5337 17.5206 13.3788 17.4426C13.1738 17.3393 13.1738 17.3393 12.9647 17.2339C12.575 16.9716 12.4125 16.761 12.2188 16.336C12.2354 15.9195 12.2865 15.6476 12.501 15.2901C12.8938 15.0544 13.2289 15.1121 13.6797 15.1407Z" fill="#58B347"/>
<path d="M42.2345 5.71092C42.5499 5.91844 42.5499 5.91844 42.7657 6.24217C42.8227 6.93505 42.7184 7.38516 42.4114 8.00401C42.3365 8.15501 42.2616 8.30602 42.1844 8.46159C42.1051 8.6167 42.0257 8.77181 41.9439 8.93162C41.8288 9.16737 41.8288 9.16737 41.7113 9.40788C41.6355 9.5582 41.5597 9.70852 41.4817 9.86339C41.4128 10.0001 41.344 10.1367 41.273 10.2775C41.0107 10.6672 40.7998 10.8291 40.3751 11.0234C39.9117 11.0142 39.676 10.9787 39.3292 10.6665C39.1344 10.2661 39.147 10.0064 39.1798 9.56248C39.3298 9.16136 39.3298 9.16136 39.5388 8.7433C39.6143 8.59187 39.6898 8.44044 39.7676 8.28442C39.8074 8.20671 39.8472 8.12899 39.8883 8.04892C40.0097 7.81131 40.1279 7.5723 40.2459 7.33295C41.145 5.55203 41.145 5.55203 42.2345 5.71092Z" fill="#58B347"/>
<path d="M15.5225 25.9898C15.7195 26.3947 15.7369 26.6485 15.672 27.0938C15.407 27.4708 15.2423 27.6031 14.7905 27.7008C13.8932 27.8154 12.9892 27.8492 12.086 27.8907C11.9364 27.898 11.7868 27.9054 11.6326 27.913C11.442 27.9184 11.442 27.9184 11.2476 27.9239C11.1386 27.9273 11.0295 27.9307 10.9172 27.9342C10.544 27.8786 10.3665 27.7492 10.0938 27.4922C9.93538 27.0063 9.91764 26.7883 10.1353 26.3218C10.3595 26.0313 10.3595 26.0313 10.6251 25.8985C11.1643 25.8381 11.7056 25.8044 12.2469 25.7677C12.5149 25.7493 12.7827 25.7292 13.0505 25.7091C13.3055 25.6914 13.3055 25.6914 13.5656 25.6733C13.7211 25.6623 13.8766 25.6514 14.0368 25.64C15.1144 25.6224 15.1144 25.6224 15.5225 25.9898Z" fill="#58B347"/>
<path d="M31.0864 3.37842C31.5706 3.47113 31.7021 3.60319 32.0078 3.98438C32.0925 4.34692 32.0925 4.34692 32.1178 4.75894C32.128 4.90883 32.1383 5.05872 32.1489 5.21315C32.1571 5.3692 32.1653 5.52525 32.1738 5.68604C32.1841 5.84055 32.1943 5.99506 32.2049 6.15425C32.3504 8.43594 32.3504 8.43594 32.0078 8.89844C31.6674 9.1537 31.4988 9.16543 31.0698 9.13916C30.6542 9.02422 30.5351 8.96933 30.2812 8.63281C30.2116 8.28745 30.2116 8.28745 30.1842 7.87589C30.1735 7.72617 30.1628 7.57645 30.1518 7.4222C30.1424 7.26563 30.1331 7.10906 30.1235 6.94775C30.1126 6.79376 30.1018 6.63976 30.0906 6.48109C30.0612 6.0474 30.0367 5.61386 30.0156 5.17969C30.0102 5.06967 30.0047 4.95965 29.9991 4.84629C29.9849 4.33548 29.993 4.14914 30.2978 3.71875C30.6797 3.45312 30.6797 3.45312 31.0864 3.37842Z" fill="#58B347"/>
<path d="M52.2219 23.4936C52.4924 23.4813 52.7631 23.4737 53.0338 23.4663C53.1921 23.4614 53.3505 23.4564 53.5137 23.4513C53.9219 23.5078 53.9219 23.5078 54.2384 23.747C54.4532 24.0391 54.4532 24.0391 54.5279 24.5039C54.4532 24.9688 54.4532 24.9688 54.1668 25.2572C53.4861 25.6948 52.7174 25.6163 51.9298 25.6328C51.8177 25.6363 51.7057 25.6397 51.5903 25.6432C51.2303 25.6536 50.8704 25.6605 50.5103 25.666C50.3943 25.6689 50.2783 25.6718 50.1588 25.6747C49.9951 25.6756 49.9951 25.6756 49.8281 25.6764C49.7307 25.6777 49.6334 25.6789 49.5331 25.6802C49.1993 25.6193 49.0827 25.4973 48.8751 25.2344C48.8012 24.8752 48.8185 24.5335 48.8751 24.1719C49.1157 23.8167 49.2573 23.7789 49.6719 23.6407C50.5204 23.5636 51.3712 23.5351 52.2219 23.4936Z" fill="#58B347"/>
</svg>
