<svg width="68" height="68" viewBox="0 0 68 68" fill="none" xmlns="http://www.w3.org/2000/svg">
<path d="M29.2811 2.05621C29.3943 2.05528 29.5075 2.05435 29.6242 2.05339C29.9982 2.05105 30.3721 2.0526 30.7462 2.0544C31.0062 2.05404 31.2662 2.05352 31.5262 2.05286C32.071 2.05207 32.6158 2.05321 33.1607 2.05569C33.8592 2.05872 34.5576 2.05698 35.2561 2.0538C35.793 2.05188 36.3298 2.05249 36.8667 2.05386C37.1243 2.05422 37.3818 2.05378 37.6394 2.05255C37.9994 2.0512 38.3591 2.05325 38.7191 2.05621C38.8256 2.05514 38.9321 2.05406 39.0419 2.05295C39.4843 2.0597 39.7754 2.07434 40.1366 2.34164C40.4479 2.75223 40.4423 2.9941 40.444 3.50665C40.4468 3.76924 40.4468 3.76924 40.4496 4.03714C40.449 4.2309 40.4483 4.42467 40.4476 4.61843C40.4487 4.82263 40.4501 5.02683 40.4517 5.23103C40.4554 5.7853 40.4559 6.33952 40.4558 6.89379C40.4562 7.47306 40.4596 8.05232 40.4627 8.63159C40.468 9.72847 40.4707 10.8253 40.4725 11.9222C40.4746 13.171 40.4797 14.4198 40.485 15.6686C40.496 18.2374 40.5032 20.8061 40.5079 23.375C40.5892 23.2645 40.5892 23.2645 40.6722 23.1517C40.919 22.8166 41.1658 22.4815 41.4127 22.1464C41.498 22.0305 41.5834 21.9146 41.6713 21.7952C41.7539 21.6831 41.8365 21.5709 41.9216 21.4554C42.0353 21.301 42.0353 21.301 42.1513 21.1435C42.2944 20.95 42.4438 20.761 42.5992 20.5773C42.8169 20.3045 42.8169 20.3045 42.6884 19.8539C42.6354 19.6686 42.5808 19.4837 42.525 19.2993C41.9463 17.1327 42.0891 14.9115 43.1569 12.9061C45.1718 9.79182 48.4753 7.68216 51.5313 5.71089C51.6565 5.62871 51.7816 5.54654 51.9106 5.46187C52.3887 5.21106 52.7226 5.26147 53.2579 5.31245C53.7054 5.53122 53.7861 5.70282 53.9629 6.17573C54.0154 6.37432 54.0651 6.57362 54.1129 6.77339C54.1536 6.93577 54.1536 6.93577 54.1952 7.10143C54.8021 9.60152 55.2749 12.1234 55.282 14.6985C55.2833 14.9809 55.2874 15.2631 55.2916 15.5455C55.3089 17.7489 54.6629 19.7503 53.1251 21.3828C52.0963 22.3393 52.0963 22.3393 51.4531 22.567C51.004 22.7458 50.6948 22.9151 50.336 23.2421C50.0569 23.9745 49.9866 24.7074 49.9127 25.4834C49.8879 25.6909 49.8626 25.8985 49.8367 26.1059C49.7747 26.6117 49.7211 27.1178 49.6719 27.625C49.7893 27.624 49.7893 27.624 49.909 27.6231C51.8122 27.6084 53.7154 27.5974 55.6186 27.5905C56.539 27.5871 57.4594 27.5825 58.3798 27.5749C59.2676 27.5675 60.1554 27.5637 61.0433 27.562C61.3824 27.5607 61.7215 27.5583 62.0606 27.5547C62.5348 27.5499 63.0088 27.5493 63.483 27.5496C63.6239 27.5472 63.7648 27.5448 63.91 27.5423C64.8588 27.549 64.8588 27.549 65.2937 27.9302C65.5436 28.4204 65.6391 28.8949 65.7091 29.4345C65.7251 29.5562 65.7411 29.6778 65.7576 29.8031C66.0794 32.6999 66.0842 35.8059 65.7174 38.6982C65.6973 38.8658 65.6973 38.8658 65.6768 39.0367C65.5659 39.736 65.3785 40.0855 64.8126 40.5078C64.354 40.5983 63.9062 40.5852 63.4403 40.5726C63.3086 40.5717 63.1769 40.5707 63.0412 40.5698C62.6216 40.5661 62.2023 40.5577 61.7828 40.5493C61.4979 40.5459 61.213 40.5429 60.9281 40.5402C60.2306 40.5329 59.5333 40.5218 58.836 40.5078C58.8014 40.6578 58.8014 40.6578 58.7661 40.8109C58.5527 41.7034 58.2964 42.5481 57.9478 43.3964C57.8801 43.5652 57.8801 43.5652 57.8109 43.7373C57.4618 44.5899 57.0651 45.4124 56.6131 46.2155C56.359 46.6474 56.359 46.6474 56.3845 47.1232C56.6663 47.5463 57.0219 47.8875 57.3839 48.241C57.4628 48.3192 57.5417 48.3974 57.623 48.478C57.8745 48.7272 58.1269 48.9754 58.3795 49.2236C58.6324 49.4728 58.885 49.7222 59.1374 49.972C59.2943 50.1273 59.4515 50.2822 59.6092 50.4368C60.2792 51.0986 60.2792 51.0986 60.3421 51.6905C60.2881 52.2946 60.068 52.6352 59.7076 53.1001C59.6476 53.1805 59.5876 53.261 59.5258 53.344C58.983 54.0616 58.3872 54.7253 57.7735 55.3828C57.6179 55.562 57.4629 55.7419 57.3087 55.9223C56.0941 57.3096 54.7032 58.4418 53.2496 59.5664C53.1751 59.624 53.1007 59.6816 53.024 59.7409C52.4768 60.1606 52.1344 60.3718 51.4226 60.3573C51.0713 60.284 50.9282 60.1689 50.6649 59.9269C50.5272 59.8004 50.5272 59.8004 50.3867 59.6714C49.741 59.0503 49.1075 58.4177 48.4766 57.7817C48.3343 57.6387 48.192 57.4958 48.0497 57.3529C47.7046 57.0064 47.3601 56.6596 47.0157 56.3125C46.7841 56.4257 46.7841 56.4257 46.5477 56.5412C45.4583 57.0688 44.3656 57.5791 43.2388 58.0224C43.1028 58.0769 43.1028 58.0769 42.9639 58.1324C42.1638 58.4401 41.3415 58.6399 40.5079 58.8359C40.51 59.0054 40.5121 59.1749 40.5142 59.3496C40.5214 59.9795 40.526 60.6094 40.5298 61.2394C40.5318 61.5119 40.5345 61.7843 40.5379 62.0568C40.5428 62.4488 40.545 62.8407 40.5468 63.2327C40.5488 63.3542 40.5509 63.4757 40.553 63.6009C40.5532 64.2452 40.5395 64.6939 40.1094 65.2109C39.5777 65.5654 39.0946 65.6021 38.4695 65.6892C38.2836 65.7153 38.2836 65.7153 38.0939 65.7418C36.7536 65.9159 35.4245 65.9365 34.0748 65.9248C33.951 65.9242 33.8273 65.9237 33.6997 65.9232C32.2723 65.916 30.8518 65.8958 29.4346 65.7089C29.3229 65.6945 29.2112 65.68 29.0962 65.665C28.4739 65.5637 28.0612 65.4066 27.6251 64.9453C27.5032 64.5751 27.4732 64.2297 27.465 63.8417C27.4623 63.73 27.4597 63.6184 27.457 63.5034C27.4536 63.3244 27.4536 63.3244 27.4502 63.1419C27.4475 63.0189 27.4447 62.8958 27.4419 62.769C27.4332 62.3766 27.4254 61.9842 27.4175 61.5918C27.4118 61.3254 27.406 61.0591 27.4002 60.7928C27.386 60.1405 27.3725 59.4882 27.3594 58.8359C27.2775 58.8107 27.1955 58.7854 27.1111 58.7594C25.4331 58.2369 23.8278 57.6629 22.2598 56.8637C22.1519 56.8092 22.044 56.7546 21.9328 56.6984C21.839 56.6496 21.7453 56.6007 21.6486 56.5503C21.3482 56.4127 21.3482 56.4127 20.8516 56.4453C20.5458 56.7063 20.2731 56.9653 19.9956 57.2541C19.9145 57.3363 19.8333 57.4185 19.7497 57.5032C19.4904 57.7664 19.233 58.0313 18.9757 58.2963C18.7171 58.5606 18.4581 58.8245 18.1988 59.088C18.0375 59.2522 17.8767 59.4169 17.7163 59.582C17.0467 60.2675 17.0467 60.2675 16.4107 60.3715C15.5577 60.3592 14.9731 59.7498 14.3438 59.2343C14.2243 59.1402 14.1048 59.046 13.9817 58.949C13.0447 58.201 12.1617 57.3992 11.2891 56.5781C11.2016 56.4962 11.1142 56.4144 11.024 56.3301C10.0574 55.3969 9.25364 54.3102 8.43366 53.2495C8.37608 53.1751 8.31851 53.1006 8.25918 53.024C7.83693 52.4734 7.63358 52.1358 7.64502 51.4205C7.75806 50.8613 8.17175 50.5351 8.57478 50.1574C8.66321 50.0705 8.75165 49.9836 8.84277 49.894C9.12457 49.6181 9.40984 49.3462 9.69538 49.0742C9.88758 48.8873 10.0795 48.7002 10.2712 48.5128C10.7406 48.0551 11.2132 47.6009 11.6876 47.1484C11.534 46.666 11.3678 46.2127 11.1382 45.7616C9.16413 41.8015 9.16413 41.8015 9.16413 40.5078C9.09044 40.5089 9.01674 40.5101 8.94081 40.5113C8.17384 40.5231 7.40689 40.5311 6.63985 40.5369C6.35359 40.5396 6.06734 40.5432 5.78111 40.5478C5.36966 40.5543 4.95831 40.5573 4.54682 40.5596C4.41883 40.5624 4.29085 40.5651 4.15898 40.568C3.28341 40.5682 3.28341 40.5682 2.85359 40.297C1.82899 38.6324 2.07622 36.0043 2.08357 34.1162C2.08376 33.9907 2.08396 33.8653 2.08416 33.7361C2.08826 32.2961 2.10068 30.864 2.29108 29.4345C2.31283 29.2671 2.31283 29.2671 2.33502 29.0962C2.43871 28.4588 2.56483 28.0508 3.05476 27.625C3.56102 27.5224 4.06303 27.5334 4.57808 27.5374C4.7336 27.536 4.88913 27.5346 5.04937 27.5332C5.56394 27.5293 6.07839 27.5302 6.59296 27.5311C6.94953 27.5297 7.30609 27.5273 7.66265 27.525C8.50554 27.52 9.3484 27.5184 10.1913 27.518C11.151 27.5174 12.1107 27.513 13.0704 27.5083C15.0444 27.4987 17.0183 27.4939 18.9923 27.4921C18.6079 26.4379 18.2233 25.3836 17.8387 24.3294C17.66 23.8397 17.4814 23.3499 17.3028 22.8601C17.1298 22.3856 16.9567 21.9111 16.7835 21.4366C16.7182 21.2575 16.6528 21.0784 16.5875 20.8992C16.4946 20.6442 16.4015 20.3892 16.3084 20.1343C16.2485 19.97 16.1887 19.8056 16.1269 19.6363C15.9941 19.2747 15.857 18.9148 15.7178 18.5556C15.6631 18.4135 15.6631 18.4135 15.6074 18.2685C15.5377 18.0878 15.4672 17.9073 15.3959 17.7272C15.0808 16.9074 15.0201 16.1435 15.0079 15.2734C14.9975 15.0148 14.9872 14.7563 14.9765 14.4977C14.958 14.0204 14.9456 13.5429 14.9332 13.0654C14.9305 12.9638 14.9279 12.8622 14.9252 12.7576C14.9089 12.1127 14.8946 11.4677 14.8817 10.8227C14.8773 10.6015 14.8727 10.3802 14.8679 10.159C14.8541 9.50938 14.8433 8.85988 14.8371 8.21018C14.8347 8.00593 14.8315 7.80168 14.8274 7.59746C14.8218 7.31305 14.8197 7.0288 14.8185 6.74434C14.8166 6.58281 14.8146 6.42128 14.8127 6.25485C14.8876 5.76113 15.0132 5.61042 15.4063 5.31245C15.8476 5.17162 16.0835 5.12577 16.5098 5.31764C16.9886 5.66649 17.3172 6.0851 17.6807 6.54927C17.7563 6.64403 17.8319 6.73879 17.9098 6.83642C18.139 7.12439 18.3666 7.41352 18.5938 7.70308C18.658 7.78464 18.7221 7.86619 18.7882 7.95022C19.0263 8.25294 19.2642 8.55581 19.5012 8.85935C19.8965 9.36465 20.2983 9.86413 20.704 10.361C20.9955 10.7179 21.2855 11.0759 21.5754 11.4341C21.7084 11.5978 21.842 11.761 21.9763 11.9237C22.1566 12.1424 22.3344 12.3629 22.5118 12.5839C22.6118 12.7065 22.7118 12.8291 22.8148 12.9554C23.5857 14.0453 23.9596 15.4824 24.4158 16.726C24.4745 16.8855 24.5333 17.045 24.5938 17.2093C24.7175 17.5449 24.8409 17.8807 24.9641 18.2165C25.1189 18.6382 25.2742 19.0598 25.4297 19.4814C25.5817 19.8937 25.7333 20.3062 25.885 20.7187C25.9391 20.8656 25.9933 21.0125 26.049 21.1638C26.5448 22.5155 27.019 23.8746 27.4923 25.2343C27.4925 25.1185 27.4926 25.0026 27.4928 24.8832C27.4978 22.0656 27.5056 19.248 27.5167 16.4304C27.522 15.0678 27.5263 13.7053 27.5282 12.3427C27.53 11.1553 27.5335 9.96786 27.5394 8.78045C27.5424 8.15154 27.5444 7.52266 27.5443 6.89375C27.5442 6.30202 27.5466 5.71035 27.5508 5.11864C27.552 4.90127 27.5522 4.68389 27.5515 4.46652C27.5506 4.17002 27.553 3.87372 27.5561 3.57724C27.5569 3.32823 27.5569 3.32823 27.5576 3.07418C27.7187 2.07574 28.4081 2.0474 29.2811 2.05621ZM29.7501 4.24995C29.7501 5.65245 29.7501 7.05495 29.7501 8.49995C30.8019 8.49995 31.8538 8.49995 32.9376 8.49995C32.9376 9.2012 32.9376 9.90245 32.9376 10.625C31.8857 10.625 30.8338 10.625 29.7501 10.625C29.7501 12.0275 29.7501 13.43 29.7501 14.875C30.8019 14.875 31.8538 14.875 32.9376 14.875C32.9376 15.5762 32.9376 16.2775 32.9376 17C31.8857 17 30.8338 17 29.7501 17C29.7501 18.4025 29.7501 19.805 29.7501 21.25C30.8019 21.25 31.8538 21.25 32.9376 21.25C32.9376 21.9512 32.9376 22.6525 32.9376 23.375C31.8857 23.375 30.8338 23.375 29.7501 23.375C29.7501 24.7775 29.7501 26.18 29.7501 27.625C30.8019 27.625 31.8538 27.625 32.9376 27.625C32.9376 28.3262 32.9376 29.0275 32.9376 29.75C31.8857 29.75 30.8338 29.75 29.7501 29.75C29.6874 31.2026 29.8303 32.2482 30.3565 33.6202C30.4201 33.7928 30.4834 33.9656 30.5464 34.1384C30.7116 34.5892 30.8805 35.0384 31.0503 35.4874C31.2197 35.9372 31.3855 36.3883 31.5516 36.8393C31.8063 37.5299 32.0633 38.2196 32.3223 38.9086C32.5406 39.4898 32.7555 40.072 32.965 40.6564C33.008 40.7758 33.0509 40.8951 33.0952 41.0181C33.1726 41.2339 33.2493 41.4499 33.3251 41.6662C33.4769 42.1783 33.4769 42.1783 33.8673 42.5C33.8892 42.4312 33.9111 42.3625 33.9336 42.2916C34.2211 41.3898 34.5089 40.488 34.7969 39.5864C34.8439 39.4395 34.8908 39.2925 34.9392 39.1412C35.7676 36.5491 36.6086 33.9613 37.4576 31.3759C37.501 31.2436 37.5444 31.1112 37.5891 30.9748C37.6701 30.7279 37.7512 30.4811 37.8325 30.2343C37.8683 30.1253 37.904 30.0162 37.9408 29.9038C37.9719 29.8094 38.0029 29.715 38.0349 29.6178C38.0621 29.5299 38.0893 29.442 38.1173 29.3515C38.1405 29.2789 38.1638 29.2063 38.1878 29.1315C38.2749 28.696 38.2679 28.2658 38.266 27.8236C38.2662 27.7228 38.2663 27.622 38.2664 27.5182C38.2666 27.1803 38.2659 26.8424 38.2651 26.5045C38.2651 26.2623 38.2651 26.0202 38.2652 25.778C38.2652 25.1203 38.2645 24.4626 38.2635 23.8049C38.2627 23.1177 38.2626 22.4305 38.2625 21.7433C38.2621 20.4418 38.261 19.1403 38.2596 17.8388C38.2581 16.3572 38.2574 14.8755 38.2568 13.3939C38.2554 10.3459 38.2529 7.29794 38.2501 4.24995C35.4451 4.24995 32.6401 4.24995 29.7501 4.24995ZM51.3228 8.55131C51.2267 8.62032 51.1305 8.68933 51.0315 8.76042C50.928 8.83608 50.8245 8.91175 50.7178 8.9897C50.6111 9.0675 50.5043 9.1453 50.3943 9.22546C46.5019 11.9561 46.5019 11.9561 44.4923 16.0703C44.3499 17.5943 44.5217 18.9809 45.5216 20.1875C46.2843 20.9643 47.0445 21.3284 48.1347 21.3952C49.5135 21.345 50.6274 20.6125 51.5562 19.6396C53.1276 17.7577 53.2122 15.7505 53.0146 13.4146C52.8433 11.6988 52.6096 9.87553 52.0626 8.23433C51.7163 8.23433 51.6028 8.34981 51.3228 8.55131ZM17.1329 9.82808C17.1767 11.4935 17.2205 13.159 17.2657 14.875C18.2737 14.5243 19.2818 14.1737 20.3204 13.8125C19.9252 13.0894 19.9252 13.0894 19.455 12.461C19.3962 12.3928 19.3374 12.3246 19.2768 12.2543C19.2157 12.1851 19.1547 12.1158 19.0919 12.0444C18.9627 11.8951 18.8337 11.7457 18.7048 11.5961C18.6415 11.5227 18.5781 11.4493 18.5128 11.3736C18.1491 10.9452 17.805 10.5011 17.4597 10.0579C17.3957 9.98206 17.3317 9.90622 17.2657 9.82808C17.2219 9.82808 17.178 9.82808 17.1329 9.82808ZM20.3391 16.0661C20.191 16.12 20.0429 16.174 19.8903 16.2295C19.7364 16.2865 19.5825 16.3436 19.4239 16.4023C19.2679 16.4593 19.112 16.5163 18.9513 16.5751C18.5662 16.7159 18.1815 16.8576 17.7969 17C17.8755 17.8662 18.1552 18.6264 18.4548 19.4393C18.5089 19.5883 18.563 19.7372 18.6187 19.8907C18.7667 20.2976 18.9155 20.7043 19.0647 21.1108C19.2231 21.5431 19.3805 21.9759 19.5381 22.4085C20.4442 24.8949 21.3604 27.3776 22.2776 29.86C23.0998 32.0854 23.9121 34.3141 24.7151 36.5466C24.9297 37.143 25.1452 37.739 25.3611 38.3349C25.8951 39.8096 26.4257 41.2849 26.935 42.7684C27.1455 43.3801 27.3598 43.9905 27.5747 44.6007C27.6736 44.8849 27.7707 45.1697 27.8658 45.4551C27.9962 45.8457 28.1326 46.2338 28.2705 46.6218C28.3066 46.7357 28.3428 46.8495 28.38 46.9668C28.5558 47.4442 28.6833 47.7298 29.1277 47.9978C30.0029 48.3581 30.9272 48.6093 31.8751 48.6093C31.9872 48.2722 32.0976 47.9346 32.2071 47.5966C32.2546 47.4546 32.2546 47.4546 32.3031 47.3097C32.348 47.1698 32.348 47.1698 32.3939 47.027C32.4217 46.9421 32.4495 46.8573 32.4782 46.7699C32.6821 45.8148 32.3493 45.0709 32.0131 44.1871C31.9577 44.0383 31.9023 43.8896 31.8453 43.7363C31.6942 43.331 31.542 42.926 31.3894 42.5212C31.2285 42.0933 31.069 41.6647 30.9096 41.2362C30.8775 41.15 30.8454 41.0638 30.8124 40.9749C30.7473 40.7999 30.6822 40.6249 30.6171 40.4499C30.5185 40.1849 30.4197 39.9199 30.3209 39.6549C29.7191 38.0402 29.135 36.4194 28.5548 34.7968C27.6594 32.2974 26.7458 29.805 25.8251 27.3147C24.8495 24.675 23.8886 22.0301 22.9351 19.3823C22.8861 19.246 22.8861 19.246 22.836 19.107C22.4397 18.0064 22.0439 16.9056 21.6485 15.8046C21.1197 15.8046 20.8286 15.8863 20.3391 16.0661ZM44.2266 22.1796C43.9403 22.566 43.6558 22.9538 43.3717 23.3418C43.2498 23.5061 43.2498 23.5061 43.1255 23.6738C43.0093 23.833 43.0093 23.833 42.8907 23.9954C42.8191 24.0928 42.7474 24.1902 42.6736 24.2905C42.5029 24.5657 42.4251 24.785 42.3673 25.1015C43.0188 25.3707 43.671 25.6378 44.3241 25.9032C44.5462 25.9938 44.768 26.0849 44.9896 26.1765C45.3082 26.3081 45.6275 26.4378 45.947 26.5671C46.0459 26.6085 46.1448 26.6498 46.2468 26.6924C46.7747 26.9037 46.9781 26.9703 47.5469 26.8281C47.7442 25.2503 47.7442 25.2503 47.9454 23.6406C47.6413 23.5666 47.3373 23.4927 47.024 23.4165C46.1875 23.2023 45.4916 22.9052 44.7579 22.4453C44.5813 22.3558 44.4043 22.2671 44.2266 22.1796ZM41.1719 26.9609C39.7197 31.2564 38.3334 35.5735 36.9417 39.8889C36.7204 40.575 36.4989 41.261 36.2773 41.947C35.9781 42.8732 35.6791 43.7994 35.3804 44.7256C35.2684 45.0726 35.1564 45.4196 35.0443 45.7665C34.8901 46.2442 34.7361 46.722 34.5822 47.1998C34.5362 47.3418 34.4903 47.4838 34.443 47.6302C34.4018 47.7582 34.3606 47.8863 34.3182 48.0183C34.2821 48.1299 34.2461 48.2416 34.209 48.3566C34.1265 48.5865 34.1265 48.5865 34.1329 48.7421C34.9754 48.7663 35.8182 48.7741 36.6563 48.6757C36.7686 48.6634 36.8809 48.6511 36.9967 48.6384C37.8233 48.2251 38.2285 46.9551 38.6148 46.1549C38.6737 46.0342 38.7326 45.9134 38.7932 45.789C38.9863 45.393 39.1785 44.9965 39.3707 44.6001C39.507 44.3201 39.6433 44.0402 39.7797 43.7602C40.0614 43.1821 40.3427 42.6037 40.6239 42.0253C41.193 40.8551 41.7651 39.6863 42.3371 38.5175C42.5163 38.1511 42.6954 37.7846 42.8744 37.4181C43.4359 36.2686 43.998 35.1194 44.5622 33.9713C44.8249 33.4369 45.0871 32.9023 45.3492 32.3677C45.4745 32.1126 45.5999 31.8576 45.7254 31.6028C45.8983 31.2519 46.0706 30.9007 46.2427 30.5494C46.3203 30.3926 46.3203 30.3926 46.3994 30.2326C46.658 29.7484 46.658 29.7484 46.7501 29.2187C46.0839 28.9395 45.4176 28.6606 44.7511 28.3821C44.5246 28.2874 44.2981 28.1926 44.0717 28.0977C43.7454 27.961 43.419 27.8246 43.0925 27.6882C42.9921 27.646 42.8916 27.6038 42.7881 27.5604C42.2551 27.3383 41.7229 27.1354 41.1719 26.9609ZM4.64851 29.75C4.48199 30.749 4.34243 31.6151 4.3476 32.6054C4.34735 32.7173 4.34709 32.8292 4.34683 32.9445C4.34665 33.1784 4.34713 33.4122 4.34825 33.6461C4.34968 33.9993 4.34826 34.3524 4.34657 34.7055C4.34572 35.9115 4.38451 37.0665 4.64851 38.25C4.82275 38.2512 4.99699 38.2524 5.17651 38.2537C5.82307 38.259 6.46954 38.2677 7.11604 38.2775C7.39584 38.2813 7.67565 38.2841 7.95546 38.2859C8.35773 38.2888 8.75983 38.295 9.16206 38.3018C9.28714 38.302 9.41222 38.3022 9.5411 38.3023C10.402 38.3216 10.402 38.3216 10.8259 38.6088C11.0454 38.9478 11.1594 39.2382 11.2658 39.6279C11.3058 39.7684 11.3459 39.9089 11.3872 40.0537C11.4288 40.2035 11.4704 40.3534 11.5133 40.5078C12.1381 42.6409 12.9554 44.6111 14.1664 46.4786C14.3992 47.009 14.3588 47.253 14.211 47.8125C13.9626 48.159 13.6629 48.4381 13.3508 48.7271C13.2652 48.81 13.1796 48.8929 13.0914 48.9783C12.819 49.2419 12.5441 49.5028 12.2686 49.7631C11.9923 50.0251 11.7167 50.2875 11.443 50.5522C11.273 50.7166 11.1014 50.8794 10.9282 51.0404C10.6679 51.2842 10.6679 51.2842 10.3594 51.664C10.4192 52.2337 10.784 52.5933 11.148 53.0087C11.2173 53.0884 11.2865 53.168 11.3579 53.2501C12.7814 54.8614 14.2778 56.4385 16.0704 57.6406C16.6218 57.4259 16.9769 57.022 17.3762 56.603C17.5275 56.4476 17.6789 56.2923 17.8304 56.1371C18.0672 55.893 18.3034 55.6483 18.5385 55.4026C18.7666 55.1648 18.9967 54.9292 19.2273 54.6938C19.3309 54.5838 19.3309 54.5838 19.4366 54.4716C19.91 53.9918 20.2996 53.7699 20.9844 53.6562C21.3601 53.7894 21.6485 53.9187 21.9888 54.1127C22.082 54.1622 22.1751 54.2117 22.2711 54.2627C22.552 54.4121 22.8309 54.5648 23.1094 54.7187C24.8307 55.6637 26.6408 56.2383 28.5098 56.8211C28.6169 56.8553 28.724 56.8894 28.8344 56.9246C28.9282 56.954 29.0221 56.9834 29.1188 57.0137C29.3516 57.1093 29.3516 57.1093 29.6173 57.375C29.6542 57.6338 29.6542 57.6338 29.6596 57.9537C29.6636 58.1332 29.6636 58.1332 29.6676 58.3163C29.6699 58.5103 29.6699 58.5103 29.6722 58.7083C29.6761 58.9067 29.6761 58.9067 29.68 59.1091C29.688 59.5327 29.6942 59.9562 29.7003 60.3798C29.7053 60.6666 29.7105 60.9533 29.7158 61.24C29.7286 61.9438 29.7399 62.6477 29.7501 63.3515C31.0545 63.627 32.3191 63.6581 33.6462 63.6518C33.9994 63.6503 34.3525 63.6518 34.7056 63.6535C35.9149 63.6543 37.0619 63.6024 38.2501 63.3515C38.2508 63.2775 38.2516 63.2035 38.2524 63.1273C38.2609 62.3581 38.2721 61.5891 38.2849 60.8199C38.2893 60.5328 38.2931 60.2456 38.2961 59.9585C38.3005 59.546 38.3075 59.1337 38.3149 58.7212C38.3158 58.5926 38.3166 58.4639 38.3175 58.3313C38.3214 58.1519 38.3214 58.1519 38.3255 57.9688C38.3277 57.8109 38.3277 57.8109 38.3299 57.6498C38.3959 57.3076 38.5118 57.1908 38.7813 56.9765C39.0404 56.875 39.0404 56.875 39.337 56.8006C39.4478 56.7715 39.5587 56.7423 39.673 56.7123C39.7924 56.6817 39.9117 56.6511 40.0347 56.6196C42.0814 56.0612 44.0037 55.3337 45.8091 54.2073C46.3358 53.8909 46.7915 53.6684 47.4171 53.7122C47.9803 53.8769 48.3423 54.309 48.7423 54.7187C48.8602 54.8344 48.9782 54.9501 49.0997 55.0693C49.4932 55.4554 49.8815 55.8463 50.2696 56.2377C50.4055 56.3743 50.5414 56.5108 50.6774 56.6473C51.0067 56.9781 51.3355 57.3092 51.6641 57.6406C53.7551 56.854 56.5388 53.9882 57.6407 52.0625C57.5586 51.4357 57.125 51.1125 56.6861 50.6985C56.5176 50.5351 56.3492 50.3716 56.1808 50.208C55.9148 49.9519 55.6483 49.6965 55.3807 49.4422C55.1223 49.1959 54.8665 48.9472 54.6109 48.698C54.5307 48.6232 54.4504 48.5483 54.3678 48.4711C53.9791 48.0896 53.8048 47.8678 53.6527 47.3318C53.6565 46.858 53.7117 46.6503 53.9546 46.2509C54.0215 46.1364 54.0885 46.0219 54.1574 45.904C54.2304 45.7832 54.3033 45.6625 54.3785 45.538C55.4911 43.5998 56.2334 41.5724 56.8453 39.427C57.067 38.6767 57.067 38.6767 57.5079 38.3828C57.7776 38.3458 57.7776 38.3458 58.0896 38.3404C58.2065 38.3378 58.3235 38.3351 58.444 38.3324C58.5698 38.3309 58.6955 38.3294 58.8251 38.3278C58.9543 38.3252 59.0834 38.3226 59.2165 38.32C59.6292 38.312 60.0419 38.3059 60.4547 38.2998C60.7344 38.2947 61.0141 38.2895 61.2938 38.2842C61.9797 38.2714 62.6657 38.2603 63.3516 38.25C63.7421 37.4691 63.6384 36.3931 63.6396 35.5372C63.64 35.4218 63.6405 35.3064 63.6409 35.1875C63.6416 34.945 63.6419 34.7024 63.6419 34.4599C63.6422 34.0936 63.6446 33.7273 63.6471 33.3611C63.6475 33.1235 63.6477 32.886 63.6479 32.6485C63.6493 32.4878 63.6493 32.4878 63.6508 32.3238C63.6472 31.4194 63.5057 30.6743 63.3516 29.75C59.1441 29.75 54.9366 29.75 50.6016 29.75C50.6893 30.4512 50.7769 31.1525 50.8673 31.875C50.8972 32.5758 50.918 33.2663 50.9171 33.9668C50.917 34.1044 50.917 34.1044 50.9168 34.2448C50.9083 36.6089 50.4907 38.7409 49.5391 40.9062C49.5015 40.9931 49.4639 41.08 49.4251 41.1695C48.1231 44.1189 45.9104 46.656 43.1641 48.3437C43.0215 48.4346 42.8789 48.5255 42.732 48.6192C39.0309 50.8707 34.319 51.5335 30.0978 50.5799C29.0633 50.3183 28.07 49.968 27.0938 49.539C26.9635 49.4826 26.9635 49.4826 26.8305 49.425C22.8752 47.6789 19.8008 44.3535 18.2125 40.3489C17.9523 39.6584 17.7323 38.9597 17.5313 38.25C17.4633 38.0152 17.4633 38.0152 17.3938 37.7758C17.099 36.5277 17.0953 35.2757 17.0914 34C17.0906 33.8664 17.0906 33.8664 17.0899 33.7302C17.086 32.3739 17.2288 31.1076 17.3985 29.75C13.191 29.75 8.98351 29.75 4.64851 29.75ZM19.7891 29.75C19.0294 32.3142 18.8789 35.272 19.6563 37.8515C19.682 37.9391 19.7077 38.0267 19.7341 38.1169C20.3434 40.1498 21.3074 41.965 22.711 43.5625C22.799 43.6695 22.887 43.7765 22.9777 43.8867C23.7976 44.8534 24.756 45.596 25.7657 46.3515C25.9314 46.0933 25.9314 46.0933 25.8291 45.8237C25.7885 45.7155 25.7479 45.6072 25.706 45.4957C25.6599 45.3713 25.6138 45.2469 25.5663 45.1187C25.5143 44.9814 25.4623 44.8442 25.4088 44.7028C25.3549 44.558 25.301 44.4133 25.2456 44.2642C25.0968 43.8645 24.9471 43.4653 24.7972 43.0661C24.542 42.3855 24.2892 41.704 24.0362 41.0226C23.9696 40.8433 23.903 40.6639 23.8363 40.4846C23.2984 39.0368 22.7724 37.5851 22.2529 36.1307C22.218 36.033 22.1831 35.9353 22.1471 35.8347C21.8042 34.8752 21.462 33.9155 21.1215 32.9551C20.9949 32.5987 20.8678 32.2424 20.7405 31.8863C20.6529 31.6405 20.5661 31.3944 20.4793 31.1483C20.401 30.9293 20.401 30.9293 20.3211 30.7059C20.2758 30.5783 20.2305 30.4507 20.1839 30.3193C20.0691 29.9969 20.0691 29.9969 19.7891 29.75ZM48.3438 31.2109C46.6465 34.5818 46.6465 34.5818 45.0026 37.9789C44.5151 39.0064 44.0064 40.0226 43.4951 41.0385C42.9615 42.1016 42.4453 43.1723 41.9352 44.2468C41.5569 45.0431 41.1693 45.8328 40.7636 46.6156C40.6222 46.874 40.6222 46.874 40.6407 47.1484C43.6064 46.0416 46.1124 43.1797 47.4122 40.3621C48.3309 38.2678 48.7901 36.2555 48.7755 33.9668C48.7765 33.8038 48.7775 33.6408 48.7786 33.4729C48.7768 32.67 48.7583 31.9666 48.4766 31.2109C48.4328 31.2109 48.389 31.2109 48.3438 31.2109Z" fill="#58B347"/>
</svg>
