<svg width="68" height="68" viewBox="0 0 68 68" fill="none" xmlns="http://www.w3.org/2000/svg">
<path d="M29.0029 0.0663991C29.1741 0.0626326 29.3453 0.0588661 29.5217 0.0549855C30.5147 0.0529466 31.2565 0.105422 32.0078 0.796868C32.3828 1.24094 32.5406 1.56489 32.6184 2.12707C32.6769 2.41057 32.6769 2.41057 32.8047 2.65624C33.1882 2.8491 33.4675 2.94924 33.8755 3.04638C37.4254 4.06341 40.5636 6.59562 42.3764 9.81469C43.7653 12.3632 44.3972 14.9092 44.4922 17.7969C44.593 17.8308 44.6938 17.8647 44.7977 17.8996C45.4298 18.1868 45.8001 18.756 46.0626 19.3891C46.3647 20.4585 46.3317 21.5808 45.8203 22.5781C45.2729 23.3436 44.6145 23.7278 43.6953 23.9062C43.52 23.9062 43.3447 23.9062 43.164 23.9062C43.1702 23.9809 43.1764 24.0555 43.1827 24.1324C43.3275 27.5039 41.8019 30.8738 39.5781 33.3359C39.4773 33.4477 39.3764 33.5595 39.2725 33.6747C38.2194 34.7829 36.98 35.7374 35.5937 36.3906C36.1549 36.6023 36.7168 36.8112 37.2814 37.0137C39.2365 37.7246 41.2753 38.5279 42.9005 39.8619C43.46 40.1053 44.0268 39.8672 44.5746 39.6751C44.7438 39.6073 44.9128 39.539 45.0815 39.4702C49.8864 37.6094 54.8393 38.069 59.5 40.1094C63.5256 41.9643 63.5256 41.9643 64.1484 42.8984C64.175 43.2738 64.186 43.636 64.1849 44.0114C64.1859 44.1819 64.1859 44.1819 64.1869 44.3558C64.1888 44.7328 64.1887 45.1097 64.1884 45.4867C64.1889 45.7497 64.1895 46.0127 64.1901 46.2756C64.1911 46.8282 64.191 47.3807 64.1903 47.9333C64.1896 48.6369 64.1918 49.3404 64.1949 50.044C64.1969 50.5881 64.197 51.1322 64.1966 51.6763C64.1966 51.9354 64.1973 52.1944 64.1987 52.4535C64.2137 55.7609 63.4744 58.7422 61.102 61.1685C60.1825 62.0719 59.1398 62.8019 58.0829 63.5342C57.5765 63.8873 57.0777 64.2507 56.5781 64.6133C56.3808 64.7558 56.1835 64.8983 55.9861 65.0408C55.5686 65.3423 55.1512 65.6439 54.7338 65.9456C54.627 66.0227 54.5203 66.0998 54.4103 66.1793C54.2076 66.3257 54.0049 66.4722 53.8023 66.6187C53.6187 66.7513 53.4345 66.8832 53.2498 67.0143C53.0819 67.1373 52.9179 67.2659 52.7589 67.4003C52.2446 67.8208 51.8408 67.9785 51.1701 67.9369C50.6007 67.8059 50.1961 67.4708 49.7466 67.1118C49.5365 66.9521 49.3264 66.7925 49.1162 66.633C49.0101 66.5509 48.904 66.4688 48.7946 66.3843C48.2982 66.004 47.7896 65.6413 47.2812 65.2773C47.084 65.1351 46.8869 64.9928 46.6898 64.8504C46.5914 64.7793 46.4931 64.7083 46.3917 64.6351C46.0717 64.4038 45.752 64.1721 45.4322 63.9404C45.3249 63.8627 45.2175 63.7849 45.1069 63.7049C44.9024 63.5568 44.698 63.4086 44.4937 63.2603C44.3543 63.1593 44.3543 63.1593 44.212 63.0564C44.1312 62.9978 44.0505 62.9392 43.9673 62.8789C43.8775 62.8157 43.7878 62.7526 43.6953 62.6875C43.5891 62.5972 43.483 62.5069 43.3736 62.4139C42.7668 62.0145 42.1007 62.0844 41.3979 62.0918C41.2462 62.0913 41.0944 62.0907 40.938 62.0902C40.429 62.0891 39.9201 62.0917 39.4111 62.0943C39.0463 62.0945 38.6816 62.0939 38.3168 62.0934C37.5311 62.0925 36.7454 62.0936 35.9597 62.0958C34.8225 62.0989 33.6853 62.0985 32.5482 62.0972C30.7016 62.0949 28.855 62.0946 27.0084 62.0959C26.898 62.096 26.7875 62.0961 26.6736 62.0961C25.4411 62.097 24.2086 62.0982 22.9761 62.0996C22.5293 62.1001 22.0824 62.1006 21.6355 62.1011C21.5252 62.1012 21.415 62.1013 21.3014 62.1015C19.4619 62.1033 17.6225 62.1027 15.7831 62.1C14.649 62.0985 13.5149 62.0993 12.3808 62.103C11.6035 62.1054 10.8263 62.1054 10.049 62.1036C9.60071 62.1026 9.15254 62.1031 8.70424 62.1057C8.2178 62.1085 7.73153 62.1071 7.2451 62.1048C7.10404 62.1065 6.96298 62.1083 6.81765 62.1102C5.92602 62.1002 5.33876 61.9361 4.64841 61.3594C3.87711 60.5475 3.79967 59.8035 3.81885 58.7192C3.91671 56.7051 4.43494 54.7709 5.04685 52.8594C5.07606 52.7669 5.10527 52.6743 5.13537 52.579C5.92068 50.1481 7.18614 47.8234 8.7656 45.8203C8.86352 45.6946 8.96145 45.569 9.06235 45.4395C12.5214 41.1096 17.0822 37.9906 22.4453 36.5234C22.0393 36.2093 21.6168 35.935 21.1836 35.6602C18.0233 33.5597 15.8278 30.3495 15.0742 26.6289C14.9035 25.7206 14.7985 24.8321 14.875 23.9062C14.6367 23.8857 14.6367 23.8857 14.3935 23.8647C13.4494 23.7386 12.8834 23.3337 12.2825 22.6108C11.7596 21.8174 11.7 20.7757 11.8867 19.8627C12.0845 19.1096 12.3167 18.6016 12.8828 18.0625C13.1015 17.9676 13.3226 17.8779 13.5468 17.7969C13.5503 17.6505 13.5537 17.5041 13.5572 17.3533C13.7034 12.9553 15.5072 9.13937 18.6804 6.10989C20.1261 4.78157 21.9243 3.7003 23.8152 3.16347C24.7556 2.94179 24.7556 2.94179 25.4507 2.33978C25.5483 1.99542 25.5483 1.99542 25.5871 1.64718C25.663 1.11709 25.914 0.896275 26.2968 0.531243C27.1812 0.00724439 28.0002 0.0644057 29.0029 0.0663991ZM27.625 2.52343C27.5657 2.8001 27.5657 2.8001 27.5771 3.12513C27.5765 3.25177 27.576 3.37841 27.5754 3.5089C27.5768 3.64827 27.5783 3.78765 27.5797 3.93126C27.5797 4.07767 27.5796 4.22409 27.5796 4.37495C27.5798 4.86077 27.5829 5.34652 27.5861 5.83233C27.5868 6.16843 27.5874 6.50453 27.5878 6.84063C27.5891 7.63602 27.5923 8.43139 27.5963 9.22678C27.6007 10.1322 27.6029 11.0376 27.6049 11.9431C27.6091 13.8058 27.6164 15.6685 27.625 17.5312C28.5454 17.5312 29.4658 17.5312 30.414 17.5312C30.423 15.5791 30.4304 13.6269 30.4347 11.6747C30.4367 10.7683 30.4395 9.86189 30.4441 8.9555C30.4485 8.08144 30.4508 7.2074 30.4518 6.33333C30.4526 5.99919 30.454 5.66504 30.4562 5.3309C30.459 4.86434 30.4595 4.39783 30.4593 3.93126C30.4607 3.79188 30.4621 3.6525 30.4636 3.5089C30.4631 3.38225 30.4625 3.25561 30.4619 3.12513C30.4625 2.95949 30.4625 2.95949 30.4631 2.7905C30.4469 2.70237 30.4307 2.61423 30.414 2.52343C29.9328 2.2026 29.5752 2.21825 29.0195 2.2246C28.9296 2.22358 28.8397 2.22255 28.7471 2.22149C28.2559 2.22343 28.0439 2.24417 27.625 2.52343ZM32.6718 5.04687C32.6718 9.16671 32.6718 13.2866 32.6718 17.5312C35.8275 17.5312 38.9831 17.5312 42.2343 17.5312C41.967 13.7879 40.7662 10.5617 37.9843 7.96874C37.6265 7.72849 37.6265 7.72849 37.3203 7.57031C37.1941 8.93687 37.0718 10.3031 36.9872 11.673C36.979 11.8052 36.979 11.8052 36.9705 11.94C36.9435 12.374 36.9177 12.808 36.8934 13.2421C36.8398 14.1212 36.7777 14.9588 36.5234 15.8047C36.0327 16.1318 35.7753 16.1221 35.1953 16.0703C34.9159 15.8654 34.818 15.7142 34.664 15.4062C34.6579 15.1624 34.6579 15.1624 34.6728 14.862C34.6782 14.7487 34.6835 14.6355 34.689 14.5188C34.6957 14.395 34.7023 14.2711 34.7092 14.1435C34.7156 14.0141 34.722 13.8847 34.7287 13.7513C34.8087 12.1828 34.9063 10.6153 35.0044 9.04784C35.023 8.74763 35.0416 8.44742 35.0601 8.14721C35.1049 7.42364 35.15 6.70009 35.1953 5.97656C34.8996 5.8457 34.6035 5.7158 34.3071 5.58642C34.224 5.54952 34.1409 5.51263 34.0552 5.47462C33.5839 5.26978 33.1823 5.14896 32.6718 5.04687ZM24.1054 5.43701C24.0138 5.4739 23.9223 5.51079 23.8279 5.54881C23.33 5.74968 23.33 5.74968 22.8437 5.97656C22.8504 6.07902 22.857 6.18149 22.8639 6.28706C22.9268 7.25613 22.9893 8.22522 23.0515 9.19434C23.0835 9.69249 23.1156 10.1906 23.148 10.6887C23.1793 11.1701 23.2103 11.6515 23.241 12.1329C23.2527 12.3159 23.2646 12.4989 23.2766 12.6818C23.4579 15.4534 23.4579 15.4534 23.1093 15.9375C22.6987 16.1428 22.3664 16.1093 21.914 16.0703C21.578 15.8518 21.4131 15.668 21.3202 15.2732C21.278 14.9246 21.2534 14.5781 21.2334 14.2275C21.2239 14.096 21.2144 13.9646 21.2046 13.8291C21.1729 13.381 21.145 12.9327 21.1172 12.4844C21.088 12.0428 21.0587 11.6013 21.0291 11.1598C20.9998 10.7212 20.9713 10.2825 20.9441 9.84375C20.8959 9.0799 20.8457 8.32541 20.7187 7.57031C18.623 8.61817 17.2186 11.3323 16.494 13.4649C16.3932 13.7868 16.3001 14.1096 16.2114 14.4351C16.1716 14.579 16.1716 14.579 16.1311 14.7259C15.8938 15.6776 15.8773 16.5148 15.8047 17.5312C18.9603 17.5312 22.1159 17.5312 25.3672 17.5312C25.3672 13.4114 25.3672 9.29156 25.3672 5.04687C24.9173 5.04687 24.5171 5.26889 24.1054 5.43701ZM14.207 20.0417C13.9798 20.5328 14.093 20.8607 14.2109 21.3828C14.7253 21.7257 15.1513 21.6862 15.7478 21.684C15.9243 21.6849 15.9243 21.6849 16.1043 21.6858C16.5002 21.6875 16.8959 21.6872 17.2918 21.687C17.5749 21.6878 17.858 21.6887 18.1412 21.6897C18.9114 21.6921 19.6817 21.6927 20.4519 21.6929C21.0942 21.6931 21.7365 21.6941 22.3788 21.695C23.8938 21.6972 25.4087 21.6978 26.9236 21.6977C28.488 21.6975 30.0525 21.7003 31.6169 21.7045C32.9587 21.708 34.3005 21.7094 35.6423 21.7092C36.4443 21.7092 37.2463 21.7099 38.0483 21.7127C38.8023 21.7153 39.5563 21.7153 40.3103 21.7134C40.5875 21.7131 40.8646 21.7137 41.1417 21.7153C41.5193 21.7174 41.8967 21.7162 42.2743 21.7141C42.4398 21.7162 42.4398 21.7162 42.6086 21.7182C43.0876 21.7125 43.372 21.6907 43.7639 21.4036C44.0317 21.0144 44.0285 20.7837 43.9609 20.3203C43.8434 20.0145 43.8434 20.0145 43.5625 19.7891C43.1634 19.7359 42.8125 19.7174 42.413 19.7216C42.2348 19.7204 42.2348 19.7204 42.0529 19.7191C41.6531 19.717 41.2534 19.7186 40.8536 19.7203C40.5676 19.7196 40.2816 19.7187 39.9957 19.7175C39.2177 19.7151 38.4398 19.716 37.6619 19.7177C36.849 19.719 36.0361 19.7178 35.2232 19.717C33.858 19.716 32.4927 19.7173 31.1274 19.7198C29.5474 19.7227 27.9675 19.7218 26.3875 19.7188C25.0326 19.7164 23.6778 19.7161 22.3229 19.7175C21.5129 19.7183 20.703 19.7184 19.8931 19.7167C19.1317 19.7151 18.3704 19.7162 17.6091 19.7193C17.3291 19.72 17.0492 19.7197 16.7692 19.7186C16.3881 19.7171 16.0071 19.7189 15.626 19.7216C15.5142 19.7204 15.4025 19.7192 15.2874 19.718C14.689 19.7206 14.689 19.7206 14.207 20.0417ZM17.1328 23.9062C17.1328 26.7498 18.1009 29.2962 19.9218 31.4766C19.9895 31.5635 20.0571 31.6505 20.1268 31.7401C21.9604 34.0039 24.8817 35.3115 27.7194 35.684C31.1936 36.0224 34.1947 34.9192 36.8835 32.7845C39.0808 30.915 40.5659 28.1039 40.9062 25.2344C40.9062 24.7961 40.9062 24.3578 40.9062 23.9062C33.061 23.9062 25.2158 23.9062 17.1328 23.9062ZM22.3125 38.9141C22.4732 39.3477 22.6471 39.7096 22.921 40.0819C22.9892 40.1753 23.0573 40.2687 23.1275 40.3649C23.2009 40.4641 23.2744 40.5633 23.3501 40.6655C23.5073 40.8805 23.6645 41.0954 23.8217 41.3104C23.9021 41.4199 23.9825 41.5293 24.0653 41.6421C24.4356 42.1474 24.8017 42.6558 25.1679 43.1641C25.3111 43.3623 25.4543 43.5604 25.5975 43.7586C25.8926 44.1671 26.1872 44.576 26.4815 44.985C27.294 46.1135 28.1125 47.236 28.9531 48.3437C29.5201 47.8132 29.959 47.2341 30.4057 46.6006C30.559 46.3857 30.7124 46.1709 30.8659 45.9562C30.984 45.7908 30.984 45.7908 31.1045 45.622C31.4891 45.0867 31.8813 44.5571 32.2734 44.0273C32.9691 43.0863 33.6577 42.1406 34.3403 41.19C34.406 41.0986 34.4718 41.0072 34.5395 40.913C34.6348 40.7801 34.6348 40.7801 34.732 40.6446C34.8706 40.4556 35.0123 40.269 35.1564 40.0841C35.2295 39.9903 35.3026 39.8964 35.3779 39.7996C35.4447 39.7156 35.5114 39.6316 35.5802 39.545C35.7619 39.3021 35.7619 39.3021 35.7265 38.9141C35.3257 38.8074 34.9245 38.7026 34.5229 38.5986C34.4129 38.5692 34.3029 38.5397 34.1896 38.5094C32.5106 38.0786 30.8239 37.9325 29.0942 37.9346C29.0064 37.9345 28.9185 37.9344 28.828 37.9344C26.5893 37.9388 24.4617 38.3002 22.3125 38.9141ZM18.602 40.4497C18.4951 40.5053 18.3882 40.5608 18.278 40.6181C18.0557 40.7353 17.8357 40.8572 17.6182 40.9832C17.2656 41.1719 17.2656 41.1719 16.8585 41.3115C16.3652 41.5192 16.1261 41.6687 15.8047 42.1016C15.5924 42.996 15.6755 43.9434 15.7174 44.854C15.7523 45.6247 15.7628 46.3958 15.7772 47.1671C15.7806 47.3177 15.7841 47.4682 15.7877 47.6233C15.8233 49.305 15.6723 50.933 15.4062 52.5937C15.3827 52.7462 15.3592 52.8987 15.335 53.0559C15.0504 54.8711 14.6888 56.6533 14.1949 58.4237C14.1624 58.5405 14.1298 58.6574 14.0963 58.7778C14.0671 58.8794 14.0379 58.9809 14.0079 59.0855C13.9261 59.4055 13.9261 59.4055 13.9453 59.8984C18.5472 59.8984 23.1492 59.8984 27.8906 59.8984C27.9399 57.7002 27.9399 57.7002 27.9902 55.4575C28.0047 54.9996 28.0192 54.5418 28.0342 54.07C28.0978 51.2596 28.0978 51.2596 26.7016 48.8874C26.6312 48.8166 26.5608 48.7459 26.4883 48.673C26.2322 48.4102 26.0298 48.1204 25.8242 47.8172C25.6969 47.6412 25.5695 47.4653 25.4419 47.2895C25.2966 47.089 25.1513 46.8883 25.0061 46.6877C24.934 46.5883 24.8619 46.4888 24.7877 46.3863C24.5723 46.0887 24.3574 45.7906 24.1428 45.4924C23.3116 44.3381 22.4735 43.1893 21.6265 42.0464C21.1408 41.3897 20.6691 40.7271 20.2186 40.0456C20.1645 39.979 20.1104 39.9124 20.0547 39.8437C19.5328 39.8437 19.0546 40.2097 18.602 40.4497ZM37.9843 39.8437C37.8116 40.0315 37.8116 40.0315 37.6414 40.2826C37.5392 40.4259 37.5392 40.4259 37.4349 40.5721C37.3615 40.6769 37.288 40.7817 37.2124 40.8896C37.0552 41.1107 36.898 41.3317 36.7408 41.5527C36.6604 41.6663 36.58 41.7799 36.4971 41.897C36.1329 42.4103 35.7637 42.9199 35.3945 43.4297C35.2506 43.6289 35.1067 43.8281 34.9629 44.0273C34.0996 45.2227 34.0996 45.2227 33.8836 45.5217C33.7403 45.7201 33.5971 45.9184 33.4539 46.1168C33.0845 46.6283 32.715 47.1396 32.345 47.6506C32.2691 47.7556 32.1931 47.8605 32.1149 47.9687C31.972 48.1662 31.829 48.3637 31.6859 48.5611C31.5558 48.741 31.427 48.9219 31.2998 49.1038C31.0781 49.4062 31.0781 49.4062 30.8381 49.6773C30.0116 50.6744 30.0261 51.6356 30.0576 52.8687C30.059 53.0493 30.0599 53.2299 30.0605 53.4106C30.0653 54.0736 30.0783 54.7365 30.0903 55.3994C30.1095 56.8841 30.1287 58.3688 30.1484 59.8984C33.6547 59.8984 37.1609 59.8984 40.7734 59.8984C40.5104 59.4163 40.2475 58.9342 39.9765 58.4375C38.9717 56.3904 38.8508 54.4163 38.8518 52.1823C38.8508 51.9156 38.8498 51.6489 38.8487 51.3822C38.8469 50.8271 38.8467 50.272 38.8475 49.7169C38.8483 49.0059 38.8442 48.295 38.8388 47.5841C38.8354 47.035 38.835 46.486 38.8355 45.9369C38.8353 45.6746 38.834 45.4123 38.8316 45.1501C38.8287 44.7846 38.83 44.4193 38.8323 44.0538C38.8306 43.9461 38.8288 43.8384 38.827 43.7274C38.8353 43.1678 38.8639 42.9608 39.2271 42.5091C39.5882 42.2264 39.9431 42.0053 40.3501 41.7944C40.4797 41.7265 40.6093 41.6585 40.7428 41.5885C40.8406 41.5386 40.9383 41.4888 41.039 41.4375C40.4967 40.9644 39.9287 40.6551 39.2876 40.3418C39.1914 40.2935 39.0953 40.2452 38.9963 40.1955C38.5136 39.9355 38.5136 39.9355 37.9843 39.8437ZM44.4839 42.1348C44.3837 42.1791 44.2836 42.2235 44.1804 42.2692C43.4516 42.6051 42.7549 42.9903 42.0572 43.3855C41.9591 43.4409 41.8609 43.4963 41.7598 43.5534C41.5194 43.6891 41.2792 43.825 41.039 43.9609C41.0267 45.3292 41.0172 46.6974 41.0115 48.0657C41.0088 48.7012 41.005 49.3367 40.999 49.9722C40.9931 50.5871 40.99 51.2019 40.9886 51.8168C40.9877 52.0498 40.9858 52.2828 40.9829 52.5158C40.9517 55.131 41.4656 57.4365 43.3132 59.4221C44.1662 60.2812 45.1707 60.9636 46.1569 61.659C46.5738 61.9539 46.9866 62.2543 47.3994 62.5548C47.7906 62.8391 48.1834 63.121 48.5764 63.4028C48.7812 63.5499 48.9858 63.6973 49.1901 63.8451C49.4996 64.0687 49.8097 64.2913 50.1201 64.5137C50.2141 64.5819 50.3081 64.6502 50.405 64.7205C50.4928 64.783 50.5806 64.8456 50.6711 64.91C50.7476 64.9651 50.8242 65.0202 50.9032 65.077C51.1643 65.2293 51.3629 65.3094 51.664 65.3438C52.0043 65.1262 52.3055 64.9068 52.6186 64.6548C52.8102 64.5058 53.002 64.3571 53.194 64.2086C53.2925 64.132 53.3911 64.0554 53.4926 63.9765C53.9529 63.6248 54.4264 63.2929 54.9013 62.9614C55.0895 62.8292 55.2777 62.6969 55.4658 62.5645C55.7623 62.3562 56.0588 62.1478 56.3555 61.9397C58.9596 60.1077 61.0872 58.3515 61.8097 55.0979C61.9672 54.1008 61.939 53.1001 61.9295 52.0931C61.9288 51.8574 61.9282 51.6216 61.9278 51.3859C61.9263 50.7712 61.9224 50.1566 61.918 49.542C61.9138 48.9125 61.9121 48.283 61.9101 47.6535C61.9058 46.4226 61.899 45.1918 61.8906 43.9609C61.5509 43.7688 61.2111 43.5769 60.8713 43.3852C60.7757 43.3311 60.6801 43.277 60.5817 43.2213C55.4051 40.3027 49.9658 39.7027 44.4839 42.1348ZM12.6504 44.8159C8.96187 48.5084 6.30734 53.7344 6.05124 59.0186C6.0621 59.4891 6.0621 59.4891 6.30818 59.7269C6.7863 59.9736 7.24248 59.9477 7.76743 59.9373C7.87575 59.9368 7.98407 59.9362 8.09567 59.9356C8.44077 59.9334 8.78576 59.9284 9.13083 59.9233C9.36515 59.9213 9.59948 59.9195 9.8338 59.9179C10.4075 59.9135 10.981 59.9066 11.5547 59.8984C12.4546 56.6933 13.1869 53.5159 13.5468 50.2031C13.5598 50.0956 13.5728 49.988 13.5862 49.8772C13.7174 48.674 13.6943 47.4688 13.688 46.2603C13.6873 46.0366 13.6867 45.8129 13.6861 45.5892C13.6847 45.0464 13.6824 44.5037 13.6797 43.9609C13.3387 43.9609 12.8969 44.5718 12.6504 44.8159Z" fill="#58B347"/>
<path d="M60.2969 44.7578C60.4901 45.1442 60.4499 45.4846 60.4533 45.9162C60.4541 46.008 60.455 46.0998 60.4559 46.1945C60.4585 46.4995 60.4601 46.8045 60.4614 47.1095C60.4619 47.2141 60.4625 47.3186 60.463 47.4264C60.4658 47.9812 60.4677 48.5361 60.469 49.0909C60.4704 49.6601 60.475 50.2292 60.4803 50.7984C60.4838 51.239 60.4849 51.6796 60.4853 52.1203C60.486 52.3298 60.4875 52.5393 60.49 52.7488C60.515 55.0015 60.0047 56.922 58.4407 58.5978C57.5602 59.4472 56.5124 60.1248 55.5157 60.8281C55.3094 60.9749 55.103 61.1217 54.8968 61.2686C54.5179 61.5378 54.1378 61.805 53.7564 62.0706C53.4506 62.2842 53.1523 62.5019 52.8548 62.7274C52.6845 62.8556 52.6845 62.8556 52.5108 62.9863C52.3727 63.0942 52.3727 63.0942 52.2317 63.2042C51.7772 63.426 51.503 63.423 51.0001 63.3516C50.565 63.1336 50.1808 62.8576 49.7882 62.5713C49.6769 62.4926 49.5657 62.414 49.4511 62.333C48.6743 61.78 47.915 61.206 47.1656 60.6164C46.7887 60.3266 46.4059 60.0514 46.0162 59.7795C44.1871 58.5015 42.9836 57.0893 42.5001 54.8516C42.4271 54.0855 42.4218 53.3254 42.4248 52.5564C42.4241 52.3401 42.4233 52.1238 42.4224 51.9075C42.421 51.4579 42.4216 51.0084 42.4235 50.5588C42.4258 49.9834 42.4227 49.4082 42.418 48.8328C42.4151 48.3877 42.4153 47.9427 42.4164 47.4977C42.4165 47.2854 42.4156 47.0732 42.4136 46.861C42.4113 46.5651 42.4132 46.2695 42.4163 45.9736C42.4164 45.8057 42.4165 45.6378 42.4166 45.4648C42.522 44.9073 42.7329 44.7151 43.1641 44.3594C43.4332 44.1869 43.4332 44.1869 43.6969 44.0611C43.7964 44.0133 43.8959 43.9655 43.9984 43.9163C44.1038 43.8681 44.2093 43.8198 44.3179 43.77C44.4283 43.7187 44.5386 43.6674 44.6523 43.6146C49.659 41.3409 55.7223 41.35 60.2969 44.7578ZM50.4792 44.254C48.7337 44.4405 47.0348 45.0399 45.4454 45.7701C45.2513 45.859 45.2513 45.859 45.0533 45.9498C44.9071 46.0172 44.9071 46.0172 44.7579 46.0859C44.7455 47.1516 44.7361 48.2173 44.7304 49.2831C44.7276 49.7781 44.7239 50.2731 44.7178 50.7681C44.712 51.2469 44.7088 51.7256 44.7075 52.2045C44.7065 52.386 44.7046 52.5676 44.7017 52.7491C44.6799 54.1734 44.8066 55.5289 45.837 56.603C47.0897 57.8943 48.6008 58.8744 50.0704 59.8984C50.2172 60.0013 50.3641 60.1042 50.5108 60.2071C50.8065 60.4145 51.1024 60.6215 51.3985 60.8281C52.0899 60.4516 52.7092 60.0294 53.3326 59.5498C53.9513 59.0782 54.5729 58.6149 55.2119 58.1712C56.5973 57.2063 57.8232 56.1929 58.1719 54.4531C58.1835 54.1772 58.1876 53.9009 58.187 53.6247C58.187 53.4572 58.187 53.2898 58.187 53.1172C58.1863 52.9351 58.1856 52.753 58.1849 52.5709C58.1847 52.3841 58.1845 52.1972 58.1843 52.0104C58.1838 51.5196 58.1825 51.0288 58.1811 50.5379C58.1797 50.0367 58.1791 49.5355 58.1784 49.0343C58.177 48.0515 58.1747 47.0687 58.1719 46.0859C57.7704 45.9149 57.3686 45.7446 56.9668 45.5744C56.854 45.5264 56.7412 45.4783 56.625 45.4288C54.6387 44.5887 52.6473 44.1004 50.4792 44.254Z" fill="#58B347"/>
<path d="M55.7813 48.211C56.0967 48.4185 56.0967 48.4185 56.3125 48.7422C56.426 49.6271 56.426 49.6271 56.1648 50.0359C55.956 50.2613 55.7382 50.4653 55.5074 50.668C55.356 50.8074 55.2051 50.9471 55.0544 51.0872C54.9769 51.1588 54.8994 51.2303 54.8195 51.304C54.5799 51.5372 54.3625 51.7803 54.145 52.034C53.5796 52.6925 52.9679 53.3016 52.3531 53.9136C52.1822 54.0853 52.1822 54.0853 52.0078 54.2604C51.899 54.3691 51.7902 54.4777 51.6781 54.5896C51.5797 54.6879 51.4813 54.7861 51.3799 54.8874C51.0544 55.1902 50.8974 55.2452 50.4522 55.3165C49.9096 55.2464 49.8286 55.2009 49.4488 54.8511C49.3564 54.7666 49.264 54.6821 49.1687 54.595C49.0234 54.459 49.0234 54.459 48.875 54.3204C48.7769 54.2309 48.6788 54.1415 48.5777 54.0493C48.2743 53.7702 47.9767 53.4857 47.6797 53.1998C47.5768 53.1052 47.4739 53.0106 47.3679 52.9131C46.5518 52.1207 46.5518 52.1207 46.542 51.4805C46.6548 50.7598 46.6548 50.7598 47.0157 50.4688C47.4961 50.3353 47.7969 50.2654 48.2551 50.4833C48.7014 50.7996 49.0679 51.1643 49.4478 51.5562C49.5208 51.6304 49.5938 51.7046 49.6691 51.7811C49.8477 51.9629 50.0255 52.1454 50.2032 52.3282C50.5815 52.1565 50.8517 51.9773 51.142 51.6809C51.2177 51.6043 51.2935 51.5276 51.3716 51.4486C51.492 51.3249 51.492 51.3249 51.6148 51.1987C51.6986 51.1139 51.7824 51.0291 51.8687 50.9418C52.136 50.6713 52.4023 50.4 52.6685 50.1285C53.0193 49.7706 53.371 49.4136 53.7232 49.0571C53.8037 48.9744 53.8843 48.8917 53.9672 48.8064C54.0803 48.6921 54.0803 48.6921 54.1956 48.5754C54.2615 48.5081 54.3275 48.4408 54.3954 48.3714C54.8447 47.9932 55.249 48.0698 55.7813 48.211Z" fill="#58B347"/>
</svg>
