<svg width="68" height="68" viewBox="0 0 68 68" fill="none" xmlns="http://www.w3.org/2000/svg">
<g clip-path="url(#clip0_4328_2782)">
<path d="M34.5313 3.71869C34.853 4.01856 34.853 4.01856 35.1622 4.39936C38.3555 8.12437 44.5853 9.19423 49.1936 9.63507C49.3032 9.64565 49.4128 9.65622 49.5257 9.66711C49.7262 9.68518 49.927 9.70103 50.1279 9.71406C50.7492 9.76663 51.1124 9.89032 51.5313 10.3593C51.6496 10.7536 51.6496 10.7536 51.6973 11.2226C51.7065 11.3095 51.7156 11.3965 51.725 11.486C51.7533 11.7743 51.7759 12.0626 51.7969 12.3515C51.8044 12.4488 51.8119 12.5462 51.8196 12.6464C52.4826 21.7393 51.5173 32.3314 45.3177 39.5109C42.57 42.598 38.5994 44.5101 34.4784 44.8076C33.0763 44.8688 31.7592 44.6013 30.4141 44.2265C30.3268 44.2023 30.2395 44.1782 30.1495 44.1533C25.7035 42.8841 22.2712 39.7975 20.047 35.8043C17.8866 31.8261 16.9071 27.5698 16.336 23.1093C16.3184 22.9723 16.3007 22.8353 16.2826 22.6942C15.8556 19.1594 15.9076 15.4355 16.17 11.8867C16.1782 11.7633 16.1863 11.6399 16.1948 11.5128C16.257 10.8442 16.3635 10.4454 16.8673 9.96088C17.2233 9.78288 17.5467 9.76801 17.9427 9.72223C18.1106 9.70217 18.2784 9.68211 18.4513 9.66144C18.5408 9.65079 18.6302 9.64016 18.7224 9.62919C23.7111 9.02745 29.66 8.08441 33.0673 4.00922C33.5264 3.5129 33.91 3.5423 34.5313 3.71869ZM33.2613 6.89789C29.2647 10.1871 23.7341 11.1491 18.7606 11.7691C18.466 11.7897 18.466 11.7897 18.3282 11.9531C18.1765 12.8586 18.1718 13.7572 18.1684 14.6736C18.1677 14.8343 18.1669 14.995 18.1661 15.1605C18.1649 15.5012 18.164 15.8419 18.1635 16.1826C18.1622 16.6903 18.1581 17.1979 18.1539 17.7055C18.1223 25.028 19.4887 33.2483 24.8111 38.6816C27.1745 41.022 30.5432 42.6799 33.9119 42.7785C37.8214 42.5806 41.4037 40.5445 44.0059 37.707C47.015 34.2452 48.3489 29.6607 49.1075 25.2343C49.1339 25.0818 49.1603 24.9293 49.1875 24.7721C49.5974 22.2389 49.7139 19.7065 49.6993 17.1433C49.6968 16.6959 49.6966 16.2485 49.6966 15.801C49.6959 15.511 49.6952 15.221 49.6943 14.931C49.694 14.7344 49.694 14.7344 49.6938 14.5339C49.792 13.0874 49.792 13.0874 49.4063 11.8203C49.1676 11.7789 48.9276 11.7451 48.6873 11.7144C48.5356 11.6943 48.3839 11.6742 48.2276 11.6535C48.0633 11.6318 47.8989 11.6102 47.7296 11.5878C43.0916 10.9473 37.687 9.88561 34.1708 6.53162C33.8002 6.19145 33.577 6.62263 33.2613 6.89789Z" fill="#58B347"/>
<path d="M66.2646 26.2533C67.111 26.7973 67.6808 27.3125 68 28.2891C68.1701 29.7408 67.9071 31.0572 67.4937 32.4478C67.4398 32.6359 67.3862 32.8241 67.3326 33.0124C67.1616 33.6087 66.9838 34.2029 66.8047 34.7969C66.7746 34.8973 66.7445 34.9978 66.7134 35.1013C65.0984 40.4817 63.3318 46.1889 59.3672 50.336C59.2504 50.4654 59.2504 50.4654 59.1312 50.5974C58.1504 51.6447 56.9344 52.4627 55.7642 53.2838C53.9967 54.5258 52.525 56.1686 51.6641 58.1719C51.6084 58.5389 51.6084 58.5389 51.606 58.9024C51.5278 59.9754 50.9514 60.4992 50.2115 61.2188C49.9598 61.47 49.7278 61.7279 49.4976 61.9986C47.474 64.3217 47.474 64.3217 46.3516 64.4141C45.5993 64.4115 45.1445 64.1886 44.6167 63.6587C44.5412 63.5733 44.4657 63.4879 44.3879 63.3998C44.1459 63.1416 43.9065 62.9216 43.6378 62.6932C42.7349 61.9133 41.9133 61.0456 41.0753 60.1975C40.3113 59.4253 39.5523 58.6602 38.7247 57.9553C38.4589 57.7241 38.2229 57.4754 37.9927 57.209C37.9175 57.1234 37.8424 57.0378 37.7649 56.9496C37.3837 56.4413 37.3746 55.8599 37.4532 55.25C37.7305 54.4777 38.1844 53.9093 38.7636 53.3424C38.8746 53.2311 38.8746 53.2311 38.9879 53.1176C39.1433 52.9624 39.2994 52.8078 39.456 52.6539C39.6945 52.4193 39.9303 52.1824 40.166 51.945C40.3182 51.7936 40.4705 51.6424 40.623 51.4913C40.6928 51.4212 40.7625 51.351 40.8344 51.2788C41.3322 50.7934 41.8324 50.4019 42.5323 50.2871C42.7982 50.221 42.7982 50.221 42.9209 49.9107C42.9623 49.7833 43.0037 49.6558 43.0463 49.5246C43.0937 49.3839 43.1412 49.2433 43.19 49.0984C43.239 48.948 43.288 48.7976 43.3384 48.6426C44.43 45.4677 45.9863 43.4498 49.0078 41.8858C49.3114 41.7257 49.6149 41.5655 49.9183 41.4054C50.0752 41.3231 50.2322 41.2408 50.3891 41.1585C50.8738 40.9037 51.3556 40.6436 51.8368 40.3823C51.9154 40.3397 51.9939 40.2971 52.0749 40.2532C52.4531 40.048 52.8313 39.8426 53.2093 39.637C53.3454 39.5635 53.4814 39.4899 53.6215 39.4142C53.7407 39.3495 53.8599 39.2849 53.9828 39.2182C54.7816 38.8128 55.4192 38.6686 56.3125 38.7813C56.9024 38.9829 57.3475 39.2563 57.7735 39.711C59.3364 36.8844 59.9354 33.6227 60.6559 30.5018C60.6908 30.3518 60.7258 30.2018 60.7617 30.0473C60.826 29.77 60.889 29.4923 60.9506 29.2143C61.1823 28.2108 61.458 27.2628 62.2725 26.5791C62.3571 26.5055 62.4416 26.4319 62.5288 26.356C63.6054 25.6472 65.1393 25.6647 66.2646 26.2533ZM63.2188 28.8203C63.0938 29.1761 62.9994 29.4962 62.9205 29.861C62.897 29.9604 62.8736 30.0597 62.8495 30.162C62.7998 30.3739 62.7512 30.5861 62.7035 30.7984C62.6285 31.1321 62.5507 31.4651 62.4723 31.798C62.3436 32.3453 62.2169 32.8929 62.091 33.4408C61.2574 37.0645 60.3339 40.615 57.7735 43.4297C57.6923 43.5216 57.6112 43.6136 57.5276 43.7083C55.6331 45.7358 51.8655 48.1361 49.0742 48.3853C48.6094 48.3438 48.6094 48.3438 48.3521 48.1279C48.1717 47.7248 48.1551 47.4529 48.211 47.0156C48.5043 46.6411 48.8282 46.5032 49.2662 46.3345C49.3972 46.2826 49.5283 46.2308 49.6633 46.1774C49.8031 46.1226 49.9429 46.0677 50.0869 46.0112C51.961 45.2531 53.7063 44.3516 55.25 43.0313C55.3385 42.9587 55.4271 42.8861 55.5182 42.8113C55.8962 42.4972 56.1696 42.2496 56.4453 41.836C56.455 41.4967 56.455 41.4967 56.3125 41.1719C56.0343 40.9065 56.0343 40.9065 55.6485 40.7735C55.3084 40.8802 55.0654 40.9902 54.7603 41.1636C54.671 41.2113 54.5818 41.259 54.4898 41.3081C54.2847 41.4181 54.0804 41.5294 53.8767 41.6419C53.4802 41.8598 53.081 42.0724 52.6815 42.2847C51.9378 42.6807 51.1969 43.0815 50.4572 43.4849C50.133 43.6613 49.8078 43.8356 49.482 44.0092C47.1641 45.2613 46.1727 46.8734 45.2891 49.2735C45.2549 49.3644 45.2207 49.4553 45.1854 49.5489C45.0846 49.8187 44.9871 50.0895 44.8907 50.3609C44.8331 50.5216 44.7756 50.6824 44.7163 50.848C44.6126 51.3224 44.6412 51.4014 44.8907 51.7969C45.1005 52.0101 45.1005 52.0101 45.3513 52.2078C46.1878 52.9159 46.9405 53.7081 47.7093 54.4879C48.708 55.5212 48.708 55.5212 49.8047 56.4453C49.8924 56.4453 49.98 56.4453 50.0703 56.4453C50.2579 56.1721 50.4308 55.8987 50.6016 55.6153C51.9526 53.4614 53.6035 52.1247 55.6507 50.6856C56.364 50.1785 57.0087 49.6133 57.6407 49.0078C57.7346 48.9207 57.8286 48.8335 57.9255 48.7438C58.6014 48.0988 59.129 47.4024 59.6328 46.6172C59.7258 46.4724 59.8188 46.3275 59.9145 46.1783C62.636 41.8396 64.0878 36.7362 65.4197 31.8275C65.4737 31.6286 65.5282 31.4298 65.5831 31.2312C65.6592 30.9547 65.7329 30.6778 65.806 30.4006C65.8695 30.1637 65.8695 30.1637 65.9343 29.9219C66.0124 29.4575 65.9988 29.1405 65.875 28.6875C65.4396 28.1868 65.1384 27.98 64.4722 27.9321C63.8321 27.9105 63.5458 28.3215 63.2188 28.8203ZM42.3774 52.817C42.2756 52.9193 42.1738 53.0217 42.0689 53.1271C41.9021 53.2943 41.9021 53.2943 41.7319 53.4648C41.5574 53.6418 41.5574 53.6418 41.3794 53.8223C41.2636 53.9382 41.1478 54.0541 41.0285 54.1735C40.329 54.8757 40.329 54.8757 39.711 55.6485C39.8812 56.0266 40.0512 56.2828 40.3592 56.5595C40.4754 56.6654 40.4754 56.6654 40.5939 56.7735C40.678 56.8491 40.762 56.9247 40.8487 57.0025C42.0056 58.0621 43.1125 59.1678 44.2183 60.2803C44.4139 60.4766 44.6096 60.6729 44.8053 60.8691C45.2768 61.3421 45.7479 61.8155 46.2188 62.2891C46.9452 61.6771 47.6151 61.0359 48.2691 60.3467C48.3662 60.2471 48.4634 60.1474 48.5635 60.0448C48.6552 59.9482 48.7468 59.8516 48.8413 59.7522C48.9244 59.6654 49.0075 59.5787 49.0931 59.4893C49.3246 59.2141 49.3246 59.2141 49.2735 58.7031C49.0705 58.4246 49.0705 58.4246 48.7879 58.161C48.6848 58.059 48.5817 57.9571 48.4756 57.8521C48.3663 57.7467 48.2571 57.6413 48.1446 57.5327C48.0394 57.4289 47.9343 57.3251 47.826 57.2181C47.3441 56.7453 46.8565 56.284 46.3448 55.8435C45.7552 55.3348 45.212 54.7843 44.6665 54.229C43.8307 53.3568 43.8307 53.3568 42.8985 52.5938C42.6096 52.5646 42.6096 52.5646 42.3774 52.817Z" fill="#58B347"/>
<path d="M5.65953 26.5288C6.58862 27.4062 6.932 28.5424 7.19621 29.7568C7.2312 29.9075 7.26619 30.0582 7.30224 30.2134C7.41314 30.6921 7.521 31.1714 7.62837 31.6509C8.53711 35.8168 8.53711 35.8168 10.2265 39.711C10.3416 39.6069 10.4566 39.5028 10.5751 39.3955C11.1 38.9617 11.5752 38.8096 12.2519 38.7315C13.6761 38.8739 15.0179 39.7843 16.2612 40.4497C16.3612 40.5031 16.4613 40.5566 16.5644 40.6116C17.1559 40.9275 17.7465 41.2451 18.3363 41.5641C18.5652 41.6878 18.7944 41.8109 19.0237 41.9339C22.041 43.5616 23.6423 45.5438 24.7446 48.8086C24.78 48.9136 24.8155 49.0185 24.852 49.1267C24.8845 49.2258 24.917 49.3249 24.9505 49.427C24.9797 49.5158 25.0089 49.6046 25.0389 49.696C25.1015 49.9375 25.1015 49.9375 25.1015 50.336C25.233 50.3387 25.3645 50.3414 25.5 50.3443C25.9523 50.4102 26.1837 50.5615 26.5199 50.8672C26.6123 50.9512 26.7047 51.0352 26.7999 51.1217C27.3097 51.602 27.8102 52.0905 28.3056 52.5855C28.4082 52.6864 28.5107 52.7873 28.6164 52.8913C30.404 54.6744 30.404 54.6744 30.4576 56.0163C30.3297 56.8856 29.7401 57.4405 29.1424 58.0261C29.0571 58.1112 28.9717 58.1963 28.8838 58.284C28.7035 58.4634 28.5228 58.6423 28.3416 58.8208C28.0672 59.091 27.7942 59.3627 27.5215 59.6347C27.3452 59.8097 27.1689 59.9846 26.9925 60.1594C26.9121 60.2393 26.8317 60.3191 26.7488 60.4014C26.2491 60.893 25.7325 61.3585 25.2026 61.8173C24.9444 62.0449 24.7048 62.2833 24.4712 62.536C24.3901 62.6211 24.309 62.7062 24.2255 62.7939C24.0616 62.9673 23.8991 63.142 23.7379 63.3179C23.1594 63.9189 22.6142 64.2727 21.7812 64.4141C20.7821 64.3795 20.1963 63.924 19.5234 63.2188C19.3095 62.9792 19.1013 62.7357 18.8946 62.4899C18.638 62.2054 18.3753 61.9372 18.1019 61.6691C18.0125 61.5815 17.9232 61.4938 17.8311 61.4035C17.6502 61.2271 17.4686 61.0516 17.286 60.8769C16.4663 60.0762 16.4663 60.0762 16.3359 59.5C16.352 59.2194 16.352 59.2194 16.394 58.9273C16.4206 57.4395 15.1923 55.9986 14.2116 54.9772C14.0363 54.8005 13.858 54.6267 13.6796 54.4532C13.5561 54.3301 13.5561 54.3301 13.4301 54.2047C12.8424 53.6564 12.1805 53.2161 11.5214 52.7598C10.5199 52.0656 9.63745 51.32 8.76558 50.4688C8.6596 50.371 8.55363 50.2733 8.44444 50.1725C4.40583 46.3564 2.70303 39.9725 1.19526 34.7969C1.1526 34.651 1.1526 34.651 1.10908 34.5021C0.933409 33.8993 0.761981 33.2954 0.595345 32.69C0.542586 32.4992 0.489068 32.3086 0.434696 32.1182C0.0217322 30.6643 -0.410621 28.9644 0.323681 27.5503C0.890847 26.7502 1.62671 26.2322 2.57319 25.9732C3.72146 25.7835 4.65196 25.9557 5.65953 26.5288ZM2.39058 28.4219C2.03068 28.9618 2.05705 29.3865 2.1754 30.0202C2.2464 30.3205 2.32522 30.6177 2.40718 30.9153C2.43671 31.0258 2.46624 31.1364 2.49667 31.2503C2.59281 31.6083 2.69078 31.9658 2.78901 32.3233C2.82229 32.4456 2.85556 32.568 2.88985 32.6941C3.38746 34.5235 3.90571 36.3426 4.51921 38.1372C4.6073 38.3953 4.69406 38.6539 4.77964 38.9128C5.34364 40.6167 6.00607 42.2527 6.78169 43.8697C6.85678 44.0271 6.93188 44.1846 7.00925 44.3468C7.65992 45.6729 8.42715 46.9153 9.37153 48.0533C9.4621 48.1637 9.55267 48.2741 9.64598 48.3879C10.3956 49.2313 11.185 49.92 12.1025 50.5767C12.3269 50.7402 12.5511 50.9038 12.7754 51.0675C13.0759 51.2859 13.3766 51.5042 13.6775 51.7221C15.4186 52.9897 16.8285 54.5087 17.7968 56.4453C19.0576 55.8924 20.0588 54.5965 21.0092 53.6314C21.2349 53.4023 21.4609 53.1735 21.6873 52.945C21.793 52.8378 21.8987 52.7305 22.0076 52.62C22.2822 52.3572 22.5633 52.1337 22.867 51.9064C23.2871 51.5699 23.2871 51.5699 23.2644 51.1105C23.219 50.9391 23.1663 50.7695 23.1093 50.6016C23.0759 50.4899 23.0424 50.3781 23.008 50.263C22.8866 49.8719 22.7543 49.4858 22.6196 49.0992C22.5545 48.9036 22.5545 48.9036 22.4881 48.7041C21.5664 46.0413 19.9254 44.807 17.498 43.5376C17.1691 43.3645 16.8404 43.1909 16.5118 43.0173C16.4299 42.9742 16.3481 42.931 16.2638 42.8866C15.7278 42.6031 15.1977 42.3107 14.67 42.0118C14.5373 41.9371 14.4046 41.8624 14.2678 41.7855C14.0196 41.6452 13.7722 41.5035 13.5257 41.3601C13.415 41.298 13.3044 41.2359 13.1904 41.1719C13.0951 41.1171 12.9999 41.0623 12.9017 41.0059C12.5341 40.8772 12.3207 40.922 11.9531 41.0391C11.6663 41.2788 11.6663 41.2788 11.621 41.5952C11.7969 42.5842 12.8918 43.3009 13.661 43.8614C15.2661 44.9668 17.0943 45.831 18.938 46.4539C19.6114 46.6898 19.6114 46.6898 19.8533 47.0151C19.9571 47.4183 19.9151 47.683 19.789 48.0782C19.5151 48.3438 19.5151 48.3438 19.125 48.4766C18.3341 48.3206 17.615 48.0537 16.8754 47.7378C16.7664 47.6913 16.6573 47.6448 16.5449 47.5969C14.7899 46.8354 13.1663 45.9817 11.6875 44.7578C11.5748 44.6669 11.4621 44.576 11.3461 44.4824C7.50799 41.2278 6.49811 35.9809 5.47775 31.3C5.39609 30.9271 5.31239 30.5546 5.2284 30.1822C5.2046 30.0701 5.18079 29.9581 5.15626 29.8426C5.0037 29.1728 4.81251 28.6963 4.38276 28.1563C3.70039 27.8151 2.96498 27.9658 2.39058 28.4219ZM23.681 53.8778C23.4412 54.12 23.2022 54.3629 22.9641 54.6067C22.6859 54.8856 22.3959 55.144 22.0966 55.4C21.3574 56.0401 20.6763 56.7392 19.9882 57.4331C19.8523 57.5697 19.7164 57.7062 19.5805 57.8427C19.2512 58.1735 18.9223 58.5046 18.5937 58.836C18.7708 59.2251 18.968 59.5149 19.2593 59.8269C19.3382 59.9114 19.417 59.996 19.4982 60.0832C19.5805 60.1701 19.6628 60.2571 19.7475 60.3467C19.8671 60.4756 19.8671 60.4756 19.989 60.6071C20.5125 61.165 21.0595 61.6679 21.6484 62.1563C22.9021 60.9983 24.1313 59.8213 25.3282 58.6044C25.8645 58.0617 26.4133 57.546 26.9918 57.0484C27.2818 56.7956 27.5546 56.5288 27.8242 56.2544C27.9132 56.1642 28.0022 56.074 28.0939 55.981C28.1583 55.9151 28.2227 55.8492 28.289 55.7813C27.6691 55.0368 27.0083 54.3476 26.3217 53.6646C26.2187 53.5611 26.1158 53.4576 26.0097 53.351C25.9118 53.2533 25.814 53.1556 25.7132 53.055C25.6244 52.9663 25.5355 52.8776 25.444 52.7863C24.9108 52.2968 24.0684 53.4944 23.681 53.8778Z" fill="#58B347"/>
<path d="M33.8838 8.5C34.3552 8.55904 34.4102 8.6457 34.7554 9.02295C34.8191 9.10769 34.8828 9.19244 34.9484 9.27975C37.3793 12.0631 42.0564 12.6833 45.4867 13.0883C45.6516 13.1081 45.8165 13.128 45.9863 13.1484C46.124 13.1621 46.2616 13.1758 46.4035 13.1899C46.8407 13.3051 47.0097 13.4537 47.2813 13.8125C47.6736 15.3565 47.5789 17.0826 47.5801 18.6685C47.5802 18.775 47.5803 18.8815 47.5804 18.9912C47.5722 25.1811 46.4606 31.6993 42.0767 36.3491C39.8334 38.5166 36.7422 39.8729 33.6037 39.8546C30.4143 39.7249 27.4549 38.0535 25.2723 35.8054C21.2628 31.2545 20.2897 24.8244 20.303 18.9669C20.3037 18.5945 20.303 18.2222 20.3022 17.8498C20.3005 14.112 20.3005 14.112 20.8516 13.4141C21.7131 13.0948 22.6264 13.0249 23.5327 12.9077C26.6999 12.471 30.6978 11.799 32.8379 9.16406C33.165 8.77313 33.3642 8.54706 33.8838 8.5ZM33.8672 11.2891C33.7864 11.3534 33.7056 11.4178 33.6223 11.4841C30.6389 13.7656 26.877 14.6846 23.1981 15.0929C22.848 15.1206 22.848 15.1206 22.5781 15.2734C22.4453 15.937 22.4225 16.5972 22.4183 17.2719C22.4174 17.3728 22.4165 17.4738 22.4155 17.5779C22.4132 17.9054 22.4124 18.233 22.4121 18.5605C22.412 18.673 22.4119 18.7854 22.4118 18.9012C22.4191 24.6286 23.352 30.6873 27.4159 35.0065C29.1702 36.6947 31.6953 37.7896 34.1328 37.8516C37.1405 37.548 39.6832 36.0397 41.6035 33.7593C44.4242 30.0451 45.4301 25.0489 45.4489 20.4739C45.4496 20.329 45.4504 20.1841 45.4512 20.0348C45.4524 19.7312 45.4533 19.4277 45.4538 19.1241C45.4551 18.6578 45.4592 18.1916 45.4634 17.7253C45.4643 17.4296 45.465 17.1339 45.4655 16.8381C45.4679 16.6286 45.4679 16.6286 45.4704 16.4147C45.4698 16.2218 45.4698 16.2218 45.4692 16.0249C45.4697 15.9115 45.4702 15.7982 45.4707 15.6814C45.4546 15.5906 45.4385 15.4998 45.4219 15.4062C44.9829 15.1136 44.7279 15.0725 44.211 14.9974C44.0468 14.9725 43.8825 14.9475 43.7133 14.9218C43.6264 14.9088 43.5395 14.8958 43.4499 14.8825C40.3021 14.407 37.3158 13.6516 34.6641 11.8203C34.501 11.7122 34.3377 11.6043 34.1743 11.4966C34.073 11.4281 33.9716 11.3596 33.8672 11.2891Z" fill="#58B347"/>
<path d="M41.2269 17.1213C41.8891 17.5058 42.3199 17.9955 42.5996 18.7182C42.6958 19.5121 42.6556 20.1591 42.2344 20.8515C41.5539 21.7189 40.7499 22.4843 39.9683 23.2587C39.8408 23.3856 39.7133 23.5126 39.5859 23.6396C39.1176 24.1061 38.6485 24.572 38.1795 25.0378C37.7816 25.4331 37.3839 25.8287 36.9866 26.2246C36.8025 26.4079 36.618 26.5908 36.4334 26.7737C35.8406 27.3641 35.2685 27.9625 34.7236 28.5975C34.4967 28.8602 34.2592 29.1095 34.014 29.3551C33.9283 29.441 33.8426 29.5269 33.7543 29.6153C33.6683 29.7008 33.5823 29.7863 33.4937 29.8745C33.3608 30.0081 33.3608 30.0081 33.2252 30.1445C33.1403 30.2291 33.0555 30.3138 32.9681 30.401C32.892 30.477 32.8158 30.553 32.7373 30.6313C32.4679 30.8775 32.2855 30.943 31.9248 31.0117C31.4359 30.9392 31.341 30.8658 30.9883 30.5456C30.8949 30.4608 30.8015 30.3761 30.7052 30.2888C30.2222 29.8355 29.7482 29.3739 29.2784 28.9069C29.1747 28.804 29.0711 28.7011 28.9642 28.595C28.747 28.379 28.5299 28.1628 28.313 27.9464C27.9815 27.6162 27.6485 27.2874 27.3155 26.9585C27.1037 26.7476 26.8919 26.5365 26.6803 26.3253C26.5811 26.2278 26.4819 26.1302 26.3797 26.0297C25.6955 25.3426 25.1778 24.7378 25.1763 23.7236C25.1993 23.0186 25.3287 22.4758 25.7656 21.914C26.4421 21.2847 27.0768 21.0614 28.0075 21.0818C29.1304 21.2226 29.8747 22.107 30.6133 22.8769C30.7225 22.9885 30.8317 23.1001 30.9443 23.2152C31.2115 23.4886 31.4774 23.7632 31.7422 24.039C32.5492 23.3728 33.2793 22.6454 34.013 21.9C34.1407 21.771 34.2685 21.6421 34.3963 21.5132C34.935 20.9701 35.4731 20.4264 36.0099 19.8814C36.3399 19.5463 36.6709 19.2123 37.0025 18.8788C37.1885 18.6913 37.3734 18.5027 37.5582 18.3141C37.6722 18.1997 37.7861 18.0853 37.9035 17.9674C38.0027 17.8669 38.102 17.7664 38.2042 17.6628C39.0692 16.9284 40.1527 16.7146 41.2269 17.1213ZM39.7006 19.3537C39.6054 19.4563 39.5102 19.5588 39.4121 19.6645C39.0582 20.0423 38.6986 20.3954 38.3051 20.7309C37.6717 21.2825 37.0818 21.8725 36.4913 22.4691C36.322 22.6391 36.322 22.6391 36.1493 22.8126C35.7923 23.1713 35.4356 23.5304 35.0791 23.8896C34.6067 24.3655 34.1338 24.841 33.6607 25.3163C33.4978 25.4808 33.4978 25.4808 33.3316 25.6487C33.2314 25.7494 33.1311 25.8501 33.0278 25.9538C32.9396 26.0427 32.8514 26.1317 32.7605 26.2233C32.4605 26.5028 32.3115 26.5586 31.8989 26.5998C31.3869 26.5545 31.2167 26.4295 30.8291 26.0976C30.6424 25.9379 30.6424 25.9379 30.4519 25.7749C30.1117 25.4645 29.7888 25.1396 29.4673 24.8099C29.3726 24.7131 29.278 24.6163 29.1806 24.5166C28.9915 24.3213 28.8042 24.1243 28.6188 23.9256C28.5321 23.8353 28.4454 23.745 28.356 23.652C28.279 23.5699 28.2021 23.4878 28.1228 23.4032C27.8965 23.2074 27.8965 23.2074 27.5959 23.2829C27.5179 23.3133 27.4398 23.3437 27.3594 23.3749C27.3281 23.7506 27.3109 23.9673 27.5258 24.2852C27.6426 24.3998 27.6426 24.3998 27.7617 24.5167C27.8495 24.6044 27.9372 24.6921 28.0276 24.7825C28.1235 24.8749 28.2193 24.9674 28.3181 25.0626C28.4154 25.1589 28.5127 25.2553 28.6129 25.3545C28.924 25.6619 29.2373 25.9669 29.5508 26.2719C29.7621 26.4799 29.9732 26.688 30.1842 26.8963C30.7018 27.4066 31.2213 27.9149 31.7422 28.4218C32.2991 28.2034 32.6737 27.7942 33.0875 27.3786C33.1677 27.2991 33.2479 27.2196 33.3305 27.1377C33.595 26.875 33.8585 26.6114 34.1219 26.3477C34.3054 26.1647 34.489 25.9817 34.6725 25.7988C35.0569 25.4154 35.4408 25.0315 35.8243 24.6472C36.3163 24.1545 36.8097 23.6633 37.3035 23.1726C37.6828 22.7952 38.0612 22.417 38.4393 22.0384C38.6209 21.8569 38.8028 21.6757 38.985 21.4948C39.2394 21.2421 39.4925 20.9881 39.7453 20.7338C39.8588 20.6218 39.8588 20.6218 39.9746 20.5075C40.3301 20.1472 40.5668 19.8959 40.6406 19.3906C40.5749 19.2591 40.5749 19.2591 40.5078 19.1249C39.985 19.0684 39.985 19.0684 39.7006 19.3537Z" fill="#58B347"/>
</g>
<defs>
<clipPath id="clip0_4328_2782">
<rect width="68" height="68" fill="white"/>
</clipPath>
</defs>
</svg>
