<svg width="53" height="52" viewBox="0 0 53 52" fill="none" xmlns="http://www.w3.org/2000/svg">
<g clip-path="url(#clip0_2134_9771)">
<path d="M24.2477 25.0797C25.8576 25.1115 27.4638 25.1057 29.0736 25.0732C44.8747 24.7628 44.8747 24.7628 48.7486 28.3297C49.9836 29.53 51.0598 30.9039 51.9295 32.3902C51.9663 32.4527 52.0031 32.5153 52.041 32.5797C52.2682 32.9907 52.3953 33.3491 52.3986 33.8204C52.2455 34.1146 52.2455 34.1146 51.9924 34.3282C51.675 34.3927 51.675 34.3927 51.2935 34.394C51.2232 34.395 51.153 34.3959 51.0806 34.3969C50.8451 34.3994 50.6097 34.3983 50.3742 34.3971C50.2054 34.3981 50.0365 34.3994 49.8677 34.4008C49.4089 34.404 48.9503 34.4039 48.4915 34.4031C48.1084 34.4027 47.7253 34.4038 47.3422 34.4049C46.438 34.4074 45.5339 34.4073 44.6297 34.4056C43.6976 34.4038 42.7656 34.4065 41.8335 34.4113C41.0329 34.4154 40.2323 34.4167 39.4317 34.4157C38.9537 34.4152 38.4757 34.4157 37.9978 34.4189C37.5479 34.4217 37.0982 34.4211 36.6483 34.4179C36.4836 34.4173 36.3188 34.4179 36.1541 34.4198C34.7563 34.4347 34.7563 34.4347 34.2638 34.0142C34.1443 33.8846 34.0276 33.7522 33.9142 33.6173C33.7901 33.4952 33.665 33.3742 33.5389 33.2542C33.4093 33.1248 33.2799 32.9952 33.1507 32.8653C33.0793 32.7939 33.0079 32.7224 32.9342 32.6488C32.701 32.4155 32.4682 32.1819 32.2353 31.9482C32.0725 31.7853 31.9097 31.6223 31.7469 31.4594C31.3206 31.0327 30.8946 30.6057 30.4687 30.1786C30.0331 29.742 29.5973 29.3057 29.1614 28.8694C28.3079 28.0148 27.4547 27.1599 26.6017 26.3048C26.2994 26.4407 26.0883 26.59 25.855 26.8247C25.7898 26.8897 25.7246 26.9548 25.6574 27.0219C25.5518 27.1288 25.5518 27.1288 25.444 27.2379C25.369 27.313 25.294 27.3882 25.2167 27.4656C24.9688 27.7142 24.7217 27.9634 24.4745 28.2126C24.3025 28.3852 24.1306 28.5577 23.9585 28.7302C23.5057 29.1844 23.0534 29.6391 22.6013 30.094C21.877 30.8227 21.152 31.5507 20.4267 32.2784C20.173 32.5332 19.9196 32.7883 19.6662 33.0435C19.5114 33.1989 19.3567 33.3544 19.2019 33.5098C19.1311 33.5813 19.0603 33.6528 18.9873 33.7264C18.8904 33.8236 18.8904 33.8236 18.7915 33.9228C18.7353 33.9793 18.6791 34.0359 18.6212 34.0942C18.303 34.386 18.0152 34.342 17.5965 34.3438C17.5261 34.3443 17.4557 34.3447 17.3831 34.3452C17.1461 34.3465 16.9091 34.3472 16.6721 34.3478C16.5026 34.3486 16.3331 34.3494 16.1637 34.3503C15.6062 34.353 15.0487 34.3545 14.4912 34.356C14.2995 34.3565 14.1078 34.3571 13.9161 34.3576C13.1189 34.3598 12.3217 34.3617 11.5245 34.3628C10.3809 34.3645 9.23723 34.3679 8.09358 34.3737C7.29005 34.3776 6.48652 34.3796 5.68298 34.3801C5.20272 34.3805 4.72251 34.3817 4.24226 34.385C3.7906 34.388 3.33899 34.3887 2.88732 34.3875C2.72142 34.3875 2.55551 34.3883 2.38962 34.3901C2.16333 34.3924 1.93725 34.3916 1.71095 34.3899C1.52093 34.3904 1.52093 34.3904 1.32706 34.391C1.008 34.3282 1.00799 34.3282 0.754587 34.1149C0.550248 33.7212 0.588912 33.5348 0.703309 33.1094C0.817022 32.8553 0.930716 32.6284 1.0709 32.3902C1.1107 32.3222 1.15049 32.2542 1.19149 32.1841C6.29461 23.7165 15.5672 24.9047 24.2477 25.0797Z" fill="#58B347"/>
<path d="M27.3125 29.1484C27.7631 29.5347 28.1911 29.9119 28.604 30.3333C28.6839 30.4142 28.6839 30.4142 28.7655 30.4967C28.8799 30.6125 28.9941 30.7283 29.1083 30.8443C29.2895 31.0283 29.4712 31.2118 29.6531 31.3951C30.1696 31.916 30.6859 32.4372 31.2006 32.96C31.5166 33.281 31.8336 33.6009 32.1513 33.9203C32.2715 34.0414 32.3913 34.163 32.5107 34.2849C33.5866 35.4099 33.5866 35.4099 35.0399 35.8656C35.1539 35.8666 35.1539 35.8666 35.2703 35.8676C35.358 35.8686 35.4457 35.8696 35.5361 35.8706C35.6315 35.8712 35.7269 35.8718 35.8252 35.8724C35.9263 35.8734 36.0274 35.8744 36.1316 35.8755C36.4657 35.8787 36.7998 35.8812 37.1339 35.8837C37.3656 35.8858 37.5973 35.8879 37.8289 35.8901C38.4387 35.8957 39.0485 35.9007 39.6582 35.9056C40.2805 35.9107 40.9027 35.9164 41.5249 35.922C42.7458 35.9329 43.9666 35.9432 45.1875 35.9531C45.1946 37.8892 45.2 39.8252 45.2033 41.7613C45.2049 42.6603 45.207 43.5592 45.2105 44.4582C45.2135 45.2418 45.2155 46.0253 45.2162 46.8089C45.2166 47.2238 45.2175 47.6386 45.2197 48.0535C45.2218 48.4441 45.2224 48.8347 45.222 49.2253C45.222 49.3686 45.2227 49.5118 45.2238 49.655C45.2253 49.8509 45.2248 50.0468 45.2241 50.2427C45.2244 50.3523 45.2247 50.4618 45.225 50.5747C45.1649 51.0683 44.9898 51.3956 44.6226 51.7271C44.2197 52.0059 43.9986 52.0126 43.5074 52.0122C43.4385 52.0123 43.3697 52.0124 43.2988 52.0125C43.0662 52.0126 42.8337 52.0121 42.6012 52.0115C42.4324 52.0115 42.2635 52.0115 42.0947 52.0116C41.6415 52.0116 41.1882 52.011 40.735 52.0103C40.3101 52.0097 39.8852 52.0097 39.4604 52.0096C38.2167 52.0091 36.9731 52.0077 35.7295 52.0063C32.9519 52.0043 30.1743 52.0022 27.3125 52C27.3125 44.459 27.3125 36.918 27.3125 29.1484Z" fill="#58B347"/>
<path d="M25.6874 29.1484C25.6874 36.6895 25.6874 44.2305 25.6874 52C22.9182 52.0084 20.149 52.0168 17.2958 52.0254C16.4212 52.0291 15.5466 52.0328 14.6454 52.0366C13.578 52.0384 13.578 52.0384 13.0784 52.0388C12.7292 52.0392 12.3801 52.0407 12.0309 52.0429C11.5854 52.0457 11.14 52.0465 10.6945 52.0459C10.5311 52.0461 10.3676 52.0469 10.2042 52.0484C9.98322 52.0505 9.76238 52.05 9.54139 52.0489C9.35575 52.0494 9.35575 52.0494 9.16635 52.05C8.67636 51.9776 8.35846 51.7528 8.03461 51.3843C7.80681 51.0126 7.79986 50.7053 7.80023 50.2794C7.80009 50.1533 7.79995 50.0273 7.7998 49.8974C7.80016 49.7575 7.80053 49.6176 7.80091 49.4777C7.80094 49.3306 7.80092 49.1835 7.80087 49.0363C7.80084 48.6366 7.80143 48.2369 7.80214 47.8372C7.80278 47.4196 7.80284 47.0019 7.80296 46.5843C7.80327 45.7934 7.80411 45.0024 7.80513 44.2114C7.80626 43.311 7.80682 42.4106 7.80733 41.5102C7.80839 39.6578 7.81018 37.8055 7.81244 35.9531C8.00407 35.9522 8.00407 35.9522 8.19957 35.9513C9.40545 35.9455 10.6113 35.9381 11.8172 35.9292C12.4371 35.9246 13.057 35.9207 13.6769 35.9179C14.2755 35.9153 14.8741 35.9112 15.4726 35.9061C15.7006 35.9044 15.9287 35.9032 16.1567 35.9026C16.4768 35.9016 16.7969 35.8988 17.1171 35.8955C17.2107 35.8956 17.3043 35.8958 17.4007 35.8959C18.2289 35.884 18.9576 35.7441 19.5699 35.1514C19.6548 35.0702 19.7398 34.989 19.8274 34.9053C19.9631 34.7704 19.9631 34.7704 20.1015 34.6328C20.2013 34.535 20.3011 34.4372 20.4009 34.3394C20.6763 34.0682 20.9492 33.7948 21.2215 33.5205C21.4009 33.3397 21.5807 33.1593 21.7606 32.9789C22.141 32.5974 22.5209 32.2155 22.9008 31.8335C23.3445 31.3874 23.7884 30.9414 24.2327 30.4959C24.4101 30.3179 24.5872 30.1395 24.7642 29.9612C24.8718 29.8532 24.9794 29.7453 25.087 29.6374C25.2282 29.4954 25.2282 29.4954 25.3723 29.3505C25.5859 29.1484 25.5859 29.1484 25.6874 29.1484Z" fill="#58B347"/>
<path d="M26.6143 7.91553C26.9647 8.04503 27.0201 8.1124 27.2109 8.42969C27.3297 8.73697 27.424 9.05059 27.5188 9.36597C27.561 9.5023 27.561 9.5023 27.6041 9.64138C27.7242 10.0293 27.8425 10.4179 27.9609 10.8063C28.0477 11.0903 28.1355 11.3739 28.2234 11.6575C28.2497 11.7452 28.2761 11.8329 28.3032 11.9233C28.3287 12.0053 28.3541 12.0873 28.3803 12.1718C28.4022 12.2437 28.424 12.3155 28.4465 12.3895C28.5488 12.636 28.6499 12.8075 28.8359 13C29.0682 13.0604 29.0682 13.0604 29.3318 13.0506C29.4325 13.0516 29.5332 13.0526 29.6369 13.0537C29.7454 13.0529 29.854 13.052 29.9658 13.0512C30.1332 13.0526 30.1332 13.0526 30.3039 13.0541C30.6609 13.057 31.0179 13.0573 31.375 13.0571C31.7321 13.0575 32.0891 13.0585 32.4461 13.0613C32.6684 13.063 32.8908 13.0633 33.1131 13.062C33.2138 13.0627 33.3144 13.0634 33.4182 13.0641C33.5511 13.064 33.5511 13.064 33.6867 13.0638C33.965 13.11 34.0529 13.1811 34.2188 13.4062C34.2886 13.7363 34.2886 13.7363 34.2188 14.1172C33.5324 15.03 32.1961 15.6996 31.2552 16.3333C31.1896 16.3782 31.124 16.4232 31.0565 16.4695C30.9334 16.5538 30.8095 16.6369 30.6846 16.7187C30.4519 16.8793 30.282 17.0043 30.1717 17.2692C30.1479 17.7329 30.3086 18.1198 30.4609 18.5538C30.5265 18.7484 30.5921 18.943 30.6577 19.1376C30.7624 19.443 30.8675 19.7483 30.9727 20.0536C31.0741 20.3488 31.1738 20.6446 31.2734 20.9405C31.3054 21.0313 31.3373 21.1221 31.3702 21.2156C31.5308 21.6936 31.6379 22.0482 31.4766 22.5469C31.2734 22.75 31.2734 22.75 30.9449 22.7889C30.4825 22.7419 30.2949 22.6123 29.9277 22.3311C29.8688 22.2868 29.8099 22.2425 29.7493 22.1969C29.6185 22.0986 29.4882 21.9996 29.3583 21.9001C29.0326 21.6522 28.702 21.4112 28.3719 21.1693C27.301 20.3843 27.301 20.3843 26.9998 20.1443C26.7093 19.9411 26.5436 19.9522 26.1953 20.0078C25.9268 20.1552 25.6963 20.342 25.459 20.5347C25.3164 20.6461 25.1737 20.7573 25.0309 20.8683C24.9564 20.9267 24.882 20.9851 24.8052 21.0453C24.4018 21.3566 23.9877 21.6531 23.5737 21.9502C23.4955 22.0066 23.4172 22.0631 23.3366 22.1213C22.3682 22.8187 22.3682 22.8187 21.7266 22.75C21.5234 22.5913 21.5234 22.5913 21.4219 22.3438C21.4696 21.7608 21.6375 21.2415 21.8257 20.6926C21.8861 20.5121 21.9464 20.3316 22.0067 20.151C22.1016 19.8689 22.1969 19.587 22.2929 19.3053C22.3858 19.0317 22.4772 18.7577 22.5684 18.4836C22.5975 18.3996 22.6266 18.3156 22.6566 18.229C22.8532 17.651 22.8532 17.651 22.7422 17.0625C22.5429 16.8876 22.3592 16.7491 22.1392 16.6055C22.01 16.5172 21.881 16.4289 21.752 16.3405C21.6826 16.2935 21.6132 16.2466 21.5417 16.1982C21.1436 15.926 20.753 15.6434 20.3618 15.3613C20.2862 15.3075 20.2106 15.2536 20.1327 15.1981C19.7779 14.9432 19.428 14.683 19.0887 14.4076C19.0033 14.3384 19.0033 14.3384 18.9161 14.2678C18.7509 14.0833 18.7074 13.9561 18.6797 13.7109C18.7963 13.4831 18.9041 13.2834 19.0859 13.1016C19.2433 13.0918 19.4011 13.0889 19.5588 13.0888C19.7098 13.0882 19.7098 13.0882 19.8639 13.0876C19.9735 13.0875 20.0831 13.0874 20.196 13.0873C20.4257 13.0854 20.6554 13.0834 20.8851 13.0813C21.2491 13.0784 21.613 13.0762 21.977 13.0761C22.3271 13.0758 22.677 13.0723 23.027 13.0682C23.1362 13.069 23.2454 13.0697 23.3579 13.0704C23.9189 13.0815 23.9189 13.0815 24.3687 12.7994C24.4017 12.698 24.4347 12.5966 24.4688 12.4922C24.492 12.4264 24.5153 12.3606 24.5393 12.2929C24.6219 12.054 24.696 11.8135 24.7695 11.5718C24.8263 11.3906 24.8831 11.2094 24.9401 11.0283C25.0285 10.7443 25.1164 10.4602 25.2034 10.1758C25.288 9.9001 25.3745 9.62509 25.4614 9.3501C25.4993 9.22313 25.4993 9.22313 25.538 9.09359C25.7191 8.52609 25.9362 7.92909 26.6143 7.91553Z" fill="#58B347"/>
<path d="M12.5861 16.1485C14.6014 16.8498 16.0441 18.5426 16.9533 20.4142C17.7584 22.1958 17.7584 22.1958 17.6642 23.0548C17.5246 23.3722 17.5246 23.3722 17.258 23.5626C16.9414 23.6269 16.6578 23.6427 16.3439 23.5626C15.8906 23.2388 15.8 22.8029 15.652 22.2931C15.4022 21.4948 15.0938 20.8029 14.6174 20.1095C14.5558 20.0199 14.4943 19.9304 14.4309 19.8381C13.761 18.9357 12.9032 18.3438 11.8847 17.8858C11.6616 17.768 11.5223 17.6678 11.3674 17.4688C11.3029 16.9689 11.2894 16.7697 11.5768 16.3517C11.9533 16.0953 12.1363 16.1123 12.5861 16.1485Z" fill="#58B347"/>
<path d="M41.1248 16.1484C41.4224 16.3511 41.5966 16.4966 41.6778 16.8566C41.6965 17.1897 41.6777 17.4118 41.4684 17.6762C41.1788 17.914 40.8883 18.0504 40.5472 18.2051C38.9772 18.9564 38.1462 20.2689 37.4686 21.8359C37.356 22.1813 37.255 22.5256 37.1659 22.8777C37.0461 23.1998 36.9277 23.3535 36.6561 23.5625C36.3422 23.6426 36.0586 23.6268 35.742 23.5625C35.4754 23.372 35.4754 23.372 35.3357 23.0547C35.1827 21.6583 36.1988 19.8792 37.0052 18.8208C37.125 18.6741 37.2456 18.5281 37.367 18.3828C37.4211 18.3139 37.4751 18.2451 37.5308 18.1741C38.2688 17.2689 39.8728 15.8674 41.1248 16.1484Z" fill="#58B347"/>
<path d="M26.8047 -6.41961e-05C27.1437 0.218387 27.2856 0.325355 27.4141 0.710873C27.4264 0.989706 27.4332 1.26588 27.4347 1.5448C27.4353 1.62657 27.4359 1.70834 27.4365 1.79259C27.4374 1.96555 27.4381 2.13851 27.4385 2.31147C27.4395 2.5754 27.4426 2.83924 27.4458 3.10315C27.4465 3.27136 27.447 3.43957 27.4474 3.60778C27.4487 3.68641 27.4499 3.76503 27.4512 3.84603C27.4493 4.3087 27.3988 4.60985 27.1094 4.9765C26.7852 5.13861 26.4457 5.13033 26.0938 5.07806C25.8468 4.88812 25.724 4.7448 25.586 4.46869C25.5734 4.19315 25.5668 3.92033 25.5653 3.64468C25.5647 3.56276 25.5642 3.48085 25.5636 3.39645C25.5626 3.22288 25.5619 3.04931 25.5616 2.87575C25.5606 2.61092 25.5574 2.34618 25.5542 2.08137C25.5536 1.9127 25.553 1.74402 25.5526 1.57534C25.5507 1.45694 25.5507 1.45694 25.5488 1.33613C25.5507 0.871583 25.5986 0.569783 25.8906 0.203061C26.2474 -0.0347669 26.3847 -0.0504632 26.8047 -6.41961e-05Z" fill="#58B347"/>
<path d="M39.9063 7.51566C40.2364 7.78797 40.302 7.9576 40.3697 8.37895C40.2967 8.83311 40.1457 8.94102 39.8048 9.24223C39.6025 9.37568 39.3954 9.50194 39.1847 9.6215C39.1273 9.65435 39.0698 9.68721 39.0107 9.72106C38.8294 9.82459 38.6474 9.92697 38.4654 10.0293C38.3422 10.0995 38.219 10.1697 38.0958 10.24C36.8261 10.9625 36.8261 10.9625 36.1485 10.8672C35.8373 10.6597 35.7604 10.5178 35.647 10.1626C35.6391 9.77538 35.7146 9.65284 35.9454 9.34379C36.1709 9.18351 36.3848 9.04652 36.6246 8.91215C36.6912 8.87386 36.7577 8.83558 36.8263 8.79613C36.9676 8.71512 37.1091 8.63461 37.2508 8.55455C37.4701 8.42897 37.6862 8.29887 37.902 8.16749C38.0432 8.08344 38.1845 7.99946 38.3257 7.91557C38.3904 7.87554 38.4551 7.83551 38.5218 7.79427C39.0045 7.51394 39.3484 7.45887 39.9063 7.51566Z" fill="#58B347"/>
<path d="M13.6549 7.46662C14.2123 7.57556 14.6918 7.90394 15.1757 8.18859C15.2864 8.2513 15.397 8.31401 15.511 8.37862C17.1897 9.34284 17.1897 9.34284 17.3784 9.90881C17.3575 10.2917 17.2913 10.4677 17.0546 10.7657C16.7247 10.9307 16.3962 10.9169 16.039 10.8673C15.7247 10.7474 15.4444 10.5835 15.1567 10.4103C15.0383 10.3415 15.0383 10.3415 14.9175 10.2714C14.6808 10.1333 14.4458 9.99267 14.2109 9.85168C14.0759 9.7724 13.9409 9.69318 13.8058 9.61404C12.924 9.08927 12.924 9.08927 12.6875 8.73449C12.6423 8.32768 12.6526 8.09181 12.8398 7.72521C13.1239 7.49079 13.2907 7.45657 13.6549 7.46662Z" fill="#58B347"/>
<path d="M34.3203 2.03129C34.6186 2.18363 34.6186 2.18363 34.8281 2.43754C34.9607 3.26201 34.5635 3.82548 34.1552 4.51957C34.0925 4.6302 34.0298 4.74083 33.9652 4.85481C33.001 6.53355 33.001 6.53355 32.435 6.72221C32.0522 6.70132 31.8761 6.63512 31.5781 6.39848C31.4076 6.05748 31.4104 5.7493 31.4765 5.38285C31.6677 4.93678 31.9094 4.52457 32.1557 4.10697C32.2193 3.99549 32.2829 3.88402 32.3483 3.76916C33.3939 1.95279 33.3939 1.95279 34.3203 2.03129Z" fill="#58B347"/>
<path d="M19.3902 2.0313C19.7755 2.36518 20.0269 2.71782 20.2773 3.1592C20.3101 3.21661 20.343 3.27402 20.3768 3.33317C20.4804 3.51451 20.5827 3.69647 20.6851 3.87847C20.7552 4.0017 20.8255 4.12488 20.8958 4.24802C21.6183 5.51775 21.6183 5.51775 21.523 6.19536C21.3155 6.50661 21.1735 6.58349 20.8184 6.69683C20.4311 6.70473 20.3086 6.62922 19.9996 6.39849C19.8393 6.17299 19.7023 5.95908 19.5679 5.71929C19.5296 5.65271 19.4913 5.58613 19.4519 5.51753C19.3709 5.37631 19.2904 5.23481 19.2103 5.09305C19.0847 4.87373 18.9546 4.65771 18.8233 4.44182C18.7392 4.30063 18.6552 4.1594 18.5713 4.01812C18.5313 3.95342 18.4913 3.88872 18.45 3.82206C18.1697 3.3394 18.1146 2.99548 18.1714 2.43755C18.5244 2.00969 18.8512 1.94468 19.3902 2.0313Z" fill="#58B347"/>
</g>
<defs>
<clipPath id="clip0_2134_9771">
<rect width="52" height="52" fill="white" transform="translate(0.5)"/>
</clipPath>
</defs>
</svg>
