<svg width="53" height="52" viewBox="0 0 53 52" fill="none" xmlns="http://www.w3.org/2000/svg">
<g clip-path="url(#clip0_2134_9762)">
<path d="M12.9689 23.6909C13.1439 23.6919 13.3189 23.6929 13.494 23.6937C13.9177 23.6959 14.3415 23.6994 14.7653 23.7036C14.7605 23.7597 14.7557 23.8157 14.7507 23.8735C14.6338 25.2382 14.5177 26.6029 14.4025 27.9677C14.3467 28.6277 14.2907 29.2877 14.2341 29.9477C14.1795 30.5844 14.1255 31.2212 14.0721 31.858C14.0516 32.1012 14.0308 32.3442 14.0097 32.5873C13.9804 32.9274 13.9519 33.2676 13.9236 33.6078C13.9102 33.7589 13.9102 33.7589 13.8966 33.9131C13.889 34.0061 13.8815 34.0991 13.8737 34.1949C13.8669 34.2753 13.86 34.3557 13.853 34.4386C13.8495 34.8929 13.9649 35.2427 14.1829 35.6364C14.2547 35.7673 14.2547 35.7673 14.3281 35.9008C14.3802 35.994 14.4323 36.0871 14.486 36.1831C14.5396 36.2801 14.5933 36.3771 14.6486 36.477C14.8222 36.79 14.9968 37.1022 15.1715 37.4145C15.2916 37.6308 15.4117 37.847 15.5317 38.0632C15.6486 38.2723 15.7655 38.4814 15.8825 38.6904C15.9646 38.838 15.9646 38.838 16.0484 38.9885C16.474 39.8326 16.474 39.8326 17.1964 40.3725C17.5472 40.3582 17.6377 40.2862 17.8718 40.0369C18.195 39.6205 18.4315 39.1464 18.6818 38.6841C19.4134 37.3433 19.4134 37.3433 19.8009 36.7179C19.8856 36.5789 19.8856 36.5789 19.9719 36.4372C20.0772 36.2653 20.1847 36.0947 20.2947 35.9258C21.0263 34.7143 20.5965 32.9871 20.4782 31.6382C20.4599 31.425 20.4417 31.2117 20.4235 30.9985C20.3759 30.441 20.3277 29.8836 20.2793 29.3261C20.2016 28.4313 20.1249 27.5363 20.0483 26.6413C20.0215 26.3296 19.9944 26.0179 19.9673 25.7061C19.9508 25.5154 19.9344 25.3246 19.918 25.1338C19.9104 25.0475 19.9028 24.9612 19.895 24.8722C19.8615 24.4814 19.8341 24.0964 19.8434 23.7036C24.0507 23.6169 24.0507 23.6169 25.6325 24.1098C25.7387 24.1425 25.7387 24.1425 25.8471 24.1758C28.9813 25.1745 31.4082 27.3374 32.9319 30.2363C33.2021 30.7775 33.414 31.3291 33.5988 31.9048C33.6226 31.979 33.6465 32.0533 33.6711 32.1298C33.9889 33.1937 34.0925 34.2769 34.0933 35.383C34.0941 35.4968 34.095 35.6106 34.0958 35.7279C34.0982 36.0993 34.0992 36.4706 34.0998 36.8421C34.1007 37.1024 34.1017 37.3627 34.1026 37.623C34.1043 38.1663 34.1051 38.7097 34.1054 39.253C34.1057 39.8793 34.1088 40.5055 34.113 41.1318C34.117 41.7375 34.1181 42.3433 34.1182 42.9491C34.1187 43.2055 34.1199 43.462 34.122 43.7184C34.1248 44.0767 34.1243 44.4348 34.123 44.793C34.1253 44.9508 34.1253 44.9508 34.1276 45.1117C34.1208 45.785 33.9964 46.2403 33.5543 46.7583C32.9158 47.2967 32.2231 47.217 31.4187 47.2042C31.2809 47.2035 31.143 47.2029 31.0051 47.2025C30.6442 47.2009 30.2835 47.1969 29.9227 47.1924C29.5537 47.1883 29.1846 47.1864 28.8156 47.1844C28.0931 47.18 27.3706 47.1731 26.6481 47.1645C26.6479 47.0753 26.6478 46.9861 26.6476 46.8942C26.6458 46.0529 26.6416 45.2116 26.6347 44.3703C26.6312 43.9378 26.6286 43.5053 26.6282 43.0728C26.6278 42.6552 26.6249 42.2378 26.6203 41.8202C26.619 41.6611 26.6186 41.5019 26.619 41.3427C26.6195 41.1195 26.6169 40.8964 26.6135 40.6732C26.6125 40.4827 26.6125 40.4827 26.6114 40.2884C26.5289 39.8629 26.3769 39.7089 26.0387 39.4458C25.7184 39.4117 25.7184 39.4117 25.4293 39.5473C24.1211 41.7277 25.0594 44.6221 25.0231 47.1645C19.8952 47.1645 14.7673 47.1645 9.48402 47.1645C9.43375 43.5448 9.43375 43.5448 9.38246 39.852C9.21001 39.5219 9.21001 39.5219 8.88734 39.4648C8.56007 39.4452 8.42796 39.463 8.16371 39.6489C8.01476 39.9468 8.04535 40.2138 8.04129 40.5464C8.04029 40.6177 8.03928 40.6891 8.03824 40.7626C8.03503 40.9989 8.03252 41.2352 8.03001 41.4715C8.02792 41.6351 8.02579 41.7988 8.02361 41.9625C8.018 42.3936 8.01299 42.8247 8.00809 43.2558C8.00299 43.6956 7.99734 44.1353 7.99172 44.5751C7.9808 45.4382 7.97049 46.3014 7.96058 47.1645C7.1501 47.174 6.33964 47.1812 5.52912 47.1856C5.15273 47.1877 4.77637 47.1906 4.39999 47.1952C4.03649 47.1996 3.67301 47.202 3.30948 47.2031C3.17108 47.2038 3.03268 47.2053 2.89429 47.2075C1.55051 47.228 1.55051 47.228 1.05433 46.7583C0.693326 46.3485 0.534268 46.1149 0.531572 45.5725C0.530845 45.4724 0.530119 45.3722 0.52937 45.2689C0.529097 45.1586 0.528824 45.0482 0.528542 44.9345C0.527875 44.8186 0.527208 44.7026 0.52652 44.5831C0.52451 44.1973 0.523329 43.8116 0.522319 43.4258C0.521905 43.2938 0.521491 43.1618 0.521064 43.0258C0.519161 42.3979 0.517683 41.7701 0.516838 41.1422C0.515851 40.4214 0.513195 39.7006 0.509069 38.9798C0.50598 38.4207 0.504499 37.8616 0.504165 37.3024C0.503929 36.9696 0.502844 36.6368 0.500462 36.304C0.47629 32.6983 1.39703 29.6624 3.96791 27.0425C5.52808 25.5051 7.52261 24.3396 9.68714 23.9067C9.77146 23.8899 9.85578 23.873 9.94265 23.8556C10.954 23.6758 11.9449 23.6804 12.9689 23.6909Z" fill="#58B347"/>
<path d="M35.3392 14.4244C35.4483 14.4243 35.4483 14.4243 35.5595 14.4243C35.7126 14.4245 35.8656 14.4255 36.0187 14.4272C36.2525 14.4296 36.4862 14.4293 36.72 14.4286C36.8691 14.4291 37.0182 14.4299 37.1673 14.4308C37.2369 14.4307 37.3066 14.4306 37.3783 14.4305C37.7418 14.4359 38.0293 14.4467 38.3286 14.6644C38.4485 14.9185 38.5439 15.1554 38.6332 15.4198C38.6596 15.4926 38.6861 15.5655 38.7133 15.6405C38.8315 15.9686 38.9396 16.2954 39.0351 16.631C39.1784 17.1469 39.1784 17.1469 39.5152 17.5435C39.7586 17.6572 40.0011 17.7345 40.2582 17.8129C40.5191 17.9066 40.7792 18.0018 41.039 18.0985C41.1085 18.1237 41.1779 18.1489 41.2495 18.1748C41.861 18.401 42.4233 18.6911 42.9917 19.009C43.3726 19.1599 43.5248 19.1531 43.9145 19.0316C44.2796 18.8562 44.6277 18.6516 44.9767 18.4464C45.4857 18.1613 45.9617 17.9698 46.5551 18.016C46.8201 18.1596 46.8201 18.1596 47.0375 18.3842C47.1208 18.4676 47.2041 18.551 47.2899 18.6369C47.3825 18.7336 47.4752 18.8304 47.5707 18.9301C47.6872 19.0441 47.8042 19.1577 47.9214 19.2708C48.0416 19.3878 48.1617 19.5048 48.2817 19.622C48.339 19.6779 48.3963 19.7338 48.4553 19.7914C49.0084 20.344 49.0084 20.344 49.0942 20.6566C49.0817 21.3204 48.7848 21.8253 48.4785 22.3959C48.3832 22.5734 48.2889 22.7514 48.1956 22.9299C48.1537 23.0078 48.1118 23.0857 48.0686 23.166C47.9632 23.434 47.9498 23.6209 47.977 23.9066C48.0905 24.1354 48.208 24.3484 48.3388 24.5668C48.7566 25.2967 49.017 26.0494 49.2531 26.8549C49.2797 26.9424 49.3064 27.03 49.3338 27.1201C49.3563 27.1982 49.3788 27.2762 49.4019 27.3567C49.5678 27.704 49.8141 27.8298 50.1624 27.9719C50.2562 28.0024 50.35 28.0329 50.4466 28.0643C50.5493 28.0986 50.652 28.1329 50.7579 28.1683C50.9736 28.2388 51.1895 28.3091 51.4053 28.3793C51.5079 28.4136 51.6105 28.4479 51.7162 28.4833C51.8098 28.5138 51.9035 28.5443 52 28.5757C52.3952 28.7457 52.3952 28.7457 52.5473 28.9847C52.5801 29.2714 52.5948 29.5353 52.5949 29.8222C52.5957 29.9043 52.5965 29.9863 52.5973 30.0708C52.5984 30.2442 52.5986 30.4175 52.5982 30.5909C52.5981 30.856 52.6023 31.1209 52.6068 31.3859C52.6073 31.5545 52.6076 31.723 52.6076 31.8916C52.6093 31.9707 52.6109 32.0499 52.6127 32.1314C52.6078 32.513 52.5857 32.7007 52.324 32.9864C52.0462 33.145 51.7949 33.2545 51.4896 33.3484C51.3872 33.3814 51.2849 33.4145 51.1794 33.4485C50.9651 33.5155 50.7506 33.5819 50.5359 33.6477C50.4338 33.6809 50.3317 33.7141 50.2264 33.7483C50.1334 33.7771 50.0404 33.8059 49.9445 33.8355C49.5395 34.047 49.4304 34.3775 49.2866 34.7948C49.2503 34.9157 49.2141 35.0365 49.1767 35.161C48.9679 35.8307 48.6873 36.4396 48.3506 37.0545C48.123 37.4811 47.9666 37.8341 47.977 38.3285C48.1302 38.7193 48.3306 39.08 48.5356 39.4457C48.6442 39.6394 48.7511 39.834 48.8561 40.0297C48.9041 40.115 48.9521 40.2004 49.0015 40.2883C49.1282 40.6636 49.0955 40.8925 48.9926 41.2738C48.7779 41.5673 48.7779 41.5673 48.4967 41.8507C48.4217 41.9266 48.4217 41.9266 48.3451 42.004C48.2395 42.11 48.1331 42.2153 48.026 42.3199C47.8631 42.4795 47.7038 42.642 47.5446 42.8052C47.4411 42.9083 47.3374 43.0112 47.2335 43.1138C47.14 43.2066 47.0465 43.2994 46.9502 43.3951C46.598 43.6527 46.38 43.7053 45.9457 43.7113C45.6712 43.6187 45.6712 43.6187 45.4125 43.4733C45.2696 43.3965 45.2696 43.3965 45.1237 43.3182C44.9269 43.2079 44.7302 43.0976 44.5334 42.9873C43.9641 42.6785 43.9641 42.6785 43.3325 42.5866C42.9512 42.7119 42.6078 42.877 42.2578 43.0702C41.5771 43.4326 40.8955 43.6886 40.1506 43.8885C39.7751 43.9987 39.5836 44.0778 39.3144 44.3727C39.0859 44.8396 38.931 45.316 38.7792 45.8124C38.7207 46.0035 38.6614 46.1943 38.6011 46.3849C38.5755 46.4687 38.5499 46.5526 38.5235 46.639C38.4221 46.8788 38.3275 47.0022 38.1254 47.1644C37.7966 47.274 37.559 47.2776 37.2133 47.2759C37.0952 47.2756 36.977 47.2753 36.8553 47.2749C36.7319 47.2741 36.6085 47.2732 36.4814 47.2723C36.3568 47.2719 36.2322 47.2714 36.1039 47.271C35.796 47.2698 35.488 47.2681 35.1801 47.266C35.2009 47.1986 35.2217 47.1311 35.2432 47.0617C35.2706 46.972 35.2979 46.8823 35.3261 46.7899C35.3532 46.7015 35.3803 46.6132 35.4082 46.5221C35.5403 46.0536 35.5999 45.6221 35.6072 45.1348C35.6092 45.0149 35.6113 44.895 35.6134 44.7714C35.6151 44.643 35.6168 44.5145 35.6185 44.3822C35.6217 44.1838 35.6217 44.1838 35.6249 43.9813C35.6305 43.6309 35.6355 43.2804 35.6404 42.9299C35.6455 42.5718 35.6512 42.2137 35.6568 41.8556C35.6677 41.1539 35.678 40.4521 35.6879 39.7504C35.81 39.7451 35.9321 39.7398 36.0579 39.7344C36.2216 39.7265 36.3852 39.7186 36.5488 39.7107C36.6289 39.7073 36.709 39.704 36.7915 39.7005C39.0757 39.5857 41.2702 38.5255 42.8351 36.8598C44.6563 34.79 45.1934 32.292 45.0317 29.5941C44.9613 29.0305 44.8115 28.5059 44.6254 27.9691C44.5898 27.8637 44.5542 27.7583 44.5175 27.6498C43.6726 25.4114 41.9919 23.7642 39.8468 22.7613C37.7453 21.8221 35.3288 21.7113 33.1616 22.5101C32.1094 22.9588 31.1922 23.4715 30.3396 24.2395C30.102 24.4144 30.102 24.4144 29.6957 24.4144C29.4797 24.302 29.2686 24.1799 29.061 24.0526C27.8176 23.3186 26.5659 22.8312 25.1635 22.4891C25.0897 22.471 25.0158 22.4529 24.9398 22.4342C24.7913 22.3999 24.6421 22.3689 24.4922 22.3413C24.1506 22.2731 23.9479 22.2278 23.7162 21.9595C23.2883 20.9788 23.2883 20.9788 23.3989 20.5551C23.8564 19.9505 24.4175 19.4192 24.954 18.8856C25.0266 18.8126 25.0992 18.7397 25.174 18.6645C25.2435 18.5951 25.3129 18.5258 25.3845 18.4544C25.447 18.392 25.5095 18.3296 25.5739 18.2654C25.7997 18.0579 25.9127 18.0179 26.2224 17.9942C26.5752 18.0179 26.7662 18.0951 27.0742 18.264C27.1703 18.3148 27.2663 18.3657 27.3654 18.4181C27.5649 18.5267 27.7644 18.6357 27.9636 18.745C28.0597 18.7957 28.1558 18.8464 28.2548 18.8987C28.3414 18.9461 28.4279 18.9934 28.5171 19.0422C28.917 19.1798 29.2236 19.0972 29.61 18.9459C29.6766 18.912 29.7433 18.8781 29.812 18.8432C29.9265 18.7865 29.9265 18.7865 30.0432 18.7287C30.1234 18.6883 30.2035 18.6479 30.2861 18.6063C30.866 18.3185 31.4324 18.0702 32.0523 17.8823C32.6894 17.7016 32.6894 17.7016 33.2234 17.332C33.339 17.0877 33.3939 16.8584 33.4536 16.5941C33.5227 16.3589 33.5961 16.1255 33.6715 15.8922C33.7243 15.7277 33.7748 15.5625 33.8226 15.3965C33.8463 15.3196 33.8699 15.2427 33.8943 15.1635C33.9247 15.0598 33.9247 15.0598 33.9558 14.9539C34.2585 14.4229 34.7875 14.417 35.3392 14.4244Z" fill="#58B347"/>
<path d="M20.1489 4.50841C20.2319 4.53892 20.3149 4.56942 20.4004 4.60085C20.6291 4.6942 20.8443 4.79961 21.0629 4.91466C21.1564 4.96232 21.2499 5.00997 21.3462 5.05907C23.1896 6.05934 24.6365 7.77127 25.256 9.78728C25.8843 12.0005 25.7363 14.2255 24.7192 16.2897C23.5399 18.377 21.6781 19.8289 19.3872 20.5045C17.107 21.0554 14.8274 20.6146 12.8364 19.4381C10.9044 18.2167 9.60803 16.3675 9.09127 14.1378C8.68355 11.8007 9.11586 9.5557 10.4243 7.57433C11.5206 6.07873 12.9032 5.00332 14.6645 4.40685C14.7558 4.37451 14.847 4.34218 14.941 4.30886C16.5653 3.83447 18.5733 3.91084 20.1489 4.50841Z" fill="#58B347"/>
<path d="M40.6406 24.854C41.0113 25.1587 41.3477 25.4902 41.6797 25.8363C41.7714 25.9286 41.7714 25.9286 41.865 26.0228C43.1922 27.451 43.6921 29.369 43.6407 31.2727C43.5485 33.027 42.8514 34.5875 41.6797 35.891C41.6271 35.9531 41.5744 36.0151 41.5202 36.0791C40.4204 37.2893 38.717 38.049 37.1094 38.2269C36.8619 38.2316 36.6143 38.2329 36.3667 38.2313C36.2393 38.2307 36.1119 38.23 35.9807 38.2294C35.8839 38.2286 35.7872 38.2278 35.6875 38.2269C35.686 38.1304 35.6845 38.0339 35.683 37.9345C35.6095 33.4871 35.0573 29.5798 31.8281 26.2426C31.7248 26.1448 31.6212 26.0474 31.5171 25.9506C31.3203 25.7348 31.3203 25.7348 31.3203 25.3285C33.5828 22.8397 38.0844 22.9344 40.6406 24.854Z" fill="#58B347"/>
<path d="M16.2887 23.7036C16.9591 23.7036 17.6294 23.7036 18.32 23.7036C18.4416 25.1002 18.5627 26.4968 18.6828 27.8936C18.7386 28.5421 18.7946 29.1906 18.8512 29.839C18.9058 30.4646 18.9597 31.0902 19.0132 31.7158C19.0337 31.9547 19.0545 32.1936 19.0755 32.4325C19.1049 32.7666 19.1334 33.1007 19.1617 33.4349C19.1706 33.5341 19.1795 33.6333 19.1887 33.7355C19.1962 33.8266 19.2038 33.9178 19.2116 34.0117C19.2218 34.1302 19.2218 34.1302 19.2323 34.2511C19.236 34.7051 19.0628 35.0305 18.848 35.4234C18.7906 35.5288 18.7332 35.6343 18.6741 35.7429C18.5836 35.9074 18.5836 35.9074 18.4914 36.0752C18.4323 36.1837 18.3732 36.2921 18.3123 36.4039C18.0156 36.9471 17.7156 37.488 17.4059 38.0239C17.3389 38.0239 17.2719 38.0239 17.2028 38.0239C17.1619 37.9507 17.1209 37.8775 17.0787 37.8021C16.9251 37.5275 16.7714 37.2528 16.6176 36.9782C16.5191 36.8021 16.4206 36.626 16.3221 36.4499C16.2592 36.3376 16.1964 36.2254 16.1316 36.1097C16.0742 36.0071 16.0168 35.9044 15.9576 35.7987C15.7825 35.4785 15.7825 35.4785 15.5658 35.1619C15.3351 34.756 15.3428 34.3951 15.39 33.9401C15.3963 33.8609 15.4026 33.7817 15.4091 33.7001C15.4227 33.5327 15.4374 33.3654 15.4529 33.1982C15.4755 32.9534 15.4952 32.7086 15.5138 32.4635C15.5524 31.9594 15.5951 31.4556 15.6381 30.9518C15.6537 30.7674 15.6692 30.583 15.6848 30.3985C15.717 30.016 15.7495 29.6335 15.7821 29.251C15.8237 28.7625 15.8649 28.2739 15.906 27.7854C15.938 27.4062 15.9701 27.027 16.0022 26.6478C16.0175 26.4677 16.0327 26.2875 16.0479 26.1073C16.0691 25.8559 16.0905 25.6045 16.112 25.3532C16.1181 25.2801 16.1242 25.2071 16.1306 25.1319C16.1718 24.6532 16.2291 24.1811 16.2887 23.7036Z" fill="#58B347"/>
</g>
<defs>
<clipPath id="clip0_2134_9762">
<rect width="52" height="52" fill="white" transform="translate(0.5)"/>
</clipPath>
</defs>
</svg>
