<svg width="52" height="53" viewBox="0 0 52 53" fill="none" xmlns="http://www.w3.org/2000/svg">
<path d="M13.2984 27.7117C14.6458 27.7117 15.9932 27.7117 17.3814 27.7117C17.3814 27.8504 17.3814 27.9891 17.3814 28.132C17.4142 28.2687 17.4142 28.2687 17.4752 28.3834C17.4926 28.4214 17.51 28.4594 17.528 28.4986C17.7161 28.7273 17.9244 28.837 18.2141 28.8752C18.4248 28.8843 18.6343 28.8858 18.8452 28.8844C18.9224 28.8846 18.9995 28.8849 19.0791 28.8851C19.2418 28.8855 19.4046 28.8849 19.5673 28.8838C19.7752 28.8824 19.983 28.8832 20.1909 28.8847C20.3903 28.8858 20.5897 28.885 20.7891 28.8844C20.8634 28.8849 20.9377 28.8854 21.0143 28.8859C21.5276 28.8805 21.5276 28.8805 21.9447 28.6123C22.2165 28.2965 22.1939 28.1712 22.2449 27.7117C24.583 27.7117 26.9211 27.7117 29.3301 27.7117C29.3697 27.9296 29.4093 28.1476 29.4502 28.3722C29.604 28.603 29.7331 28.7513 29.9905 28.8525C30.1578 28.8714 30.1578 28.8714 30.3428 28.8699C30.4137 28.8707 30.4847 28.8715 30.5578 28.8723C30.6342 28.8724 30.7107 28.8725 30.7894 28.8727C30.8682 28.8731 30.9469 28.8735 31.0281 28.8739C31.1948 28.8746 31.3614 28.8748 31.5281 28.8748C31.741 28.8747 31.9539 28.8764 32.1668 28.8785C32.3707 28.8801 32.5745 28.88 32.7784 28.8802C32.8545 28.881 32.9307 28.8819 33.0092 28.8828C33.5301 28.8823 33.5301 28.8823 33.9534 28.6123C34.2007 28.3225 34.151 28.1376 34.1936 27.7117C35.541 27.7117 36.8884 27.7117 38.2766 27.7117C38.2793 29.1193 38.2815 30.527 38.2828 31.9347C38.2834 32.5883 38.2843 33.2419 38.2856 33.8956C38.2868 34.4654 38.2876 35.0352 38.2879 35.6049C38.288 35.9066 38.2884 36.2082 38.2893 36.5098C38.2901 36.7939 38.2903 37.078 38.2902 37.3621C38.2902 37.4662 38.2904 37.5702 38.2909 37.6743C38.2947 38.5783 38.219 39.3403 37.5786 40.0394C37.1406 40.4503 36.594 40.6882 35.9974 40.6892C35.9237 40.6895 35.85 40.6898 35.7741 40.69C35.6922 40.69 35.6103 40.69 35.5284 40.69C35.4414 40.6902 35.3545 40.6904 35.2676 40.6907C35.0284 40.6913 34.7893 40.6915 34.5501 40.6917C34.2923 40.6919 34.0345 40.6925 33.7767 40.693C33.1538 40.6942 32.531 40.6948 31.9082 40.6953C31.6148 40.6956 31.3215 40.6959 31.0281 40.6962C30.0529 40.6972 29.0777 40.6981 28.1025 40.6985C27.8495 40.6987 27.5964 40.6988 27.3433 40.6989C27.249 40.6989 27.249 40.6989 27.1527 40.699C26.134 40.6995 25.1152 40.701 24.0965 40.7029C23.0504 40.7049 22.0043 40.706 20.9583 40.7062C20.371 40.7063 19.7838 40.7069 19.1965 40.7084C18.6963 40.7097 18.1961 40.7102 17.6959 40.7096C17.4408 40.7093 17.1858 40.7094 16.9307 40.7106C16.6968 40.7117 16.463 40.7116 16.2292 40.7107C16.1449 40.7105 16.0606 40.7108 15.9763 40.7115C15.1602 40.718 14.5608 40.5384 13.9666 39.974C13.4633 39.4447 13.2881 38.8411 13.2912 38.1237C13.2911 38.079 13.2911 38.0343 13.291 37.9883C13.2909 37.8392 13.2913 37.6902 13.2916 37.5411C13.2916 37.434 13.2916 37.3268 13.2916 37.2197C13.2915 36.9293 13.2919 36.6389 13.2923 36.3485C13.2927 36.0449 13.2927 35.7413 13.2928 35.4376C13.293 34.8629 13.2935 34.2881 13.2941 33.7133C13.2948 33.0588 13.2951 32.4044 13.2954 31.7499C13.296 30.4038 13.2971 29.0578 13.2984 27.7117ZM25.0323 29.928C24.86 30.1808 24.7325 30.459 24.5993 30.7338C24.5073 30.9237 24.4137 31.1127 24.3204 31.3019C24.302 31.3394 24.2835 31.3769 24.2645 31.4156C24.112 31.725 23.9534 32.0307 23.791 32.3351C23.5059 32.8709 23.2341 33.4131 22.9646 33.9569C22.9236 34.0396 22.8818 34.1219 22.8393 34.2039C22.7376 34.4162 22.7411 34.6286 22.7853 34.8569C22.947 35.1434 23.1352 35.2938 23.4458 35.3973C23.6257 35.4137 23.6257 35.4137 23.8166 35.409C23.8861 35.4086 23.9555 35.4083 24.0271 35.4079C24.0991 35.4068 24.171 35.4058 24.2451 35.4048C24.3182 35.4043 24.3913 35.4037 24.4666 35.4032C24.6467 35.4017 24.8268 35.3998 25.0069 35.3973C25.0057 35.4493 25.0044 35.5014 25.0031 35.555C24.999 35.7502 24.996 35.9453 24.9937 36.1405C24.9925 36.2246 24.9909 36.3087 24.9888 36.3928C24.9771 36.8743 24.969 37.2679 25.2471 37.679C25.4522 37.8463 25.6435 37.9086 25.9076 37.9191C26.3135 37.7981 26.516 37.5804 26.7156 37.2215C26.8127 37.0311 26.9066 36.8394 26.9996 36.647C27.0689 36.5058 27.1384 36.3647 27.2079 36.2236C27.259 36.1197 27.259 36.1197 27.3111 36.0138C27.4431 35.7484 27.5807 35.4862 27.7201 35.2247C28.0058 34.6875 28.2792 34.1445 28.5482 33.5988C28.602 33.491 28.6581 33.3844 28.7146 33.2779C28.8262 33.0367 28.8456 32.8351 28.7897 32.5752C28.627 32.2889 28.4403 32.1385 28.1292 32.0348C27.9493 32.0184 27.9493 32.0184 27.7584 32.0231C27.6889 32.0235 27.6194 32.0239 27.5479 32.0243C27.4759 32.0253 27.404 32.0263 27.3299 32.0273C27.2202 32.0281 27.2202 32.0281 27.1083 32.029C26.9282 32.0304 26.7481 32.0324 26.5681 32.0348C26.5693 31.9828 26.5706 31.9307 26.5719 31.8771C26.576 31.6819 26.579 31.4868 26.5812 31.2916C26.5824 31.2075 26.5841 31.1234 26.5862 31.0394C26.6036 30.3601 26.6036 30.3601 26.3279 29.7532C26.1533 29.6083 25.9796 29.5253 25.7537 29.4867C25.4394 29.5431 25.2316 29.6812 25.0323 29.928Z" fill="#58B347"/>
<path d="M16.5536 20.7132C16.6369 20.7131 16.7202 20.7128 16.8035 20.7126C17.0305 20.712 17.2574 20.7122 17.4844 20.7127C17.7299 20.713 17.9755 20.7125 18.221 20.7121C18.7013 20.7115 19.1815 20.7116 19.6617 20.712C20.0522 20.7124 20.4427 20.7124 20.8332 20.7123C20.9167 20.7122 20.9167 20.7122 21.0019 20.7122C21.115 20.7121 21.2281 20.7121 21.3413 20.712C22.4008 20.7116 23.4604 20.7121 24.52 20.7129C25.4281 20.7135 26.3363 20.7134 27.2445 20.7127C28.3004 20.712 29.3563 20.7117 30.4122 20.7121C30.5249 20.7122 30.6376 20.7122 30.7503 20.7123C30.8058 20.7123 30.8612 20.7123 30.9183 20.7123C31.3081 20.7124 31.6979 20.7122 32.0877 20.7119C32.563 20.7115 33.0383 20.7116 33.5137 20.7124C33.756 20.7127 33.9983 20.7129 34.2405 20.7124C34.4627 20.712 34.6849 20.7122 34.9071 20.713C35.0247 20.7132 35.1423 20.7128 35.2599 20.7123C36.1521 20.7169 36.9407 20.8557 37.6148 21.6034C38.1822 22.33 38.299 23.1461 38.2906 24.1044C38.2905 24.171 38.2904 24.2375 38.2902 24.3061C38.2896 24.5517 38.2879 24.7974 38.2864 25.043C38.2839 25.5937 38.2814 26.1443 38.2789 26.7117C36.9317 26.7117 35.5845 26.7117 34.1966 26.7117C34.1966 26.5472 34.1966 26.3828 34.1966 26.2133C34.1637 26.0512 34.1637 26.0512 34.1027 25.9152C34.0853 25.8701 34.0679 25.8251 34.05 25.7786C33.8619 25.5074 33.6536 25.3773 33.364 25.3321C33.1533 25.3213 32.9438 25.3195 32.733 25.3211C32.6172 25.3207 32.6172 25.3207 32.4991 25.3203C32.3364 25.3199 32.1737 25.3205 32.0109 25.3218C31.8031 25.3235 31.5953 25.3225 31.3874 25.3208C31.1881 25.3195 30.9887 25.3204 30.7894 25.3211C30.6779 25.3203 30.6779 25.3203 30.5642 25.3194C30.051 25.3258 30.051 25.3258 29.6339 25.6437C29.3622 26.0182 29.3848 26.1668 29.3338 26.7117C26.996 26.7117 24.6583 26.7117 22.2497 26.7117C22.2299 26.5002 22.2101 26.2888 22.1897 26.0709C22.05 25.7458 21.8788 25.4958 21.5893 25.359C21.3192 25.3164 21.051 25.3191 20.7789 25.3211C20.661 25.3207 20.661 25.3207 20.5407 25.3203C20.3748 25.3199 20.2089 25.3205 20.043 25.3218C19.831 25.3235 19.6191 25.3225 19.4072 25.3208C19.204 25.3195 19.0009 25.3204 18.7977 25.3211C18.7219 25.3206 18.6461 25.32 18.568 25.3194C18.0491 25.3241 18.0491 25.3241 17.6271 25.6437C17.3799 25.9874 17.4295 26.2066 17.3869 26.7117C16.0398 26.7117 14.6926 26.7117 13.3046 26.7117C13.3021 26.161 13.2996 25.6104 13.2971 25.043C13.296 24.8705 13.2949 24.6979 13.2938 24.5201C13.2934 24.3815 13.2931 24.243 13.2929 24.1044C13.2923 24.0339 13.2916 23.9634 13.291 23.8908C13.2908 23.0127 13.4551 22.2611 13.9687 21.6034C14.7087 20.7825 15.5848 20.7092 16.5536 20.7132Z" fill="#58B347"/>
<path d="M22.0006 12.7136C22.0929 12.7133 22.1852 12.7129 22.2775 12.7124C22.5254 12.7113 22.7732 12.7117 23.021 12.7125C23.2821 12.7131 23.5433 12.7125 23.8044 12.7121C24.2427 12.7117 24.6809 12.7123 25.1192 12.7134C25.6236 12.7147 26.1281 12.7143 26.6325 12.713C27.068 12.7119 27.5036 12.7117 27.9391 12.7123C28.1982 12.7127 28.4572 12.7128 28.7163 12.712C28.96 12.7113 29.2037 12.7118 29.4474 12.7131C29.5361 12.7135 29.6248 12.7134 29.7134 12.7128C30.9778 12.706 32.0931 13.121 33.0105 13.995C34.191 15.2094 34.3109 16.5189 34.2888 18.1299C34.2875 18.2836 34.2864 18.4373 34.2855 18.5911C34.2828 18.9646 34.2787 19.3381 34.2737 19.7117C33.9363 19.7117 33.5988 19.7117 33.2511 19.7117C33.2506 19.6222 33.25 19.5328 33.2494 19.4406C33.247 19.1052 33.243 18.7699 33.2386 18.4345C33.2369 18.29 33.2357 18.1455 33.2348 18.001C33.2267 16.7057 33.125 15.7099 32.1928 14.7286C31.3035 13.8797 30.1895 13.7373 29.0002 13.7414C28.9228 13.7412 28.8454 13.741 28.7657 13.7407C28.5562 13.7402 28.3466 13.7404 28.1371 13.7408C27.9161 13.7411 27.6951 13.7408 27.474 13.7406C27.1031 13.7404 26.7322 13.7407 26.3613 13.7413C25.9347 13.7419 25.508 13.7417 25.0814 13.741C24.7127 13.7405 24.3441 13.7404 23.9754 13.7407C23.7563 13.7409 23.5371 13.7409 23.318 13.7405C23.0733 13.7401 22.8287 13.7407 22.5841 13.7414C22.513 13.7411 22.442 13.7409 22.3689 13.7406C21.1912 13.7465 20.2036 13.9753 19.3273 14.788C18.6252 15.5109 18.3684 16.3732 18.3626 17.3565C18.3615 17.4243 18.3604 17.4921 18.3593 17.5619C18.356 17.7761 18.354 17.9902 18.352 18.2043C18.35 18.3505 18.3479 18.4967 18.3458 18.6429C18.3407 18.9992 18.3366 19.3554 18.3332 19.7117C17.9957 19.7117 17.6583 19.7117 17.3106 19.7117C17.3046 19.2616 17.3002 18.8115 17.2974 18.3614C17.2962 18.2087 17.2945 18.0559 17.2924 17.9032C17.272 16.3756 17.4626 15.1381 18.5738 13.995C19.5392 13.0753 20.6809 12.7057 22.0006 12.7136Z" fill="#58B347"/>
<path d="M25.4969 30.7117C25.5454 30.7117 25.594 30.7117 25.644 30.7117C25.645 30.7694 25.6461 30.8271 25.6472 30.8866C25.6517 31.1008 25.6571 31.315 25.6633 31.5292C25.6657 31.6218 25.6678 31.7145 25.6694 31.8072C25.6719 31.9405 25.6757 32.0738 25.6799 32.207C25.6818 32.2872 25.6837 32.3674 25.6857 32.45C25.7018 32.6426 25.7018 32.6426 25.7966 32.7686C26.0134 32.8729 26.2315 32.8667 26.4743 32.8687C26.5522 32.8703 26.5522 32.8703 26.6316 32.8721C26.7972 32.8754 26.9627 32.8776 27.1283 32.8796C27.2407 32.8817 27.353 32.8839 27.4654 32.8861C27.7406 32.8914 28.0158 32.8956 28.291 32.8992C28.1789 33.2154 28.0217 33.4993 27.8473 33.793C27.8034 33.8675 27.8034 33.8675 27.7587 33.9435C27.6967 34.0486 27.6346 34.1538 27.5723 34.2588C27.4794 34.4157 27.3869 34.5728 27.2945 34.7299C26.9021 35.3954 26.4983 36.0553 26.0851 36.7117C26.0366 36.7117 25.9881 36.7117 25.9381 36.7117C25.937 36.654 25.9359 36.5962 25.9348 36.5368C25.9303 36.3226 25.9249 36.1084 25.9188 35.8942C25.9163 35.8015 25.9143 35.7088 25.9126 35.6161C25.9101 35.4828 25.9063 35.3496 25.9022 35.2163C25.9002 35.1361 25.8983 35.0559 25.8963 34.9733C25.8803 34.7807 25.8803 34.7807 25.7854 34.6548C25.5687 34.5504 25.3505 34.5566 25.1077 34.5547C25.0298 34.553 25.0298 34.553 24.9504 34.5513C24.7848 34.5479 24.6193 34.5458 24.4537 34.5437C24.3413 34.5416 24.229 34.5395 24.1166 34.5372C23.8414 34.5319 23.5663 34.5277 23.291 34.5242C23.4 34.2194 23.5478 33.9453 23.7161 33.6621C23.7433 33.6158 23.7705 33.5696 23.7986 33.5219C23.8864 33.3728 23.9747 33.2239 24.0631 33.075C24.1233 32.973 24.1835 32.8711 24.2437 32.7691C24.6519 32.079 25.0664 31.392 25.4969 30.7117Z" fill="#58B347"/>
<path d="M24.291 25.7117C25.281 25.7117 26.271 25.7117 27.291 25.7117C27.291 26.3717 27.291 27.0317 27.291 27.7117C26.301 27.7117 25.311 27.7117 24.291 27.7117C24.291 27.0517 24.291 26.3917 24.291 25.7117Z" fill="#58B347"/>
<path d="M24.291 25.7117C25.281 25.7117 26.271 25.7117 27.291 25.7117C27.291 26.3717 27.291 27.0317 27.291 27.7117C26.301 27.7117 25.311 27.7117 24.291 27.7117C24.291 27.0517 24.291 26.3917 24.291 25.7117Z" fill="#58B347"/>
</svg>
