<svg width="92" height="93" viewBox="0 0 92 93" fill="none" xmlns="http://www.w3.org/2000/svg">
<g clip-path="url(#clip0_3159_366)">
<path d="M41.0029 12.5664C41.1741 12.5626 41.3453 12.5589 41.5217 12.555C42.5147 12.5529 43.2565 12.6054 44.0078 13.2969C44.3828 13.7409 44.5406 14.0649 44.6184 14.6271C44.6769 14.9106 44.6769 14.9106 44.8047 15.1562C45.1882 15.3491 45.4675 15.4492 45.8755 15.5464C49.4254 16.5634 52.5636 19.0956 54.3764 22.3147C55.7653 24.8632 56.3972 27.4092 56.4922 30.2969C56.593 30.3308 56.6938 30.3647 56.7977 30.3996C57.4298 30.6868 57.8001 31.256 58.0626 31.8891C58.3647 32.9585 58.3317 34.0808 57.8203 35.0781C57.2729 35.8436 56.6145 36.2278 55.6953 36.4062C55.52 36.4062 55.3447 36.4062 55.164 36.4062C55.1702 36.4809 55.1764 36.5555 55.1827 36.6324C55.3275 40.0039 53.8019 43.3738 51.5781 45.8359C51.4773 45.9477 51.3764 46.0595 51.2725 46.1747C50.2194 47.2829 48.98 48.2374 47.5937 48.8906C48.1549 49.1023 48.7168 49.3112 49.2814 49.5137C51.2365 50.2246 53.2753 51.0279 54.9005 52.3619C55.46 52.6053 56.0268 52.3672 56.5746 52.1751C56.7438 52.1073 56.9128 52.039 57.0815 51.9702C61.8864 50.1094 66.8393 50.569 71.5 52.6094C75.5256 54.4643 75.5256 54.4643 76.1484 55.3984C76.175 55.7738 76.186 56.136 76.1849 56.5114C76.1859 56.6819 76.1859 56.6819 76.1869 56.8558C76.1888 57.2328 76.1887 57.6097 76.1884 57.9867C76.1889 58.2497 76.1895 58.5127 76.1901 58.7756C76.1911 59.3282 76.191 59.8807 76.1903 60.4333C76.1896 61.1369 76.1918 61.8404 76.1949 62.544C76.1969 63.0881 76.197 63.6322 76.1966 64.1763C76.1966 64.4354 76.1973 64.6944 76.1987 64.9535C76.2137 68.2609 75.4744 71.2422 73.102 73.6685C72.1825 74.5719 71.1398 75.3019 70.0829 76.0342C69.5765 76.3873 69.0777 76.7507 68.5781 77.1133C68.3808 77.2558 68.1835 77.3983 67.9861 77.5408C67.5686 77.8423 67.1512 78.1439 66.7338 78.4456C66.627 78.5227 66.5203 78.5998 66.4103 78.6793C66.2076 78.8257 66.0049 78.9722 65.8023 79.1187C65.6187 79.2513 65.4345 79.3832 65.2498 79.5143C65.0819 79.6373 64.9179 79.7659 64.7589 79.9003C64.2446 80.3208 63.8408 80.4785 63.1701 80.4369C62.6007 80.3059 62.1961 79.9708 61.7466 79.6118C61.5365 79.4521 61.3264 79.2925 61.1162 79.133C61.0101 79.0509 60.904 78.9688 60.7946 78.8843C60.2982 78.504 59.7896 78.1413 59.2812 77.7773C59.084 77.6351 58.8869 77.4928 58.6898 77.3504C58.5914 77.2793 58.4931 77.2083 58.3917 77.1351C58.0717 76.9038 57.752 76.6721 57.4322 76.4404C57.3249 76.3627 57.2175 76.2849 57.1069 76.2049C56.9024 76.0568 56.698 75.9086 56.4937 75.7603C56.3543 75.6593 56.3543 75.6593 56.212 75.5564C56.1312 75.4978 56.0505 75.4392 55.9673 75.3789C55.8775 75.3157 55.7878 75.2526 55.6953 75.1875C55.5891 75.0972 55.483 75.0069 55.3736 74.9139C54.7668 74.5145 54.1007 74.5844 53.3979 74.5918C53.2462 74.5913 53.0944 74.5907 52.938 74.5902C52.429 74.5891 51.9201 74.5917 51.4111 74.5943C51.0463 74.5945 50.6816 74.5939 50.3168 74.5934C49.5311 74.5925 48.7454 74.5936 47.9597 74.5958C46.8225 74.5989 45.6853 74.5985 44.5482 74.5972C42.7016 74.5949 40.855 74.5946 39.0084 74.5959C38.898 74.596 38.7875 74.5961 38.6736 74.5961C37.4411 74.597 36.2086 74.5982 34.9761 74.5996C34.5293 74.6001 34.0824 74.6006 33.6355 74.6011C33.5252 74.6012 33.415 74.6013 33.3014 74.6015C31.4619 74.6033 29.6225 74.6027 27.7831 74.6C26.649 74.5985 25.5149 74.5993 24.3808 74.603C23.6035 74.6054 22.8263 74.6054 22.049 74.6036C21.6007 74.6026 21.1525 74.6031 20.7042 74.6057C20.2178 74.6085 19.7315 74.6071 19.2451 74.6048C19.104 74.6065 18.963 74.6083 18.8177 74.6102C17.926 74.6002 17.3388 74.4361 16.6484 73.8594C15.8771 73.0475 15.7997 72.3035 15.8188 71.2192C15.9167 69.2051 16.4349 67.2709 17.0468 65.3594C17.0761 65.2669 17.1053 65.1743 17.1354 65.079C17.9207 62.6481 19.1861 60.3234 20.7656 58.3203C20.8635 58.1946 20.9615 58.069 21.0623 57.9395C24.5214 53.6096 29.0822 50.4906 34.4453 49.0234C34.0393 48.7093 33.6168 48.435 33.1836 48.1602C30.0233 46.0597 27.8278 42.8495 27.0742 39.1289C26.9035 38.2206 26.7985 37.3321 26.875 36.4062C26.6367 36.3857 26.6367 36.3857 26.3935 36.3647C25.4494 36.2386 24.8834 35.8337 24.2825 35.1108C23.7596 34.3174 23.7 33.2757 23.8867 32.3627C24.0845 31.6096 24.3167 31.1016 24.8828 30.5625C25.1015 30.4676 25.3226 30.3779 25.5468 30.2969C25.5503 30.1505 25.5537 30.0041 25.5572 29.8533C25.7034 25.4553 27.5072 21.6394 30.6804 18.6099C32.1261 17.2816 33.9243 16.2003 35.8152 15.6635C36.7556 15.4418 36.7556 15.4418 37.4507 14.8398C37.5483 14.4954 37.5483 14.4954 37.5871 14.1472C37.663 13.6171 37.914 13.3963 38.2968 13.0312C39.1812 12.5072 40.0002 12.5644 41.0029 12.5664ZM39.625 15.0234C39.5657 15.3001 39.5657 15.3001 39.5771 15.6251C39.5765 15.7518 39.576 15.8784 39.5754 16.0089C39.5768 16.1483 39.5783 16.2877 39.5797 16.4313C39.5797 16.5777 39.5796 16.7241 39.5796 16.8749C39.5798 17.3608 39.5829 17.8465 39.5861 18.3323C39.5868 18.6684 39.5874 19.0045 39.5878 19.3406C39.5891 20.136 39.5923 20.9314 39.5963 21.7268C39.6007 22.6322 39.6029 23.5376 39.6049 24.4431C39.6091 26.3058 39.6164 28.1685 39.625 30.0312C40.5454 30.0312 41.4658 30.0312 42.414 30.0312C42.423 28.0791 42.4304 26.1269 42.4347 24.1747C42.4367 23.2683 42.4395 22.3619 42.4441 21.4555C42.4485 20.5814 42.4508 19.7074 42.4518 18.8333C42.4526 18.4992 42.454 18.165 42.4562 17.8309C42.459 17.3643 42.4595 16.8978 42.4593 16.4313C42.4607 16.2919 42.4621 16.1525 42.4636 16.0089C42.4631 15.8823 42.4625 15.7556 42.4619 15.6251C42.4625 15.4595 42.4625 15.4595 42.4631 15.2905C42.4469 15.2024 42.4307 15.1142 42.414 15.0234C41.9328 14.7026 41.5752 14.7183 41.0195 14.7246C40.9296 14.7236 40.8397 14.7225 40.7471 14.7215C40.2559 14.7234 40.0439 14.7442 39.625 15.0234ZM44.6718 17.5469C44.6718 21.6667 44.6718 25.7866 44.6718 30.0312C47.8275 30.0312 50.9831 30.0312 54.2343 30.0312C53.967 26.2879 52.7662 23.0617 49.9843 20.4687C49.6265 20.2285 49.6265 20.2285 49.3203 20.0703C49.1941 21.4369 49.0718 22.8031 48.9872 24.173C48.979 24.3052 48.979 24.3052 48.9705 24.44C48.9435 24.874 48.9177 25.308 48.8934 25.7421C48.8398 26.6212 48.7777 27.4588 48.5234 28.3047C48.0327 28.6318 47.7753 28.6221 47.1953 28.5703C46.9159 28.3654 46.818 28.2142 46.664 27.9062C46.6579 27.6624 46.6579 27.6624 46.6728 27.362C46.6782 27.2487 46.6835 27.1355 46.689 27.0188C46.6957 26.895 46.7023 26.7711 46.7092 26.6435C46.7156 26.5141 46.722 26.3847 46.7287 26.2513C46.8087 24.6828 46.9063 23.1153 47.0044 21.5478C47.023 21.2476 47.0416 20.9474 47.0601 20.6472C47.1049 19.9236 47.15 19.2001 47.1953 18.4766C46.8996 18.3457 46.6035 18.2158 46.3071 18.0864C46.224 18.0495 46.1409 18.0126 46.0552 17.9746C45.5839 17.7698 45.1823 17.649 44.6718 17.5469ZM36.1054 17.937C36.0138 17.9739 35.9223 18.0108 35.8279 18.0488C35.33 18.2497 35.33 18.2497 34.8437 18.4766C34.8504 18.579 34.857 18.6815 34.8639 18.7871C34.9268 19.7561 34.9893 20.7252 35.0515 21.6943C35.0835 22.1925 35.1156 22.6906 35.148 23.1887C35.1793 23.6701 35.2103 24.1515 35.241 24.6329C35.2527 24.8159 35.2646 24.9989 35.2766 25.1818C35.4579 27.9534 35.4579 27.9534 35.1093 28.4375C34.6987 28.6428 34.3664 28.6093 33.914 28.5703C33.578 28.3518 33.4131 28.168 33.3202 27.7732C33.278 27.4246 33.2534 27.0781 33.2334 26.7275C33.2239 26.596 33.2144 26.4646 33.2046 26.3291C33.1729 25.881 33.145 25.4327 33.1172 24.9844C33.088 24.5428 33.0587 24.1013 33.0291 23.6598C32.9998 23.2212 32.9713 22.7825 32.9441 22.3437C32.8959 21.5799 32.8457 20.8254 32.7187 20.0703C30.623 21.1182 29.2186 23.8323 28.494 25.9649C28.3932 26.2868 28.3001 26.6096 28.2114 26.9351C28.1716 27.079 28.1716 27.079 28.1311 27.2259C27.8938 28.1776 27.8773 29.0148 27.8047 30.0312C30.9603 30.0312 34.1159 30.0312 37.3672 30.0312C37.3672 25.9114 37.3672 21.7916 37.3672 17.5469C36.9173 17.5469 36.5171 17.7689 36.1054 17.937ZM26.207 32.5417C25.9798 33.0328 26.093 33.3607 26.2109 33.8828C26.7253 34.2257 27.1513 34.1862 27.7478 34.184C27.9243 34.1849 27.9243 34.1849 28.1043 34.1858C28.5002 34.1875 28.8959 34.1872 29.2918 34.187C29.5749 34.1878 29.858 34.1887 30.1412 34.1897C30.9114 34.1921 31.6817 34.1927 32.4519 34.1929C33.0942 34.1931 33.7365 34.1941 34.3788 34.195C35.8938 34.1972 37.4087 34.1978 38.9236 34.1977C40.488 34.1975 42.0525 34.2003 43.6169 34.2045C44.9587 34.208 46.3005 34.2094 47.6423 34.2092C48.4443 34.2092 49.2463 34.2099 50.0483 34.2127C50.8023 34.2153 51.5563 34.2153 52.3103 34.2134C52.5875 34.2131 52.8646 34.2137 53.1417 34.2153C53.5193 34.2174 53.8967 34.2162 54.2743 34.2141C54.4398 34.2162 54.4398 34.2162 54.6086 34.2182C55.0876 34.2125 55.372 34.1907 55.7639 33.9036C56.0317 33.5144 56.0285 33.2837 55.9609 32.8203C55.8434 32.5145 55.8434 32.5145 55.5625 32.2891C55.1634 32.2359 54.8125 32.2174 54.413 32.2216C54.2348 32.2204 54.2348 32.2204 54.0529 32.2191C53.6531 32.217 53.2534 32.2186 52.8536 32.2203C52.5676 32.2196 52.2816 32.2187 51.9957 32.2175C51.2177 32.2151 50.4398 32.216 49.6619 32.2177C48.849 32.219 48.0361 32.2178 47.2232 32.217C45.858 32.216 44.4927 32.2173 43.1274 32.2198C41.5474 32.2227 39.9675 32.2218 38.3875 32.2188C37.0326 32.2164 35.6778 32.2161 34.3229 32.2175C33.5129 32.2183 32.703 32.2184 31.8931 32.2167C31.1317 32.2151 30.3704 32.2162 29.6091 32.2193C29.3291 32.22 29.0492 32.2197 28.7692 32.2186C28.3881 32.2171 28.0071 32.2189 27.626 32.2216C27.5142 32.2204 27.4025 32.2192 27.2874 32.218C26.689 32.2206 26.689 32.2206 26.207 32.5417ZM29.1328 36.4062C29.1328 39.2498 30.1009 41.7962 31.9218 43.9766C31.9895 44.0635 32.0571 44.1505 32.1268 44.2401C33.9604 46.5039 36.8817 47.8115 39.7194 48.184C43.1936 48.5224 46.1947 47.4192 48.8835 45.2845C51.0808 43.415 52.5659 40.6039 52.9062 37.7344C52.9062 37.2961 52.9062 36.8578 52.9062 36.4062C45.061 36.4062 37.2158 36.4062 29.1328 36.4062ZM34.3125 51.4141C34.4732 51.8477 34.6471 52.2096 34.921 52.5819C34.9892 52.6753 35.0573 52.7687 35.1275 52.8649C35.2009 52.9641 35.2744 53.0633 35.3501 53.1655C35.5073 53.3805 35.6645 53.5954 35.8217 53.8104C35.9021 53.9199 35.9825 54.0293 36.0653 54.1421C36.4356 54.6474 36.8017 55.1558 37.1679 55.6641C37.3111 55.8623 37.4543 56.0604 37.5975 56.2586C37.8926 56.6671 38.1872 57.076 38.4815 57.485C39.294 58.6135 40.1125 59.736 40.9531 60.8437C41.5201 60.3132 41.959 59.7341 42.4057 59.1006C42.559 58.8857 42.7124 58.6709 42.8659 58.4562C42.984 58.2908 42.984 58.2908 43.1045 58.122C43.4891 57.5867 43.8813 57.0571 44.2734 56.5273C44.9691 55.5863 45.6577 54.6406 46.3403 53.69C46.406 53.5986 46.4718 53.5072 46.5395 53.413C46.6348 53.2801 46.6348 53.2801 46.732 53.1446C46.8706 52.9556 47.0123 52.769 47.1564 52.5841C47.2295 52.4903 47.3026 52.3964 47.3779 52.2996C47.4447 52.2156 47.5114 52.1316 47.5802 52.045C47.7619 51.8021 47.7619 51.8021 47.7265 51.4141C47.3257 51.3074 46.9245 51.2026 46.5229 51.0986C46.4129 51.0692 46.3029 51.0397 46.1896 51.0094C44.5106 50.5786 42.8239 50.4325 41.0942 50.4346C41.0064 50.4345 40.9185 50.4344 40.828 50.4344C38.5893 50.4388 36.4617 50.8002 34.3125 51.4141ZM30.602 52.9497C30.4951 53.0053 30.3882 53.0608 30.278 53.1181C30.0557 53.2353 29.8357 53.3572 29.6182 53.4832C29.2656 53.6719 29.2656 53.6719 28.8585 53.8115C28.3652 54.0192 28.1261 54.1687 27.8047 54.6016C27.5924 55.496 27.6755 56.4434 27.7174 57.354C27.7523 58.1247 27.7628 58.8958 27.7772 59.6671C27.7806 59.8177 27.7841 59.9682 27.7877 60.1233C27.8233 61.805 27.6723 63.433 27.4062 65.0937C27.3827 65.2462 27.3592 65.3987 27.335 65.5559C27.0504 67.3711 26.6888 69.1533 26.1949 70.9237C26.1624 71.0405 26.1298 71.1574 26.0963 71.2778C26.0671 71.3794 26.0379 71.4809 26.0079 71.5855C25.9261 71.9055 25.9261 71.9055 25.9453 72.3984C30.5472 72.3984 35.1492 72.3984 39.8906 72.3984C39.9399 70.2002 39.9399 70.2002 39.9902 67.9575C40.0047 67.4996 40.0192 67.0418 40.0342 66.57C40.0978 63.7596 40.0978 63.7596 38.7016 61.3874C38.6312 61.3166 38.5608 61.2459 38.4883 61.173C38.2322 60.9102 38.0298 60.6204 37.8242 60.3172C37.6969 60.1412 37.5695 59.9653 37.4419 59.7895C37.2966 59.589 37.1513 59.3883 37.0061 59.1877C36.934 59.0883 36.8619 58.9888 36.7877 58.8863C36.5723 58.5887 36.3574 58.2906 36.1428 57.9924C35.3116 56.8381 34.4735 55.6893 33.6265 54.5464C33.1408 53.8897 32.6691 53.2271 32.2186 52.5456C32.1645 52.479 32.1104 52.4124 32.0547 52.3437C31.5328 52.3437 31.0546 52.7097 30.602 52.9497ZM49.9843 52.3437C49.8116 52.5315 49.8116 52.5315 49.6414 52.7826C49.5392 52.9259 49.5392 52.9259 49.4349 53.0721C49.3615 53.1769 49.288 53.2817 49.2124 53.3896C49.0552 53.6107 48.898 53.8317 48.7408 54.0527C48.6604 54.1663 48.58 54.2799 48.4971 54.397C48.1329 54.9103 47.7637 55.4199 47.3945 55.9297C47.2506 56.1289 47.1067 56.3281 46.9629 56.5273C46.0996 57.7227 46.0996 57.7227 45.8836 58.0217C45.7403 58.2201 45.5971 58.4184 45.4539 58.6168C45.0845 59.1283 44.715 59.6396 44.345 60.1506C44.2691 60.2556 44.1931 60.3605 44.1149 60.4687C43.972 60.6662 43.829 60.8637 43.6859 61.0611C43.5558 61.241 43.427 61.4219 43.2998 61.6038C43.0781 61.9062 43.0781 61.9062 42.8381 62.1773C42.0116 63.1744 42.0261 64.1356 42.0576 65.3687C42.059 65.5493 42.0599 65.7299 42.0605 65.9106C42.0653 66.5736 42.0783 67.2365 42.0903 67.8994C42.1095 69.3841 42.1287 70.8688 42.1484 72.3984C45.6547 72.3984 49.1609 72.3984 52.7734 72.3984C52.5104 71.9163 52.2475 71.4342 51.9765 70.9375C50.9717 68.8904 50.8508 66.9163 50.8518 64.6823C50.8508 64.4156 50.8498 64.1489 50.8487 63.8822C50.8469 63.3271 50.8467 62.772 50.8475 62.2169C50.8483 61.5059 50.8442 60.795 50.8388 60.0841C50.8354 59.535 50.835 58.986 50.8355 58.4369C50.8353 58.1746 50.834 57.9123 50.8316 57.6501C50.8287 57.2846 50.83 56.9193 50.8323 56.5538C50.8306 56.4461 50.8288 56.3384 50.827 56.2274C50.8353 55.6678 50.8639 55.4608 51.2271 55.0091C51.5882 54.7264 51.9431 54.5053 52.3501 54.2944C52.4797 54.2265 52.6093 54.1585 52.7428 54.0885C52.8406 54.0386 52.9383 53.9888 53.039 53.9375C52.4967 53.4644 51.9287 53.1551 51.2876 52.8418C51.1914 52.7935 51.0953 52.7452 50.9963 52.6955C50.5136 52.4355 50.5136 52.4355 49.9843 52.3437ZM56.4839 54.6348C56.3837 54.6791 56.2836 54.7235 56.1804 54.7692C55.4516 55.1051 54.7549 55.4903 54.0572 55.8855C53.9591 55.9409 53.8609 55.9963 53.7598 56.0534C53.5194 56.1891 53.2792 56.325 53.039 56.4609C53.0267 57.8292 53.0172 59.1974 53.0115 60.5657C53.0088 61.2012 53.005 61.8367 52.999 62.4722C52.9931 63.0871 52.99 63.7019 52.9886 64.3168C52.9877 64.5498 52.9858 64.7828 52.9829 65.0158C52.9517 67.631 53.4656 69.9365 55.3132 71.9221C56.1662 72.7812 57.1707 73.4636 58.1569 74.159C58.5738 74.4539 58.9866 74.7543 59.3994 75.0548C59.7906 75.3391 60.1834 75.621 60.5764 75.9028C60.7812 76.0499 60.9858 76.1973 61.1901 76.3451C61.4996 76.5687 61.8097 76.7913 62.1201 77.0137C62.2141 77.0819 62.3081 77.1502 62.405 77.2205C62.4928 77.283 62.5806 77.3456 62.6711 77.41C62.7476 77.4651 62.8242 77.5202 62.9032 77.577C63.1643 77.7293 63.3629 77.8094 63.664 77.8438C64.0043 77.6262 64.3055 77.4068 64.6186 77.1548C64.8102 77.0058 65.002 76.8571 65.194 76.7086C65.2925 76.632 65.3911 76.5554 65.4926 76.4765C65.9529 76.1248 66.4264 75.7929 66.9013 75.4614C67.0895 75.3292 67.2777 75.1969 67.4658 75.0645C67.7623 74.8562 68.0588 74.6478 68.3555 74.4397C70.9596 72.6077 73.0872 70.8515 73.8097 67.5979C73.9672 66.6008 73.939 65.6001 73.9295 64.5931C73.9288 64.3574 73.9282 64.1216 73.9278 63.8859C73.9263 63.2712 73.9224 62.6566 73.918 62.042C73.9138 61.4125 73.9121 60.783 73.9101 60.1535C73.9058 58.9226 73.899 57.6918 73.8906 56.4609C73.5509 56.2688 73.2111 56.0769 72.8713 55.8852C72.7757 55.8311 72.6801 55.777 72.5817 55.7213C67.4051 52.8027 61.9658 52.2027 56.4839 54.6348ZM24.6504 57.3159C20.9619 61.0084 18.3073 66.2344 18.0512 71.5186C18.0621 71.9891 18.0621 71.9891 18.3082 72.2269C18.7863 72.4736 19.2425 72.4477 19.7674 72.4373C19.8757 72.4368 19.9841 72.4362 20.0957 72.4356C20.4408 72.4334 20.7858 72.4284 21.1308 72.4233C21.3652 72.4213 21.5995 72.4195 21.8338 72.4179C22.4075 72.4135 22.981 72.4066 23.5547 72.3984C24.4546 69.1933 25.1869 66.0159 25.5468 62.7031C25.5598 62.5956 25.5728 62.488 25.5862 62.3772C25.7174 61.174 25.6943 59.9688 25.688 58.7603C25.6873 58.5366 25.6867 58.3129 25.6861 58.0892C25.6847 57.5464 25.6824 57.0037 25.6797 56.4609C25.3387 56.4609 24.8969 57.0718 24.6504 57.3159Z" fill="#58B347"/>
<path d="M72.2965 57.2579C72.4896 57.6443 72.4494 57.9847 72.4528 58.4163C72.4537 58.5081 72.4545 58.6 72.4554 58.6946C72.458 58.9996 72.4596 59.3046 72.4609 59.6096C72.4615 59.7142 72.462 59.8188 72.4626 59.9265C72.4653 60.4813 72.4672 61.0362 72.4685 61.591C72.4699 62.1602 72.4745 62.7293 72.4798 63.2985C72.4833 63.7391 72.4844 64.1798 72.4848 64.6204C72.4855 64.8299 72.487 65.0394 72.4895 65.2489C72.5145 67.5016 72.0042 69.4222 70.4402 71.0979C69.5597 71.9473 68.512 72.625 67.5152 73.3282C67.3089 73.475 67.1026 73.6218 66.8963 73.7687C66.5174 74.0379 66.1373 74.3051 65.756 74.5708C65.4501 74.7843 65.1518 75.002 64.8543 75.2276C64.684 75.3557 64.684 75.3557 64.5103 75.4864C64.3722 75.5943 64.3722 75.5943 64.2312 75.7043C63.7767 75.9261 63.5025 75.9231 62.9996 75.8517C62.5645 75.6337 62.1803 75.3577 61.7877 75.0714C61.6764 74.9928 61.5652 74.9141 61.4506 74.8331C60.6738 74.2801 59.9145 73.7061 59.1651 73.1166C58.7882 72.8267 58.4054 72.5516 58.0157 72.2796C56.1866 71.0016 54.9832 69.5894 54.4996 67.3517C54.4266 66.5856 54.4213 65.8255 54.4244 65.0565C54.4237 64.8402 54.4228 64.6239 54.4219 64.4076C54.4205 63.958 54.4211 63.5085 54.423 63.0589C54.4253 62.4835 54.4222 61.9083 54.4175 61.3329C54.4146 60.8879 54.4148 60.4429 54.4159 59.9978C54.416 59.7856 54.4151 59.5733 54.4131 59.3611C54.4108 59.0652 54.4127 58.7696 54.4158 58.4737C54.4159 58.3058 54.416 58.1379 54.4162 57.9649C54.5215 57.4075 54.7324 57.2152 55.1636 56.8595C55.4327 56.687 55.4327 56.687 55.6965 56.5612C55.7959 56.5134 55.8954 56.4657 55.9979 56.4165C56.1034 56.3682 56.2088 56.3199 56.3175 56.2701C56.4278 56.2188 56.5381 56.1676 56.6518 56.1147C61.6585 53.841 67.7218 53.8501 72.2965 57.2579ZM62.4787 56.7542C60.7332 56.9406 59.0343 57.54 57.4449 58.2702C57.2508 58.3591 57.2508 58.3591 57.0528 58.4499C56.9066 58.5173 56.9066 58.5173 56.7574 58.5861C56.745 59.6518 56.7356 60.7174 56.7299 61.7832C56.7271 62.2782 56.7234 62.7732 56.7173 63.2682C56.7115 63.747 56.7084 64.2257 56.707 64.7046C56.706 64.8861 56.7041 65.0677 56.7012 65.2492C56.6794 66.6735 56.8061 68.0291 57.8365 69.1031C59.0892 70.3944 60.6003 71.3745 62.0699 72.3986C62.2168 72.5014 62.3636 72.6043 62.5104 72.7072C62.806 72.9146 63.1019 73.1216 63.398 73.3282C64.0895 72.9517 64.7087 72.5295 65.3321 72.0499C65.9508 71.5783 66.5724 71.115 67.2115 70.6713C68.5968 69.7064 69.8228 68.693 70.1715 66.9532C70.183 66.6773 70.1871 66.401 70.1865 66.1248C70.1865 65.9574 70.1865 65.7899 70.1865 65.6173C70.1858 65.4352 70.1851 65.2531 70.1844 65.071C70.1842 64.8842 70.184 64.6974 70.1839 64.5105C70.1834 64.0197 70.182 63.5289 70.1806 63.0381C70.1792 62.5368 70.1786 62.0356 70.1779 61.5344C70.1765 60.5516 70.1743 59.5688 70.1715 58.5861C69.7699 58.4151 69.3681 58.2447 68.9663 58.0745C68.8535 58.0265 68.7407 57.9784 68.6245 57.929C66.6382 57.0888 64.6468 56.6005 62.4787 56.7542Z" fill="#58B347"/>
<path d="M67.7813 60.7109C68.0967 60.9184 68.0967 60.9184 68.3125 61.2421C68.426 62.127 68.426 62.127 68.1648 62.5358C67.956 62.7612 67.7382 62.9651 67.5074 63.1679C67.356 63.3072 67.2051 63.447 67.0544 63.5871C66.9769 63.6586 66.8994 63.7302 66.8195 63.8039C66.5799 64.0371 66.3625 64.2802 66.145 64.5339C65.5796 65.1924 64.9679 65.8015 64.3531 66.4135C64.1822 66.5852 64.1822 66.5852 64.0078 66.7603C63.899 66.8689 63.7902 66.9776 63.6781 67.0895C63.5797 67.1878 63.4813 67.286 63.3799 67.3872C63.0544 67.6901 62.8974 67.7451 62.4522 67.8163C61.9096 67.7463 61.8286 67.7008 61.4488 67.351C61.3564 67.2665 61.264 67.1819 61.1687 67.0949C61.0234 66.9589 61.0234 66.9589 60.875 66.8202C60.7769 66.7308 60.6788 66.6414 60.5777 66.5492C60.2743 66.2701 59.9767 65.9856 59.6797 65.6996C59.5768 65.605 59.4739 65.5104 59.3679 65.413C58.5518 64.6206 58.5518 64.6206 58.542 63.9803C58.6548 63.2597 58.6548 63.2597 59.0157 62.9687C59.4961 62.8352 59.7969 62.7652 60.2551 62.9832C60.7014 63.2995 61.0679 63.6642 61.4478 64.0561C61.5208 64.1303 61.5938 64.2045 61.6691 64.281C61.8477 64.4627 62.0255 64.6453 62.2032 64.828C62.5815 64.6564 62.8517 64.4772 63.142 64.1808C63.2177 64.1042 63.2935 64.0275 63.3716 63.9485C63.492 63.8248 63.492 63.8248 63.6148 63.6986C63.6986 63.6138 63.7824 63.529 63.8687 63.4417C64.136 63.1712 64.4023 62.8999 64.6685 62.6283C65.0193 62.2705 65.371 61.9135 65.7232 61.557C65.8037 61.4743 65.8843 61.3916 65.9672 61.3063C66.0803 61.192 66.0803 61.192 66.1956 61.0753C66.2615 61.008 66.3275 60.9406 66.3954 60.8713C66.8447 60.493 67.249 60.5696 67.7813 60.7109Z" fill="#58B347"/>
</g>
<defs>
<clipPath id="clip0_3159_366">
<rect width="68" height="68" fill="white" transform="translate(12 12.5)"/>
</clipPath>
</defs>
</svg>
