<svg width="92" height="92" viewBox="0 0 92 92" fill="none" xmlns="http://www.w3.org/2000/svg">
<path d="M41.0029 12.0664C41.1741 12.0626 41.3453 12.0589 41.5217 12.055C42.5147 12.0529 43.2565 12.1054 44.0078 12.7969C44.3828 13.2409 44.5406 13.5649 44.6184 14.1271C44.6769 14.4106 44.6769 14.4106 44.8047 14.6562C45.1882 14.8491 45.4675 14.9492 45.8755 15.0464C49.4254 16.0634 52.5636 18.5956 54.3764 21.8147C55.7653 24.3632 56.3972 26.9092 56.4922 29.7969C56.593 29.8308 56.6938 29.8647 56.7977 29.8996C57.4297 30.1868 57.8001 30.756 58.0626 31.3891C58.3647 32.4585 58.3317 33.5808 57.8203 34.5781C57.2729 35.3436 56.6145 35.7278 55.6953 35.9062C55.52 35.9062 55.3447 35.9062 55.164 35.9062C55.1702 35.9809 55.1764 36.0555 55.1827 36.1324C55.3275 39.5039 53.8019 42.8738 51.5781 45.3359C51.4773 45.4477 51.3764 45.5595 51.2725 45.6747C50.2194 46.7829 48.98 47.7374 47.5937 48.3906C48.1549 48.6023 48.7168 48.8112 49.2814 49.0137C51.2365 49.7246 53.2753 50.5279 54.9005 51.8619C55.4599 52.1053 56.0268 51.8672 56.5746 51.6751C56.7438 51.6073 56.9127 51.539 57.0815 51.4702C61.8864 49.6094 66.8393 50.069 71.5 52.1094C75.5256 53.9643 75.5256 53.9643 76.1484 54.8984C76.175 55.2738 76.186 55.636 76.1849 56.0114C76.1859 56.1819 76.1859 56.1819 76.1869 56.3558C76.1888 56.7328 76.1887 57.1097 76.1884 57.4867C76.1889 57.7497 76.1894 58.0127 76.1901 58.2756C76.1911 58.8282 76.191 59.3807 76.1903 59.9333C76.1896 60.6369 76.1918 61.3404 76.1949 62.044C76.1969 62.5881 76.197 63.1322 76.1965 63.6763C76.1966 63.9354 76.1973 64.1944 76.1987 64.4535C76.2137 67.7609 75.4744 70.7422 73.102 73.1685C72.1825 74.0719 71.1398 74.8019 70.0829 75.5342C69.5765 75.8873 69.0777 76.2507 68.5781 76.6133C68.3808 76.7558 68.1835 76.8983 67.9861 77.0408C67.5686 77.3423 67.1512 77.6439 66.7338 77.9456C66.627 78.0227 66.5203 78.0998 66.4103 78.1793C66.2076 78.3257 66.0049 78.4722 65.8023 78.6187C65.6187 78.7513 65.4345 78.8832 65.2498 79.0143C65.0819 79.1373 64.9179 79.2659 64.7589 79.4003C64.2446 79.8208 63.8408 79.9785 63.1701 79.9369C62.6007 79.8059 62.1961 79.4708 61.7465 79.1118C61.5365 78.9521 61.3264 78.7925 61.1162 78.633C61.0101 78.5509 60.904 78.4688 60.7946 78.3843C60.2982 78.004 59.7896 77.6413 59.2812 77.2773C59.084 77.1351 58.8869 76.9928 58.6898 76.8504C58.5914 76.7793 58.4931 76.7083 58.3917 76.6351C58.0717 76.4038 57.7519 76.1721 57.4322 75.9404C57.3249 75.8627 57.2175 75.7849 57.1069 75.7049C56.9024 75.5568 56.698 75.4086 56.4937 75.2603C56.3543 75.1593 56.3543 75.1593 56.212 75.0564C56.1312 74.9978 56.0505 74.9392 55.9673 74.8789C55.8775 74.8157 55.7878 74.7526 55.6953 74.6875C55.5891 74.5972 55.483 74.5069 55.3736 74.4139C54.7668 74.0145 54.1007 74.0844 53.3979 74.0918C53.2462 74.0913 53.0944 74.0907 52.938 74.0902C52.429 74.0891 51.9201 74.0917 51.4111 74.0943C51.0463 74.0945 50.6816 74.0939 50.3168 74.0934C49.5311 74.0925 48.7454 74.0936 47.9597 74.0958C46.8225 74.0989 45.6853 74.0985 44.5482 74.0972C42.7016 74.0949 40.855 74.0946 39.0084 74.0959C38.898 74.096 38.7875 74.0961 38.6736 74.0961C37.4411 74.097 36.2086 74.0982 34.9761 74.0996C34.5293 74.1001 34.0824 74.1006 33.6355 74.1011C33.5252 74.1012 33.415 74.1013 33.3014 74.1015C31.4619 74.1033 29.6225 74.1027 27.7831 74.1C26.649 74.0985 25.5149 74.0993 24.3808 74.103C23.6035 74.1054 22.8263 74.1054 22.049 74.1036C21.6007 74.1026 21.1525 74.1031 20.7042 74.1057C20.2178 74.1085 19.7315 74.1071 19.2451 74.1048C19.104 74.1065 18.963 74.1083 18.8177 74.1102C17.926 74.1002 17.3388 73.9361 16.6484 73.3594C15.8771 72.5475 15.7997 71.8035 15.8188 70.7192C15.9167 68.7051 16.4349 66.7709 17.0468 64.8594C17.0761 64.7669 17.1053 64.6743 17.1354 64.579C17.9207 62.1481 19.1861 59.8234 20.7656 57.8203C20.8635 57.6946 20.9615 57.569 21.0623 57.4395C24.5214 53.1096 29.0822 49.9906 34.4453 48.5234C34.0393 48.2093 33.6168 47.935 33.1836 47.6602C30.0233 45.5597 27.8278 42.3495 27.0742 38.6289C26.9035 37.7206 26.7985 36.8321 26.875 35.9062C26.6367 35.8857 26.6367 35.8857 26.3935 35.8647C25.4494 35.7386 24.8834 35.3337 24.2825 34.6108C23.7596 33.8174 23.7 32.7757 23.8867 31.8627C24.0845 31.1096 24.3167 30.6016 24.8828 30.0625C25.1015 29.9676 25.3226 29.8779 25.5468 29.7969C25.5503 29.6505 25.5537 29.5041 25.5572 29.3533C25.7034 24.9553 27.5072 21.1394 30.6804 18.1099C32.1261 16.7816 33.9243 15.7003 35.8152 15.1635C36.7556 14.9418 36.7556 14.9418 37.4507 14.3398C37.5483 13.9954 37.5483 13.9954 37.5871 13.6472C37.663 13.1171 37.914 12.8963 38.2968 12.5312C39.1812 12.0072 40.0002 12.0644 41.0029 12.0664ZM39.625 14.5234C39.5657 14.8001 39.5657 14.8001 39.5771 15.1251C39.5765 15.2518 39.576 15.3784 39.5754 15.5089C39.5768 15.6483 39.5783 15.7877 39.5797 15.9313C39.5797 16.0777 39.5796 16.2241 39.5796 16.3749C39.5798 16.8608 39.5829 17.3465 39.5861 17.8323C39.5868 18.1684 39.5874 18.5045 39.5878 18.8406C39.5891 19.636 39.5923 20.4314 39.5963 21.2268C39.6007 22.1322 39.6029 23.0376 39.6049 23.9431C39.6091 25.8058 39.6164 27.6685 39.625 29.5312C40.5454 29.5312 41.4657 29.5312 42.414 29.5312C42.423 27.5791 42.4304 25.6269 42.4347 23.6747C42.4367 22.7683 42.4395 21.8619 42.4441 20.9555C42.4485 20.0814 42.4508 19.2074 42.4518 18.3333C42.4526 17.9992 42.454 17.665 42.4562 17.3309C42.459 16.8643 42.4594 16.3978 42.4593 15.9313C42.4607 15.7919 42.4621 15.6525 42.4636 15.5089C42.4631 15.3823 42.4625 15.2556 42.4619 15.1251C42.4625 14.9595 42.4625 14.9595 42.4631 14.7905C42.4469 14.7024 42.4307 14.6142 42.414 14.5234C41.9328 14.2026 41.5752 14.2183 41.0195 14.2246C40.9296 14.2236 40.8397 14.2225 40.7471 14.2215C40.2559 14.2234 40.0439 14.2442 39.625 14.5234ZM44.6718 17.0469C44.6718 21.1667 44.6718 25.2866 44.6718 29.5312C47.8275 29.5312 50.9831 29.5312 54.2343 29.5312C53.967 25.7879 52.7662 22.5617 49.9843 19.9687C49.6265 19.7285 49.6265 19.7285 49.3203 19.5703C49.1941 20.9369 49.0718 22.3031 48.9872 23.673C48.9789 23.8052 48.9789 23.8052 48.9705 23.94C48.9435 24.374 48.9177 24.808 48.8934 25.2421C48.8398 26.1212 48.7777 26.9588 48.5234 27.8047C48.0327 28.1318 47.7753 28.1221 47.1953 28.0703C46.9159 27.8654 46.818 27.7142 46.664 27.4062C46.6579 27.1624 46.6579 27.1624 46.6728 26.862C46.6782 26.7487 46.6835 26.6355 46.689 26.5188C46.6957 26.395 46.7023 26.2711 46.7092 26.1435C46.7156 26.0141 46.722 25.8847 46.7287 25.7513C46.8087 24.1828 46.9062 22.6153 47.0044 21.0478C47.023 20.7476 47.0416 20.4474 47.0601 20.1472C47.1049 19.4236 47.15 18.7001 47.1953 17.9766C46.8996 17.8457 46.6035 17.7158 46.3071 17.5864C46.224 17.5495 46.1409 17.5126 46.0552 17.4746C45.5839 17.2698 45.1823 17.149 44.6718 17.0469ZM36.1054 17.437C36.0138 17.4739 35.9222 17.5108 35.8279 17.5488C35.33 17.7497 35.33 17.7497 34.8437 17.9766C34.8504 18.079 34.857 18.1815 34.8639 18.2871C34.9268 19.2561 34.9893 20.2252 35.0515 21.1943C35.0835 21.6925 35.1156 22.1906 35.148 22.6887C35.1793 23.1701 35.2103 23.6515 35.241 24.1329C35.2527 24.3159 35.2646 24.4989 35.2766 24.6818C35.4579 27.4534 35.4579 27.4534 35.1093 27.9375C34.6987 28.1428 34.3664 28.1093 33.914 28.0703C33.578 27.8518 33.4131 27.668 33.3202 27.2732C33.278 26.9246 33.2534 26.5781 33.2334 26.2275C33.2239 26.096 33.2144 25.9646 33.2046 25.8291C33.1729 25.381 33.145 24.9327 33.1172 24.4844C33.088 24.0428 33.0587 23.6013 33.0291 23.1598C32.9998 22.7212 32.9713 22.2825 32.9441 21.8437C32.8959 21.0799 32.8457 20.3254 32.7187 19.5703C30.623 20.6182 29.2186 23.3323 28.494 25.4649C28.3932 25.7868 28.3001 26.1096 28.2114 26.4351C28.1716 26.579 28.1716 26.579 28.1311 26.7259C27.8938 27.6776 27.8773 28.5148 27.8047 29.5312C30.9603 29.5312 34.1159 29.5312 37.3672 29.5312C37.3672 25.4114 37.3672 21.2916 37.3672 17.0469C36.9173 17.0469 36.5171 17.2689 36.1054 17.437ZM26.207 32.0417C25.9798 32.5328 26.093 32.8607 26.2109 33.3828C26.7253 33.7257 27.1513 33.6862 27.7478 33.684C27.9243 33.6849 27.9243 33.6849 28.1043 33.6858C28.5002 33.6875 28.8959 33.6872 29.2918 33.687C29.5749 33.6878 29.858 33.6887 30.1412 33.6897C30.9114 33.6921 31.6817 33.6927 32.4519 33.6929C33.0942 33.6931 33.7365 33.6941 34.3788 33.695C35.8938 33.6972 37.4087 33.6978 38.9236 33.6977C40.488 33.6975 42.0525 33.7003 43.6169 33.7045C44.9587 33.708 46.3005 33.7094 47.6423 33.7092C48.4443 33.7092 49.2463 33.7099 50.0483 33.7127C50.8023 33.7153 51.5563 33.7153 52.3103 33.7134C52.5875 33.7131 52.8646 33.7137 53.1417 33.7153C53.5193 33.7174 53.8967 33.7162 54.2743 33.7141C54.4398 33.7162 54.4398 33.7162 54.6086 33.7182C55.0876 33.7125 55.372 33.6907 55.7639 33.4036C56.0316 33.0144 56.0285 32.7837 55.9609 32.3203C55.8434 32.0145 55.8434 32.0145 55.5625 31.7891C55.1634 31.7359 54.8125 31.7174 54.413 31.7216C54.2348 31.7204 54.2348 31.7204 54.0529 31.7191C53.6531 31.717 53.2534 31.7186 52.8536 31.7203C52.5676 31.7196 52.2816 31.7187 51.9956 31.7175C51.2177 31.7151 50.4398 31.716 49.6619 31.7177C48.849 31.719 48.0361 31.7178 47.2232 31.717C45.858 31.716 44.4927 31.7173 43.1274 31.7198C41.5474 31.7227 39.9675 31.7218 38.3875 31.7188C37.0326 31.7164 35.6778 31.7161 34.3229 31.7175C33.5129 31.7183 32.703 31.7184 31.8931 31.7167C31.1317 31.7151 30.3704 31.7162 29.6091 31.7193C29.3291 31.72 29.0492 31.7197 28.7692 31.7186C28.3881 31.7171 28.0071 31.7189 27.626 31.7216C27.5142 31.7204 27.4025 31.7192 27.2874 31.718C26.689 31.7206 26.689 31.7206 26.207 32.0417ZM29.1328 35.9062C29.1328 38.7498 30.1009 41.2962 31.9218 43.4766C31.9895 43.5635 32.0571 43.6505 32.1268 43.7401C33.9604 46.0039 36.8817 47.3115 39.7194 47.684C43.1936 48.0224 46.1947 46.9192 48.8834 44.7845C51.0808 42.915 52.5659 40.1039 52.9062 37.2344C52.9062 36.7961 52.9062 36.3578 52.9062 35.9062C45.061 35.9062 37.2157 35.9062 29.1328 35.9062ZM34.3125 50.9141C34.4732 51.3477 34.6471 51.7096 34.921 52.0819C34.9892 52.1753 35.0573 52.2687 35.1275 52.3649C35.2009 52.4641 35.2744 52.5633 35.3501 52.6655C35.5073 52.8805 35.6645 53.0954 35.8217 53.3104C35.9021 53.4199 35.9825 53.5293 36.0653 53.6421C36.4356 54.1474 36.8017 54.6558 37.1679 55.1641C37.3111 55.3623 37.4543 55.5604 37.5975 55.7586C37.8926 56.1671 38.1872 56.576 38.4815 56.985C39.294 58.1135 40.1125 59.236 40.9531 60.3437C41.5201 59.8132 41.959 59.2341 42.4057 58.6006C42.559 58.3857 42.7124 58.1709 42.8659 57.9562C42.984 57.7908 42.984 57.7908 43.1045 57.622C43.4891 57.0867 43.8813 56.5571 44.2734 56.0273C44.969 55.0863 45.6577 54.1406 46.3403 53.19C46.406 53.0986 46.4718 53.0072 46.5395 52.913C46.6348 52.7801 46.6348 52.7801 46.732 52.6446C46.8706 52.4556 47.0123 52.269 47.1564 52.0841C47.2295 51.9903 47.3026 51.8964 47.3779 51.7996C47.4447 51.7156 47.5114 51.6316 47.5802 51.545C47.7619 51.3021 47.7619 51.3021 47.7265 50.9141C47.3257 50.8074 46.9245 50.7026 46.5229 50.5986C46.4129 50.5692 46.3029 50.5397 46.1896 50.5094C44.5106 50.0786 42.8239 49.9325 41.0942 49.9346C41.0064 49.9345 40.9185 49.9344 40.828 49.9344C38.5893 49.9388 36.4617 50.3002 34.3125 50.9141ZM30.602 52.4497C30.4951 52.5053 30.3882 52.5608 30.278 52.6181C30.0557 52.7353 29.8357 52.8572 29.6182 52.9832C29.2656 53.1719 29.2656 53.1719 28.8585 53.3115C28.3652 53.5192 28.1261 53.6687 27.8047 54.1016C27.5924 54.996 27.6755 55.9434 27.7174 56.854C27.7523 57.6247 27.7628 58.3958 27.7772 59.1671C27.7806 59.3177 27.7841 59.4682 27.7877 59.6233C27.8233 61.305 27.6723 62.933 27.4062 64.5937C27.3827 64.7462 27.3592 64.8987 27.335 65.0559C27.0504 66.8711 26.6888 68.6533 26.1949 70.4237C26.1624 70.5405 26.1298 70.6574 26.0963 70.7778C26.0671 70.8794 26.0379 70.9809 26.0079 71.0855C25.9261 71.4055 25.9261 71.4055 25.9453 71.8984C30.5472 71.8984 35.1492 71.8984 39.8906 71.8984C39.9399 69.7002 39.9399 69.7002 39.9902 67.4575C40.0047 66.9996 40.0192 66.5418 40.0342 66.07C40.0978 63.2596 40.0978 63.2596 38.7016 60.8874C38.6312 60.8166 38.5608 60.7459 38.4883 60.673C38.2322 60.4102 38.0298 60.1204 37.8242 59.8172C37.6969 59.6412 37.5694 59.4653 37.4419 59.2895C37.2966 59.089 37.1513 58.8883 37.0061 58.6877C36.934 58.5883 36.8619 58.4888 36.7877 58.3863C36.5723 58.0887 36.3574 57.7906 36.1428 57.4924C35.3116 56.3381 34.4735 55.1893 33.6265 54.0464C33.1408 53.3897 32.6691 52.7271 32.2186 52.0456C32.1645 51.979 32.1104 51.9124 32.0547 51.8437C31.5328 51.8437 31.0546 52.2097 30.602 52.4497ZM49.9843 51.8437C49.8116 52.0315 49.8116 52.0315 49.6414 52.2826C49.5392 52.4259 49.5392 52.4259 49.4349 52.5721C49.3615 52.6769 49.288 52.7817 49.2124 52.8896C49.0552 53.1107 48.898 53.3317 48.7408 53.5527C48.6604 53.6663 48.58 53.7799 48.4971 53.897C48.1329 54.4103 47.7637 54.9199 47.3945 55.4297C47.2506 55.6289 47.1067 55.8281 46.9629 56.0273C46.0996 57.2227 46.0996 57.2227 45.8836 57.5217C45.7403 57.7201 45.5971 57.9184 45.4539 58.1168C45.0845 58.6283 44.715 59.1396 44.345 59.6506C44.2691 59.7556 44.1931 59.8605 44.1149 59.9687C43.972 60.1662 43.829 60.3637 43.6859 60.5611C43.5558 60.741 43.427 60.9219 43.2998 61.1038C43.0781 61.4062 43.0781 61.4062 42.8381 61.6773C42.0116 62.6744 42.0261 63.6356 42.0576 64.8687C42.059 65.0493 42.0599 65.2299 42.0605 65.4106C42.0653 66.0736 42.0783 66.7365 42.0903 67.3994C42.1095 68.8841 42.1286 70.3688 42.1484 71.8984C45.6547 71.8984 49.1609 71.8984 52.7734 71.8984C52.5104 71.4163 52.2475 70.9342 51.9765 70.4375C50.9717 68.3904 50.8508 66.4163 50.8518 64.1823C50.8508 63.9156 50.8498 63.6489 50.8487 63.3822C50.8469 62.8271 50.8467 62.272 50.8475 61.7169C50.8483 61.0059 50.8442 60.295 50.8388 59.5841C50.8354 59.035 50.835 58.486 50.8355 57.9369C50.8353 57.6746 50.834 57.4123 50.8316 57.1501C50.8287 56.7846 50.83 56.4193 50.8323 56.0538C50.8306 55.9461 50.8288 55.8384 50.827 55.7274C50.8353 55.1678 50.8639 54.9608 51.2271 54.5091C51.5882 54.2264 51.9431 54.0053 52.3501 53.7944C52.4797 53.7265 52.6093 53.6585 52.7428 53.5885C52.8406 53.5386 52.9383 53.4888 53.039 53.4375C52.4967 52.9644 51.9287 52.6551 51.2876 52.3418C51.1914 52.2935 51.0953 52.2452 50.9963 52.1955C50.5136 51.9355 50.5136 51.9355 49.9843 51.8437ZM56.4839 54.1348C56.3837 54.1791 56.2836 54.2235 56.1804 54.2692C55.4516 54.6051 54.7549 54.9903 54.0572 55.3855C53.9591 55.4409 53.8609 55.4963 53.7598 55.5534C53.5194 55.6891 53.2792 55.825 53.039 55.9609C53.0266 57.3292 53.0172 58.6974 53.0115 60.0657C53.0087 60.7012 53.005 61.3367 52.999 61.9722C52.9931 62.5871 52.99 63.2019 52.9886 63.8168C52.9877 64.0498 52.9858 64.2828 52.9829 64.5158C52.9517 67.131 53.4656 69.4365 55.3132 71.4221C56.1662 72.2812 57.1707 72.9636 58.1569 73.659C58.5738 73.9539 58.9866 74.2543 59.3994 74.5548C59.7906 74.8391 60.1834 75.121 60.5764 75.4028C60.7812 75.5499 60.9858 75.6973 61.1901 75.8451C61.4996 76.0687 61.8097 76.2913 62.1201 76.5137C62.2141 76.5819 62.3081 76.6502 62.405 76.7205C62.4928 76.783 62.5806 76.8456 62.671 76.91C62.7476 76.9651 62.8242 77.0202 62.9031 77.077C63.1643 77.2293 63.3629 77.3094 63.664 77.3438C64.0043 77.1262 64.3055 76.9068 64.6186 76.6548C64.8102 76.5058 65.002 76.3571 65.194 76.2086C65.2925 76.132 65.3911 76.0554 65.4926 75.9765C65.9529 75.6248 66.4264 75.2929 66.9013 74.9614C67.0895 74.8292 67.2777 74.6969 67.4658 74.5645C67.7623 74.3562 68.0588 74.1478 68.3555 73.9397C70.9596 72.1077 73.0872 70.3515 73.8097 67.0979C73.9672 66.1008 73.939 65.1001 73.9295 64.0931C73.9288 63.8574 73.9282 63.6216 73.9278 63.3859C73.9263 62.7712 73.9224 62.1566 73.9179 61.542C73.9138 60.9125 73.912 60.283 73.91 59.6535C73.9058 58.4226 73.899 57.1918 73.8906 55.9609C73.5509 55.7688 73.2111 55.5769 72.8713 55.3852C72.7757 55.3311 72.6801 55.277 72.5817 55.2213C67.4051 52.3027 61.9658 51.7027 56.4839 54.1348ZM24.6504 56.8159C20.9619 60.5084 18.3073 65.7344 18.0512 71.0186C18.0621 71.4891 18.0621 71.4891 18.3082 71.7269C18.7863 71.9736 19.2425 71.9477 19.7674 71.9373C19.8757 71.9368 19.9841 71.9362 20.0957 71.9356C20.4408 71.9334 20.7858 71.9284 21.1308 71.9233C21.3652 71.9213 21.5995 71.9195 21.8338 71.9179C22.4075 71.9135 22.981 71.9066 23.5547 71.8984C24.4546 68.6933 25.1869 65.5159 25.5468 62.2031C25.5598 62.0956 25.5728 61.988 25.5862 61.8772C25.7174 60.674 25.6943 59.4688 25.688 58.2603C25.6873 58.0366 25.6867 57.8129 25.6861 57.5892C25.6847 57.0464 25.6824 56.5037 25.6797 55.9609C25.3387 55.9609 24.8969 56.5718 24.6504 56.8159Z" fill="#191E42"/>
<path d="M72.2965 56.7579C72.4896 57.1443 72.4494 57.4847 72.4528 57.9163C72.4537 58.0081 72.4545 58.1 72.4554 58.1946C72.458 58.4996 72.4596 58.8046 72.4609 59.1096C72.4615 59.2142 72.462 59.3188 72.4626 59.4265C72.4653 59.9813 72.4672 60.5362 72.4685 61.091C72.4699 61.6602 72.4745 62.2293 72.4798 62.7985C72.4833 63.2391 72.4844 63.6798 72.4848 64.1204C72.4855 64.3299 72.487 64.5394 72.4895 64.7489C72.5145 67.0016 72.0042 68.9222 70.4402 70.5979C69.5597 71.4473 68.512 72.125 67.5152 72.8282C67.3089 72.975 67.1026 73.1218 66.8963 73.2687C66.5174 73.5379 66.1373 73.8051 65.756 74.0708C65.4501 74.2843 65.1518 74.502 64.8543 74.7276C64.684 74.8557 64.684 74.8557 64.5103 74.9864C64.3722 75.0943 64.3722 75.0943 64.2312 75.2043C63.7767 75.4261 63.5025 75.4231 62.9996 75.3517C62.5645 75.1337 62.1803 74.8577 61.7877 74.5714C61.6764 74.4928 61.5652 74.4141 61.4506 74.3331C60.6738 73.7801 59.9145 73.2061 59.1651 72.6166C58.7882 72.3267 58.4054 72.0516 58.0157 71.7796C56.1866 70.5016 54.9832 69.0894 54.4996 66.8517C54.4266 66.0856 54.4213 65.3255 54.4244 64.5565C54.4237 64.3402 54.4228 64.1239 54.4219 63.9076C54.4205 63.458 54.4211 63.0085 54.423 62.5589C54.4253 61.9835 54.4222 61.4083 54.4175 60.8329C54.4146 60.3879 54.4148 59.9429 54.4159 59.4978C54.416 59.2856 54.4151 59.0733 54.4131 58.8611C54.4108 58.5652 54.4127 58.2696 54.4158 57.9737C54.4159 57.8058 54.416 57.6379 54.4162 57.4649C54.5215 56.9075 54.7324 56.7152 55.1636 56.3595C55.4327 56.187 55.4327 56.187 55.6965 56.0612C55.7959 56.0134 55.8954 55.9657 55.9979 55.9165C56.1034 55.8682 56.2088 55.8199 56.3175 55.7701C56.4278 55.7188 56.5381 55.6676 56.6518 55.6147C61.6585 53.341 67.7218 53.3501 72.2965 56.7579ZM62.4787 56.2542C60.7332 56.4406 59.0343 57.04 57.4449 57.7702C57.2508 57.8591 57.2508 57.8591 57.0528 57.9499C56.9066 58.0173 56.9066 58.0173 56.7574 58.0861C56.745 59.1518 56.7356 60.2174 56.7299 61.2832C56.7271 61.7782 56.7234 62.2732 56.7173 62.7682C56.7115 63.247 56.7084 63.7257 56.707 64.2046C56.706 64.3861 56.7041 64.5677 56.7012 64.7492C56.6794 66.1735 56.8061 67.5291 57.8365 68.6031C59.0892 69.8944 60.6003 70.8745 62.0699 71.8986C62.2168 72.0014 62.3636 72.1043 62.5104 72.2072C62.806 72.4146 63.1019 72.6216 63.398 72.8282C64.0895 72.4517 64.7087 72.0295 65.3321 71.5499C65.9508 71.0783 66.5724 70.615 67.2115 70.1713C68.5968 69.2064 69.8228 68.193 70.1715 66.4532C70.183 66.1773 70.1871 65.901 70.1865 65.6248C70.1865 65.4574 70.1865 65.2899 70.1865 65.1173C70.1858 64.9352 70.1851 64.7531 70.1844 64.571C70.1842 64.3842 70.184 64.1974 70.1839 64.0105C70.1834 63.5197 70.182 63.0289 70.1806 62.538C70.1792 62.0368 70.1786 61.5356 70.1779 61.0344C70.1765 60.0516 70.1743 59.0688 70.1715 58.0861C69.7699 57.9151 69.3681 57.7447 68.9663 57.5745C68.8535 57.5265 68.7407 57.4784 68.6245 57.429C66.6382 56.5888 64.6468 56.1005 62.4787 56.2542Z" fill="#191E42"/>
<path d="M67.7813 60.2109C68.0967 60.4184 68.0967 60.4184 68.3125 60.7421C68.426 61.627 68.426 61.627 68.1648 62.0358C67.956 62.2612 67.7382 62.4651 67.5074 62.6679C67.356 62.8072 67.2051 62.947 67.0544 63.0871C66.9769 63.1586 66.8994 63.2302 66.8195 63.3039C66.5799 63.5371 66.3625 63.7802 66.145 64.0339C65.5796 64.6924 64.9679 65.3015 64.3531 65.9135C64.1822 66.0852 64.1822 66.0852 64.0078 66.2603C63.899 66.3689 63.7902 66.4776 63.6781 66.5895C63.5797 66.6878 63.4813 66.786 63.3799 66.8872C63.0544 67.1901 62.8974 67.2451 62.4522 67.3163C61.9096 67.2463 61.8286 67.2008 61.4488 66.851C61.3564 66.7665 61.264 66.6819 61.1687 66.5949C61.0234 66.4589 61.0234 66.4589 60.875 66.3202C60.7769 66.2308 60.6788 66.1414 60.5777 66.0492C60.2743 65.7701 59.9767 65.4856 59.6797 65.1996C59.5768 65.105 59.4739 65.0104 59.3679 64.913C58.5518 64.1206 58.5518 64.1206 58.542 63.4803C58.6548 62.7597 58.6548 62.7597 59.0157 62.4687C59.4961 62.3352 59.7969 62.2652 60.2551 62.4832C60.7014 62.7995 61.0679 63.1642 61.4478 63.5561C61.5208 63.6303 61.5938 63.7045 61.6691 63.781C61.8477 63.9627 62.0255 64.1453 62.2032 64.328C62.5815 64.1564 62.8517 63.9772 63.142 63.6808C63.2177 63.6042 63.2935 63.5275 63.3716 63.4485C63.492 63.3248 63.492 63.3248 63.6148 63.1986C63.6986 63.1138 63.7824 63.029 63.8687 62.9417C64.136 62.6712 64.4023 62.3999 64.6685 62.1283C65.0193 61.7705 65.371 61.4135 65.7232 61.057C65.8037 60.9743 65.8843 60.8916 65.9672 60.8063C66.0803 60.692 66.0803 60.692 66.1956 60.5753C66.2615 60.508 66.3275 60.4406 66.3954 60.3713C66.8447 59.993 67.249 60.0696 67.7813 60.2109Z" fill="#191E42"/>
</svg>
