<svg width="53" height="52" viewBox="0 0 53 52" fill="none" xmlns="http://www.w3.org/2000/svg">
<path d="M32.3909 35.1407C32.5259 35.2429 32.6611 35.3447 32.7972 35.4454C32.6606 35.8109 32.4938 36.1528 32.313 36.4982C31.4813 38.0962 31.0299 39.6826 31.0325 41.4947C31.0326 41.6097 31.0327 41.7247 31.0328 41.8432C31.0494 43.0326 31.2968 44.0898 31.6366 45.2208C31.6638 45.3114 31.691 45.402 31.719 45.4953C31.7397 45.5639 31.7603 45.6325 31.7815 45.7032C28.6996 45.7102 25.6177 45.7155 22.5358 45.7188C22.1719 45.7191 21.8081 45.7195 21.4443 45.7199C21.3356 45.7201 21.3356 45.7201 21.2248 45.7202C20.0519 45.7215 18.879 45.7239 17.7061 45.7267C16.5027 45.7296 15.2992 45.7313 14.0958 45.7319C13.4198 45.7323 12.7438 45.7332 12.0679 45.7354C11.4318 45.7375 10.7958 45.7381 10.1597 45.7377C9.92613 45.7377 9.69251 45.7384 9.4589 45.7395C9.14021 45.741 8.82157 45.7407 8.50288 45.7398C8.41021 45.7407 8.31754 45.7416 8.22206 45.7425C7.70488 45.7389 7.34642 45.6874 6.89871 45.3985C6.62209 45.0177 6.68446 44.6721 6.73685 44.2238C6.98206 42.8058 7.48809 41.507 8.11746 40.2188C8.17507 40.1006 8.23267 39.9824 8.29202 39.8606C8.9906 38.5013 9.90525 37.3527 10.9612 36.2579C11.0464 36.1651 11.1317 36.0722 11.2195 35.9766C13.5706 33.4903 17.0335 31.9598 20.4065 31.586C20.5103 31.5736 20.6142 31.5611 20.7211 31.5483C25.0061 31.1346 29.0622 32.4797 32.3909 35.1407Z" fill="#58B347"/>
<path d="M46.7105 34.3282C47.1412 34.6758 47.5378 35.0545 47.9292 35.4453C47.997 35.512 48.0649 35.5786 48.1347 35.6473C49.6522 37.2505 50.3219 39.5667 50.3008 41.7293C50.23 44.1764 49.2382 46.3985 47.4754 48.1005C45.4354 49.9585 43.0272 50.5229 40.3219 50.3986C39.6411 50.3476 39.0261 50.1968 38.3824 49.9688C38.2749 49.932 38.1674 49.8952 38.0566 49.8573C35.8998 49.0405 34.1182 47.2439 33.1511 45.1719C33.0178 44.8444 32.9028 44.5169 32.7964 44.1797C32.7639 44.0775 32.7315 43.9752 32.698 43.8699C32.1021 41.6103 32.4379 39.1297 33.5605 37.0945C34.8148 35.0305 36.7212 33.4495 39.0914 32.8559C41.7902 32.2442 44.4565 32.6973 46.7105 34.3282ZM44.0127 38.4161C43.8094 38.6267 43.6115 38.8403 43.4218 39.0633C42.8308 39.7561 42.183 40.3903 41.5371 41.0313C41.418 41.1499 41.2989 41.2685 41.1799 41.3871C40.8909 41.6751 40.6015 41.9626 40.312 42.25C39.9635 42.1004 39.7433 41.9058 39.4805 41.6343C39.4012 41.5534 39.3218 41.4725 39.2401 41.3891C39.0745 41.2183 38.9089 41.0474 38.7434 40.8766C38.664 40.7957 38.5847 40.7147 38.503 40.6314C38.4311 40.5572 38.3592 40.4829 38.2852 40.4064C37.9098 40.0669 37.5864 39.9587 37.0724 39.9692C36.6782 40.055 36.4023 40.322 36.148 40.625C36.0254 40.9926 36.0136 41.2539 36.0464 41.6407C36.3371 42.1473 36.7115 42.5387 37.1223 42.9467C37.1862 43.0107 37.25 43.0748 37.3158 43.1407C37.4501 43.2751 37.5846 43.4093 37.7194 43.5432C37.9254 43.7482 38.1303 43.9542 38.3351 44.1603C38.4661 44.2911 38.5972 44.4219 38.7283 44.5526C38.8199 44.6448 38.8199 44.6448 38.9133 44.7389C38.9709 44.7959 39.0286 44.8529 39.0879 44.9116C39.1632 44.9866 39.1632 44.9866 39.24 45.0632C39.5959 45.3609 39.9328 45.4563 40.4006 45.4432C41.1248 45.2933 41.7048 44.5237 42.179 44.0004C42.7598 43.3715 43.3517 42.7575 43.9611 42.1564C44.036 42.0824 44.1108 42.0084 44.1879 41.9321C44.4934 41.6303 44.7992 41.3288 45.106 41.0282C45.3344 40.804 45.5619 40.5789 45.7893 40.3537C45.8587 40.2862 45.928 40.2187 45.9995 40.1491C46.4616 39.6933 46.4616 39.6933 46.7105 39.1016C46.7025 38.6625 46.6325 38.4285 46.3994 38.0542C45.5147 37.2448 44.7736 37.6719 44.0127 38.4161Z" fill="#58B347"/>
<path d="M27.0023 16.0484C27.2514 16.2419 27.4861 16.4433 27.7188 16.6562C27.788 16.7162 27.8573 16.7761 27.9286 16.8379C29.3593 18.1538 30.1886 20.1143 30.2903 22.0351C30.3628 24.2981 29.7778 26.3359 28.2266 28.0312C28.1666 28.1005 28.1066 28.1697 28.0449 28.2411C27.1746 29.1873 25.9826 29.8572 24.7734 30.2656C24.6798 30.2979 24.5862 30.3303 24.4898 30.3636C22.3642 30.9729 20.1446 30.5911 18.2322 29.5614C17.7643 29.2985 17.3496 29.0028 16.9531 28.6406C16.8688 28.5644 16.7845 28.4882 16.6976 28.4097C15.1626 26.9528 14.3329 25.0078 14.2109 22.9039C14.2109 20.6921 14.9023 18.6078 16.4751 17.0264C16.5658 16.9377 16.6565 16.8491 16.75 16.7578C16.8229 16.6828 16.8958 16.6077 16.971 16.5305C19.6372 13.9446 24.06 14.0349 27.0023 16.0484Z" fill="#58B347"/>
<path d="M8.72656 6.70312C8.92703 6.70818 8.92703 6.70818 9.13281 6.80469C9.2646 7.03211 9.2646 7.03211 9.37839 7.33313C9.42112 7.44356 9.46385 7.55399 9.50787 7.66777C9.55168 7.78514 9.59549 7.90251 9.64062 8.02344C9.73114 8.25568 9.82173 8.4879 9.91238 8.72009C10.0018 8.9533 10.0911 9.18658 10.1802 9.41992C10.2263 9.54037 10.2725 9.66082 10.32 9.78491C10.4323 10.0779 10.5443 10.371 10.6562 10.6641C10.7638 10.6697 10.8714 10.6753 10.9822 10.6811C11.3831 10.7021 11.784 10.7236 12.1849 10.7453C12.3581 10.7545 12.5312 10.7637 12.7044 10.7727C12.954 10.7858 13.2036 10.7993 13.4532 10.8128C13.53 10.8168 13.6068 10.8207 13.686 10.8247C14.1043 10.8479 14.5101 10.891 14.9219 10.9688C15.0044 11.1401 15.0044 11.1401 15.0234 11.375C14.6208 11.8271 14.1457 12.1989 13.6777 12.5811C13.6014 12.6443 13.525 12.7076 13.4463 12.7727C12.9833 13.1543 12.5149 13.5138 12.0043 13.8307C11.8283 14.0824 11.8648 14.2677 11.9156 14.5618C12.071 15.2406 12.264 15.9102 12.4552 16.5796C12.5127 16.7819 12.5688 16.9847 12.6248 17.1875C12.6757 17.3672 12.6757 17.3672 12.7276 17.5506C12.7886 17.8727 12.7777 18.071 12.6875 18.3828C12.123 18.3368 11.7862 18.1985 11.3216 17.8786C11.2627 17.8386 11.2038 17.7987 11.1431 17.7575C10.9567 17.6307 10.7715 17.5022 10.5864 17.3735C10.4 17.2456 10.2133 17.118 10.0265 16.9907C9.85754 16.8752 9.68922 16.7588 9.52094 16.6424C9.37909 16.5487 9.37909 16.5487 9.23438 16.4531C9.16483 16.4055 9.09529 16.3579 9.02364 16.3089C8.81909 16.2249 8.81909 16.2249 8.59301 16.3462C8.508 16.4023 8.42298 16.4584 8.33539 16.5162C8.19301 16.6086 8.19301 16.6086 8.04776 16.7029C7.94918 16.7692 7.85059 16.8355 7.74902 16.9038C7.6528 16.9666 7.55657 17.0294 7.45743 17.094C7.07008 17.3481 6.68606 17.6039 6.31297 17.8786C6.22469 17.9435 6.13642 18.0085 6.04547 18.0753C5.92855 18.1639 5.92855 18.1639 5.80927 18.2543C5.53943 18.4043 5.37455 18.4165 5.07031 18.3828C5.02004 18.3325 5.02004 18.3325 4.96875 18.2812C5.01475 17.3583 5.2973 16.4861 5.54892 15.6025C5.6063 15.4 5.66249 15.1972 5.71857 14.9944C5.75249 14.8747 5.78642 14.7549 5.82137 14.6316C5.88006 14.3343 5.902 14.1879 5.78125 13.9141C5.57978 13.7326 5.38279 13.5729 5.16553 13.4126C5.037 13.3149 4.9086 13.217 4.7803 13.119C4.71231 13.0674 4.64431 13.0157 4.57425 12.9625C4.19634 12.6712 3.82748 12.3688 3.45801 12.0669C3.35018 11.979 3.35018 11.979 3.24018 11.8894C3.07149 11.7519 2.90292 11.6142 2.73438 11.4766C2.76789 11.309 2.80141 11.1414 2.83594 10.9688C3.34738 10.889 3.8547 10.841 4.37167 10.8128C4.44731 10.8085 4.52295 10.8041 4.60089 10.7996C4.83987 10.7859 5.07887 10.7726 5.31787 10.7593C5.48099 10.75 5.64412 10.7407 5.80724 10.7313C6.20481 10.7086 6.6024 10.6862 7 10.6641C7.38729 9.81882 7.72072 8.9543 8.05312 8.08634C8.1261 7.89605 8.19979 7.70603 8.2735 7.51602C8.31665 7.40377 8.35981 7.29151 8.40427 7.17585C8.52344 6.90625 8.52344 6.90625 8.72656 6.70312Z" fill="#58B347"/>
<path d="M22.2915 1.61865C22.414 1.62179 22.414 1.62179 22.5391 1.625C22.9056 2.49037 23.2512 3.36232 23.5864 4.24023C23.7435 4.6508 23.9006 5.06137 24.0625 5.48438C26.174 5.6352 26.174 5.6352 28.3281 5.78906C28.3784 6.04043 28.3784 6.04043 28.4297 6.29688C26.0305 8.3573 26.0305 8.3573 25.4372 8.6582C25.2393 8.84445 25.2393 8.84445 25.2805 9.21838C25.4018 9.97726 25.6429 10.7134 25.8614 11.4488C25.9189 11.6435 25.975 11.8385 26.0311 12.0336C26.065 12.1485 26.0989 12.2634 26.1339 12.3818C26.196 12.6991 26.1822 12.8953 26.0938 13.2031C25.7891 13.3047 25.7891 13.3047 25.6108 13.2298C25.5455 13.1889 25.4802 13.148 25.413 13.1059C25.3392 13.0603 25.2655 13.0147 25.1895 12.9678C25.1108 12.9177 25.0322 12.8675 24.9512 12.8159C24.8702 12.7657 24.7893 12.7154 24.7059 12.6637C24.304 12.4123 23.9085 12.154 23.5194 11.8832C23.4513 11.8361 23.3832 11.789 23.313 11.7405C23.1847 11.651 23.0573 11.56 22.9311 11.4675C22.5993 11.2309 22.5993 11.2309 22.2062 11.1851C21.8467 11.3 21.5587 11.491 21.2501 11.7019C21.1864 11.7444 21.1227 11.7868 21.0571 11.8305C20.8544 11.9657 20.6525 12.1019 20.4507 12.2383C20.2485 12.3746 20.0461 12.5107 19.8432 12.646C19.7172 12.7301 19.5916 12.8148 19.4664 12.9C18.8914 13.2844 18.8914 13.2844 18.5781 13.3047C18.5111 13.2377 18.4441 13.1706 18.375 13.1016C18.3979 12.1947 18.6961 11.3224 18.9399 10.4546C18.9836 10.2973 19.0272 10.14 19.0707 9.98268C19.1766 9.60023 19.2834 9.21802 19.3906 8.83594C19.3315 8.80866 19.2723 8.78138 19.2114 8.75327C18.9818 8.63143 18.8018 8.49705 18.6027 8.33051C18.5312 8.27112 18.4598 8.21174 18.3861 8.15056C18.3112 8.08767 18.2363 8.02477 18.1592 7.95996C17.5492 7.44654 17.5492 7.44654 16.9222 6.95425C16.7867 6.85194 16.7867 6.85194 16.6484 6.74756C16.5709 6.69087 16.4934 6.63418 16.4136 6.57578C16.1993 6.35402 16.1649 6.19456 16.1406 5.89062C16.3302 5.70107 16.647 5.75106 16.9016 5.73471C16.9686 5.73035 17.0357 5.72598 17.1049 5.72148C17.2478 5.7123 17.3907 5.70335 17.5336 5.69462C17.7485 5.68142 17.9634 5.66737 18.1782 5.65318C18.9553 5.60336 19.7289 5.57198 20.5078 5.58594C20.5463 5.46654 20.5848 5.34714 20.6245 5.22412C20.8349 4.59312 21.071 3.9718 21.3072 3.35012C21.3847 3.14615 21.4616 2.94199 21.5385 2.73782C21.5877 2.60808 21.6369 2.47835 21.6861 2.34863C21.7304 2.23159 21.7748 2.11455 21.8204 1.99396C21.9706 1.62648 21.9706 1.62648 22.2915 1.61865Z" fill="#58B347"/>
<path d="M35.5391 6.70312C35.7395 6.70818 35.7395 6.70818 35.9453 6.80469C36.0771 7.03211 36.0771 7.03211 36.1909 7.33313C36.2336 7.44356 36.2763 7.55399 36.3204 7.66777C36.3642 7.78514 36.408 7.90251 36.4531 8.02344C36.5436 8.25568 36.6342 8.4879 36.7249 8.72009C36.8143 8.9533 36.9036 9.18658 36.9927 9.41992C37.0388 9.54037 37.085 9.66082 37.1325 9.78491C37.2448 10.0779 37.3568 10.371 37.4688 10.6641C37.5763 10.6697 37.6839 10.6753 37.7947 10.6811C38.1956 10.7021 38.5965 10.7236 38.9974 10.7453C39.1706 10.7545 39.3437 10.7637 39.5169 10.7727C39.7665 10.7858 40.0161 10.7993 40.2657 10.8128C40.3425 10.8168 40.4193 10.8207 40.4985 10.8247C40.9168 10.8479 41.3226 10.891 41.7344 10.9687C41.8169 11.1401 41.8169 11.1401 41.8359 11.375C41.4333 11.8271 40.9582 12.1989 40.4902 12.5811C40.4139 12.6443 40.3375 12.7076 40.2588 12.7727C39.7958 13.1543 39.3274 13.5138 38.8168 13.8307C38.6408 14.0824 38.6773 14.2677 38.7281 14.5618C38.8835 15.2406 39.0765 15.9102 39.2677 16.5796C39.3252 16.7819 39.3813 16.9847 39.4373 17.1875C39.4882 17.3672 39.4882 17.3672 39.5401 17.5505C39.6011 17.8727 39.5902 18.071 39.5 18.3828C38.9645 18.4585 38.6543 18.2043 38.2317 17.9163C38.1602 17.8689 38.0888 17.8216 38.0152 17.7728C37.7879 17.6218 37.5617 17.4691 37.3354 17.3164C37.1813 17.2135 37.027 17.1108 36.8727 17.0081C36.495 16.7566 36.1184 16.5037 35.7422 16.25C34.8664 16.7064 34.0661 17.2659 33.2571 17.83C33.1529 17.901 33.0487 17.972 32.9413 18.0452C32.8476 18.11 32.754 18.1749 32.6575 18.2417C32.3683 18.3946 32.2048 18.4219 31.8828 18.3828C31.8325 18.3325 31.8325 18.3325 31.7812 18.2812C31.8259 17.3765 32.1049 16.5316 32.3614 15.6683C32.4189 15.4737 32.475 15.2787 32.5311 15.0836C32.565 14.9687 32.5989 14.8538 32.6339 14.7354C32.6972 14.4123 32.6992 14.2241 32.5938 13.9141C32.3917 13.7244 32.2008 13.5675 31.978 13.4062C31.8495 13.3095 31.7211 13.2125 31.5928 13.1154C31.5248 13.0644 31.4568 13.0134 31.3868 12.9609C31.0077 12.6716 30.6396 12.3688 30.2705 12.0669C30.1311 11.9533 29.9917 11.8397 29.8524 11.7261C29.7515 11.6438 29.6507 11.5614 29.5469 11.4766C29.5804 11.309 29.6139 11.1414 29.6484 10.9687C30.1599 10.889 30.6672 10.841 31.1842 10.8128C31.2598 10.8085 31.3355 10.8041 31.4134 10.7996C31.6524 10.7859 31.8914 10.7726 32.1304 10.7593C32.2935 10.75 32.4566 10.7407 32.6197 10.7313C33.0173 10.7086 33.4149 10.6862 33.8125 10.6641C34.1998 9.81882 34.5332 8.9543 34.8656 8.08634C34.9386 7.89605 35.0123 7.70603 35.086 7.51602C35.1292 7.40377 35.1723 7.29151 35.2168 7.17585C35.3359 6.90625 35.3359 6.90625 35.5391 6.70312Z" fill="#58B347"/>
</svg>
