<svg width="68" height="68" viewBox="0 0 68 68" fill="none" xmlns="http://www.w3.org/2000/svg">
<path d="M36.5158 9.87738C36.7468 9.8769 36.7468 9.8769 36.9825 9.87641C37.3077 9.87654 37.6329 9.87832 37.9581 9.88163C38.4563 9.88619 38.9542 9.88437 39.4524 9.88179C39.7685 9.88271 40.0845 9.88399 40.4005 9.88568C40.6242 9.88469 40.6242 9.88469 40.8525 9.88369C41.0606 9.88684 41.0606 9.88684 41.2729 9.89006C41.4557 9.89129 41.4557 9.89129 41.6422 9.89255C42.071 9.98228 42.2286 10.1551 42.5001 10.4922C42.6434 10.9221 42.6481 11.2329 42.6459 11.6849C42.6455 11.8394 42.645 11.9939 42.6446 12.1531C42.6435 12.3145 42.6424 12.4758 42.6412 12.6421C42.6406 12.805 42.64 12.9679 42.6394 13.1357C42.6378 13.5384 42.6356 13.941 42.6329 14.3437C42.7098 14.3591 42.7866 14.3746 42.8658 14.3904C43.4875 14.5209 44.0573 14.6775 44.6417 14.9331C44.7681 14.9877 44.8944 15.0423 45.0246 15.0986C45.1557 15.1563 45.2869 15.214 45.422 15.2734C45.7317 15.4067 46.0417 15.5393 46.3517 15.6718C46.447 15.5713 46.447 15.5713 46.5442 15.4688C46.8352 15.164 47.1288 14.8618 47.4225 14.5595C47.5224 14.4541 47.6223 14.3486 47.7252 14.24C48.7282 13.2153 48.7282 13.2153 49.5392 13.1484C50.292 13.4339 50.7788 13.9316 51.3342 14.4921C51.4268 14.5843 51.5194 14.6765 51.6147 14.7715C51.8094 14.9659 52.0036 15.1608 52.1974 15.3562C52.4937 15.6547 52.7922 15.951 53.0909 16.2472C53.2802 16.4368 53.4694 16.6265 53.6584 16.8163C53.7475 16.9046 53.8366 16.9929 53.9284 17.0838C54.736 17.9038 54.736 17.9038 54.8517 18.4609C54.8252 19.1144 54.6477 19.41 54.1829 19.8586C54.0755 19.9638 53.9681 20.0691 53.8574 20.1776C53.7445 20.285 53.6316 20.3923 53.5152 20.5029C53.4018 20.6133 53.2884 20.7238 53.1715 20.8375C52.8919 21.1094 52.6108 21.3796 52.3282 21.6484C52.422 21.8577 52.422 21.8577 52.5176 22.0712C53.6564 24.6314 53.6564 24.6314 53.6564 25.3672C53.7568 25.3651 53.8572 25.363 53.9607 25.3608C54.4182 25.3525 54.8756 25.3474 55.3331 25.3423C55.4911 25.3389 55.6492 25.3356 55.812 25.3321C57.291 25.3197 57.291 25.3197 57.9064 25.7656C58.0719 26.0967 58.0596 26.3265 58.0648 26.697C58.068 26.9051 58.068 26.9051 58.0712 27.1175C58.0771 27.7524 58.0826 28.3873 58.0857 29.0222C58.0879 29.3573 58.0915 29.6923 58.0966 30.0274C58.1038 30.5099 58.1067 30.9924 58.1087 31.475C58.1132 31.6995 58.1132 31.6995 58.1178 31.9286C58.115 32.955 58.115 32.955 57.7577 33.498C57.2968 33.7827 57.036 33.8115 56.4968 33.7992C56.3311 33.7971 56.1655 33.7949 55.9948 33.7927C55.823 33.7871 55.6512 33.7816 55.4742 33.7758C55.2127 33.7714 55.2127 33.7714 54.9458 33.7668C54.5159 33.759 54.0862 33.748 53.6564 33.7343C53.6376 33.9287 53.6376 33.9287 53.6185 34.1271C53.5319 34.7319 53.3076 35.2597 53.067 35.8178C53.0255 35.9169 52.984 36.0159 52.9412 36.118C52.7501 36.5708 52.5511 37.0148 52.3282 37.4531C52.4287 37.5505 52.4287 37.5505 52.5313 37.6498C52.8354 37.9457 53.138 38.243 53.4405 38.5405C53.5987 38.6937 53.5987 38.6937 53.7601 38.85C53.9116 38.9995 53.9116 38.9995 54.0662 39.1522C54.1594 39.2433 54.2526 39.3344 54.3486 39.4283C54.7083 39.8564 54.8446 40.1871 54.8656 40.7468C54.64 41.4002 54.188 41.7869 53.6984 42.2618C53.596 42.3636 53.4937 42.4653 53.3882 42.5701C53.0613 42.8942 52.7321 43.2158 52.4029 43.5376C52.1817 43.7566 51.9606 43.9758 51.7397 44.1951C51.3356 44.5946 50.9316 44.9941 50.5252 45.3911C50.4028 45.511 50.4028 45.511 50.2779 45.6332C50.0029 45.8812 49.8222 45.9498 49.4562 46.0195C48.6287 45.8969 48.1293 45.2207 47.576 44.6317C47.5121 44.5648 47.4482 44.4979 47.3824 44.429C47.1966 44.2335 47.014 44.035 46.8316 43.8364C46.5175 43.5312 46.5175 43.5312 46.1737 43.5588C45.6999 43.7418 45.2361 43.94 44.7745 44.1518C44.1122 44.4555 43.4718 44.7072 42.7657 44.8906C42.7638 44.9917 42.7619 45.0928 42.7599 45.197C42.75 45.6566 42.7371 46.1161 42.7242 46.5757C42.7212 46.7348 42.7182 46.8939 42.7151 47.0579C42.7104 47.2115 42.7057 47.3652 42.7009 47.5235C42.6974 47.6647 42.6939 47.8059 42.6903 47.9513C42.6247 48.3999 42.5097 48.6491 42.2345 49.0078C41.8301 49.2602 41.5166 49.3078 41.0439 49.312C40.9131 49.3137 40.7823 49.3154 40.6476 49.3171C40.5072 49.3174 40.3667 49.3177 40.2221 49.318C40.077 49.3189 39.9319 49.3198 39.7825 49.3207C39.4758 49.322 39.1691 49.3227 38.8624 49.3226C38.3934 49.3232 37.9246 49.328 37.4556 49.3331C37.1575 49.3339 36.8595 49.3344 36.5614 49.3346C36.3512 49.3375 36.3512 49.3375 36.1367 49.3404C35.1632 49.3343 35.1632 49.3343 34.6452 49.0206C34.2348 48.5574 34.2499 48.2761 34.2528 47.6662C34.2532 47.5052 34.2536 47.3443 34.2541 47.1785C34.2552 47.0097 34.2563 46.8409 34.2574 46.667C34.258 46.4971 34.2586 46.3273 34.2592 46.1523C34.2608 45.7317 34.263 45.3112 34.2657 44.8906C33.5426 44.6934 33.5426 44.6934 32.8048 44.4922C32.7588 44.7934 32.7588 44.7934 32.7119 45.1007C32.2737 47.8975 31.6914 50.7032 30.4142 53.2578C32.8492 53.9136 35.265 54.3598 37.788 54.4835C37.9272 54.4915 38.0663 54.4994 38.2096 54.5076C38.3329 54.5132 38.4562 54.5189 38.5832 54.5247C38.969 54.596 39.1589 54.7205 39.4454 54.9843C39.5867 55.3361 39.6113 55.6702 39.5782 56.0468C39.3439 56.4267 39.1804 56.6442 38.7814 56.8437C35.8241 57.0564 31.8953 56.5882 29.2189 55.25C29.185 55.344 29.1511 55.438 29.1161 55.5348C28.3498 57.3189 26.8652 58.842 25.5465 60.2393C25.3825 60.4135 25.2202 60.5893 25.0581 60.7653C23.5727 62.3239 21.7617 63.5741 19.922 64.6797C19.8466 64.7259 19.7713 64.7722 19.6936 64.8199C19.47 64.9562 19.2436 65.0878 19.0172 65.2192C18.8876 65.2947 18.758 65.3702 18.6245 65.448C17.8814 65.7274 17.1977 65.7327 16.4689 65.4039C16.2901 65.3094 16.1131 65.2117 15.9376 65.1113C15.7938 65.0319 15.7938 65.0319 15.647 64.951C13.5651 63.7729 11.6169 62.2868 9.96104 60.5625C9.84873 60.4502 9.73642 60.3379 9.62071 60.2221C9.51388 60.1153 9.40705 60.0085 9.29698 59.8984C9.22858 59.8326 9.16019 59.7668 9.08972 59.699C8.52965 59.154 8.04226 58.5845 7.57872 57.956C7.51002 57.8634 7.44133 57.7708 7.37055 57.6754C6.7659 56.8505 6.2197 56.0052 5.71104 55.1172C5.62407 54.968 5.5371 54.8189 5.44749 54.6653C3.38198 51.0282 2.39239 46.753 2.34092 42.5913C2.33596 42.4364 2.33099 42.2816 2.32588 42.122C2.32434 41.9733 2.3228 41.8246 2.32121 41.6714C2.31858 41.5372 2.31594 41.4029 2.31323 41.2645C2.39073 40.9062 2.39073 40.9062 2.67681 40.6015C3.0953 40.3507 3.37638 40.2848 3.85945 40.2349C4.09446 40.2077 4.09446 40.2077 4.33421 40.18C4.50094 40.1622 4.66768 40.1443 4.83946 40.1259C7.5202 39.7948 9.89692 39.1012 12.3517 37.9843C12.3179 37.8445 12.2842 37.7046 12.2495 37.5605C10.3745 29.7343 11.0213 22.1103 15.2288 15.1136C15.6501 14.4291 16.1083 13.7828 16.6017 13.1484C16.5019 13.1699 16.4022 13.1914 16.2994 13.2136C15.8445 13.3103 15.3889 13.4037 14.9332 13.497C14.7763 13.5309 14.6194 13.5648 14.4577 13.5998C12.9592 13.902 12.9592 13.902 12.2189 13.5468C11.9342 13.1199 11.9134 12.8596 11.892 12.3562C11.9808 11.964 12.1827 11.8143 12.4845 11.5547C12.7975 11.4353 12.7975 11.4353 13.1476 11.3602C13.3452 11.3164 13.3452 11.3164 13.5467 11.2717C13.7592 11.2279 13.7592 11.2279 13.976 11.1832C14.1228 11.1515 14.2695 11.1198 14.4207 11.0872C14.7312 11.0207 15.0419 10.9551 15.3528 10.8904C15.8261 10.7917 16.2986 10.6897 16.7711 10.5871C17.0734 10.5227 17.3758 10.4586 17.6782 10.3946C17.8185 10.3643 17.9588 10.334 18.1034 10.3028C19.8407 9.94533 19.8407 9.94533 20.4532 10.0937C20.795 10.3568 20.9614 10.5163 21.0519 10.9424C21.0524 11.06 21.0528 11.1775 21.0532 11.2986C21.0549 11.4325 21.0566 11.5663 21.0583 11.7043C21.0572 11.848 21.0561 11.9918 21.055 12.1399C21.0555 12.2882 21.0561 12.4365 21.0566 12.5894C21.0569 12.9028 21.056 13.2163 21.0537 13.5298C21.0509 14.0099 21.0537 14.4898 21.0571 14.9699C21.0568 15.2744 21.0561 15.579 21.055 15.8835C21.0561 16.0273 21.0572 16.171 21.0583 16.3191C21.0558 16.5199 21.0558 16.5199 21.0532 16.7247C21.0528 16.8423 21.0524 16.9598 21.0519 17.081C20.9628 17.5004 20.7803 17.6617 20.4532 17.9297C19.956 18.053 19.515 17.9966 19.067 17.7553C18.7197 17.3803 18.7064 17.0015 18.6846 16.5128C18.6791 16.3943 18.6735 16.2757 18.6678 16.1536C18.6626 16.0302 18.6573 15.9068 18.652 15.7798C18.6462 15.6549 18.6405 15.53 18.6346 15.4013C18.6205 15.0931 18.6069 14.7848 18.5939 14.4765C14.7138 20.0566 12.6768 26.6565 13.8126 33.4687C14.0292 34.5808 14.2508 35.713 14.6095 36.789C14.7456 36.6978 14.8817 36.6065 15.0219 36.5125C15.2026 36.3916 15.3833 36.2707 15.5641 36.1499C15.6535 36.0899 15.743 36.0299 15.8351 35.968C16.0107 35.8507 16.1869 35.7343 16.3637 35.6188C16.56 35.4886 16.751 35.3504 16.9404 35.2103C17.4134 34.9953 17.6986 35.062 18.1954 35.1953C18.5902 35.4427 18.5902 35.4427 19.0006 35.768C19.8196 36.3891 20.6811 36.9015 21.5821 37.395C21.7075 37.4646 21.8328 37.5343 21.9619 37.606C22.8194 38.0832 22.8194 38.0832 23.7735 38.25C24.1804 37.987 24.1804 37.987 24.4376 37.5859C24.3938 36.9721 24.1015 36.4279 23.8482 35.8759C23.5446 35.2136 23.2929 34.5732 23.1095 33.8672C23.0043 33.8659 22.8992 33.8647 22.7908 33.8634C22.3131 33.8563 21.8356 33.8451 21.358 33.834C21.1925 33.8321 21.0271 33.8302 20.8566 33.8282C20.6969 33.824 20.5373 33.8197 20.3728 33.8153C20.2261 33.8125 20.0793 33.8097 19.9281 33.8068C19.4385 33.7191 19.2141 33.5453 18.8595 33.2031C18.698 32.8801 18.7081 32.6693 18.7053 32.3083C18.704 32.1775 18.7027 32.0467 18.7014 31.9119C18.7008 31.7701 18.7003 31.6283 18.6997 31.4822C18.6989 31.3368 18.6982 31.1914 18.6974 31.0415C18.6961 30.7332 18.6953 30.425 18.6948 30.1167C18.6935 29.6454 18.6894 29.1741 18.6852 28.7028C18.6843 28.4035 18.6836 28.1043 18.6831 27.805C18.6814 27.664 18.6798 27.523 18.6781 27.3777C18.682 26.1064 18.682 26.1064 19.1251 25.6328C19.6046 25.3663 20.0377 25.3289 20.5803 25.3122C20.728 25.307 20.8757 25.3019 21.0278 25.2966C21.1806 25.2925 21.3334 25.2884 21.4908 25.2842C21.6462 25.279 21.8016 25.2739 21.9616 25.2686C22.3442 25.2561 22.7268 25.2447 23.1095 25.2343C23.1593 25.0868 23.2091 24.9392 23.2604 24.7871C23.3291 24.5876 23.3977 24.388 23.4664 24.1884C23.4989 24.0919 23.5313 23.9953 23.5647 23.8958C23.8363 23.1119 24.1859 22.383 24.5704 21.6484C24.4987 21.5774 24.427 21.5064 24.3531 21.4332C24.0295 21.1124 23.7064 20.791 23.3834 20.4697C23.2705 20.3579 23.1576 20.2461 23.0413 20.1309C22.9338 20.0239 22.8264 19.9169 22.7157 19.8067C22.6163 19.7079 22.5168 19.6091 22.4143 19.5074C22.1339 19.2089 22.0573 19.0463 21.9806 18.6435C22.1596 17.4353 23.8068 16.2639 24.6486 15.4144C24.8243 15.2364 24.9993 15.0578 25.1736 14.8784C25.4277 14.6171 25.6838 14.358 25.9406 14.0994C26.0178 14.0191 26.095 13.9389 26.1746 13.8562C26.635 13.3982 26.9453 13.1625 27.6251 13.1484C28.4327 13.4106 28.9589 14.0386 29.5343 14.6342C29.6809 14.7836 29.6809 14.7836 29.8305 14.9359C30.0703 15.1804 30.309 15.4257 30.547 15.6718C30.6266 15.6363 30.7062 15.6008 30.7883 15.5642C31.1528 15.4024 31.5181 15.2425 31.8834 15.0825C32.0086 15.0266 32.1339 14.9707 32.2629 14.9131C32.9381 14.619 33.5295 14.3999 34.2657 14.3437C34.2623 14.2345 34.2588 14.1254 34.2552 14.0129C34.2414 13.5172 34.2327 13.0216 34.2242 12.5258C34.2159 12.2681 34.2159 12.2681 34.2074 12.0052C34.2052 11.8396 34.2031 11.674 34.2009 11.5033C34.1974 11.351 34.1939 11.1987 34.1903 11.0417C34.2657 10.625 34.2657 10.625 34.5027 10.2433C35.1521 9.81397 35.7534 9.86836 36.5158 9.87738ZM36.5235 12.2187C36.4957 13.2875 36.4957 13.2875 36.472 14.3563C36.4654 14.5565 36.4654 14.5565 36.4587 14.7608C36.4552 14.8972 36.4517 15.0335 36.4482 15.1739C36.3828 15.5892 36.2854 15.7723 35.9923 16.0703C35.651 16.1906 35.3294 16.2845 34.9796 16.3691C34.1119 16.6004 33.3084 16.8957 32.4977 17.2822C32.3561 17.3493 32.3561 17.3493 32.2117 17.4177C31.8451 17.5967 31.5039 17.7762 31.1784 18.023C30.8575 18.2603 30.5586 18.2832 30.1662 18.2658C29.5875 18.1217 29.225 17.6812 28.8204 17.2656C28.7009 17.1476 28.5814 17.0297 28.4583 16.9081C28.1338 16.5869 27.8122 16.2633 27.4923 15.9375C26.5416 16.7113 25.6959 17.5894 24.836 18.4609C25.0154 18.8627 25.2146 19.1357 25.5297 19.4414C25.6121 19.5224 25.6945 19.6034 25.7795 19.6868C25.8653 19.7699 25.9512 19.8529 26.0397 19.9384C26.2103 20.1045 26.3806 20.2709 26.5507 20.4375C26.6639 20.5472 26.6639 20.5472 26.7795 20.6591C27.0319 20.9267 27.0907 21.0939 27.1405 21.4606C27.0757 22.0905 26.7948 22.519 26.4796 23.0595C25.9032 24.0899 25.5165 25.1004 25.2199 26.2422C25.192 26.3479 25.1641 26.4536 25.1354 26.5625C25.1011 26.7022 25.1011 26.7022 25.0662 26.8447C24.944 27.1573 24.8458 27.297 24.5704 27.4922C24.196 27.5496 24.196 27.5496 23.7471 27.5601C23.5302 27.5667 23.5302 27.5667 23.3089 27.5734C23.0335 27.5784 23.0335 27.5784 22.7525 27.5835C21.8774 27.604 21.8774 27.604 20.9845 27.625C20.9845 28.896 20.9845 30.167 20.9845 31.4765C22.0969 31.4991 22.0969 31.4991 23.2095 31.5161C23.4178 31.5222 23.4178 31.5222 23.6304 31.5284C23.7722 31.5312 23.9141 31.534 24.0603 31.5368C24.526 31.6263 24.6799 31.771 24.9689 32.1406C25.0924 32.4702 25.1933 32.7821 25.2843 33.1201C25.6511 34.3787 26.0764 35.626 26.8116 36.7226C27.1009 37.1626 27.1986 37.4491 27.0939 37.9843C26.8302 38.4479 26.5382 38.8056 26.1642 39.1797C26.1642 39.2673 26.1642 39.355 26.1642 39.4453C27.8039 39.8774 29.4099 40.205 31.1018 40.3531C32.0568 40.4491 32.0568 40.4491 32.4971 40.7568C32.672 41.039 32.672 41.039 32.672 41.4956C32.7514 41.9822 32.7514 41.9822 33.1057 42.1576C33.9712 42.5246 34.8711 42.7866 35.7775 43.0323C36.1251 43.164 36.1251 43.164 36.3907 43.5625C36.4331 43.9247 36.4331 43.9247 36.4457 44.3568C36.4528 44.5656 36.4528 44.5656 36.4601 44.7786C36.4646 44.9553 36.4691 45.1319 36.4737 45.3139C36.4902 45.8755 36.5066 46.437 36.5235 47.0156C37.7946 47.0156 39.0656 47.0156 40.3751 47.0156C40.403 45.8535 40.403 45.8535 40.4266 44.6912C40.431 44.5466 40.4354 44.402 40.44 44.253C40.4434 44.1048 40.4469 43.9567 40.4505 43.8041C40.5079 43.4297 40.5079 43.4297 40.6782 43.1894C40.9332 43.0126 41.1366 42.9385 41.4376 42.8647C41.5961 42.8229 41.5961 42.8229 41.7579 42.7802C41.8713 42.7507 41.9848 42.7212 42.1017 42.6909C43.2411 42.3773 44.2333 41.9328 45.2534 41.3381C45.8126 41.0184 46.2187 40.7907 46.8829 40.9062C47.1465 41.0629 47.1465 41.0629 47.381 41.2881C47.5135 41.4131 47.5135 41.4131 47.6487 41.5407C47.7466 41.6381 47.8445 41.7355 47.9454 41.8359C48.0653 41.9539 48.1851 42.0718 48.3086 42.1934C48.6324 42.5149 48.9538 42.8384 49.2735 43.164C49.7202 42.9705 50.01 42.7243 50.3506 42.3786C50.4507 42.2776 50.5509 42.1766 50.6541 42.0725C50.7573 41.967 50.8605 41.8616 50.9669 41.7529C51.0722 41.6464 51.1775 41.5399 51.286 41.4302C51.5455 41.1676 51.8043 40.9044 52.0626 40.6406C51.5843 40.0694 51.0939 39.5262 50.5602 39.0053C49.8263 38.289 49.8263 38.289 49.7467 37.6523C49.7547 37.0136 50.0336 36.6252 50.3734 36.1011C51.0744 34.9509 51.4801 33.6898 51.7897 32.3881C51.9528 31.9454 52.0602 31.8451 52.461 31.6093C52.8261 31.5519 52.8261 31.5519 53.2392 31.5414C53.3727 31.537 53.5062 31.5326 53.6438 31.5281C53.8965 31.5231 53.8965 31.5231 54.1544 31.518C54.9597 31.4975 54.9597 31.4975 55.7814 31.4765C55.7814 30.2055 55.7814 28.9345 55.7814 27.625C54.6629 27.5971 54.6629 27.5971 53.5444 27.5734C53.4052 27.569 53.2659 27.5647 53.1225 27.5601C52.9799 27.5566 52.8373 27.5532 52.6904 27.5496C52.3282 27.4922 52.3282 27.4922 52.094 27.3306C51.8903 27.0368 51.798 26.7657 51.6958 26.4229C51.6339 26.2232 51.6339 26.2232 51.5708 26.0195C51.5276 25.8782 51.4845 25.7369 51.44 25.5913C51.0772 24.4403 50.6763 23.4444 49.9999 22.4453C49.7311 21.8962 49.7317 21.5938 49.8048 20.9843C50.0336 20.6227 50.0336 20.6227 50.3443 20.312C50.4525 20.2012 50.5607 20.0904 50.6722 19.9763C50.7804 19.8707 50.8886 19.7651 51.0001 19.6562C51.0946 19.5602 51.1891 19.4641 51.2865 19.3652C51.4987 19.1499 51.7129 18.9371 51.9298 18.7265C51.7403 18.2937 51.5092 18.009 51.1734 17.6786C51.0784 17.5844 50.9833 17.4902 50.8854 17.3932C50.7863 17.2963 50.6872 17.1994 50.5851 17.0996C50.4849 17.0006 50.3848 16.9017 50.2816 16.7997C50.0347 16.556 49.7872 16.3128 49.5392 16.0703C49.1698 16.2385 48.9029 16.4094 48.6214 16.7011C48.5188 16.8059 48.5188 16.8059 48.4142 16.9128C48.3444 16.9854 48.2746 17.058 48.2027 17.1328C47.189 18.1799 47.189 18.1799 46.5083 18.2404C45.953 18.2251 45.6356 18.0535 45.173 17.7387C44.1224 17.0689 42.965 16.7138 41.786 16.332C41.5671 16.2605 41.5671 16.2605 41.3437 16.1875C41.2116 16.1456 41.0794 16.1037 40.9433 16.0605C40.6407 15.9375 40.6407 15.9375 40.5079 15.6718C40.4875 15.4118 40.4748 15.1512 40.4659 14.8905C40.4608 14.751 40.4558 14.6114 40.4506 14.4676C40.4448 14.2898 40.4391 14.1119 40.4332 13.9287C40.4044 13.0823 40.4044 13.0823 40.3751 12.2187C39.1041 12.2187 37.8331 12.2187 36.5235 12.2187ZM16.4523 38.3081C12.8035 40.6311 8.91941 41.9057 4.64854 42.5C4.26024 47.9254 6.85707 53.6254 10.3191 57.6641C12.1301 59.731 14.1924 61.4804 16.6017 62.8203C16.6817 62.8757 16.7616 62.9311 16.844 62.9881C17.122 63.1629 17.3434 63.2786 17.6642 63.3515C18.1267 63.2356 18.4888 62.9979 18.8844 62.7373C18.9946 62.6688 19.1049 62.6004 19.2185 62.5298C20.6721 61.6115 21.9941 60.5495 23.2423 59.3672C23.3678 59.2502 23.4933 59.1333 23.6226 59.0128C27.7206 55.1163 30.1406 49.2939 30.547 43.6953C30.5536 43.2967 30.5526 42.8986 30.547 42.5C30.465 42.488 30.3831 42.4761 30.2986 42.4638C26.0245 41.8295 21.4956 40.5823 18.0284 37.8707C17.4341 37.4803 16.9554 37.9776 16.4523 38.3081Z" fill="#58B347"/>
<path d="M39.2626 2.32426C39.4737 2.32681 39.4737 2.32681 39.689 2.32941C46.0322 2.48622 52.182 5.12926 56.8146 9.42869C57.0203 9.6148 57.2332 9.79299 57.4512 9.96461C57.741 10.2003 57.973 10.4319 58.2133 10.7163C58.4507 10.9955 58.6873 11.2724 58.938 11.5397C62.9486 15.8373 65.5834 22.1146 65.6409 28.0064C65.6429 28.172 65.6429 28.172 65.6449 28.3409C65.6679 30.804 65.6507 33.1839 65.078 35.5938C65.0496 35.714 65.0211 35.8342 64.9918 35.958C64.1006 39.5844 62.4979 42.9431 60.2968 45.9532C61.064 45.8292 61.8283 45.7037 62.5878 45.5381C63.1775 45.4217 63.6807 45.3507 64.2811 45.4219C64.7389 45.7461 64.9161 45.9305 65.0199 46.4844C64.9257 46.9867 64.7721 47.1834 64.414 47.5469C63.9886 47.7078 63.9886 47.7078 63.4806 47.8182C63.3881 47.8391 63.2957 47.8599 63.2004 47.8814C63.0009 47.926 62.8012 47.9694 62.6012 48.0117C62.286 48.0788 61.9718 48.1495 61.6575 48.2212C61.1136 48.3445 60.5689 48.4631 60.0235 48.5795C59.7994 48.6276 59.5755 48.6764 59.3517 48.7259C59.0222 48.7988 58.6923 48.8696 58.3622 48.9399C58.2632 48.9622 58.1643 48.9844 58.0624 49.0073C57.4429 49.1361 56.9411 49.1455 56.3124 49.0079C55.9387 48.7463 55.8692 48.5138 55.7811 48.0782C55.7682 47.879 55.7615 47.6793 55.7597 47.4798C55.7585 47.3623 55.7572 47.2448 55.7559 47.1238C55.755 46.9349 55.755 46.9349 55.7542 46.7423C55.7534 46.6119 55.7527 46.4816 55.7519 46.3473C55.7506 46.0719 55.7497 45.7965 55.7492 45.5211C55.7479 45.1002 55.7438 44.6794 55.7396 44.2585C55.7388 43.9907 55.7381 43.7229 55.7376 43.4551C55.7359 43.3295 55.7343 43.2039 55.7326 43.0744C55.7354 42.2461 55.8432 41.774 56.4452 41.1719C56.9469 41.1151 57.2731 41.1229 57.7308 41.3431C58.2218 41.9168 58.1429 42.5322 58.1469 43.2637C58.1502 43.407 58.1535 43.5503 58.157 43.6979C58.1648 44.0513 58.1696 44.4044 58.1718 44.7579C61.1113 40.8677 63.1979 35.9825 63.2503 31.045C63.2516 30.943 63.2529 30.8411 63.2542 30.7361C63.2777 28.4107 63.2256 26.1816 62.6874 23.9063C62.6632 23.7998 62.6391 23.6933 62.6142 23.5835C61.3146 17.9824 57.8256 12.9837 53.2577 9.56254C53.0898 9.43542 53.0898 9.43542 52.9184 9.30573C52.0131 8.64579 51.0392 8.1063 50.0555 7.57353C49.8387 7.45603 49.6228 7.33671 49.4072 7.21705C46.3893 5.61409 42.7915 4.80458 39.3948 4.70541C38.695 4.67996 38.0838 4.60195 37.4696 4.23344C37.226 3.82733 37.2102 3.37318 37.3202 2.92191C37.7696 2.18931 38.4938 2.3101 39.2626 2.32426Z" fill="#58B347"/>
<path d="M44.8906 21.7813C46.959 23.5239 48.1287 25.8931 48.4766 28.5547C48.6887 31.3524 47.8456 34.1212 46.0445 36.291C44.2656 38.2003 41.8051 39.5037 39.1787 39.6228C35.969 39.6799 33.3967 38.757 31.0558 36.5131C29.0498 34.4179 28.3433 31.7129 28.3861 28.8821C28.474 26.3861 29.6067 24.0812 31.3438 22.3125C35.1992 18.7693 40.7521 18.6358 44.8906 21.7813ZM32.2735 24.7529C30.873 26.6363 30.4154 28.8165 30.7414 31.115C31.1933 33.1495 32.3883 34.8943 34.1033 36.0846C36.0013 37.1987 37.9111 37.62 40.086 37.229C42.1921 36.673 43.9056 35.5087 45.0899 33.6763C46.222 31.6992 46.5001 29.6571 45.9218 27.4649C45.302 25.2783 43.9555 23.8218 42.0445 22.6451C38.6842 20.7886 34.6592 21.9198 32.2735 24.7529Z" fill="#58B347"/>
<path d="M22.5782 45.4219C23.0532 45.7554 23.2135 45.9588 23.3419 46.5259C23.24 47.0267 23.1779 47.1351 22.8508 47.495C22.7663 47.5881 22.6818 47.6812 22.5948 47.7771C21.7184 48.7119 20.8188 49.6236 19.9176 50.5342C19.6594 50.7954 19.4025 51.0578 19.1468 51.3214C18.7757 51.7037 18.4009 52.0821 18.0257 52.4604C17.9121 52.5784 17.7985 52.6964 17.6814 52.818C16.7839 53.7126 16.7839 53.7126 16.1544 53.8208C15.6533 53.7878 15.5026 53.7662 15.1614 53.4145C15.074 53.3282 14.9865 53.2418 14.8963 53.1529C14.7543 53.0076 14.7543 53.0076 14.6094 52.8594C14.3816 52.649 14.1533 52.4391 13.9246 52.2296C13.6877 52.0027 13.4511 51.7755 13.2149 51.5479C13.093 51.4354 12.9711 51.3229 12.8455 51.207C11.8751 50.2641 11.8751 50.2641 11.8567 49.5427C11.8935 49.1119 11.9465 49.0159 12.2354 48.6675C12.705 48.4327 12.8967 48.365 13.4141 48.4766C13.8112 48.7425 14.1386 49.0699 14.4766 49.4063C14.5394 49.4681 14.6022 49.5299 14.6668 49.5937C15.094 50.0147 15.517 50.4396 15.9376 50.8672C16.6283 50.2902 17.2705 49.6831 17.9028 49.0431C17.9978 48.9476 18.0928 48.852 18.1907 48.7536C18.4914 48.4513 18.7917 48.1486 19.0919 47.8457C19.4892 47.4448 19.887 47.0444 20.2851 46.6442C20.376 46.5522 20.4669 46.4602 20.5605 46.3654C20.6876 46.2377 20.6876 46.2377 20.8173 46.1073C20.8914 46.0325 20.9656 45.9576 21.042 45.8805C21.5536 45.406 21.8938 45.3393 22.5782 45.4219Z" fill="#58B347"/>
</svg>
