<svg width="68" height="68" viewBox="0 0 68 68" fill="none" xmlns="http://www.w3.org/2000/svg">
<path d="M39.5284 6.0513C40.4784 7.02633 40.8443 8.56813 41.2953 9.82626C41.5137 10.4355 41.735 11.0438 41.9558 11.6523C42.0011 11.7773 42.0464 11.9023 42.0931 12.0311C42.5488 13.2869 43.0171 14.5379 43.4878 15.7881C43.6525 16.2258 43.8171 16.6635 43.9817 17.1012C44.0229 17.2107 44.0641 17.3203 44.1066 17.4332C44.4236 18.2768 44.7385 19.1212 45.0525 19.966C45.0995 20.0922 45.1464 20.2185 45.1947 20.3485C45.4199 20.9544 45.6448 21.5604 45.8696 22.1664C45.9526 22.39 46.0356 22.6135 46.1187 22.837C46.1589 22.9453 46.1991 23.0535 46.2405 23.1651C46.4614 23.7583 46.685 24.3505 46.9115 24.9416C46.9845 25.1322 46.9845 25.1322 47.0589 25.3266C47.1528 25.5711 47.2469 25.8156 47.3414 26.0599C47.3837 26.1701 47.426 26.2803 47.4697 26.3938C47.5071 26.4907 47.5445 26.5876 47.5831 26.6874C47.8833 27.5369 47.9827 28.4027 47.605 29.2437C47.1709 30.015 46.5288 30.5424 45.6875 30.8125C44.672 30.9231 43.8465 30.9266 43.0313 30.2813C42.7149 29.9566 42.4386 29.6271 42.2344 29.2188C36.3958 28.1253 29.3699 29.5629 23.8742 31.5367C23.6407 31.6094 23.6407 31.6094 23.375 31.6094C23.4233 31.7326 23.4716 31.8558 23.5214 31.9827C23.7014 32.4434 23.879 32.905 24.056 33.3668C24.1326 33.566 24.2099 33.7648 24.2879 33.9635C24.4003 34.2503 24.5104 34.538 24.6202 34.826C24.655 34.9134 24.6899 35.0009 24.7258 35.091C24.9639 35.7255 25.0179 36.2437 24.9688 36.9219C24.6975 37.3289 24.5118 37.4295 24.0474 37.5777C23.5309 37.5882 23.3631 37.5333 22.9766 37.1875C22.492 36.2909 22.1701 35.293 21.8145 34.3404C21.7599 34.196 21.7053 34.0515 21.649 33.9028C21.5975 33.7652 21.5459 33.6276 21.4928 33.4859C21.4228 33.2991 21.4228 33.2991 21.3513 33.1085C21.25 32.8047 21.25 32.8047 21.25 32.5391C21.1785 32.5625 21.1069 32.586 21.0332 32.6101C20.7045 32.7173 20.3755 32.8233 20.0464 32.9292C19.9339 32.9661 19.8213 33.003 19.7053 33.041C17.781 33.6577 15.9613 33.6428 14.128 32.73C12.5966 31.8306 11.7145 30.575 11.1387 28.9189C10.7148 27.0898 10.9293 25.1407 11.92 23.541C13.3715 21.5506 15.4494 20.89 17.6876 20.0897C19.8325 19.3198 21.9233 18.5329 23.9063 17.3985C24.0163 17.3363 24.1263 17.2741 24.2396 17.21C27.361 15.431 30.3133 13.3476 32.9375 10.8907C33.1305 10.721 33.3241 10.5522 33.5186 10.3843C33.6018 10.3098 33.685 10.2354 33.7707 10.1586C34 9.96097 34 9.96097 34.3985 9.67874C34.7817 9.1279 34.6792 8.65382 34.6563 7.99887C34.6698 7.2576 34.9071 6.78733 35.4345 6.27594C36.7585 5.20394 38.1028 5.20275 39.5284 6.0513ZM36.9219 8.10159C37.0085 8.89134 37.2939 9.59119 37.5751 10.3278C37.6289 10.4704 37.6827 10.6131 37.7381 10.7601C37.9164 11.2327 38.0957 11.705 38.275 12.1773C38.4003 12.5092 38.5256 12.8411 38.6508 13.1731C38.7151 13.3436 38.7794 13.514 38.8436 13.6845C38.8758 13.7699 38.908 13.8553 38.9412 13.9433C39.0405 14.2065 39.1399 14.4697 39.2394 14.7329C39.8956 16.4705 40.5446 18.2107 41.1926 19.9514C41.4974 20.77 41.8027 21.5885 42.1078 22.4069C42.4641 23.3624 42.8201 24.318 43.1757 25.2737C43.3286 25.6843 43.4817 26.0948 43.635 26.5052C43.702 26.685 43.769 26.8648 43.8357 27.0446C43.9237 27.2814 44.0121 27.5181 44.1005 27.7547C44.148 27.8822 44.1955 28.0097 44.2444 28.141C44.3355 28.4151 44.3355 28.4151 44.4922 28.5547C44.8029 28.5166 45.113 28.4725 45.4219 28.4219C45.5688 27.9847 45.5423 27.7464 45.382 27.3173C45.3405 27.2039 45.2989 27.0906 45.2561 26.9739C45.2095 26.8511 45.1629 26.7284 45.1148 26.602C45.067 26.4728 45.0192 26.3436 44.97 26.2106C44.8121 25.785 44.6522 25.3603 44.4922 24.9356C44.3814 24.6382 44.2707 24.3407 44.1602 24.0432C43.8814 23.294 43.6009 22.5455 43.3197 21.7972C43.1363 21.3088 42.9535 20.8201 42.7709 20.3314C42.4546 19.4853 42.1374 18.6395 41.8193 17.7942C41.379 16.6242 40.9416 15.4532 40.5058 14.2815C40.4488 14.1283 40.3918 13.9751 40.333 13.8172C40.1062 13.2074 39.8794 12.5975 39.6529 11.9876C39.4962 11.5655 39.3393 11.1435 39.1823 10.7215C39.1362 10.5971 39.0901 10.4727 39.0426 10.3445C38.9124 9.99481 38.781 9.64568 38.6485 9.2969C38.6017 9.17339 38.5548 9.04987 38.5066 8.92261C38.4602 8.80308 38.4139 8.68356 38.3661 8.5604C38.3247 8.45307 38.2833 8.34574 38.2406 8.23516C38.1255 7.94657 38.1255 7.94657 37.8516 7.70315C37.3845 7.70315 37.2711 7.81265 36.9219 8.10159ZM35.5938 11.6875C34.9065 12.2843 34.9065 12.2843 34.2304 12.8937C30.8732 15.9786 26.9921 18.3335 22.9766 20.4532C23.0503 21.366 23.3764 22.1637 23.7034 23.0134C23.7622 23.1684 23.821 23.3233 23.8815 23.4829C24.037 23.8921 24.1932 24.301 24.3499 24.7097C24.5099 25.1279 24.6689 25.5465 24.8279 25.9651C25.1395 26.7844 25.4522 27.6033 25.7657 28.4219C25.8872 28.3958 26.0087 28.3698 26.1338 28.3429C30.8953 27.3265 30.8953 27.3265 33.2032 27.0938C33.3344 27.0803 33.4657 27.0668 33.6009 27.0529C36.169 26.8005 38.7277 26.7978 41.3047 26.8282C41.2184 26.0261 40.923 25.3125 40.6376 24.5646C40.5826 24.4189 40.5277 24.2731 40.4711 24.1229C40.2903 23.6437 40.1086 23.1649 39.9268 22.6861C39.7053 22.1002 39.484 21.5142 39.2628 20.9282C39.1651 20.6695 39.0674 20.4108 38.9696 20.1522C38.5229 18.9699 38.0826 17.7854 37.6456 16.5995C37.5296 16.2852 37.4135 15.9708 37.2975 15.6564C37.1308 15.2048 36.9644 14.7531 36.7989 14.301C36.6465 13.8849 36.493 13.4692 36.3393 13.0535C36.2943 12.9297 36.2494 12.8058 36.203 12.6782C36.1614 12.5663 36.1198 12.4544 36.077 12.3392C36.0411 12.2416 36.0053 12.144 35.9684 12.0434C35.8747 11.7944 35.8747 11.7944 35.5938 11.6875ZM19.3274 21.8653C19.1829 21.92 19.1829 21.92 19.0355 21.9757C18.8315 22.0532 18.6276 22.1312 18.424 22.2095C18.1168 22.3274 17.8088 22.443 17.5007 22.5584C15.1722 23.4276 15.1722 23.4276 13.5469 25.2344C13.0555 26.4267 13.0825 27.5265 13.5282 28.7301C14.0792 29.9178 14.9181 30.6575 16.1285 31.1197C17.9581 31.4728 19.6532 30.6514 21.3488 30.0301C21.6202 29.9309 21.8922 29.8332 22.1642 29.7355C22.3375 29.6723 22.5108 29.609 22.684 29.5456C22.8392 29.4892 22.9945 29.4328 23.1544 29.3746C23.5244 29.2564 23.5244 29.2564 23.6407 28.9532C23.5505 28.6215 23.5505 28.6215 23.3997 28.2403C23.316 28.0169 23.316 28.0169 23.2305 27.7891C23.1379 27.5471 23.1379 27.5471 23.0435 27.3003C22.9807 27.1339 22.918 26.9676 22.8554 26.8011C22.6901 26.3628 22.5236 25.9249 22.3569 25.4872C22.187 25.0406 22.0183 24.5935 21.8495 24.1465C21.518 23.2691 21.1852 22.3922 20.8516 21.5157C20.2753 21.5157 19.855 21.6628 19.3274 21.8653Z" fill="#58B347"/>
<path d="M28.7994 49.8839C28.9865 49.8825 28.9865 49.8825 29.1775 49.8811C29.5866 49.8787 29.9955 49.8792 30.4046 49.8799C30.6912 49.8793 30.9778 49.8786 31.2644 49.8778C31.8639 49.8767 32.4634 49.877 33.0629 49.8783C33.8281 49.8798 34.5933 49.8771 35.3586 49.8733C35.9502 49.8708 36.5417 49.8709 37.1333 49.8716C37.4153 49.8716 37.6973 49.8708 37.9793 49.8692C39.9994 49.859 41.63 49.9274 43.1639 51.3985C43.7412 52.0414 44.1297 52.743 44.4921 53.5235C44.6186 53.4579 44.7451 53.3923 44.8755 53.3248C45.0437 53.2388 45.212 53.1528 45.3803 53.0669C45.4634 53.0237 45.5465 52.9805 45.6321 52.9359C46.3714 52.5605 46.9723 52.4454 47.795 52.4375C47.9489 52.4358 48.1028 52.4341 48.2614 52.4323C48.4269 52.4313 48.5923 52.4303 48.7628 52.4293C48.9347 52.4283 49.1065 52.4272 49.2836 52.4261C49.6475 52.4241 50.0114 52.4228 50.3754 52.4218C50.8369 52.4203 51.2984 52.4157 51.7599 52.4105C52.2052 52.4061 52.6505 52.4055 53.0958 52.4044C53.2591 52.4021 53.4225 52.3998 53.5907 52.3974C55.1461 52.4012 56.6184 52.6907 57.7733 53.7891C57.8647 53.8752 57.9562 53.9613 58.0504 54.0501C59.6222 55.6657 59.6029 57.3682 59.5792 59.5064C59.5746 59.9675 59.5764 60.4283 59.579 60.8894C59.5781 61.183 59.5768 61.4767 59.5751 61.7703C59.5758 61.9078 59.5764 62.0453 59.5771 62.187C59.575 62.3148 59.5729 62.4425 59.5707 62.5742C59.5695 62.7422 59.5695 62.7422 59.5682 62.9135C59.4734 63.337 59.3061 63.4807 58.9686 63.75C58.5831 63.8166 58.5831 63.8166 58.1249 63.8169C57.9502 63.8183 57.7755 63.8197 57.5955 63.8211C57.4012 63.8199 57.2068 63.8187 57.0125 63.8175C56.8064 63.8181 56.6004 63.8189 56.3943 63.82C55.8272 63.8222 55.2601 63.8211 54.6929 63.8195C54.0816 63.8183 53.4703 63.8201 52.859 63.8216C51.6612 63.824 50.4633 63.8234 49.2654 63.8219C48.2921 63.8207 47.3189 63.8205 46.3456 63.8211C46.2072 63.8212 46.0688 63.8213 45.9263 63.8214C45.6452 63.8215 45.3641 63.8217 45.0831 63.8219C42.4457 63.8234 39.8083 63.8217 37.1709 63.8188C34.9065 63.8164 32.6421 63.8168 30.3776 63.8193C27.7499 63.8221 25.1221 63.8233 22.4943 63.8216C22.2143 63.8215 21.9342 63.8213 21.6542 63.8211C21.4475 63.821 21.4475 63.821 21.2366 63.8209C20.2642 63.8204 19.2917 63.8212 18.3193 63.8224C17.1347 63.8239 15.9501 63.8235 14.7655 63.8207C14.1607 63.8193 13.556 63.8188 12.9512 63.8205C12.3981 63.8221 11.845 63.8212 11.2919 63.8184C11.0913 63.8178 10.8908 63.8181 10.6902 63.8194C10.4184 63.821 10.1467 63.819 9.87491 63.8169C9.6481 63.8168 9.6481 63.8168 9.4167 63.8166C8.9455 63.7352 8.78908 63.5924 8.49989 63.2188C8.43153 62.9135 8.43153 62.9135 8.42904 62.5742C8.42693 62.4464 8.42483 62.3186 8.42266 62.187C8.42332 62.0495 8.42398 61.912 8.42466 61.7703C8.42384 61.6274 8.42301 61.4846 8.42216 61.3374C8.42122 61.0346 8.42165 60.7318 8.42333 60.4291C8.42516 59.9702 8.42066 59.5117 8.41558 59.0528C8.40808 56.9708 8.53168 55.5008 10.0428 53.9473C11.474 52.6311 12.9532 52.3986 14.8547 52.4081C15.1121 52.4075 15.1121 52.4075 15.3748 52.4069C15.7357 52.4063 16.0965 52.4071 16.4574 52.409C16.9163 52.4113 17.375 52.41 17.8339 52.4076C18.2768 52.4058 18.7198 52.4071 19.1628 52.4081C19.3256 52.4072 19.4885 52.4064 19.6563 52.4056C20.8689 52.4155 21.9389 52.5873 22.993 53.2163C23.092 53.2744 23.191 53.3324 23.2929 53.3922C23.3638 53.4355 23.4347 53.4788 23.5077 53.5235C23.5544 53.4303 23.6012 53.3372 23.6493 53.2412C24.4847 51.6359 25.4188 50.5821 27.1646 50.0196C27.7096 49.883 28.2401 49.881 28.7994 49.8839ZM26.4789 53.0773C24.4886 55.2834 25.4999 59.1593 25.4999 61.625C31.1099 61.625 36.7199 61.625 42.4999 61.625C42.95 57.6464 42.95 57.6464 41.703 53.2578C40.6743 52.2365 39.6967 52.0423 38.2655 52.0432C38.1637 52.0428 38.0619 52.0423 37.957 52.0419C37.6221 52.0406 37.2872 52.0404 36.9524 52.0402C36.7182 52.0398 36.4839 52.0394 36.2497 52.0389C35.7593 52.0381 35.2689 52.0378 34.7784 52.0379C34.1524 52.0379 33.5263 52.0361 32.9003 52.0338C32.4166 52.0324 31.9329 52.0321 31.4492 52.0322C31.2185 52.032 30.9878 52.0314 30.7571 52.0304C28.4321 51.9596 28.4321 51.9596 26.4789 53.0773ZM11.2889 55.9141C10.1779 57.5706 10.6249 59.7604 10.6249 61.625C14.8324 61.625 19.0399 61.625 23.3749 61.625C23.6182 58.5619 23.6182 58.5619 22.549 55.7491C21.7947 55.0047 21.0401 54.7048 19.9924 54.6974C19.847 54.6961 19.7016 54.6948 19.5517 54.6935C19.3168 54.6927 19.3168 54.6927 19.0772 54.6918C18.9153 54.691 18.7535 54.6903 18.5868 54.6895C18.2443 54.6883 17.9018 54.6874 17.5593 54.6869C17.037 54.6856 16.5147 54.6815 15.9924 54.6773C15.6593 54.6764 15.3262 54.6757 14.9932 54.6752C14.8376 54.6736 14.6821 54.6719 14.5219 54.6702C13.2174 54.6738 12.1837 54.9058 11.2889 55.9141ZM45.2889 55.9141C44.1779 57.5706 44.6249 59.7604 44.6249 61.625C48.8324 61.625 53.0399 61.625 57.3749 61.625C57.6182 58.5619 57.6182 58.5619 56.549 55.7491C55.7947 55.0047 55.0401 54.7048 53.9924 54.6974C53.847 54.6961 53.7016 54.6948 53.5517 54.6935C53.3168 54.6927 53.3168 54.6927 53.0772 54.6918C52.9153 54.691 52.7535 54.6903 52.5868 54.6895C52.2443 54.6883 51.9018 54.6874 51.5593 54.6869C51.0369 54.6856 50.5147 54.6815 49.9924 54.6773C49.6593 54.6764 49.3262 54.6757 48.9932 54.6752C48.8376 54.6736 48.6821 54.6719 48.5219 54.6702C47.2174 54.6738 46.1837 54.9058 45.2889 55.9141Z" fill="#58B347"/>
<path d="M37.6274 36.5649C38.99 37.594 40.1084 38.9005 40.3749 40.6406C40.5503 42.6696 40.3165 44.4325 39.0468 46.0859C38.9701 46.201 38.8934 46.316 38.8144 46.4345C37.7051 47.6054 36.199 48.2663 34.5981 48.3754C32.829 48.4087 31.3093 48.1323 29.8827 47.0156C29.7102 46.9005 29.7102 46.9005 29.5341 46.7832C28.378 45.6879 27.6626 44.193 27.5933 42.6032C27.5427 40.4076 28.0045 38.8604 29.5258 37.2207C31.69 35.1724 35.1591 34.9268 37.6274 36.5649ZM30.9131 39.0375C29.978 40.1388 29.7729 41.3644 29.8827 42.7656C30.1292 43.9133 30.6714 44.8337 31.6508 45.4971C32.7951 46.1577 34.0059 46.2954 35.3094 45.9998C36.395 45.6053 37.1801 44.9647 37.7104 43.936C38.2379 42.8005 38.3005 41.6058 37.9096 40.4082C37.4224 39.226 36.6288 38.4874 35.4609 37.9843C33.8408 37.4523 32.1309 37.8985 30.9131 39.0375Z" fill="#58B347"/>
<path d="M53.9525 41.8831C55.1045 42.6893 55.829 43.6861 56.1475 45.0587C56.4548 46.8244 56.1643 48.1967 55.1981 49.6921C54.5008 50.6095 53.2066 51.3478 52.0625 51.5312C50.2509 51.6544 48.7149 51.4172 47.2812 50.2031C46.2728 49.1806 45.7567 47.9079 45.675 46.4781C45.7276 44.8235 46.2546 43.4575 47.4556 42.3174C49.2366 40.8281 51.9813 40.6852 53.9525 41.8831ZM49.0327 44.0024C48.181 45.0487 47.9593 45.8121 48.0781 47.1484C48.3042 47.9698 48.8339 48.5474 49.5391 49.0078C50.3394 49.3947 51.2535 49.4244 52.1087 49.1868C52.8804 48.8403 53.441 48.2578 53.8077 47.4991C54.072 46.6872 54.063 45.7432 53.6978 44.9653C53.2647 44.2328 52.7303 43.7318 51.9297 43.4297C50.8448 43.189 49.9067 43.2838 49.0327 44.0024Z" fill="#58B347"/>
<path d="M19.9525 41.8831C21.1045 42.6893 21.829 43.6861 22.1475 45.0587C22.4548 46.8244 22.1643 48.1967 21.1981 49.6921C20.5008 50.6095 19.2066 51.3478 18.0625 51.5312C16.2509 51.6544 14.7149 51.4172 13.2812 50.2031C12.2728 49.1806 11.7567 47.9079 11.675 46.4781C11.7276 44.8235 12.2546 43.4575 13.4556 42.3174C15.2366 40.8281 17.9813 40.6852 19.9525 41.8831ZM14.5181 44.5082C14.0258 45.3152 13.8411 46.0953 14.0366 47.0322C14.2973 47.9145 14.8146 48.4755 15.5391 49.0078C16.3414 49.3928 17.252 49.4248 18.1087 49.1868C18.9523 48.808 19.5529 48.1221 19.9219 47.2812C20.1222 46.2965 20.0184 45.5107 19.5898 44.6001C18.9923 43.9278 18.3738 43.5059 17.4763 43.3518C16.2703 43.2967 15.2925 43.5349 14.5181 44.5082Z" fill="#58B347"/>
<path d="M59.5 9.96097C59.8902 10.1602 59.8902 10.1602 60.1641 10.4922C60.2764 11.1999 60.2764 11.1999 60.1641 11.5547C59.655 12.1541 59.157 12.4133 58.4448 12.6935C58.288 12.7576 58.288 12.7576 58.1281 12.823C57.7836 12.9635 57.4382 13.1016 57.0928 13.2398C56.7277 13.3877 56.3629 13.5362 55.998 13.6846C55.7438 13.7881 55.4896 13.8913 55.2352 13.9943C54.3035 14.3724 53.377 14.7616 52.4521 15.1562C52.1913 15.2671 51.9305 15.378 51.6696 15.4889C51.2908 15.65 50.9122 15.8115 50.5342 15.9743C50.1831 16.1254 49.8314 16.2747 49.4794 16.4236C49.3759 16.4688 49.2724 16.5139 49.1657 16.5604C48.6063 16.7951 48.1652 16.937 47.5469 16.8672C47.1651 16.6763 47.1651 16.6763 46.8828 16.336C46.7957 15.923 46.7782 15.5504 46.8828 15.1407C47.3406 14.5505 47.9523 14.3479 48.625 14.0802C48.7463 14.0307 48.8675 13.9811 48.9925 13.93C49.39 13.7679 49.7883 13.6076 50.1865 13.4473C50.7413 13.2221 51.2958 12.9962 51.8503 12.7703C51.9904 12.7134 52.1304 12.6565 52.2747 12.5979C53.1934 12.2238 54.1072 11.8398 55.0181 11.4473C55.1339 11.3976 55.2498 11.3479 55.3691 11.2967C56.0311 11.0125 56.0311 11.0125 56.6917 10.7251C56.9906 10.5943 57.2904 10.4655 57.5903 10.3371C57.6765 10.2986 57.7627 10.2602 57.8516 10.2205C58.421 9.97944 58.8844 9.90924 59.5 9.96097Z" fill="#58B347"/>
<path d="M50.6145 19.6299C50.7068 19.6303 50.7991 19.6307 50.8942 19.6311C51.1979 19.6328 51.5015 19.6366 51.8051 19.6407C52.017 19.6428 52.2288 19.6449 52.4407 19.6469C52.8842 19.6516 53.3276 19.6573 53.771 19.6638C54.3386 19.6718 54.9062 19.6763 55.4738 19.6797C55.9111 19.6829 56.3484 19.6886 56.7857 19.6948C56.995 19.6975 57.2042 19.6993 57.4135 19.7002C57.7063 19.7018 57.9989 19.7066 58.2917 19.7124C58.5413 19.7153 58.5413 19.7153 58.7959 19.7184C59.3101 19.8013 59.5338 19.9549 59.8984 20.3203C59.9866 20.615 59.9866 20.615 59.9814 20.918C59.984 21.068 59.984 21.068 59.9866 21.221C59.8458 21.6915 59.6619 21.7981 59.2343 22.0469C58.6776 22.1237 58.125 22.1117 57.5638 22.1034C57.3991 22.103 57.2344 22.1026 57.0648 22.1021C56.6263 22.1004 56.1879 22.0963 55.7495 22.0911C55.3115 22.0866 54.8735 22.0858 54.4355 22.0845C53.0198 22.078 51.603 22.0661 50.1886 22.0028C50.0208 21.9955 49.8531 21.9881 49.6803 21.9806C49.2448 21.9094 49.0484 21.8297 48.7422 21.5156C48.6 21.0041 48.5602 20.7088 48.7588 20.2124C49.2682 19.6181 49.8685 19.6238 50.6145 19.6299Z" fill="#58B347"/>
<path d="M52.8594 4.51568C53.1369 4.83947 53.1247 5.04246 53.1499 5.47027C52.8299 6.49767 51.8359 7.14387 51.0394 7.82562C50.5557 8.26329 50.1024 8.73092 49.6439 9.19469C49.1757 9.66619 48.6971 10.1143 48.1881 10.542C47.9093 10.7899 47.6606 11.0583 47.4058 11.3306C46.9538 11.7852 46.6119 12.025 45.9531 12.086C45.5132 11.9615 45.5132 11.9615 45.1562 11.6876C44.9487 11.2476 44.9487 11.2476 44.8906 10.7579C45.1475 10.085 45.5527 9.66853 46.0859 9.20562C46.2416 9.06651 46.3971 8.92712 46.5523 8.78747C46.6301 8.71766 46.7079 8.64785 46.7881 8.57593C47.1328 8.25981 47.4594 7.92853 47.7876 7.59527C48.259 7.11842 48.7394 6.66967 49.2511 6.23706C49.488 6.02285 49.7094 5.8047 49.9308 5.57507C50.0004 5.50324 50.07 5.43141 50.1417 5.3574C50.2791 5.21461 50.4153 5.07071 50.5502 4.92556C51.3131 4.134 51.8892 3.95595 52.8594 4.51568Z" fill="#58B347"/>
</svg>
