<svg width="52" height="53" viewBox="0 0 52 53" fill="none" xmlns="http://www.w3.org/2000/svg">
<path d="M46.2477 38.383C46.5408 38.6954 46.6645 38.8718 46.7183 39.3024C46.7041 39.3835 46.6899 39.4646 46.6753 39.5482C46.3869 39.6924 46.1202 39.6743 45.7984 39.6892C45.7277 39.6925 45.657 39.6959 45.5842 39.6994C45.3468 39.7107 45.1094 39.7213 44.8719 39.7319C44.7032 39.7397 44.5345 39.7476 44.3659 39.7555C43.8121 39.7813 43.2583 39.8062 42.7044 39.831C42.5119 39.8396 42.3193 39.8483 42.1268 39.857C41.3374 39.8926 40.5479 39.928 39.7585 39.9627C38.8484 40.0028 37.9383 40.0433 37.0283 40.0871C30.2846 40.4114 23.5281 40.4917 16.7827 40.158C16.3282 40.1355 15.8736 40.1137 15.419 40.092C13.997 40.0238 12.575 39.9554 11.1532 39.8835C10.9041 39.871 10.6551 39.8584 10.406 39.8459C10.2443 39.8378 10.0826 39.8296 9.92083 39.8215C8.73875 39.7621 7.55684 39.713 6.37367 39.6805C6.27043 39.6773 6.16719 39.6742 6.06083 39.671C5.97161 39.6686 5.8824 39.6662 5.79048 39.6637C5.56555 39.6466 5.56555 39.6466 5.27051 39.5482C5.33143 39.0243 5.45014 38.6456 5.86367 38.2989C12.6973 34.0171 22.9923 33.8327 46.2477 38.383Z" fill="#58B347"/>
<path d="M21.6943 12.7974C24.5504 12.7974 27.4064 12.7974 30.349 12.7974C30.349 19.4506 30.349 26.1039 30.349 32.9588C27.493 32.9588 24.6369 32.9588 21.6943 32.9588C21.6943 26.3055 21.6943 19.6523 21.6943 12.7974ZM24.8415 18.9933C24.5555 20.0311 24.307 21.0711 24.0823 22.1237C24.0292 22.3721 23.9755 22.6204 23.9218 22.8687C23.8877 23.0271 23.8536 23.1856 23.8196 23.3441C23.8036 23.418 23.7876 23.492 23.7712 23.5682C23.69 23.9329 23.69 23.9329 23.6613 24.3041C24.3429 24.3041 25.0244 24.3041 25.7266 24.3041C25.6982 24.56 25.6698 24.8158 25.6406 25.0794C25.6132 25.3284 25.5858 25.5774 25.5585 25.8264C25.5396 25.9989 25.5205 26.1714 25.5013 26.3438C25.4737 26.5923 25.4464 26.8408 25.4193 27.0894C25.4107 27.1659 25.4021 27.2425 25.3932 27.3214C25.3493 27.7276 25.3241 28.1237 25.3332 28.5331C25.6083 28.2906 25.7518 28.03 25.9168 27.7045C25.972 27.5966 26.0271 27.4888 26.084 27.3776C26.1425 27.262 26.2011 27.1463 26.2614 27.0272C26.3846 26.786 26.5083 26.545 26.6321 26.3041C26.6633 26.2435 26.6944 26.1828 26.7265 26.1203C27.0727 25.4479 27.4354 24.7848 27.8009 24.1229C28.321 23.3147 28.321 23.3147 28.5787 22.4355C27.8323 22.4031 27.0858 22.3706 26.3167 22.3372C26.3948 22.1205 26.4729 21.9038 26.5534 21.6806C26.6287 21.4707 26.7038 21.2607 26.7789 21.0508C26.8312 20.9049 26.8837 20.759 26.9363 20.6132C27.012 20.4037 27.087 20.1939 27.1619 19.9841C27.1856 19.9189 27.2092 19.8538 27.2336 19.7866C27.3326 19.5076 27.3986 19.292 27.3986 18.9933C26.5547 18.9933 25.7109 18.9933 24.8415 18.9933Z" fill="#58B347"/>
<path d="M20.7107 14.8627C20.7475 16.3202 20.7752 17.7777 20.7922 19.2357C20.8003 19.9127 20.8113 20.5895 20.8294 21.2664C20.8468 21.92 20.8559 22.5734 20.86 23.2272C20.8629 23.4763 20.8685 23.7253 20.8771 23.9742C20.9394 25.8727 20.9394 25.8727 20.5594 26.3713C20.1941 26.6968 19.7885 26.8987 19.3355 27.0759C19.0328 27.1985 18.7586 27.3603 18.4752 27.5223C18.264 27.6328 18.0523 27.7423 17.8401 27.8508C17.7259 27.9094 17.6117 27.968 17.494 28.0284C14.5562 29.5193 11.4324 30.672 8.12207 30.8935C8.31426 26.3322 9.87657 21.5989 13.2362 18.4032C13.301 18.3401 13.3658 18.2769 13.4325 18.2119C15.2335 16.5144 18.1758 14.8344 20.7107 14.8627Z" fill="#58B347"/>
<path d="M31.3324 14.8625C31.49 14.8772 31.6476 14.8922 31.8052 14.9073C31.9368 14.9197 31.9368 14.9197 32.0711 14.9325C32.3511 14.965 32.6052 15.0272 32.8729 15.115C32.9682 15.1461 33.0635 15.1772 33.1617 15.2093C33.2599 15.2429 33.358 15.2766 33.4592 15.3113C33.5625 15.3463 33.6658 15.3814 33.7722 15.4175C34.6396 15.7199 35.4518 16.0807 36.2498 16.5345C36.3627 16.5982 36.4755 16.662 36.5917 16.7277C40.1393 18.8255 42.1662 22.3684 43.1815 26.2781C43.5475 27.7601 43.921 29.3613 43.921 30.8933C40.9231 30.6454 38.0645 29.7478 35.3647 28.4346C35.2962 28.4018 35.2278 28.369 35.1573 28.3352C34.3756 27.9598 33.6104 27.5556 32.8507 27.1377C32.7418 27.0781 32.7418 27.0781 32.6307 27.0173C32.5611 26.9785 32.4916 26.9398 32.42 26.8999C32.3292 26.8494 32.3292 26.8494 32.2365 26.798C32.1298 26.7318 32.1298 26.7318 32.0208 26.6644C31.9651 26.6373 31.9094 26.6101 31.8519 26.5822C31.6412 26.4634 31.4925 26.3549 31.3324 26.1726C31.2313 25.8088 31.2453 25.4541 31.2542 25.0786C31.2541 24.9682 31.254 24.8578 31.2539 24.7441C31.2544 24.3795 31.2598 24.0151 31.2652 23.6505C31.2665 23.3977 31.2674 23.1448 31.2681 22.8919C31.2705 22.2945 31.2759 21.6972 31.2828 21.0999C31.2905 20.4197 31.2943 19.7395 31.2978 19.0592C31.3049 17.6603 31.3171 16.2614 31.3324 14.8625Z" fill="#58B347"/>
<path d="M20.7112 27.3528C20.7112 29.3974 20.7112 31.4421 20.7112 33.5487C19.7071 33.6735 19.7071 33.6735 18.6828 33.8008C15.1855 34.2505 11.6831 34.7801 8.38153 36.0681C8.02425 36.2041 8.02425 36.2041 7.63086 36.3025C7.63086 34.842 7.63086 33.3815 7.63086 31.8768C8.27286 31.7947 8.27286 31.7947 8.92783 31.7109C12.9377 31.1688 16.9064 29.7087 20.2986 27.4834C20.5145 27.3528 20.5145 27.3528 20.7112 27.3528Z" fill="#58B347"/>
<path d="M31.333 27.3528C31.6501 27.4796 31.9148 27.5906 32.2047 27.7562C32.2749 27.7959 32.345 27.8355 32.4173 27.8764C32.4915 27.9186 32.5658 27.9609 32.6423 28.0043C33.4723 28.4699 34.3105 28.9085 35.1686 29.3198C35.2402 29.3546 35.3118 29.3894 35.3856 29.4253C38.2722 30.8203 41.2437 31.5205 44.4134 31.8768C44.4134 33.3373 44.4134 34.7978 44.4134 36.3025C43.4461 35.9801 43.4461 35.9801 43.0153 35.8273C39.2438 34.5118 35.2795 34.0331 31.333 33.5487C31.333 31.5041 31.333 29.4594 31.333 27.3528Z" fill="#58B347"/>
</svg>
