<svg width="44" height="44" viewBox="0 0 44 44" fill="none" xmlns="http://www.w3.org/2000/svg">
<path d="M19.7964 0.56549C19.9071 0.564123 20.0178 0.562755 20.1318 0.561346C20.2524 0.561238 20.3729 0.561222 20.4935 0.561294C20.6174 0.560684 20.7413 0.560022 20.8652 0.559311C21.1247 0.558157 21.3842 0.558021 21.6437 0.558525C21.976 0.559032 22.3083 0.556401 22.6406 0.552929C22.8965 0.550706 23.1523 0.550457 23.4081 0.550771C23.5306 0.550625 23.6531 0.549796 23.7757 0.548266C23.947 0.546362 24.1183 0.547468 24.2896 0.548705C24.3871 0.548529 24.4845 0.548352 24.5849 0.54817C24.836 0.601577 24.836 0.601577 25.0341 0.802549C25.2012 1.06492 25.3111 1.32099 25.4201 1.61235C25.4406 1.66665 25.4611 1.72095 25.4822 1.7769C25.525 1.8908 25.5675 2.00484 25.6096 2.11902C25.6741 2.29415 25.7399 2.46881 25.8058 2.64343C26.1251 3.49589 26.1251 3.49589 26.1251 3.69533C26.2059 3.7033 26.2868 3.71128 26.3701 3.7195C26.8053 3.78238 27.2066 3.93192 27.6182 4.08205C27.7433 4.12626 27.7433 4.12626 27.8709 4.17136C28.3497 4.34701 28.7683 4.55007 29.1973 4.82441C29.6932 5.14984 29.6932 5.14984 30.2644 5.22508C30.6609 5.12038 31.014 4.93774 31.3694 4.73656C31.6228 4.59336 31.8829 4.46967 32.146 4.34523C32.2286 4.3028 32.3111 4.26037 32.3961 4.21666C32.732 4.09834 32.998 4.0343 33.3438 4.12502C33.6786 4.35413 33.9539 4.63679 34.2381 4.92497C34.3218 5.00799 34.4056 5.09091 34.4895 5.17374C34.6645 5.3474 34.8383 5.52226 35.0112 5.69805C35.2322 5.92251 35.4564 6.14351 35.6816 6.3637C35.8553 6.53418 36.027 6.70646 36.1983 6.87932C36.3198 7.00133 36.443 7.12175 36.5662 7.24213C37.1734 7.86722 37.1734 7.86722 37.1895 8.3139C37.1501 8.65169 37.0447 8.94127 36.8964 9.2477C36.8495 9.34795 36.8026 9.44821 36.7543 9.5515C36.7043 9.65485 36.6543 9.75813 36.6041 9.86134C36.505 10.0662 36.4076 10.2716 36.311 10.4777C36.2673 10.5677 36.2237 10.6577 36.1787 10.7505C36.0616 11.0947 36.1199 11.2891 36.2588 11.6155C36.2906 11.6774 36.3223 11.7393 36.355 11.803C36.3904 11.8738 36.4258 11.9447 36.4623 12.0177C36.5002 12.0931 36.5381 12.1684 36.5772 12.2461C36.934 12.9649 37.2099 13.6807 37.4099 14.4587C37.5198 14.8488 37.5198 14.8488 37.7746 15.1518C37.9556 15.2472 38.1348 15.3158 38.3282 15.3828C38.409 15.4137 38.4897 15.4446 38.573 15.4764C38.9365 15.614 39.3023 15.745 39.6684 15.8755C39.7576 15.908 39.8467 15.9405 39.9385 15.974C40.0595 16.0173 40.0595 16.0173 40.183 16.0615C40.3921 16.1569 40.5065 16.2351 40.6485 16.4141C40.7399 16.6884 40.7464 16.8872 40.7483 17.1756C40.7491 17.2791 40.7499 17.3827 40.7508 17.4893C40.7513 17.6573 40.7513 17.6573 40.7519 17.8287C40.7524 17.9448 40.7529 18.061 40.7534 18.1771C40.7543 18.4205 40.7548 18.664 40.7551 18.9074C40.7555 19.2189 40.7576 19.5302 40.7601 19.8417C40.7617 20.0816 40.7621 20.3215 40.7622 20.5614C40.7626 20.7318 40.7642 20.9023 40.7658 21.0728C40.7656 21.1768 40.7653 21.2809 40.7651 21.3882C40.7654 21.4796 40.7657 21.571 40.766 21.6651C40.7294 21.9536 40.6509 22.1125 40.4766 22.3438C40.2724 22.4518 40.0898 22.5337 39.8747 22.6113C39.8164 22.6336 39.758 22.6559 39.6979 22.6788C39.5121 22.7493 39.3257 22.8178 39.1392 22.8862C39.0134 22.9338 38.8877 22.9816 38.7621 23.0294C37.8463 23.375 37.8463 23.375 37.6407 23.375C37.63 23.4295 37.6194 23.484 37.6085 23.5402C37.3387 24.7607 36.8477 25.9447 36.1928 27.0079C36.0407 27.3678 36.1353 27.6459 36.2763 28.0013C36.3154 28.0837 36.3546 28.1661 36.3949 28.251C36.4373 28.3427 36.4797 28.4345 36.5233 28.5291C36.6126 28.7196 36.7026 28.9099 36.7932 29.0998C36.8355 29.1919 36.8777 29.284 36.9213 29.3789C36.9603 29.4616 36.9994 29.5442 37.0396 29.6294C37.1545 30.0017 37.2271 30.2965 37.1251 30.6797C36.9023 31.0135 36.6251 31.2819 36.3379 31.5606C36.2563 31.642 36.1749 31.7235 36.0936 31.8052C35.9234 31.9754 35.7519 32.1442 35.5793 32.3121C35.3588 32.5268 35.1413 32.7442 34.9246 32.9626C34.7569 33.1311 34.588 33.2983 34.4187 33.4651C34.299 33.5834 34.1801 33.7025 34.0613 33.8217C33.5169 34.3481 33.5169 34.3481 33.1014 34.4766C32.8297 34.461 32.6484 34.4242 32.4018 34.3122C32.3259 34.2786 32.2499 34.245 32.1716 34.2104C32.094 34.1743 32.0165 34.1382 31.9366 34.1011C31.8597 34.0667 31.7828 34.0323 31.7036 33.9969C31.0899 33.7217 31.0899 33.7217 30.8123 33.5789C30.4166 33.3761 30.4166 33.3761 29.9832 33.3934C29.9011 33.4338 29.819 33.4741 29.7344 33.5156C29.5807 33.5681 29.5807 33.5681 29.4239 33.6217C29.076 33.7643 28.8245 33.8813 28.5313 34.1172C28.4044 34.5211 28.433 34.9007 28.4454 35.3203C28.3458 35.9672 27.9874 36.4421 27.5001 36.8672C27.4087 36.9046 27.3173 36.9421 27.2231 36.9807C27.1443 37.0283 27.0656 37.0759 26.9844 37.125C26.9157 37.4058 26.9157 37.4058 26.9307 37.7266C26.9141 38.4831 26.798 39.1368 26.2647 39.7031C25.9809 39.9576 25.6621 40.2188 25.2657 40.2188C25.2707 40.3205 25.2756 40.4222 25.2808 40.5269C25.3111 41.4028 25.3114 42.0977 24.6947 42.7818C24.1573 43.2827 23.6065 43.4385 22.89 43.4387C22.8204 43.4394 22.7508 43.44 22.6791 43.4407C22.5325 43.4416 22.386 43.4419 22.2395 43.4415C22.0176 43.4414 21.796 43.445 21.5742 43.4488C20.722 43.455 20.003 43.4293 19.3456 42.8179C18.8804 42.3318 18.7037 41.8247 18.7118 41.1629C18.7139 41.0942 18.7161 41.0254 18.7183 40.9546C18.7195 40.8835 18.7206 40.8125 18.7218 40.7393C18.7248 40.5657 18.7295 40.3922 18.7344 40.2188C18.6567 40.1959 18.5789 40.1731 18.4988 40.1496C17.9707 39.9559 17.5787 39.5851 17.3218 39.0855C17.1187 38.6382 17.0997 38.2668 17.0962 37.7749C17.0858 37.337 17.0858 37.337 16.8754 36.9662C16.6997 36.8643 16.6997 36.8643 16.5115 36.7829C16.0516 36.5631 15.7644 36.0866 15.5937 35.6208C15.5547 35.4063 15.5547 35.4063 15.5749 35.1031C15.5942 34.7305 15.5921 34.4711 15.4688 34.1172C15.25 33.9049 15.0097 33.7699 14.7383 33.6338C14.6715 33.5997 14.6046 33.5657 14.5357 33.5306C14.1747 33.3738 13.9194 33.3099 13.5386 33.4297C13.4072 33.484 13.2772 33.5414 13.1485 33.6016C13.0785 33.6324 13.0085 33.6633 12.9364 33.6951C12.6408 33.8276 12.3482 33.9658 12.0558 34.1051C11.6487 34.294 11.2851 34.4554 10.8282 34.461C10.5166 34.3012 10.2818 34.1079 10.0355 33.861C9.96701 33.7928 9.8985 33.7246 9.82791 33.6542C9.75521 33.5809 9.68251 33.5076 9.6076 33.4321C9.53211 33.3565 9.45662 33.281 9.37885 33.2032C9.17908 33.0031 8.97971 32.8026 8.7805 32.602C8.57727 32.3976 8.37331 32.1939 8.16949 31.9901C8.01503 31.8352 7.86061 31.6803 7.70623 31.5253C7.63283 31.4518 7.55943 31.3783 7.48381 31.3026C7.38267 31.2006 7.38267 31.2006 7.27948 31.0966C7.2199 31.0367 7.16032 30.9768 7.09894 30.9151C6.87173 30.6689 6.83528 30.4606 6.83943 30.1266C6.92817 29.5778 7.23116 29.0752 7.47219 28.5784C7.54558 28.426 7.61737 28.2729 7.68911 28.1197C7.75459 27.9845 7.75459 27.9845 7.8214 27.8466C7.95795 27.4274 7.85974 27.1559 7.67971 26.7645C7.62146 26.6531 7.56269 26.542 7.50347 26.4312C7.03343 25.5192 6.59994 24.6115 6.48162 23.5805C6.33133 23.3278 6.26012 23.3224 5.98446 23.2414C5.90726 23.2219 5.83006 23.2023 5.75052 23.1822C5.31328 23.0688 4.89575 22.9021 4.47418 22.7412C4.38594 22.7091 4.29771 22.677 4.2068 22.6439C4.08009 22.5954 4.08009 22.5954 3.95083 22.5459C3.87484 22.5173 3.79886 22.4888 3.72057 22.4595C3.4677 22.311 3.39511 22.1762 3.26568 21.9141C3.23294 21.6663 3.23294 21.6663 3.23232 21.3909C3.23151 21.2874 3.2307 21.1838 3.22986 21.0772C3.23064 20.9105 3.23064 20.9105 3.23144 20.7405C3.23127 20.6246 3.23102 20.5087 3.23069 20.3928C3.23031 20.1504 3.23086 19.908 3.23207 19.6656C3.23354 19.3555 3.23269 19.0455 3.23115 18.7354C3.23022 18.4962 3.23051 18.2571 3.23118 18.0179C3.23144 17.8482 3.23066 17.6785 3.22986 17.5088C3.23067 17.4053 3.23148 17.3017 3.23232 17.1951C3.23253 17.1042 3.23273 17.0133 3.23294 16.9197C3.27062 16.6345 3.35428 16.4729 3.52349 16.2422C3.71383 16.1304 3.71383 16.1304 3.94781 16.0435C4.08307 15.9903 4.08307 15.9903 4.22106 15.9361C4.40239 15.8679 4.5843 15.8021 4.76699 15.7377C4.9213 15.6831 5.07525 15.6275 5.22884 15.5709C5.38237 15.5144 5.53673 15.46 5.69188 15.4081C6.08523 15.2681 6.08523 15.2681 6.37007 14.9795C6.43774 14.8007 6.48491 14.623 6.53131 14.4375C6.5802 14.2991 6.63075 14.1612 6.6827 14.0239C6.72276 13.9156 6.72276 13.9156 6.76363 13.8051C7.03471 13.0777 7.32008 12.3765 7.70428 11.7004C7.90333 11.3342 7.91511 11.1425 7.82037 10.7422C7.72587 10.5035 7.72587 10.5035 7.60519 10.2679C7.56282 10.18 7.52044 10.0921 7.47679 10.0015C7.38749 9.81922 7.29753 9.63727 7.20689 9.45566C7.16463 9.36742 7.12236 9.27919 7.07882 9.18828C7.03976 9.1092 7.00071 9.03013 6.96047 8.94866C6.84295 8.5786 6.77261 8.2881 6.87506 7.90627C7.10276 7.56528 7.38555 7.28941 7.67803 7.00359C7.76128 6.92003 7.84441 6.83636 7.92742 6.75257C8.10134 6.57791 8.27655 6.40468 8.45281 6.23239C8.67804 6.01205 8.89985 5.7886 9.1208 5.56398C9.29177 5.39085 9.46437 5.21942 9.63751 5.04846C9.75987 4.9271 9.8809 4.8044 10.0019 4.68169C10.627 4.0768 10.627 4.0768 11.0207 4.05823C11.3593 4.12822 11.606 4.22577 11.9078 4.39357C12.0118 4.44857 12.1161 4.5032 12.2205 4.55749C12.2738 4.58541 12.3271 4.61333 12.3821 4.6421C13.2728 5.1399 13.2728 5.1399 14.2415 5.18748C14.5314 5.05362 14.7794 4.86423 15.033 4.67199C15.3808 4.44281 15.7769 4.31859 16.167 4.17873C16.2435 4.15018 16.32 4.12163 16.3988 4.09222C16.604 4.01577 16.8096 3.94115 17.0157 3.8672C17.1112 3.83242 17.2067 3.79763 17.305 3.76179C17.5313 3.69533 17.5313 3.69533 17.8751 3.69533C17.8892 3.64519 17.9034 3.59506 17.918 3.54341C18.0892 2.95427 18.2932 2.38223 18.5142 1.81007C18.5635 1.67772 18.5635 1.67772 18.6137 1.54269C18.6464 1.45822 18.679 1.37376 18.7126 1.28673C18.7561 1.17275 18.7561 1.17275 18.8004 1.05646C19.0351 0.619752 19.3226 0.569009 19.7964 0.56549ZM20.0235 2.06251C19.7053 2.92691 19.7053 2.92691 19.3912 3.79278C19.3503 3.90146 19.3093 4.01008 19.2682 4.11864C19.2486 4.17484 19.2289 4.23104 19.2087 4.28895C19.0939 4.58621 19.0095 4.71569 18.7369 4.88754C18.4323 5.00089 18.1244 5.0894 17.8106 5.17238C16.6794 5.48979 15.6164 5.9845 14.6047 6.57954C14.2688 6.76993 14.0468 6.81998 13.6641 6.78908C13.398 6.69305 13.398 6.69305 13.1183 6.56047C13.0168 6.51356 12.9153 6.46664 12.8108 6.4183C12.6513 6.34309 12.492 6.26752 12.3328 6.19194C12.1778 6.11883 12.0223 6.04691 11.8668 5.97502C11.7286 5.90954 11.7286 5.90954 11.5876 5.84274C11.323 5.75058 11.2548 5.75048 11.0001 5.84377C10.8559 5.95093 10.8559 5.95093 10.7244 6.09018C10.6728 6.14179 10.6212 6.1934 10.568 6.24658C10.5134 6.30253 10.4588 6.35848 10.4025 6.41612C10.3458 6.47322 10.289 6.53033 10.2306 6.58916C10.0496 6.77158 9.86956 6.95487 9.68951 7.1382C9.56693 7.26207 9.44429 7.38589 9.32159 7.50964C9.02102 7.81306 8.72127 8.11726 8.42193 8.42189C8.44661 8.47862 8.4713 8.53534 8.49673 8.59379C8.60967 8.85337 8.72259 9.11297 8.8355 9.37257C8.87433 9.46181 8.91316 9.55104 8.95316 9.64297C9.02876 9.81678 9.10421 9.99065 9.17951 10.1646C9.24097 10.3058 9.30306 10.4468 9.36632 10.5872C9.54203 10.9803 9.57776 11.1794 9.45318 11.6016C9.36867 11.7538 9.28042 11.904 9.19 12.0528C8.67425 12.9028 8.28676 13.8239 8.01104 14.7789C7.98612 14.8643 7.96119 14.9497 7.93551 15.0376C7.88842 15.2033 7.84376 15.3696 7.8019 15.5367C7.64796 16.0828 7.64796 16.0828 7.42996 16.2704C7.24879 16.365 7.06801 16.4324 6.87506 16.5C6.69591 16.5736 6.51688 16.6475 6.33795 16.7216C6.14473 16.7985 5.95134 16.8749 5.75787 16.9512C5.2474 17.1532 5.2474 17.1532 4.72662 17.3594C4.72662 18.6356 4.72662 19.9117 4.72662 21.2266C5.59131 21.5517 5.59131 21.5517 6.45689 21.8744C6.56554 21.9157 6.67416 21.9572 6.78274 21.9987C6.83894 22.0192 6.89515 22.0397 6.95305 22.0608C7.27873 22.1867 7.47807 22.2923 7.64849 22.6016C7.71418 22.7738 7.71418 22.7738 7.76229 22.9567C7.78117 23.0252 7.80004 23.0937 7.81949 23.1643C7.83927 23.2374 7.85906 23.3105 7.87945 23.3858C8.16684 24.391 8.5659 25.3261 9.05135 26.2512C9.08355 26.3131 9.11575 26.375 9.14892 26.4388C9.21027 26.5555 9.27294 26.6716 9.33716 26.7868C9.53398 27.158 9.54837 27.3545 9.45318 27.7578C9.38602 27.9295 9.31291 28.099 9.23498 28.2661C9.19222 28.3598 9.14946 28.4535 9.1054 28.5501C9.01461 28.746 8.92353 28.9418 8.83215 29.1375C8.78961 29.231 8.74707 29.3245 8.70324 29.4209C8.64398 29.5482 8.64398 29.5482 8.58352 29.6782C8.49966 29.931 8.5056 30.0056 8.59381 30.25C8.70097 30.3941 8.70097 30.3941 8.84022 30.5257C8.89183 30.5773 8.94344 30.6289 8.99662 30.682C9.05257 30.7367 9.10852 30.7913 9.16616 30.8476C9.22326 30.9043 9.28037 30.961 9.3392 31.0195C9.52162 31.2005 9.70491 31.3805 9.88824 31.5606C10.0121 31.6831 10.1359 31.8058 10.2597 31.9285C10.5631 32.2291 10.8673 32.5288 11.1719 32.8281C11.4047 32.7333 11.6373 32.6383 11.8698 32.5431C11.9352 32.5166 12.0005 32.49 12.0678 32.4626C12.4364 32.3115 12.7969 32.1515 13.1539 31.9741C13.5328 31.8045 13.8542 31.6835 14.2657 31.7969C14.6786 31.9776 15.0741 32.1811 15.4688 32.3985C15.3719 29.9714 14.4354 27.7527 13.1961 25.6986C11.8213 23.406 11.4148 20.7852 12.0343 18.1711C12.2376 17.3714 12.5107 16.6331 12.8907 15.8985C12.9303 15.8185 12.97 15.7385 13.0109 15.6561C13.3351 15.0273 13.7407 14.4752 14.1797 13.9219C14.249 13.834 14.249 13.834 14.3197 13.7443C15.8289 11.9062 18.3214 10.6819 20.665 10.4166C23.6594 10.1674 26.3801 10.8699 28.7032 12.8047C28.7929 12.8763 28.7929 12.8763 28.8845 12.9494C30.8091 14.5206 31.9055 17.0826 32.1998 19.4971C32.404 22.101 31.7143 24.2011 30.4166 26.4312C29.3929 28.1921 28.4901 30.321 28.5313 32.3985C28.8903 32.2711 29.1939 32.089 29.5132 31.8848C30.0708 31.6631 30.4643 31.7967 30.9966 32.0225C31.2068 32.1179 31.4161 32.2145 31.6251 32.3125C31.7337 32.3623 31.8423 32.412 31.951 32.4616C32.2153 32.5826 32.479 32.7048 32.7422 32.8281C33.292 32.3743 33.8036 31.8833 34.3118 31.384C34.4119 31.2863 34.5126 31.1891 34.6139 31.0926C34.7613 30.9519 34.9067 30.8094 35.0518 30.6663C35.0974 30.6236 35.1429 30.5808 35.1898 30.5368C35.333 30.3995 35.333 30.3995 35.4922 30.1641C35.4896 29.7854 35.3483 29.4853 35.1881 29.1463C35.1453 29.0533 35.1026 28.9604 35.0585 28.8646C34.968 28.6708 34.8769 28.4772 34.7853 28.2839C34.7427 28.1909 34.7002 28.098 34.6564 28.0022C34.6169 27.9182 34.5774 27.8342 34.5366 27.7476C34.4263 27.3866 34.4842 27.1273 34.6339 26.7861C34.6692 26.7236 34.7046 26.6611 34.741 26.5967C34.7803 26.5253 34.8196 26.4539 34.8601 26.3803C34.9021 26.3049 34.9441 26.2295 34.9874 26.1519C35.5924 25.0323 36.0329 23.8763 36.3415 22.6419C36.5331 22.2187 37.0249 22.0993 37.4356 21.9399C37.5322 21.9022 37.6288 21.8644 37.7284 21.8256C37.8501 21.7786 37.9718 21.7316 38.0972 21.6831C38.4854 21.5325 38.8736 21.3818 39.2735 21.2266C39.2735 19.9504 39.2735 18.6742 39.2735 17.3594C38.5975 17.0917 38.5975 17.0917 37.9213 16.8247C37.7407 16.7528 37.5608 16.6792 37.3815 16.6042C37.1357 16.4995 37.1357 16.4995 36.9169 16.4382C36.5925 16.3261 36.4704 16.2225 36.3157 15.9101C36.2201 15.6445 36.1347 15.3785 36.0577 15.1069C35.9739 14.8122 35.8814 14.5202 35.7893 14.228C35.7626 14.1424 35.7626 14.1424 35.7353 14.0549C35.5945 13.6106 35.4244 13.1953 35.2076 12.7832C35.1798 12.7303 35.1521 12.6775 35.1235 12.623C35.0028 12.3983 34.8758 12.1777 34.7467 11.9577C34.7056 11.8845 34.6645 11.8113 34.6221 11.7359C34.5865 11.6775 34.5508 11.6191 34.514 11.5589C34.3421 10.8614 34.8274 10.0989 35.1163 9.49074C35.1606 9.39586 35.2049 9.30097 35.2505 9.20322C35.3591 8.97109 35.4683 8.73932 35.5782 8.50783C35.124 7.95673 34.6304 7.44645 34.1293 6.93825C34.0311 6.8381 33.9333 6.73741 33.8361 6.63621C33.6946 6.48897 33.5515 6.34348 33.4079 6.19826C33.3648 6.15271 33.3216 6.10716 33.2771 6.06022C33.1404 5.91847 33.1404 5.91847 32.9141 5.75783C32.5777 5.76095 32.2932 5.91868 31.9906 6.05894C31.8974 6.10132 31.8042 6.14369 31.7081 6.18735C31.5132 6.27691 31.3185 6.36687 31.124 6.45724C31.0307 6.49951 30.9374 6.54177 30.8412 6.58531C30.7566 6.62437 30.6721 6.66342 30.5849 6.70366C30.2263 6.82672 29.9571 6.84327 29.6022 6.70259C29.4952 6.64271 29.4952 6.64271 29.386 6.58162C29.3055 6.5377 29.225 6.49379 29.1421 6.44854C29.0575 6.40139 28.9729 6.35425 28.8858 6.30568C27.9796 5.81717 27.0927 5.39988 26.0911 5.14351C26.0286 5.12661 25.966 5.10971 25.9015 5.09229C25.7827 5.06087 25.6631 5.03217 25.5428 5.0069C25.3044 4.94403 25.1323 4.87009 24.9932 4.66219C24.9001 4.4576 24.8244 4.25122 24.7501 4.03908C24.6828 3.86962 24.6152 3.70033 24.5473 3.53117C24.4786 3.35502 24.4102 3.17876 24.3419 3.00246C24.2213 2.69228 24.1008 2.38209 23.9766 2.06251C22.6721 2.06251 21.3676 2.06251 20.0235 2.06251ZM16.4141 13.75C16.3454 13.8073 16.2768 13.8646 16.206 13.9236C14.4425 15.4434 13.3584 17.5622 13.1623 19.8878C13.0159 22.2442 13.8503 24.0662 15.007 26.065C16.1387 28.0278 16.6936 30.1738 16.9061 32.4192C16.9148 32.5723 16.9148 32.5723 17.0157 32.6563C17.1476 32.6643 17.2798 32.6664 17.412 32.666C17.4975 32.666 17.583 32.666 17.671 32.666C17.8067 32.6653 17.8067 32.6653 17.9452 32.6647C18.0279 32.6646 18.1106 32.6645 18.1958 32.6644C18.506 32.6639 18.8163 32.6627 19.1265 32.6616C19.8196 32.6599 20.5126 32.6581 21.2266 32.6563C21.2266 30.9263 21.2266 29.1964 21.2266 27.4141C20.6382 27.2032 20.0497 26.9922 19.4434 26.7749C19.2581 26.7084 19.0728 26.6419 18.8819 26.5734C18.7347 26.5207 18.5875 26.468 18.4404 26.4154C18.3261 26.3743 18.3261 26.3743 18.2095 26.3324C18.1363 26.3062 18.0631 26.2801 17.9876 26.2531C17.8926 26.219 17.8926 26.219 17.7956 26.1843C17.6229 26.1269 17.4506 26.0807 17.2735 26.0391C17.2356 25.879 17.1978 25.7189 17.1602 25.5588C17.1282 25.4238 17.0956 25.2889 17.0625 25.1541C16.9787 24.8093 16.9193 24.4807 16.8868 24.127C16.8607 23.9493 16.8607 23.9493 16.7579 23.8047C16.5072 23.6604 16.2631 23.5645 15.9881 23.4754C15.5482 23.3065 15.2811 23.063 15.0606 22.6499C15.0256 22.5862 14.9906 22.5225 14.9545 22.4569C14.6824 21.8363 14.7195 21.1782 14.9498 20.5539C15.214 20.0016 15.6143 19.6828 16.1563 19.4219C16.8077 19.2214 17.4913 19.2819 18.1077 19.5602C18.5987 19.858 18.9546 20.3181 19.1265 20.866C19.2662 21.5667 19.1905 22.1609 18.8204 22.7735C18.6543 23.0062 18.4825 23.2223 18.2494 23.3918C18.0597 23.6443 18.0809 23.893 18.1221 24.1914C18.175 24.4981 18.2631 24.6929 18.4766 24.9219C19.192 25.326 20.3984 25.8672 21.2266 25.8672C21.2266 24.6478 21.2266 23.4283 21.2266 22.1719C20.9714 22.0301 20.7161 21.8883 20.4532 21.7422C20.2679 21.5401 20.2679 21.5401 20.1524 21.3447C20.1125 21.2798 20.0726 21.2149 20.0315 21.148C19.7486 20.6084 19.774 19.9079 19.8882 19.3192C20.0796 18.8142 20.4613 18.3516 20.9362 18.0989C21.7071 17.7964 22.2856 17.7918 23.0578 18.0925C23.5782 18.3765 23.9754 18.8543 24.1485 19.4219C24.2331 20.2012 24.2184 20.9297 23.7188 21.5703C23.4293 21.8452 23.1531 22.0454 22.7735 22.1719C22.7735 23.9018 22.7735 25.6317 22.7735 27.4141C23.7435 27.2231 23.7435 27.2231 24.6641 26.8985C24.7598 26.6688 24.8462 26.4412 24.9283 26.2066C24.9531 26.1369 24.9778 26.0673 25.0033 25.9956C25.0556 25.8479 25.1075 25.7002 25.1591 25.5523C25.2383 25.3262 25.3192 25.1006 25.4001 24.8751C25.4506 24.7317 25.501 24.5883 25.5514 24.4449C25.5757 24.3774 25.6 24.3099 25.6251 24.2403C25.7764 23.8084 25.7764 23.8084 25.6954 23.375C25.597 23.2793 25.597 23.2793 25.4966 23.1817C25.0265 22.7006 24.8981 22.3003 24.8736 21.624C24.8923 21.0358 24.9766 20.5738 25.3516 20.1094C25.9192 19.6097 26.5173 19.38 27.2711 19.3937C27.6638 19.4421 28.0053 19.5954 28.3594 19.7656C28.4208 19.7907 28.4822 19.8157 28.5454 19.8415C28.7443 19.9626 28.7865 20.0685 28.8751 20.2813C28.9206 20.3622 28.9206 20.3622 28.967 20.4447C29.3086 21.1039 29.3256 21.7889 29.1275 22.4995C28.6986 23.2051 28.2937 23.5591 27.5001 23.8047C27.415 23.8331 27.3299 23.8614 27.2422 23.8906C27.1351 24.1028 27.1351 24.1028 27.0502 24.368C27.0154 24.468 26.9805 24.5681 26.9445 24.6711C26.9265 24.7244 26.9085 24.7776 26.8899 24.8325C26.8339 24.9974 26.7767 25.1619 26.719 25.3262C26.5744 25.739 26.432 26.1525 26.2912 26.5666C26.2137 26.794 26.1346 27.0208 26.0552 27.2476C26.0335 27.3139 26.0117 27.3801 25.9893 27.4484C25.8472 27.8515 25.7299 27.9993 25.3516 28.1875C25.1516 28.2523 24.9492 28.3103 24.7457 28.3631C24.6421 28.3904 24.5385 28.4176 24.4317 28.4457C24.2357 28.496 24.2357 28.496 24.0357 28.5474C23.6192 28.6555 23.2026 28.7636 22.7735 28.875C22.7735 30.1228 22.7735 31.3706 22.7735 32.6563C23.3716 32.6582 23.9697 32.6599 24.5679 32.661C24.7715 32.6614 24.9752 32.662 25.1788 32.6628C25.4709 32.6638 25.7629 32.6643 26.0549 32.6647C26.1466 32.6651 26.2382 32.6655 26.3327 32.666C26.417 32.666 26.5013 32.666 26.5881 32.666C26.6627 32.6662 26.7374 32.6664 26.8142 32.6666C26.9846 32.6751 26.9846 32.6751 27.0704 32.5703C27.096 32.4138 27.1169 32.2565 27.1358 32.099C27.4723 29.4441 28.2636 27.329 29.5626 25.0078C30.7994 22.7955 31.1981 20.5801 30.4971 18.0952C29.8193 15.8344 28.2685 13.9472 26.211 12.8047C23.0653 11.1717 19.1575 11.3964 16.4141 13.75ZM21.3126 19.5938C21.1793 19.8602 21.2017 20.0732 21.2266 20.3672C21.3591 20.6211 21.457 20.7564 21.7312 20.8543C22.0679 20.9186 22.2115 20.9114 22.5103 20.7271C22.7346 20.4892 22.7685 20.4109 22.8057 20.0825C22.7999 19.7574 22.7999 19.7574 22.5909 19.5186C22.0848 19.1445 21.7913 19.2041 21.3126 19.5938ZM16.4678 20.8882C16.2194 21.1662 16.1486 21.2862 16.1563 21.6563C16.3047 22.0108 16.4893 22.1954 16.8438 22.3438C17.2138 22.3515 17.3339 22.2807 17.6119 22.0322C17.8152 21.7545 17.8152 21.7545 17.7945 21.4307C17.6941 21.1119 17.6342 20.9849 17.3594 20.7969C16.9648 20.6727 16.8247 20.6701 16.4678 20.8882ZM26.4688 21.0547C26.2547 21.3759 26.2576 21.5337 26.2969 21.9141C26.4723 22.2368 26.5791 22.3244 26.9307 22.4351C27.3119 22.4285 27.4685 22.3271 27.7579 22.086C27.8927 21.8162 27.8741 21.61 27.8438 21.3125C27.6351 21.0302 27.4895 20.908 27.1563 20.7969C26.8447 20.7969 26.7128 20.8649 26.4688 21.0547ZM17.0157 34.1172C16.9273 35.0846 16.9273 35.0846 17.2735 35.5781C17.5128 35.7399 17.7029 35.7716 17.9885 35.7724C18.0621 35.773 18.1357 35.7736 18.2115 35.7743C18.2916 35.7741 18.3716 35.7738 18.4541 35.7736C18.539 35.7741 18.6238 35.7745 18.7112 35.775C18.9919 35.7761 19.2725 35.7761 19.5532 35.7759C19.7482 35.7762 19.9432 35.7766 20.1382 35.777C20.547 35.7776 20.9558 35.7776 21.3646 35.7771C21.8887 35.7766 22.4127 35.7781 22.9367 35.7801C23.3395 35.7814 23.7422 35.7814 24.145 35.7812C24.3382 35.7812 24.5314 35.7817 24.7246 35.7825C24.9947 35.7836 25.2648 35.783 25.5349 35.782C25.6148 35.7827 25.6946 35.7833 25.7769 35.784C26.1885 35.7806 26.4863 35.7727 26.8126 35.4922C27.0613 35.0588 27.0613 35.0588 26.9844 34.1172C23.6947 34.1172 20.4051 34.1172 17.0157 34.1172ZM18.5626 37.211C18.4741 38.1783 18.4741 38.1783 18.8204 38.6719C19.1288 38.8775 19.2702 38.8668 19.6371 38.8701C19.7216 38.8712 19.7216 38.8712 19.8078 38.8723C19.9941 38.8743 20.1803 38.8751 20.3666 38.8757C20.4962 38.8764 20.6258 38.8772 20.7554 38.878C21.0272 38.8794 21.299 38.8801 21.5707 38.8803C21.9186 38.8808 22.2664 38.884 22.6142 38.888C22.882 38.8905 23.1497 38.8911 23.4175 38.8912C23.5457 38.8916 23.6739 38.8927 23.8021 38.8945C23.9818 38.8968 24.1612 38.8964 24.3408 38.8953C24.4429 38.8957 24.545 38.8961 24.6501 38.8966C25.0009 38.8284 25.1273 38.6854 25.3516 38.4141C25.5314 38.0545 25.4376 37.613 25.4376 37.211C23.1688 37.211 20.9001 37.211 18.5626 37.211ZM20.1954 40.3047C20.0791 41.3682 20.0791 41.3682 20.5391 41.8516C20.907 42.0355 21.3935 41.9606 21.8018 41.9629C21.9824 41.9644 22.1628 41.9681 22.3433 41.9719C22.4586 41.9728 22.5739 41.9735 22.6892 41.9741C22.7939 41.9754 22.8986 41.9766 23.0064 41.9779C23.3414 41.9301 23.4805 41.829 23.7188 41.5938C23.9114 41.2086 23.8047 40.7353 23.8047 40.3047C22.6136 40.3047 21.4226 40.3047 20.1954 40.3047Z" fill="#58b347"/>
<path d="M22.2578 5.67184C22.6541 5.91841 22.6541 5.91841 22.7411 6.17156C22.8074 6.55646 22.793 6.94735 22.7949 7.33688C22.7967 7.42528 22.7985 7.51368 22.8003 7.60476C22.8028 8.08232 22.7964 8.44396 22.5156 8.85153C22.2408 8.98892 21.9545 8.98058 21.6563 8.93747C21.3774 8.73724 21.2891 8.57933 21.2266 8.24997C21.2076 7.93689 21.2107 7.62362 21.2105 7.31002C21.2094 7.225 21.2083 7.13998 21.2073 7.05238C21.2071 6.97002 21.2069 6.88765 21.2068 6.80279C21.2064 6.72802 21.2061 6.65325 21.2057 6.57622C21.2369 6.25204 21.3217 6.00912 21.5488 5.77389C21.8091 5.63651 21.9668 5.63027 22.2578 5.67184Z" fill="#58b347"/>
<path d="M15.5547 7.5625C15.9062 7.84808 16.1165 8.23063 16.3442 8.61523C16.3829 8.6776 16.4217 8.73997 16.4615 8.80423C16.7137 9.22838 16.8294 9.559 16.8437 10.0547C16.7148 10.3071 16.7148 10.3071 16.5 10.4844C16.1737 10.5793 15.9913 10.6147 15.6812 10.4665C15.3145 10.2007 15.1438 9.81567 14.9263 9.42627C14.8554 9.30538 14.8554 9.30538 14.7831 9.18205C14.7385 9.10345 14.6939 9.02486 14.648 8.94388C14.5873 8.83698 14.5873 8.83698 14.5253 8.72792C14.3975 8.4077 14.393 8.12553 14.5019 7.79883C14.7836 7.40452 15.1137 7.45225 15.5547 7.5625Z" fill="#58b347"/>
<path d="M29.2187 7.56254C29.3957 7.69823 29.4633 7.79384 29.5625 7.99223C29.592 8.37754 29.5419 8.6094 29.352 8.94392C29.3074 9.02252 29.2628 9.10112 29.2169 9.18209C29.1696 9.26269 29.1224 9.34328 29.0737 9.42631C29.0053 9.54869 29.0053 9.54869 28.9356 9.67355C28.5388 10.3615 28.5388 10.3615 28.1015 10.5704C27.7374 10.5704 27.5642 10.539 27.2851 10.3018C27.1109 9.96793 27.158 9.8196 27.2422 9.45317C27.3624 9.1794 27.5065 8.92251 27.6557 8.66362C27.7123 8.56134 27.7123 8.56134 27.77 8.457C28.1502 7.78429 28.3978 7.38971 29.2187 7.56254Z" fill="#58b347"/>
<path d="M34.2031 12.5469C34.4072 12.6866 34.4072 12.6866 34.5468 12.8907C34.5947 13.2194 34.5979 13.4091 34.4223 13.695C34.1198 14.0081 33.7786 14.2058 33.4028 14.4214C33.3315 14.4646 33.2602 14.5077 33.1868 14.5522C32.7671 14.7956 32.4676 14.9343 31.9687 14.8672C31.7163 14.7437 31.7163 14.7437 31.539 14.5235C31.4783 14.2542 31.4596 14.0156 31.539 13.7501C31.8768 13.4195 32.3033 13.1968 32.7099 12.9605C32.7755 12.9218 32.8411 12.8831 32.9087 12.8432C33.6609 12.4031 33.6609 12.4031 34.2031 12.5469Z" fill="#58b347"/>
<path d="M10.5703 12.5468C10.874 12.7008 11.1619 12.8777 11.4511 13.0571C11.5293 13.1045 11.6075 13.1518 11.6881 13.2006C12.2617 13.5508 12.2617 13.5508 12.4609 13.75C12.5091 14.0128 12.5058 14.2602 12.4609 14.5234C12.2441 14.7928 12.1098 14.8556 11.7697 14.9058C11.2859 14.8508 10.956 14.629 10.5488 14.373C10.4717 14.3267 10.3946 14.2804 10.3151 14.2327C9.66259 13.8322 9.66259 13.8322 9.45308 13.4922C9.4097 13.1451 9.39346 12.9687 9.60884 12.6865C9.9504 12.4328 10.1703 12.4387 10.5703 12.5468Z" fill="#58b347"/>
</svg>
