<svg width="40" height="40" viewBox="0 0 40 40" fill="none" xmlns="http://www.w3.org/2000/svg">
<g clip-path="url(#clip0_847_4345)">
<mask id="path-1-inside-1_847_4345" fill="white">
<path d="M24.3036 -0.0442245C24.3861 -0.0447088 24.4686 -0.045193 24.5537 -0.045692C24.7277 -0.0462452 24.9017 -0.0460009 25.0757 -0.0450065C25.3404 -0.0439248 25.605 -0.0465854 25.8697 -0.0495651C26.0394 -0.0496394 26.2091 -0.049494 26.3788 -0.0491073C26.4572 -0.0501431 26.5356 -0.0511789 26.6163 -0.0522461C27.1502 -0.0452596 27.5388 0.0661888 27.9687 0.390651C28.4361 0.885073 28.5154 1.4564 28.5937 2.1094C28.6354 2.12433 28.6771 2.13926 28.7201 2.15464C28.9125 2.2238 29.1047 2.29355 29.2969 2.36331C29.3952 2.3985 29.3952 2.3985 29.4955 2.43441C29.8695 2.57066 30.2181 2.71947 30.5633 2.91835C30.7441 2.98356 30.8373 2.95562 31.0156 2.89065C31.1777 2.78429 31.1777 2.78429 31.333 2.65628C31.6733 2.38454 31.9237 2.32904 32.3584 2.31936C32.4857 2.31498 32.4857 2.31498 32.6156 2.31051C33.2368 2.38566 33.6546 2.74805 34.0811 3.18026C34.1317 3.23055 34.1823 3.28083 34.2344 3.33263C34.3404 3.43843 34.446 3.54461 34.5512 3.65117C34.7117 3.81333 34.8738 3.97376 35.0361 4.13409C35.1394 4.2376 35.2427 4.3412 35.3457 4.44491C35.3938 4.49237 35.4419 4.53984 35.4915 4.58874C35.8973 5.00347 36.1263 5.40328 36.1328 6.001C36.1211 6.48994 35.9749 6.86211 35.7031 7.26565C35.6362 7.3223 35.6362 7.3223 35.5679 7.38009C35.5352 7.41967 35.5025 7.45925 35.4687 7.50003C35.504 7.76435 35.58 7.99326 35.6857 8.23703C35.7266 8.33242 35.7266 8.33242 35.7683 8.42974C35.7967 8.49515 35.8252 8.56056 35.8545 8.62796C36.028 9.0293 36.1982 9.42559 36.3281 9.84378C36.4258 9.85254 36.4258 9.85254 36.5256 9.86148C37.1144 9.93028 37.6271 10.0236 38.0469 10.4688C38.4133 10.9853 38.4951 11.4143 38.4866 12.0389C38.4868 12.1197 38.487 12.2004 38.4872 12.2836C38.4871 12.4533 38.4861 12.6231 38.4841 12.7928C38.4814 13.0514 38.4825 13.3097 38.484 13.5683C38.4835 13.734 38.4827 13.8996 38.4817 14.0653C38.4821 14.1419 38.4825 14.2185 38.4829 14.2974C38.4734 14.8541 38.3542 15.2692 37.9968 15.7022C37.4459 16.1555 36.9603 16.2944 36.25 16.25C36.2444 16.3229 36.2389 16.3959 36.2332 16.471C36.1736 16.8883 35.988 17.2557 35.8154 17.6367C35.7498 17.7827 35.6846 17.9287 35.6198 18.075C35.5908 18.139 35.5619 18.203 35.532 18.269C35.455 18.4441 35.455 18.4441 35.4687 18.6719C35.5661 18.8031 35.5661 18.8031 35.6933 18.9307C36.0893 19.3809 36.1126 19.7922 36.1297 20.3754C36.0441 20.9691 35.694 21.385 35.2798 21.7957C35.2317 21.8443 35.1835 21.893 35.1338 21.9431C35.0324 22.0451 34.9305 22.1468 34.8283 22.248C34.6734 22.4018 34.5204 22.5575 34.3675 22.7133C34.2681 22.8128 34.1685 22.9122 34.0689 23.0115C34.0239 23.0575 33.979 23.1035 33.9327 23.1508C33.512 23.5622 32.992 23.873 32.3877 23.8721C31.7424 23.8477 31.266 23.5259 30.7812 23.125C30.7132 23.1609 30.6451 23.1967 30.5749 23.2337C29.1264 23.9844 29.1264 23.9844 28.5156 23.9844C28.5183 24.0279 28.521 24.0714 28.5239 24.1162C28.5491 24.827 28.3574 25.262 27.8992 25.7999C27.426 26.1951 26.9437 26.2076 26.3528 26.2058C26.2736 26.2062 26.1943 26.2066 26.1127 26.207C25.9457 26.2075 25.7787 26.2074 25.6118 26.2067C25.3575 26.2061 25.1033 26.2083 24.8491 26.2108C24.6863 26.2109 24.5235 26.2109 24.3606 26.2107C24.2853 26.2115 24.2099 26.2124 24.1322 26.2133C23.5643 26.2075 23.1521 26.0803 22.7154 25.7114C22.2489 25.1634 22.1587 24.6908 22.1875 23.9844C22.0497 23.9602 22.0497 23.9602 21.9092 23.9356C21.5537 23.8571 21.2207 23.7342 20.8838 23.5987C20.8346 23.5789 20.7855 23.5592 20.7348 23.5388C20.4306 23.414 20.1361 23.2755 19.8437 23.125C19.7975 23.1627 19.7513 23.2004 19.7037 23.2392C19.6111 23.3132 19.6111 23.3132 19.5166 23.3887C19.4559 23.4376 19.3951 23.4866 19.3326 23.537C19.0099 23.7638 18.7331 23.8517 18.3398 23.8574C18.2718 23.8597 18.2037 23.8619 18.1335 23.8642C17.5065 23.7712 17.0623 23.4487 16.6315 23.0033C16.5827 22.9543 16.534 22.9054 16.4838 22.855C16.3818 22.7523 16.2804 22.6492 16.1793 22.5456C16.0251 22.3874 15.8694 22.2309 15.7135 22.0745C15.6141 21.974 15.5148 21.8734 15.4156 21.7728C15.3695 21.7262 15.3234 21.6797 15.2758 21.6317C14.7564 21.0973 14.5759 20.6624 14.5819 19.9182C14.6478 19.3642 14.9653 18.9355 15.3125 18.5157C15.2766 18.4467 15.2408 18.3777 15.2038 18.3066C14.4531 16.8452 14.4531 16.8452 14.4531 16.25C14.3532 16.2565 14.2533 16.2629 14.1504 16.2696C13.6396 16.2663 13.1905 16.1335 12.8033 15.7913C12.3095 15.2494 12.24 14.8071 12.2339 14.0909C12.233 14.0101 12.2321 13.9292 12.2312 13.846C12.2297 13.675 12.2287 13.5041 12.2281 13.3332C12.2266 13.0735 12.2217 12.8141 12.2168 12.5545C12.2158 12.3879 12.2149 12.2214 12.2143 12.0548C12.2124 11.978 12.2105 11.9012 12.2085 11.8221C12.2122 11.2441 12.3768 10.8455 12.7344 10.3907C13.204 9.95742 13.7569 9.9069 14.375 9.84378C14.4015 9.77291 14.4015 9.77291 14.4286 9.70061C14.5098 9.48456 14.5913 9.26866 14.6728 9.05276C14.7007 8.97844 14.7285 8.90412 14.7572 8.82754C14.8736 8.51994 14.9878 8.22601 15.1425 7.93521C15.2479 7.74635 15.2479 7.74635 15.2246 7.57113C15.1405 7.38765 15.038 7.2305 14.9219 7.06546C14.6776 6.71726 14.5953 6.46654 14.5849 6.04006C14.582 5.96242 14.5791 5.88477 14.5761 5.80477C14.6549 5.19365 15.0205 4.7761 15.4458 4.35641C15.4961 4.30583 15.5464 4.25525 15.5982 4.20313C15.704 4.09713 15.8102 3.99151 15.9168 3.88627C16.0789 3.72578 16.2393 3.56369 16.3997 3.40136C16.5032 3.29806 16.6068 3.19486 16.7105 3.09176C16.758 3.04367 16.8054 2.99557 16.8543 2.94602C17.2887 2.52101 17.6912 2.31036 18.3154 2.3096C18.7603 2.32034 19.0929 2.39015 19.4531 2.65628C19.5095 2.7159 19.5659 2.77551 19.624 2.83694C19.6707 2.88045 19.7175 2.92395 19.7656 2.96878C20.1244 2.93783 20.4383 2.77487 20.7617 2.62698C21.205 2.42814 21.6437 2.25075 22.1094 2.1094C22.1179 2.04716 22.1265 1.98493 22.1353 1.9208C22.2368 1.24235 22.355 0.775127 22.8906 0.312526C23.3612 -0.021259 23.7349 -0.047024 24.3036 -0.0442245ZM23.8281 1.71878C23.8081 1.93854 23.7953 2.1529 23.789 2.37307C23.7664 3.16556 23.7664 3.16556 23.5937 3.3594C23.3834 3.45201 23.1869 3.52624 22.9687 3.59378C22.9151 3.61093 22.8614 3.62809 22.8061 3.64577C22.6965 3.68056 22.5869 3.71508 22.4771 3.74934C21.6346 4.01512 20.8162 4.3517 20.0781 4.84378C19.8004 4.92099 19.5746 4.92258 19.2969 4.84378C19.0872 4.66733 18.9077 4.49137 18.7309 4.28326C18.6189 4.14954 18.6189 4.14954 18.4375 3.9844C18.1515 3.98781 17.9975 4.16341 17.8037 4.35725C17.7643 4.39786 17.7249 4.43847 17.6843 4.48031C17.6225 4.54257 17.6225 4.54257 17.5595 4.60609C17.4284 4.73849 17.2982 4.87168 17.168 5.00491C17.0791 5.09494 16.9902 5.18491 16.9012 5.27484C16.6835 5.49513 16.4666 5.71613 16.25 5.93753C16.3648 6.17936 16.4769 6.33237 16.6748 6.5137C16.9125 6.74698 17.0801 6.94362 17.1875 7.26565C17.1649 7.7552 16.9802 8.0869 16.7432 8.501C16.406 9.11291 16.1605 9.71941 15.9573 10.3867C15.9248 10.4922 15.8922 10.5977 15.8594 10.7032C15.8329 10.7892 15.8329 10.7892 15.8059 10.877C15.6676 11.2902 15.6676 11.2902 15.4965 11.4426C15.2105 11.5076 14.9263 11.5183 14.6338 11.5283C14.2386 11.5079 14.2386 11.5079 13.9062 11.6407C13.8983 11.8537 13.8953 12.0648 13.8959 12.2779C13.8958 12.3417 13.8957 12.4056 13.8956 12.4714C13.8956 12.6067 13.8957 12.742 13.8961 12.8773C13.8965 13.0851 13.8961 13.2929 13.8956 13.5007C13.8956 13.6318 13.8957 13.7629 13.8959 13.8941C13.8957 13.9566 13.8955 14.0192 13.8954 14.0837C13.8694 14.37 13.8694 14.37 13.9844 14.6094C14.2787 14.6227 14.5725 14.6326 14.8671 14.6361C14.9602 14.6394 14.9602 14.6394 15.0552 14.6427C15.112 14.6438 15.1688 14.6449 15.2273 14.6461C15.4604 14.7052 15.5531 14.815 15.7031 15C15.7836 15.1841 15.7836 15.1841 15.8429 15.3885C15.8661 15.4646 15.8893 15.5406 15.9132 15.619C15.9373 15.6999 15.9615 15.7809 15.9863 15.8643C16.2107 16.5822 16.4821 17.233 16.8564 17.8855C17.0723 18.2647 17.2468 18.5807 17.1396 19.028C16.9574 19.3487 16.6785 19.5666 16.4078 19.8123C16.234 19.9771 16.234 19.9771 16.2531 20.1405C16.3636 20.394 16.5504 20.5636 16.7459 20.7532C16.7874 20.7944 16.8289 20.8355 16.8717 20.878C17.0041 21.0091 17.1373 21.1393 17.2705 21.2696C17.3605 21.3584 17.4505 21.4473 17.5404 21.5363C17.7607 21.754 17.9817 21.9709 18.2031 22.1875C18.4449 22.0727 18.598 21.9606 18.7793 21.7627C19.0126 21.525 19.2092 21.3574 19.5312 21.25C20.0043 21.2745 20.3273 21.4394 20.7275 21.6699C21.2015 21.9423 21.6579 22.1267 22.1875 22.2656C22.2107 21.8084 22.2277 21.3515 22.239 20.8938C22.2437 20.7383 22.2501 20.5829 22.2582 20.4276C22.305 19.6988 22.305 19.6988 22.1875 18.9844C21.9114 18.6841 21.6255 18.5778 21.25 18.4375C19.6573 17.3302 18.7126 15.7259 18.3142 13.8498C18.0586 11.8646 18.5013 9.95909 19.7244 8.36856C20.3472 7.58892 21.3027 6.62941 22.3437 6.4844C22.7289 6.46679 23.0749 6.49101 23.3935 6.72366C23.876 7.27678 23.8611 7.86212 23.8578 8.56558C23.8571 8.73122 23.8579 8.8968 23.8591 9.06244C23.8622 9.53291 23.8623 10.0034 23.8622 10.4738C23.8622 10.7628 23.8637 11.0517 23.866 11.3407C23.8668 11.5029 23.8659 11.665 23.8649 11.8273C23.87 12.4767 23.9153 12.9366 24.3579 13.4394C24.4022 13.4742 24.4465 13.509 24.4922 13.5449C24.5365 13.581 24.5808 13.6171 24.6265 13.6542C24.9662 13.8881 25.207 13.955 25.625 13.9063C26.1148 13.6893 26.491 13.3525 26.7279 12.8687C26.8092 12.6184 26.8165 12.4116 26.8168 12.1485C26.8174 12.0473 26.8179 11.9462 26.8185 11.8419C26.8184 11.7882 26.8184 11.7345 26.8183 11.6792C26.8182 11.5099 26.8192 11.3407 26.8206 11.1715C26.8242 10.6906 26.8261 10.2097 26.8266 9.72871C26.827 9.43393 26.8289 9.13919 26.8317 8.84443C26.8325 8.73265 26.8327 8.62087 26.8323 8.50908C26.8296 7.77372 26.8554 7.2559 27.3535 6.6846C27.7484 6.46998 28.125 6.44101 28.5654 6.52255C29.9297 6.94279 31.0046 8.21224 31.6511 9.42969C32.49 11.063 32.7277 12.9976 32.1635 14.7647C31.5236 16.6213 30.2842 18.1001 28.5156 18.9844C28.5156 20.0672 28.5156 21.15 28.5156 22.2656C29.135 22.0944 29.135 22.0944 29.6759 21.8347C29.7375 21.7999 29.7992 21.7651 29.8627 21.7292C29.9877 21.6566 30.1125 21.5833 30.2368 21.5094C30.5332 21.3432 30.7682 21.2186 31.1139 21.2442C31.4365 21.3368 31.5819 21.4384 31.8164 21.6748C32.0381 21.8948 32.2178 22.0557 32.5 22.1875C32.7808 21.9163 33.0603 21.6439 33.3387 21.3702C33.4337 21.2773 33.5289 21.1847 33.6245 21.0924C33.7618 20.9599 33.8977 20.8262 34.0335 20.6922C34.0766 20.6511 34.1197 20.6099 34.1642 20.5676C34.2977 20.4387 34.2977 20.4387 34.4531 20.2344C34.4504 19.9797 34.3792 19.9263 34.1992 19.7397C34.0563 19.6108 33.913 19.4822 33.7695 19.354C33.5487 19.086 33.5123 18.9401 33.5156 18.5938C33.5992 18.3797 33.6825 18.2008 33.7939 18.003C33.8526 17.8923 33.9109 17.7815 33.9691 17.6706C33.9983 17.6156 34.0275 17.5606 34.0575 17.504C34.404 16.8361 34.6622 16.1414 34.8575 15.4163C34.9495 15.0935 35.0271 14.8737 35.3125 14.6875C35.5517 14.642 35.7872 14.6367 36.0303 14.6338C36.4464 14.6621 36.4464 14.6621 36.7969 14.5313C36.8048 14.3182 36.8078 14.1072 36.8072 13.8941C36.8073 13.8302 36.8074 13.7663 36.8075 13.7005C36.8075 13.5652 36.8074 13.43 36.807 13.2947C36.8066 13.0868 36.807 12.879 36.8075 12.6712C36.8075 12.5401 36.8074 12.409 36.8072 12.2779C36.8075 12.184 36.8075 12.184 36.8077 12.0882C36.8337 11.8019 36.8337 11.8019 36.7187 11.5625C36.4412 11.5439 36.1643 11.5316 35.8864 11.5221C35.264 11.4937 35.264 11.4937 35.0781 11.3282C34.9853 11.1176 34.9109 10.9216 34.8437 10.7032C34.8192 10.6245 34.8192 10.6245 34.7943 10.5443C34.7614 10.4374 34.7287 10.3305 34.6961 10.2235C34.4853 9.54249 34.2059 8.9305 33.8546 8.31017C33.6217 7.89404 33.4563 7.56823 33.584 7.08499C33.7744 6.68243 34.1311 6.39148 34.4531 6.09378C34.3291 5.79223 34.1252 5.58316 33.8995 5.35495C33.8606 5.31532 33.8217 5.27569 33.7816 5.23486C33.6994 5.1516 33.6171 5.06855 33.5345 4.9857C33.4082 4.85843 33.2834 4.72977 33.1586 4.60101C33.0785 4.5202 32.9983 4.43948 32.9181 4.35885C32.8809 4.32012 32.8437 4.2814 32.8053 4.2415C32.6884 4.12163 32.6884 4.12163 32.5 3.9844C32.2459 3.99107 32.1942 4.0556 32.0135 4.24105C31.9517 4.31266 31.8899 4.38426 31.8262 4.45803C31.3885 4.90336 31.3885 4.90336 31.0254 4.92678C30.6051 4.88169 30.2928 4.6707 29.9417 4.44827C29.2453 4.0336 28.4481 3.79069 27.6711 3.57314C27.401 3.49454 27.2032 3.43269 27.0312 3.20315C26.8829 2.90646 26.9238 2.52648 26.9127 2.19699C26.9111 1.84277 26.9111 1.84277 26.7187 1.56253C26.5133 1.54693 26.3163 1.54066 26.1108 1.54177C26.0507 1.54162 25.9906 1.54148 25.9287 1.54132C25.8016 1.54121 25.6744 1.5415 25.5473 1.54216C25.3523 1.54299 25.1574 1.54216 24.9624 1.54116C24.8391 1.54127 24.7157 1.54147 24.5923 1.54177C24.5045 1.5413 24.5045 1.5413 24.415 1.54082C24.0857 1.53269 24.0857 1.53269 23.8281 1.71878ZM21.3034 8.99722C20.2819 10.0596 19.7906 11.4212 19.8068 12.8857C19.8562 14.2059 20.3801 15.347 21.25 16.3282C21.2915 16.377 21.333 16.4258 21.3757 16.4762C21.9292 17.0831 22.7037 17.469 23.4433 17.8043C23.5937 17.8907 23.5937 17.8907 23.75 18.125C23.7662 18.3298 23.7735 18.5264 23.7737 18.7313C23.7743 18.7929 23.775 18.8546 23.7757 18.9181C23.7777 19.1219 23.7786 19.3256 23.7796 19.5294C23.7809 19.6708 23.7822 19.8122 23.7836 19.9535C23.7872 20.3257 23.7899 20.6979 23.7924 21.07C23.7964 21.6664 23.8015 22.2627 23.8071 22.859C23.8089 23.0678 23.8101 23.2767 23.8114 23.4855C23.8124 23.6127 23.8135 23.7399 23.8145 23.8671C23.8148 23.9256 23.815 23.9841 23.8152 24.0444C23.7943 24.3104 23.7943 24.3104 23.9062 24.5313C24.1193 24.5392 24.3303 24.5422 24.5434 24.5417C24.6392 24.5418 24.6392 24.5418 24.737 24.5419C24.8723 24.5419 25.0076 24.5418 25.1428 24.5415C25.3507 24.541 25.5585 24.5415 25.7663 24.542C25.8974 24.5419 26.0285 24.5418 26.1597 24.5417C26.2222 24.5418 26.2848 24.542 26.3493 24.5421C26.6356 24.5682 26.6356 24.5682 26.875 24.4531C26.8827 24.2579 26.8854 24.0648 26.8848 23.8696C26.885 23.8085 26.8851 23.7474 26.8853 23.6844C26.8856 23.5512 26.8857 23.4181 26.8858 23.2849C26.886 23.0019 26.8877 22.7189 26.8893 22.436C26.8923 21.9086 26.8947 21.3812 26.8946 20.8539C26.8945 20.4875 26.8963 20.1212 26.8994 19.7549C26.9002 19.6152 26.9003 19.4755 26.8997 19.3359C26.899 19.1402 26.9006 18.9447 26.9028 18.749C26.902 18.6914 26.9012 18.6337 26.9004 18.5744C26.9066 18.2655 26.9428 18.1374 27.1426 17.8962C27.3045 17.766 27.4331 17.6694 27.6224 17.5897C27.6727 17.5673 27.7231 17.5448 27.7749 17.5216C27.8276 17.4984 27.8803 17.4751 27.9346 17.4512C29.2357 16.8359 30.1526 15.6992 30.6399 14.3521C31.0758 12.9351 30.9445 11.5079 30.2734 10.1856C29.8338 9.37392 29.2429 8.72663 28.4375 8.28128C28.4372 8.33694 28.4369 8.39261 28.4366 8.44996C28.4336 8.97855 28.4292 9.5071 28.4231 10.0357C28.4201 10.3073 28.4175 10.5789 28.4163 10.8506C28.4149 11.164 28.411 11.4774 28.407 11.7908C28.4069 11.8868 28.4068 11.9828 28.4067 12.0817C28.3898 13.0901 28.1212 13.9437 27.4219 14.6875C26.7461 15.2401 26.0076 15.5211 25.1343 15.4904C24.3508 15.4105 23.624 15.0721 23.0963 14.48C22.6066 13.8271 22.34 13.2457 22.3277 12.4232C22.3261 12.3309 22.3246 12.2387 22.323 12.1436C22.3217 12.0448 22.3204 11.946 22.319 11.8442C22.3174 11.7424 22.3158 11.6407 22.3141 11.5358C22.3098 11.2663 22.3059 10.9967 22.3022 10.7271C22.2982 10.4516 22.2939 10.1762 22.2896 9.90069C22.2812 9.36089 22.2733 8.82109 22.2656 8.28128C21.9526 8.28128 21.5186 8.79616 21.3034 8.99722Z"/>
</mask>
<path d="M24.3036 -0.0442245C24.3861 -0.0447088 24.4686 -0.045193 24.5537 -0.045692C24.7277 -0.0462452 24.9017 -0.0460009 25.0757 -0.0450065C25.3404 -0.0439248 25.605 -0.0465854 25.8697 -0.0495651C26.0394 -0.0496394 26.2091 -0.049494 26.3788 -0.0491073C26.4572 -0.0501431 26.5356 -0.0511789 26.6163 -0.0522461C27.1502 -0.0452596 27.5388 0.0661888 27.9687 0.390651C28.4361 0.885073 28.5154 1.4564 28.5937 2.1094C28.6354 2.12433 28.6771 2.13926 28.7201 2.15464C28.9125 2.2238 29.1047 2.29355 29.2969 2.36331C29.3952 2.3985 29.3952 2.3985 29.4955 2.43441C29.8695 2.57066 30.2181 2.71947 30.5633 2.91835C30.7441 2.98356 30.8373 2.95562 31.0156 2.89065C31.1777 2.78429 31.1777 2.78429 31.333 2.65628C31.6733 2.38454 31.9237 2.32904 32.3584 2.31936C32.4857 2.31498 32.4857 2.31498 32.6156 2.31051C33.2368 2.38566 33.6546 2.74805 34.0811 3.18026C34.1317 3.23055 34.1823 3.28083 34.2344 3.33263C34.3404 3.43843 34.446 3.54461 34.5512 3.65117C34.7117 3.81333 34.8738 3.97376 35.0361 4.13409C35.1394 4.2376 35.2427 4.3412 35.3457 4.44491C35.3938 4.49237 35.4419 4.53984 35.4915 4.58874C35.8973 5.00347 36.1263 5.40328 36.1328 6.001C36.1211 6.48994 35.9749 6.86211 35.7031 7.26565C35.6362 7.3223 35.6362 7.3223 35.5679 7.38009C35.5352 7.41967 35.5025 7.45925 35.4687 7.50003C35.504 7.76435 35.58 7.99326 35.6857 8.23703C35.7266 8.33242 35.7266 8.33242 35.7683 8.42974C35.7967 8.49515 35.8252 8.56056 35.8545 8.62796C36.028 9.0293 36.1982 9.42559 36.3281 9.84378C36.4258 9.85254 36.4258 9.85254 36.5256 9.86148C37.1144 9.93028 37.6271 10.0236 38.0469 10.4688C38.4133 10.9853 38.4951 11.4143 38.4866 12.0389C38.4868 12.1197 38.487 12.2004 38.4872 12.2836C38.4871 12.4533 38.4861 12.6231 38.4841 12.7928C38.4814 13.0514 38.4825 13.3097 38.484 13.5683C38.4835 13.734 38.4827 13.8996 38.4817 14.0653C38.4821 14.1419 38.4825 14.2185 38.4829 14.2974C38.4734 14.8541 38.3542 15.2692 37.9968 15.7022C37.4459 16.1555 36.9603 16.2944 36.25 16.25C36.2444 16.3229 36.2389 16.3959 36.2332 16.471C36.1736 16.8883 35.988 17.2557 35.8154 17.6367C35.7498 17.7827 35.6846 17.9287 35.6198 18.075C35.5908 18.139 35.5619 18.203 35.532 18.269C35.455 18.4441 35.455 18.4441 35.4687 18.6719C35.5661 18.8031 35.5661 18.8031 35.6933 18.9307C36.0893 19.3809 36.1126 19.7922 36.1297 20.3754C36.0441 20.9691 35.694 21.385 35.2798 21.7957C35.2317 21.8443 35.1835 21.893 35.1338 21.9431C35.0324 22.0451 34.9305 22.1468 34.8283 22.248C34.6734 22.4018 34.5204 22.5575 34.3675 22.7133C34.2681 22.8128 34.1685 22.9122 34.0689 23.0115C34.0239 23.0575 33.979 23.1035 33.9327 23.1508C33.512 23.5622 32.992 23.873 32.3877 23.8721C31.7424 23.8477 31.266 23.5259 30.7812 23.125C30.7132 23.1609 30.6451 23.1967 30.5749 23.2337C29.1264 23.9844 29.1264 23.9844 28.5156 23.9844C28.5183 24.0279 28.521 24.0714 28.5239 24.1162C28.5491 24.827 28.3574 25.262 27.8992 25.7999C27.426 26.1951 26.9437 26.2076 26.3528 26.2058C26.2736 26.2062 26.1943 26.2066 26.1127 26.207C25.9457 26.2075 25.7787 26.2074 25.6118 26.2067C25.3575 26.2061 25.1033 26.2083 24.8491 26.2108C24.6863 26.2109 24.5235 26.2109 24.3606 26.2107C24.2853 26.2115 24.2099 26.2124 24.1322 26.2133C23.5643 26.2075 23.1521 26.0803 22.7154 25.7114C22.2489 25.1634 22.1587 24.6908 22.1875 23.9844C22.0497 23.9602 22.0497 23.9602 21.9092 23.9356C21.5537 23.8571 21.2207 23.7342 20.8838 23.5987C20.8346 23.5789 20.7855 23.5592 20.7348 23.5388C20.4306 23.414 20.1361 23.2755 19.8437 23.125C19.7975 23.1627 19.7513 23.2004 19.7037 23.2392C19.6111 23.3132 19.6111 23.3132 19.5166 23.3887C19.4559 23.4376 19.3951 23.4866 19.3326 23.537C19.0099 23.7638 18.7331 23.8517 18.3398 23.8574C18.2718 23.8597 18.2037 23.8619 18.1335 23.8642C17.5065 23.7712 17.0623 23.4487 16.6315 23.0033C16.5827 22.9543 16.534 22.9054 16.4838 22.855C16.3818 22.7523 16.2804 22.6492 16.1793 22.5456C16.0251 22.3874 15.8694 22.2309 15.7135 22.0745C15.6141 21.974 15.5148 21.8734 15.4156 21.7728C15.3695 21.7262 15.3234 21.6797 15.2758 21.6317C14.7564 21.0973 14.5759 20.6624 14.5819 19.9182C14.6478 19.3642 14.9653 18.9355 15.3125 18.5157C15.2766 18.4467 15.2408 18.3777 15.2038 18.3066C14.4531 16.8452 14.4531 16.8452 14.4531 16.25C14.3532 16.2565 14.2533 16.2629 14.1504 16.2696C13.6396 16.2663 13.1905 16.1335 12.8033 15.7913C12.3095 15.2494 12.24 14.8071 12.2339 14.0909C12.233 14.0101 12.2321 13.9292 12.2312 13.846C12.2297 13.675 12.2287 13.5041 12.2281 13.3332C12.2266 13.0735 12.2217 12.8141 12.2168 12.5545C12.2158 12.3879 12.2149 12.2214 12.2143 12.0548C12.2124 11.978 12.2105 11.9012 12.2085 11.8221C12.2122 11.2441 12.3768 10.8455 12.7344 10.3907C13.204 9.95742 13.7569 9.9069 14.375 9.84378C14.4015 9.77291 14.4015 9.77291 14.4286 9.70061C14.5098 9.48456 14.5913 9.26866 14.6728 9.05276C14.7007 8.97844 14.7285 8.90412 14.7572 8.82754C14.8736 8.51994 14.9878 8.22601 15.1425 7.93521C15.2479 7.74635 15.2479 7.74635 15.2246 7.57113C15.1405 7.38765 15.038 7.2305 14.9219 7.06546C14.6776 6.71726 14.5953 6.46654 14.5849 6.04006C14.582 5.96242 14.5791 5.88477 14.5761 5.80477C14.6549 5.19365 15.0205 4.7761 15.4458 4.35641C15.4961 4.30583 15.5464 4.25525 15.5982 4.20313C15.704 4.09713 15.8102 3.99151 15.9168 3.88627C16.0789 3.72578 16.2393 3.56369 16.3997 3.40136C16.5032 3.29806 16.6068 3.19486 16.7105 3.09176C16.758 3.04367 16.8054 2.99557 16.8543 2.94602C17.2887 2.52101 17.6912 2.31036 18.3154 2.3096C18.7603 2.32034 19.0929 2.39015 19.4531 2.65628C19.5095 2.7159 19.5659 2.77551 19.624 2.83694C19.6707 2.88045 19.7175 2.92395 19.7656 2.96878C20.1244 2.93783 20.4383 2.77487 20.7617 2.62698C21.205 2.42814 21.6437 2.25075 22.1094 2.1094C22.1179 2.04716 22.1265 1.98493 22.1353 1.9208C22.2368 1.24235 22.355 0.775127 22.8906 0.312526C23.3612 -0.021259 23.7349 -0.047024 24.3036 -0.0442245ZM23.8281 1.71878C23.8081 1.93854 23.7953 2.1529 23.789 2.37307C23.7664 3.16556 23.7664 3.16556 23.5937 3.3594C23.3834 3.45201 23.1869 3.52624 22.9687 3.59378C22.9151 3.61093 22.8614 3.62809 22.8061 3.64577C22.6965 3.68056 22.5869 3.71508 22.4771 3.74934C21.6346 4.01512 20.8162 4.3517 20.0781 4.84378C19.8004 4.92099 19.5746 4.92258 19.2969 4.84378C19.0872 4.66733 18.9077 4.49137 18.7309 4.28326C18.6189 4.14954 18.6189 4.14954 18.4375 3.9844C18.1515 3.98781 17.9975 4.16341 17.8037 4.35725C17.7643 4.39786 17.7249 4.43847 17.6843 4.48031C17.6225 4.54257 17.6225 4.54257 17.5595 4.60609C17.4284 4.73849 17.2982 4.87168 17.168 5.00491C17.0791 5.09494 16.9902 5.18491 16.9012 5.27484C16.6835 5.49513 16.4666 5.71613 16.25 5.93753C16.3648 6.17936 16.4769 6.33237 16.6748 6.5137C16.9125 6.74698 17.0801 6.94362 17.1875 7.26565C17.1649 7.7552 16.9802 8.0869 16.7432 8.501C16.406 9.11291 16.1605 9.71941 15.9573 10.3867C15.9248 10.4922 15.8922 10.5977 15.8594 10.7032C15.8329 10.7892 15.8329 10.7892 15.8059 10.877C15.6676 11.2902 15.6676 11.2902 15.4965 11.4426C15.2105 11.5076 14.9263 11.5183 14.6338 11.5283C14.2386 11.5079 14.2386 11.5079 13.9062 11.6407C13.8983 11.8537 13.8953 12.0648 13.8959 12.2779C13.8958 12.3417 13.8957 12.4056 13.8956 12.4714C13.8956 12.6067 13.8957 12.742 13.8961 12.8773C13.8965 13.0851 13.8961 13.2929 13.8956 13.5007C13.8956 13.6318 13.8957 13.7629 13.8959 13.8941C13.8957 13.9566 13.8955 14.0192 13.8954 14.0837C13.8694 14.37 13.8694 14.37 13.9844 14.6094C14.2787 14.6227 14.5725 14.6326 14.8671 14.6361C14.9602 14.6394 14.9602 14.6394 15.0552 14.6427C15.112 14.6438 15.1688 14.6449 15.2273 14.6461C15.4604 14.7052 15.5531 14.815 15.7031 15C15.7836 15.1841 15.7836 15.1841 15.8429 15.3885C15.8661 15.4646 15.8893 15.5406 15.9132 15.619C15.9373 15.6999 15.9615 15.7809 15.9863 15.8643C16.2107 16.5822 16.4821 17.233 16.8564 17.8855C17.0723 18.2647 17.2468 18.5807 17.1396 19.028C16.9574 19.3487 16.6785 19.5666 16.4078 19.8123C16.234 19.9771 16.234 19.9771 16.2531 20.1405C16.3636 20.394 16.5504 20.5636 16.7459 20.7532C16.7874 20.7944 16.8289 20.8355 16.8717 20.878C17.0041 21.0091 17.1373 21.1393 17.2705 21.2696C17.3605 21.3584 17.4505 21.4473 17.5404 21.5363C17.7607 21.754 17.9817 21.9709 18.2031 22.1875C18.4449 22.0727 18.598 21.9606 18.7793 21.7627C19.0126 21.525 19.2092 21.3574 19.5312 21.25C20.0043 21.2745 20.3273 21.4394 20.7275 21.6699C21.2015 21.9423 21.6579 22.1267 22.1875 22.2656C22.2107 21.8084 22.2277 21.3515 22.239 20.8938C22.2437 20.7383 22.2501 20.5829 22.2582 20.4276C22.305 19.6988 22.305 19.6988 22.1875 18.9844C21.9114 18.6841 21.6255 18.5778 21.25 18.4375C19.6573 17.3302 18.7126 15.7259 18.3142 13.8498C18.0586 11.8646 18.5013 9.95909 19.7244 8.36856C20.3472 7.58892 21.3027 6.62941 22.3437 6.4844C22.7289 6.46679 23.0749 6.49101 23.3935 6.72366C23.876 7.27678 23.8611 7.86212 23.8578 8.56558C23.8571 8.73122 23.8579 8.8968 23.8591 9.06244C23.8622 9.53291 23.8623 10.0034 23.8622 10.4738C23.8622 10.7628 23.8637 11.0517 23.866 11.3407C23.8668 11.5029 23.8659 11.665 23.8649 11.8273C23.87 12.4767 23.9153 12.9366 24.3579 13.4394C24.4022 13.4742 24.4465 13.509 24.4922 13.5449C24.5365 13.581 24.5808 13.6171 24.6265 13.6542C24.9662 13.8881 25.207 13.955 25.625 13.9063C26.1148 13.6893 26.491 13.3525 26.7279 12.8687C26.8092 12.6184 26.8165 12.4116 26.8168 12.1485C26.8174 12.0473 26.8179 11.9462 26.8185 11.8419C26.8184 11.7882 26.8184 11.7345 26.8183 11.6792C26.8182 11.5099 26.8192 11.3407 26.8206 11.1715C26.8242 10.6906 26.8261 10.2097 26.8266 9.72871C26.827 9.43393 26.8289 9.13919 26.8317 8.84443C26.8325 8.73265 26.8327 8.62087 26.8323 8.50908C26.8296 7.77372 26.8554 7.2559 27.3535 6.6846C27.7484 6.46998 28.125 6.44101 28.5654 6.52255C29.9297 6.94279 31.0046 8.21224 31.6511 9.42969C32.49 11.063 32.7277 12.9976 32.1635 14.7647C31.5236 16.6213 30.2842 18.1001 28.5156 18.9844C28.5156 20.0672 28.5156 21.15 28.5156 22.2656C29.135 22.0944 29.135 22.0944 29.6759 21.8347C29.7375 21.7999 29.7992 21.7651 29.8627 21.7292C29.9877 21.6566 30.1125 21.5833 30.2368 21.5094C30.5332 21.3432 30.7682 21.2186 31.1139 21.2442C31.4365 21.3368 31.5819 21.4384 31.8164 21.6748C32.0381 21.8948 32.2178 22.0557 32.5 22.1875C32.7808 21.9163 33.0603 21.6439 33.3387 21.3702C33.4337 21.2773 33.5289 21.1847 33.6245 21.0924C33.7618 20.9599 33.8977 20.8262 34.0335 20.6922C34.0766 20.6511 34.1197 20.6099 34.1642 20.5676C34.2977 20.4387 34.2977 20.4387 34.4531 20.2344C34.4504 19.9797 34.3792 19.9263 34.1992 19.7397C34.0563 19.6108 33.913 19.4822 33.7695 19.354C33.5487 19.086 33.5123 18.9401 33.5156 18.5938C33.5992 18.3797 33.6825 18.2008 33.7939 18.003C33.8526 17.8923 33.9109 17.7815 33.9691 17.6706C33.9983 17.6156 34.0275 17.5606 34.0575 17.504C34.404 16.8361 34.6622 16.1414 34.8575 15.4163C34.9495 15.0935 35.0271 14.8737 35.3125 14.6875C35.5517 14.642 35.7872 14.6367 36.0303 14.6338C36.4464 14.6621 36.4464 14.6621 36.7969 14.5313C36.8048 14.3182 36.8078 14.1072 36.8072 13.8941C36.8073 13.8302 36.8074 13.7663 36.8075 13.7005C36.8075 13.5652 36.8074 13.43 36.807 13.2947C36.8066 13.0868 36.807 12.879 36.8075 12.6712C36.8075 12.5401 36.8074 12.409 36.8072 12.2779C36.8075 12.184 36.8075 12.184 36.8077 12.0882C36.8337 11.8019 36.8337 11.8019 36.7187 11.5625C36.4412 11.5439 36.1643 11.5316 35.8864 11.5221C35.264 11.4937 35.264 11.4937 35.0781 11.3282C34.9853 11.1176 34.9109 10.9216 34.8437 10.7032C34.8192 10.6245 34.8192 10.6245 34.7943 10.5443C34.7614 10.4374 34.7287 10.3305 34.6961 10.2235C34.4853 9.54249 34.2059 8.9305 33.8546 8.31017C33.6217 7.89404 33.4563 7.56823 33.584 7.08499C33.7744 6.68243 34.1311 6.39148 34.4531 6.09378C34.3291 5.79223 34.1252 5.58316 33.8995 5.35495C33.8606 5.31532 33.8217 5.27569 33.7816 5.23486C33.6994 5.1516 33.6171 5.06855 33.5345 4.9857C33.4082 4.85843 33.2834 4.72977 33.1586 4.60101C33.0785 4.5202 32.9983 4.43948 32.9181 4.35885C32.8809 4.32012 32.8437 4.2814 32.8053 4.2415C32.6884 4.12163 32.6884 4.12163 32.5 3.9844C32.2459 3.99107 32.1942 4.0556 32.0135 4.24105C31.9517 4.31266 31.8899 4.38426 31.8262 4.45803C31.3885 4.90336 31.3885 4.90336 31.0254 4.92678C30.6051 4.88169 30.2928 4.6707 29.9417 4.44827C29.2453 4.0336 28.4481 3.79069 27.6711 3.57314C27.401 3.49454 27.2032 3.43269 27.0312 3.20315C26.8829 2.90646 26.9238 2.52648 26.9127 2.19699C26.9111 1.84277 26.9111 1.84277 26.7187 1.56253C26.5133 1.54693 26.3163 1.54066 26.1108 1.54177C26.0507 1.54162 25.9906 1.54148 25.9287 1.54132C25.8016 1.54121 25.6744 1.5415 25.5473 1.54216C25.3523 1.54299 25.1574 1.54216 24.9624 1.54116C24.8391 1.54127 24.7157 1.54147 24.5923 1.54177C24.5045 1.5413 24.5045 1.5413 24.415 1.54082C24.0857 1.53269 24.0857 1.53269 23.8281 1.71878ZM21.3034 8.99722C20.2819 10.0596 19.7906 11.4212 19.8068 12.8857C19.8562 14.2059 20.3801 15.347 21.25 16.3282C21.2915 16.377 21.333 16.4258 21.3757 16.4762C21.9292 17.0831 22.7037 17.469 23.4433 17.8043C23.5937 17.8907 23.5937 17.8907 23.75 18.125C23.7662 18.3298 23.7735 18.5264 23.7737 18.7313C23.7743 18.7929 23.775 18.8546 23.7757 18.9181C23.7777 19.1219 23.7786 19.3256 23.7796 19.5294C23.7809 19.6708 23.7822 19.8122 23.7836 19.9535C23.7872 20.3257 23.7899 20.6979 23.7924 21.07C23.7964 21.6664 23.8015 22.2627 23.8071 22.859C23.8089 23.0678 23.8101 23.2767 23.8114 23.4855C23.8124 23.6127 23.8135 23.7399 23.8145 23.8671C23.8148 23.9256 23.815 23.9841 23.8152 24.0444C23.7943 24.3104 23.7943 24.3104 23.9062 24.5313C24.1193 24.5392 24.3303 24.5422 24.5434 24.5417C24.6392 24.5418 24.6392 24.5418 24.737 24.5419C24.8723 24.5419 25.0076 24.5418 25.1428 24.5415C25.3507 24.541 25.5585 24.5415 25.7663 24.542C25.8974 24.5419 26.0285 24.5418 26.1597 24.5417C26.2222 24.5418 26.2848 24.542 26.3493 24.5421C26.6356 24.5682 26.6356 24.5682 26.875 24.4531C26.8827 24.2579 26.8854 24.0648 26.8848 23.8696C26.885 23.8085 26.8851 23.7474 26.8853 23.6844C26.8856 23.5512 26.8857 23.4181 26.8858 23.2849C26.886 23.0019 26.8877 22.7189 26.8893 22.436C26.8923 21.9086 26.8947 21.3812 26.8946 20.8539C26.8945 20.4875 26.8963 20.1212 26.8994 19.7549C26.9002 19.6152 26.9003 19.4755 26.8997 19.3359C26.899 19.1402 26.9006 18.9447 26.9028 18.749C26.902 18.6914 26.9012 18.6337 26.9004 18.5744C26.9066 18.2655 26.9428 18.1374 27.1426 17.8962C27.3045 17.766 27.4331 17.6694 27.6224 17.5897C27.6727 17.5673 27.7231 17.5448 27.7749 17.5216C27.8276 17.4984 27.8803 17.4751 27.9346 17.4512C29.2357 16.8359 30.1526 15.6992 30.6399 14.3521C31.0758 12.9351 30.9445 11.5079 30.2734 10.1856C29.8338 9.37392 29.2429 8.72663 28.4375 8.28128C28.4372 8.33694 28.4369 8.39261 28.4366 8.44996C28.4336 8.97855 28.4292 9.5071 28.4231 10.0357C28.4201 10.3073 28.4175 10.5789 28.4163 10.8506C28.4149 11.164 28.411 11.4774 28.407 11.7908C28.4069 11.8868 28.4068 11.9828 28.4067 12.0817C28.3898 13.0901 28.1212 13.9437 27.4219 14.6875C26.7461 15.2401 26.0076 15.5211 25.1343 15.4904C24.3508 15.4105 23.624 15.0721 23.0963 14.48C22.6066 13.8271 22.34 13.2457 22.3277 12.4232C22.3261 12.3309 22.3246 12.2387 22.323 12.1436C22.3217 12.0448 22.3204 11.946 22.319 11.8442C22.3174 11.7424 22.3158 11.6407 22.3141 11.5358C22.3098 11.2663 22.3059 10.9967 22.3022 10.7271C22.2982 10.4516 22.2939 10.1762 22.2896 9.90069C22.2812 9.36089 22.2733 8.82109 22.2656 8.28128C21.9526 8.28128 21.5186 8.79616 21.3034 8.99722Z" fill="#58b347" stroke="#58b347" stroke-width="4" mask="url(#path-1-inside-1_847_4345)"/>
<mask id="path-2-inside-2_847_4345" fill="white">
<path d="M3.52053 25.9237C3.60114 25.9227 3.68175 25.9217 3.76481 25.9207C3.85196 25.9201 3.93912 25.9195 4.02892 25.9189C4.11882 25.9183 4.20873 25.9177 4.30136 25.917C4.49194 25.9159 4.68252 25.9151 4.87311 25.9145C5.16323 25.9132 5.45329 25.9097 5.74339 25.9063C5.92874 25.9055 6.11408 25.9048 6.29942 25.9043C6.38563 25.9029 6.47184 25.9016 6.56066 25.9001C7.31789 25.9023 7.89826 26.1015 8.43748 26.6407C8.74998 27.0904 8.74998 27.0904 8.74998 27.3438C9.78299 27.3914 10.6735 27.1275 11.6347 26.779C12.6388 26.4176 13.608 26.2053 14.6777 26.2159C14.8094 26.217 14.8094 26.217 14.9437 26.2182C17.086 26.2635 18.8454 27.2861 20.365 28.7382C20.6354 28.9882 20.7762 28.9946 21.1375 28.998C21.2286 28.999 21.3196 29.0001 21.4135 29.0012C21.5125 29.002 21.6115 29.0028 21.7135 29.0037C21.8691 29.0056 22.0247 29.0075 22.1803 29.0095C22.564 29.0142 22.9478 29.0181 23.3316 29.0217C23.5465 29.0237 23.7614 29.0261 23.9763 29.0289C24.1784 29.0315 24.3805 29.0336 24.5826 29.0349C25.3256 29.0453 26.0689 29.0675 26.7236 29.4532C26.7938 29.4935 26.864 29.5337 26.9363 29.5753C27.1094 29.6876 27.1094 29.6876 27.2656 29.8438C27.5587 29.8155 27.7852 29.7133 28.0432 29.5765C28.1594 29.5154 28.1594 29.5154 28.278 29.4532C28.4053 29.3855 28.4053 29.3855 28.5351 29.3165C28.7237 29.2175 28.9123 29.1186 29.1009 29.0198C29.1521 28.993 29.2032 28.9661 29.2559 28.9385C29.9097 28.5956 30.5664 28.2583 31.2233 27.9215C31.4314 27.8147 31.6393 27.7076 31.8473 27.6005C34.5651 26.2042 34.5651 26.2042 35.9088 26.5351C36.6513 26.7888 37.1871 27.2969 37.5439 27.9883C37.8804 28.709 37.9139 29.4408 37.6587 30.1948C37.2212 31.2586 36.4236 31.8009 35.4983 32.4207C35.1883 32.6285 34.8829 32.8385 34.5871 33.0662C34.5354 33.1058 34.4837 33.1454 34.4304 33.1861C34.3349 33.2601 34.2401 33.335 34.1462 33.4111C33.7999 33.6778 33.551 33.7354 33.125 33.7501C32.8384 33.6291 32.6459 33.4796 32.5 33.2032C32.4525 32.8371 32.4898 32.6135 32.7029 32.311C32.923 32.0632 33.2048 31.8973 33.4814 31.7188C33.6143 31.6303 33.7471 31.5416 33.8797 31.4527C33.9823 31.3841 33.9823 31.3841 34.0869 31.3141C34.4353 31.0782 34.777 30.8335 35.1172 30.586C35.1802 30.5411 35.2432 30.4962 35.3081 30.4499C35.7312 30.1404 35.9651 29.9111 36.084 29.3848C36.1143 29.0431 36.0365 28.8128 35.8594 28.5157C35.5369 28.2372 35.2698 28.1251 34.8437 28.1251C34.0965 28.3238 33.4149 28.7157 32.7344 29.0723C32.6155 29.1341 32.4965 29.1959 32.3776 29.2576C32.1292 29.3865 31.8809 29.5156 31.6326 29.6449C31.0604 29.9427 30.4866 30.2372 29.9128 30.5319C29.734 30.6237 29.5553 30.7156 29.3767 30.8076C29.3211 30.8362 29.2656 30.8648 29.2083 30.8942C29.1049 30.9474 29.0015 31.0006 28.8981 31.0539C28.6671 31.1727 28.4358 31.2908 28.2031 31.4063C28.2049 31.4536 28.2067 31.501 28.2086 31.5497C28.2287 32.4822 28.0381 33.3905 27.3938 34.1062C26.6852 34.7287 26.0069 34.9452 25.0876 34.9459C25.012 34.9465 24.9365 34.9472 24.8587 34.9478C24.6103 34.9497 24.3619 34.9504 24.1134 34.9509C23.9402 34.9516 23.7669 34.9523 23.5937 34.9531C23.2311 34.9543 22.8686 34.9549 22.506 34.9552C22.0416 34.9556 21.5773 34.9585 21.1129 34.9621C20.7553 34.9644 20.3978 34.965 20.0402 34.9651C19.869 34.9654 19.6978 34.9664 19.5265 34.968C19.2872 34.9701 19.0479 34.9697 18.8086 34.9688C18.7381 34.9699 18.6675 34.9711 18.5949 34.9723C18.2609 34.9684 18.0369 34.9495 17.7701 34.7377C17.5451 34.4958 17.4934 34.3914 17.5 34.0626C17.5915 33.7448 17.6538 33.5691 17.9327 33.3842C18.2767 33.2533 18.5667 33.2486 18.9314 33.2512C19.0033 33.2508 19.0751 33.2504 19.1491 33.25C19.3045 33.2492 19.4599 33.249 19.6152 33.2492C19.8612 33.2496 20.1071 33.2485 20.3531 33.247C20.9637 33.2436 21.5743 33.2428 22.185 33.2418C22.7015 33.2409 23.218 33.2391 23.7345 33.236C23.9767 33.2349 24.2189 33.2353 24.4612 33.2356C24.6097 33.2349 24.7582 33.2341 24.9068 33.2332C24.974 33.2337 25.0413 33.2342 25.1106 33.2347C25.4836 33.2309 25.7036 33.1934 26.0156 32.9688C26.0672 32.9688 26.1187 32.9688 26.1719 32.9688C26.413 32.5224 26.5394 32.0724 26.4014 31.5772C26.1307 31.132 25.893 30.9176 25.3906 30.7813C25.1438 30.7587 25.1438 30.7587 24.8836 30.7626C24.7845 30.7623 24.6854 30.762 24.5833 30.7617C24.5309 30.7619 24.4785 30.7621 24.4245 30.7623C24.2588 30.7627 24.0932 30.762 23.9275 30.7609C23.4568 30.758 22.986 30.7566 22.5153 30.7574C22.2265 30.7579 21.9377 30.7565 21.649 30.7539C21.5397 30.7532 21.4305 30.7533 21.3212 30.7542C20.5714 30.7597 19.9441 30.6965 19.3757 30.1679C19.2805 30.0684 19.1858 29.9683 19.0915 29.8679C17.8198 28.6297 16.249 27.9444 14.4815 27.9444C13.2132 27.9635 12.0706 28.412 10.8913 28.845C10.2044 29.0687 9.701 28.9844 8.90623 28.9844C8.90623 31.0727 8.90623 33.161 8.90623 35.3126C9.65389 35.3126 10.4015 35.3126 11.1719 35.3126C11.7519 35.4222 12.299 35.5426 12.8616 35.7068C13.013 35.7486 13.1644 35.7902 13.3159 35.8315C13.7097 35.9396 14.1025 36.051 14.4951 36.1633C14.8839 36.2739 15.2736 36.3813 15.6633 36.489C16.2795 36.6597 16.8953 36.832 17.5107 37.0055C18.3841 37.2516 19.2589 37.4928 20.1343 37.7317C20.2857 37.773 20.4372 37.8144 20.5886 37.8559C20.7974 37.913 21.0063 37.97 21.2152 38.0269C21.2766 38.0437 21.338 38.0605 21.4012 38.0778C22.7713 38.4496 23.8766 38.3587 25.1156 37.6552C25.6505 37.3415 26.1527 36.9861 26.6467 36.6118C27.0764 36.2866 27.3382 36.1053 27.8906 36.1719C28.1411 36.3204 28.3124 36.4325 28.414 36.7139C28.461 36.9811 28.465 37.1285 28.3481 37.3795C28.0485 37.7901 27.5971 38.065 27.1875 38.3594C27.1411 38.3931 27.0946 38.4267 27.0468 38.4613C26.4994 38.8538 25.9403 39.1969 25.332 39.4874C25.2804 39.5122 25.2288 39.537 25.1757 39.5626C23.4495 40.3526 21.7623 39.997 20.0082 39.4994C19.7177 39.4177 19.4264 39.3392 19.1351 39.2603C19.0053 39.2251 18.8755 39.1898 18.7458 39.1546C18.6787 39.1364 18.6116 39.1182 18.5425 39.0994C18.1799 39.0009 17.8173 38.9023 17.4548 38.8035C17.3359 38.771 17.3359 38.771 17.2146 38.738C16.6647 38.5876 16.1157 38.4343 15.567 38.2798C15.0793 38.1426 14.5911 38.0072 14.1027 37.8728C13.799 37.7891 13.4957 37.7047 13.1929 37.6181C11.6912 37.1894 10.324 36.914 8.74998 36.9532C8.72653 37.0143 8.70308 37.0753 8.67892 37.1383C8.46641 37.6511 8.06764 38.0012 7.56987 38.2273C7.29006 38.3294 7.03998 38.3695 6.74204 38.372C6.66951 38.3728 6.59698 38.3735 6.52225 38.3743C6.4053 38.3748 6.4053 38.3748 6.286 38.3753C6.20506 38.3757 6.12411 38.3762 6.04072 38.3766C5.86932 38.3774 5.69793 38.3779 5.52653 38.3782C5.26626 38.379 5.00603 38.3814 4.74577 38.3838C4.57884 38.3844 4.41191 38.3848 4.24498 38.3851C4.16797 38.386 4.09095 38.387 4.0116 38.388C3.29137 38.3857 2.62514 38.27 2.10169 37.7462C1.60328 37.1826 1.50514 36.5962 1.51318 35.866C1.51262 35.7763 1.51206 35.6866 1.51149 35.5943C1.51017 35.3 1.51168 35.0059 1.51335 34.7117C1.51329 34.506 1.51309 34.3004 1.51278 34.0948C1.51243 33.6647 1.51366 33.2346 1.51585 32.8046C1.51835 32.3089 1.51835 31.8134 1.51701 31.3177C1.51576 30.8388 1.5163 30.3598 1.51763 29.8808C1.51803 29.678 1.51799 29.4751 1.5175 29.2723C1.51708 28.9884 1.51868 28.7047 1.52081 28.4209C1.5203 28.3377 1.51979 28.2545 1.51926 28.1689C1.52717 27.548 1.65353 27.0676 2.05077 26.5821C2.50699 26.2088 2.91843 25.9303 3.52053 25.9237ZM3.20311 27.8126C3.16776 27.98 3.16776 27.98 3.17282 28.1684C3.17205 28.2413 3.17127 28.3143 3.17048 28.3894C3.17083 28.4693 3.17118 28.5492 3.17154 28.6315C3.17101 28.7157 3.17047 28.8 3.16992 28.8868C3.16849 29.1659 3.16879 29.445 3.16924 29.7242C3.16888 29.9177 3.16846 30.1112 3.16799 30.3048C3.16721 30.7627 3.16769 31.2206 3.16856 31.6785C3.16912 32.0439 3.16828 32.4092 3.16666 32.7746C3.16446 33.2779 3.16377 33.7811 3.16433 34.2844C3.16435 34.4766 3.16387 34.6687 3.16291 34.8608C3.16175 35.1291 3.16257 35.3972 3.16391 35.6655C3.16316 35.7454 3.1624 35.8252 3.16162 35.9075C3.16239 35.9805 3.16316 36.0534 3.16395 36.1286C3.16397 36.192 3.16399 36.2555 3.164 36.3208C3.19038 36.4982 3.19038 36.4982 3.35165 36.6219C3.53606 36.7309 3.64072 36.7492 3.85327 36.7516C3.95223 36.7535 3.95223 36.7535 4.05319 36.7554C4.12383 36.7554 4.19447 36.7554 4.26726 36.7554C4.37705 36.7563 4.37705 36.7563 4.48906 36.7572C4.64371 36.7581 4.79836 36.7583 4.95301 36.7579C5.18933 36.7579 5.42546 36.7611 5.66176 36.7646C5.81216 36.765 5.96256 36.7652 6.11296 36.7652C6.18345 36.7665 6.25393 36.7678 6.32655 36.7691C6.42588 36.768 6.42588 36.768 6.52722 36.7669C6.58509 36.767 6.64296 36.7672 6.70258 36.7674C6.9864 36.6874 7.09277 36.5659 7.26561 36.3282C7.3217 36.0591 7.3166 35.7955 7.31244 35.5214C7.31274 35.4403 7.31305 35.3593 7.31337 35.2757C7.31389 35.0079 7.31161 34.7402 7.30925 34.4724C7.30892 34.2863 7.30874 34.1002 7.3087 33.9141C7.30822 33.5242 7.30644 33.1343 7.30366 32.7444C7.30012 32.2442 7.29897 31.7442 7.29868 31.244C7.29834 30.8598 7.29714 30.4756 7.29564 30.0913C7.29495 29.9069 7.29442 29.7225 7.29407 29.538C7.29336 29.2805 7.29162 29.023 7.28955 28.7654C7.28949 28.689 7.28944 28.6126 7.28939 28.5338C7.28861 28.4636 7.28783 28.3934 7.28703 28.3211C7.28666 28.2603 7.2863 28.1994 7.28593 28.1367C7.26275 27.9452 7.211 27.8197 7.10936 27.6563C6.92745 27.5653 6.819 27.5674 6.61637 27.5656C6.51194 27.5645 6.51194 27.5645 6.40541 27.5633C6.33005 27.563 6.25469 27.5627 6.17705 27.5623C6.09979 27.5619 6.02254 27.5614 5.94294 27.561C5.77935 27.5602 5.61575 27.5597 5.45216 27.5594C5.20147 27.5587 4.95083 27.5562 4.70015 27.5538C4.54141 27.5533 4.38267 27.5528 4.22392 27.5525C4.14872 27.5516 4.07352 27.5506 3.99604 27.5496C3.89125 27.55 3.89125 27.55 3.78434 27.5503C3.72287 27.55 3.66141 27.5498 3.59808 27.5495C3.39098 27.5865 3.33283 27.6488 3.20311 27.8126Z"/>
</mask>
<path d="M3.52053 25.9237C3.60114 25.9227 3.68175 25.9217 3.76481 25.9207C3.85196 25.9201 3.93912 25.9195 4.02892 25.9189C4.11882 25.9183 4.20873 25.9177 4.30136 25.917C4.49194 25.9159 4.68252 25.9151 4.87311 25.9145C5.16323 25.9132 5.45329 25.9097 5.74339 25.9063C5.92874 25.9055 6.11408 25.9048 6.29942 25.9043C6.38563 25.9029 6.47184 25.9016 6.56066 25.9001C7.31789 25.9023 7.89826 26.1015 8.43748 26.6407C8.74998 27.0904 8.74998 27.0904 8.74998 27.3438C9.78299 27.3914 10.6735 27.1275 11.6347 26.779C12.6388 26.4176 13.608 26.2053 14.6777 26.2159C14.8094 26.217 14.8094 26.217 14.9437 26.2182C17.086 26.2635 18.8454 27.2861 20.365 28.7382C20.6354 28.9882 20.7762 28.9946 21.1375 28.998C21.2286 28.999 21.3196 29.0001 21.4135 29.0012C21.5125 29.002 21.6115 29.0028 21.7135 29.0037C21.8691 29.0056 22.0247 29.0075 22.1803 29.0095C22.564 29.0142 22.9478 29.0181 23.3316 29.0217C23.5465 29.0237 23.7614 29.0261 23.9763 29.0289C24.1784 29.0315 24.3805 29.0336 24.5826 29.0349C25.3256 29.0453 26.0689 29.0675 26.7236 29.4532C26.7938 29.4935 26.864 29.5337 26.9363 29.5753C27.1094 29.6876 27.1094 29.6876 27.2656 29.8438C27.5587 29.8155 27.7852 29.7133 28.0432 29.5765C28.1594 29.5154 28.1594 29.5154 28.278 29.4532C28.4053 29.3855 28.4053 29.3855 28.5351 29.3165C28.7237 29.2175 28.9123 29.1186 29.1009 29.0198C29.1521 28.993 29.2032 28.9661 29.2559 28.9385C29.9097 28.5956 30.5664 28.2583 31.2233 27.9215C31.4314 27.8147 31.6393 27.7076 31.8473 27.6005C34.5651 26.2042 34.5651 26.2042 35.9088 26.5351C36.6513 26.7888 37.1871 27.2969 37.5439 27.9883C37.8804 28.709 37.9139 29.4408 37.6587 30.1948C37.2212 31.2586 36.4236 31.8009 35.4983 32.4207C35.1883 32.6285 34.8829 32.8385 34.5871 33.0662C34.5354 33.1058 34.4837 33.1454 34.4304 33.1861C34.3349 33.2601 34.2401 33.335 34.1462 33.4111C33.7999 33.6778 33.551 33.7354 33.125 33.7501C32.8384 33.6291 32.6459 33.4796 32.5 33.2032C32.4525 32.8371 32.4898 32.6135 32.7029 32.311C32.923 32.0632 33.2048 31.8973 33.4814 31.7188C33.6143 31.6303 33.7471 31.5416 33.8797 31.4527C33.9823 31.3841 33.9823 31.3841 34.0869 31.3141C34.4353 31.0782 34.777 30.8335 35.1172 30.586C35.1802 30.5411 35.2432 30.4962 35.3081 30.4499C35.7312 30.1404 35.9651 29.9111 36.084 29.3848C36.1143 29.0431 36.0365 28.8128 35.8594 28.5157C35.5369 28.2372 35.2698 28.1251 34.8437 28.1251C34.0965 28.3238 33.4149 28.7157 32.7344 29.0723C32.6155 29.1341 32.4965 29.1959 32.3776 29.2576C32.1292 29.3865 31.8809 29.5156 31.6326 29.6449C31.0604 29.9427 30.4866 30.2372 29.9128 30.5319C29.734 30.6237 29.5553 30.7156 29.3767 30.8076C29.3211 30.8362 29.2656 30.8648 29.2083 30.8942C29.1049 30.9474 29.0015 31.0006 28.8981 31.0539C28.6671 31.1727 28.4358 31.2908 28.2031 31.4063C28.2049 31.4536 28.2067 31.501 28.2086 31.5497C28.2287 32.4822 28.0381 33.3905 27.3938 34.1062C26.6852 34.7287 26.0069 34.9452 25.0876 34.9459C25.012 34.9465 24.9365 34.9472 24.8587 34.9478C24.6103 34.9497 24.3619 34.9504 24.1134 34.9509C23.9402 34.9516 23.7669 34.9523 23.5937 34.9531C23.2311 34.9543 22.8686 34.9549 22.506 34.9552C22.0416 34.9556 21.5773 34.9585 21.1129 34.9621C20.7553 34.9644 20.3978 34.965 20.0402 34.9651C19.869 34.9654 19.6978 34.9664 19.5265 34.968C19.2872 34.9701 19.0479 34.9697 18.8086 34.9688C18.7381 34.9699 18.6675 34.9711 18.5949 34.9723C18.2609 34.9684 18.0369 34.9495 17.7701 34.7377C17.5451 34.4958 17.4934 34.3914 17.5 34.0626C17.5915 33.7448 17.6538 33.5691 17.9327 33.3842C18.2767 33.2533 18.5667 33.2486 18.9314 33.2512C19.0033 33.2508 19.0751 33.2504 19.1491 33.25C19.3045 33.2492 19.4599 33.249 19.6152 33.2492C19.8612 33.2496 20.1071 33.2485 20.3531 33.247C20.9637 33.2436 21.5743 33.2428 22.185 33.2418C22.7015 33.2409 23.218 33.2391 23.7345 33.236C23.9767 33.2349 24.2189 33.2353 24.4612 33.2356C24.6097 33.2349 24.7582 33.2341 24.9068 33.2332C24.974 33.2337 25.0413 33.2342 25.1106 33.2347C25.4836 33.2309 25.7036 33.1934 26.0156 32.9688C26.0672 32.9688 26.1187 32.9688 26.1719 32.9688C26.413 32.5224 26.5394 32.0724 26.4014 31.5772C26.1307 31.132 25.893 30.9176 25.3906 30.7813C25.1438 30.7587 25.1438 30.7587 24.8836 30.7626C24.7845 30.7623 24.6854 30.762 24.5833 30.7617C24.5309 30.7619 24.4785 30.7621 24.4245 30.7623C24.2588 30.7627 24.0932 30.762 23.9275 30.7609C23.4568 30.758 22.986 30.7566 22.5153 30.7574C22.2265 30.7579 21.9377 30.7565 21.649 30.7539C21.5397 30.7532 21.4305 30.7533 21.3212 30.7542C20.5714 30.7597 19.9441 30.6965 19.3757 30.1679C19.2805 30.0684 19.1858 29.9683 19.0915 29.8679C17.8198 28.6297 16.249 27.9444 14.4815 27.9444C13.2132 27.9635 12.0706 28.412 10.8913 28.845C10.2044 29.0687 9.701 28.9844 8.90623 28.9844C8.90623 31.0727 8.90623 33.161 8.90623 35.3126C9.65389 35.3126 10.4015 35.3126 11.1719 35.3126C11.7519 35.4222 12.299 35.5426 12.8616 35.7068C13.013 35.7486 13.1644 35.7902 13.3159 35.8315C13.7097 35.9396 14.1025 36.051 14.4951 36.1633C14.8839 36.2739 15.2736 36.3813 15.6633 36.489C16.2795 36.6597 16.8953 36.832 17.5107 37.0055C18.3841 37.2516 19.2589 37.4928 20.1343 37.7317C20.2857 37.773 20.4372 37.8144 20.5886 37.8559C20.7974 37.913 21.0063 37.97 21.2152 38.0269C21.2766 38.0437 21.338 38.0605 21.4012 38.0778C22.7713 38.4496 23.8766 38.3587 25.1156 37.6552C25.6505 37.3415 26.1527 36.9861 26.6467 36.6118C27.0764 36.2866 27.3382 36.1053 27.8906 36.1719C28.1411 36.3204 28.3124 36.4325 28.414 36.7139C28.461 36.9811 28.465 37.1285 28.3481 37.3795C28.0485 37.7901 27.5971 38.065 27.1875 38.3594C27.1411 38.3931 27.0946 38.4267 27.0468 38.4613C26.4994 38.8538 25.9403 39.1969 25.332 39.4874C25.2804 39.5122 25.2288 39.537 25.1757 39.5626C23.4495 40.3526 21.7623 39.997 20.0082 39.4994C19.7177 39.4177 19.4264 39.3392 19.1351 39.2603C19.0053 39.2251 18.8755 39.1898 18.7458 39.1546C18.6787 39.1364 18.6116 39.1182 18.5425 39.0994C18.1799 39.0009 17.8173 38.9023 17.4548 38.8035C17.3359 38.771 17.3359 38.771 17.2146 38.738C16.6647 38.5876 16.1157 38.4343 15.567 38.2798C15.0793 38.1426 14.5911 38.0072 14.1027 37.8728C13.799 37.7891 13.4957 37.7047 13.1929 37.6181C11.6912 37.1894 10.324 36.914 8.74998 36.9532C8.72653 37.0143 8.70308 37.0753 8.67892 37.1383C8.46641 37.6511 8.06764 38.0012 7.56987 38.2273C7.29006 38.3294 7.03998 38.3695 6.74204 38.372C6.66951 38.3728 6.59698 38.3735 6.52225 38.3743C6.4053 38.3748 6.4053 38.3748 6.286 38.3753C6.20506 38.3757 6.12411 38.3762 6.04072 38.3766C5.86932 38.3774 5.69793 38.3779 5.52653 38.3782C5.26626 38.379 5.00603 38.3814 4.74577 38.3838C4.57884 38.3844 4.41191 38.3848 4.24498 38.3851C4.16797 38.386 4.09095 38.387 4.0116 38.388C3.29137 38.3857 2.62514 38.27 2.10169 37.7462C1.60328 37.1826 1.50514 36.5962 1.51318 35.866C1.51262 35.7763 1.51206 35.6866 1.51149 35.5943C1.51017 35.3 1.51168 35.0059 1.51335 34.7117C1.51329 34.506 1.51309 34.3004 1.51278 34.0948C1.51243 33.6647 1.51366 33.2346 1.51585 32.8046C1.51835 32.3089 1.51835 31.8134 1.51701 31.3177C1.51576 30.8388 1.5163 30.3598 1.51763 29.8808C1.51803 29.678 1.51799 29.4751 1.5175 29.2723C1.51708 28.9884 1.51868 28.7047 1.52081 28.4209C1.5203 28.3377 1.51979 28.2545 1.51926 28.1689C1.52717 27.548 1.65353 27.0676 2.05077 26.5821C2.50699 26.2088 2.91843 25.9303 3.52053 25.9237ZM3.20311 27.8126C3.16776 27.98 3.16776 27.98 3.17282 28.1684C3.17205 28.2413 3.17127 28.3143 3.17048 28.3894C3.17083 28.4693 3.17118 28.5492 3.17154 28.6315C3.17101 28.7157 3.17047 28.8 3.16992 28.8868C3.16849 29.1659 3.16879 29.445 3.16924 29.7242C3.16888 29.9177 3.16846 30.1112 3.16799 30.3048C3.16721 30.7627 3.16769 31.2206 3.16856 31.6785C3.16912 32.0439 3.16828 32.4092 3.16666 32.7746C3.16446 33.2779 3.16377 33.7811 3.16433 34.2844C3.16435 34.4766 3.16387 34.6687 3.16291 34.8608C3.16175 35.1291 3.16257 35.3972 3.16391 35.6655C3.16316 35.7454 3.1624 35.8252 3.16162 35.9075C3.16239 35.9805 3.16316 36.0534 3.16395 36.1286C3.16397 36.192 3.16399 36.2555 3.164 36.3208C3.19038 36.4982 3.19038 36.4982 3.35165 36.6219C3.53606 36.7309 3.64072 36.7492 3.85327 36.7516C3.95223 36.7535 3.95223 36.7535 4.05319 36.7554C4.12383 36.7554 4.19447 36.7554 4.26726 36.7554C4.37705 36.7563 4.37705 36.7563 4.48906 36.7572C4.64371 36.7581 4.79836 36.7583 4.95301 36.7579C5.18933 36.7579 5.42546 36.7611 5.66176 36.7646C5.81216 36.765 5.96256 36.7652 6.11296 36.7652C6.18345 36.7665 6.25393 36.7678 6.32655 36.7691C6.42588 36.768 6.42588 36.768 6.52722 36.7669C6.58509 36.767 6.64296 36.7672 6.70258 36.7674C6.9864 36.6874 7.09277 36.5659 7.26561 36.3282C7.3217 36.0591 7.3166 35.7955 7.31244 35.5214C7.31274 35.4403 7.31305 35.3593 7.31337 35.2757C7.31389 35.0079 7.31161 34.7402 7.30925 34.4724C7.30892 34.2863 7.30874 34.1002 7.3087 33.9141C7.30822 33.5242 7.30644 33.1343 7.30366 32.7444C7.30012 32.2442 7.29897 31.7442 7.29868 31.244C7.29834 30.8598 7.29714 30.4756 7.29564 30.0913C7.29495 29.9069 7.29442 29.7225 7.29407 29.538C7.29336 29.2805 7.29162 29.023 7.28955 28.7654C7.28949 28.689 7.28944 28.6126 7.28939 28.5338C7.28861 28.4636 7.28783 28.3934 7.28703 28.3211C7.28666 28.2603 7.2863 28.1994 7.28593 28.1367C7.26275 27.9452 7.211 27.8197 7.10936 27.6563C6.92745 27.5653 6.819 27.5674 6.61637 27.5656C6.51194 27.5645 6.51194 27.5645 6.40541 27.5633C6.33005 27.563 6.25469 27.5627 6.17705 27.5623C6.09979 27.5619 6.02254 27.5614 5.94294 27.561C5.77935 27.5602 5.61575 27.5597 5.45216 27.5594C5.20147 27.5587 4.95083 27.5562 4.70015 27.5538C4.54141 27.5533 4.38267 27.5528 4.22392 27.5525C4.14872 27.5516 4.07352 27.5506 3.99604 27.5496C3.89125 27.55 3.89125 27.55 3.78434 27.5503C3.72287 27.55 3.66141 27.5498 3.59808 27.5495C3.39098 27.5865 3.33283 27.6488 3.20311 27.8126Z" fill="#58b347" stroke="#58b347" stroke-width="4" mask="url(#path-2-inside-2_847_4345)"/>
<mask id="path-3-inside-3_847_4345" fill="white">
<path d="M30.7812 34.1407C31.0008 34.2808 31.1335 34.3765 31.25 34.6094C31.2829 34.8484 31.2879 35.074 31.25 35.3125C31.0796 35.5278 30.9475 35.6591 30.7031 35.7813C30.3484 35.7909 30.0794 35.7706 29.8047 35.5371C29.6637 35.2669 29.6148 35.0708 29.6094 34.7657C29.8404 34.2307 30.2026 34.0339 30.7812 34.1407Z"/>
</mask>
<path d="M30.7812 34.1407C31.0008 34.2808 31.1335 34.3765 31.25 34.6094C31.2829 34.8484 31.2879 35.074 31.25 35.3125C31.0796 35.5278 30.9475 35.6591 30.7031 35.7813C30.3484 35.7909 30.0794 35.7706 29.8047 35.5371C29.6637 35.2669 29.6148 35.0708 29.6094 34.7657C29.8404 34.2307 30.2026 34.0339 30.7812 34.1407Z" fill="#58b347"/>
<path d="M30.7812 34.1407L31.8573 32.4548L31.5282 32.2447L31.1442 32.1739L30.7812 34.1407ZM31.25 34.6094L33.2314 34.3369L33.1864 34.0101L33.0389 33.715L31.25 34.6094ZM31.25 35.3125L32.8181 36.5539L33.1431 36.1434L33.2252 35.6264L31.25 35.3125ZM30.7031 35.7813L30.7572 37.7805L31.2007 37.7686L31.5976 37.5701L30.7031 35.7813ZM29.8047 35.5371L28.0315 36.4623L28.212 36.8083L28.5094 37.061L29.8047 35.5371ZM29.6094 34.7657L27.7733 33.9728L27.602 34.3694L27.6097 34.8014L29.6094 34.7657ZM30.7812 34.1407L29.7052 35.8265C29.755 35.8583 29.767 35.8668 29.7664 35.8664C29.7621 35.8633 29.7297 35.84 29.6857 35.7986C29.6389 35.7547 29.5907 35.7017 29.5465 35.6415C29.5035 35.5829 29.4761 35.5337 29.4611 35.5038L31.25 34.6094L33.0389 33.715C32.6727 32.9827 32.1562 32.6456 31.8573 32.4548L30.7812 34.1407ZM31.25 34.6094L29.2686 34.8819C29.2754 34.9306 29.2765 34.9582 29.2766 34.972C29.2766 34.9844 29.2759 34.9916 29.2748 34.9987L31.25 35.3125L33.2252 35.6264C33.3003 35.1538 33.2849 34.7259 33.2314 34.3369L31.25 34.6094ZM31.25 35.3125L29.6819 34.0711C29.6249 34.1431 29.6345 34.1233 29.6799 34.0832C29.7047 34.0613 29.7323 34.0399 29.7603 34.0213C29.7873 34.0034 29.8055 33.994 29.8087 33.9924L30.7031 35.7813L31.5976 37.5701C32.1955 37.2711 32.5426 36.902 32.8181 36.5539L31.25 35.3125ZM30.7031 35.7813L30.6491 33.782C30.6169 33.7829 30.5946 33.7832 30.5783 33.7831C30.5623 33.7831 30.5562 33.7827 30.5573 33.7828C30.559 33.7829 30.6006 33.785 30.6656 33.7998C30.7347 33.8154 30.8171 33.8422 30.9031 33.8851C30.9887 33.9278 31.0546 33.9747 31.1 34.0133L29.8047 35.5371L28.5094 37.061C29.3735 37.7955 30.29 37.7932 30.7572 37.7805L30.7031 35.7813ZM29.8047 35.5371L31.5779 34.612C31.5663 34.5898 31.5666 34.5883 31.572 34.6018C31.5782 34.6172 31.5872 34.6427 31.5954 34.6751C31.6035 34.7074 31.6075 34.7333 31.6092 34.748C31.6107 34.7606 31.6095 34.7575 31.6091 34.7299L29.6094 34.7657L27.6097 34.8014C27.6206 35.4106 27.7443 35.9118 28.0315 36.4623L29.8047 35.5371ZM29.6094 34.7657L31.4455 35.5585C31.45 35.5482 31.3446 35.7958 31.0094 35.9755C30.6732 36.1556 30.4079 36.1055 30.4183 36.1075L30.7812 34.1407L31.1442 32.1739C30.5759 32.069 29.8402 32.064 29.1205 32.4495C28.4017 32.8346 27.9998 33.4481 27.7733 33.9728L29.6094 34.7657Z" fill="#58b347" mask="url(#path-3-inside-3_847_4345)"/>
</g>
<defs>
<clipPath id="clip0_847_4345">
<rect width="40" height="40" fill="white"/>
</clipPath>
</defs>
</svg>
