<svg width="44" height="44" viewBox="0 0 44 44" fill="none" xmlns="http://www.w3.org/2000/svg">
<g clip-path="url(#clip0_2953_351)">
<path d="M14.57 22.6514C14.7492 22.6508 14.9285 22.65 15.1077 22.6492C15.5928 22.6473 16.0779 22.6471 16.563 22.6472C16.9689 22.6472 17.3749 22.6465 17.7808 22.6458C18.7392 22.6441 19.6976 22.6439 20.6561 22.6445C21.6423 22.645 22.6286 22.6431 23.6148 22.6399C24.4637 22.6372 25.3125 22.6363 26.1613 22.6366C26.6674 22.6368 27.1734 22.6363 27.6794 22.6342C28.1558 22.6323 28.6321 22.6324 29.1085 22.6342C29.2824 22.6345 29.4563 22.6341 29.6303 22.6328C31.0539 22.6234 32.2012 22.7901 33.3438 23.7188C33.4153 23.7726 33.4869 23.8264 33.5606 23.8819C34.4325 24.6218 34.8867 25.7094 35.0625 26.8125C35.3461 26.8125 35.6297 26.8125 35.9219 26.8125C35.9511 26.6556 35.9511 26.6556 35.981 26.4956C36.2984 25.0719 36.2984 25.0719 36.7813 24.75C37.0393 24.7305 37.0393 24.7305 37.3516 24.7332C37.4632 24.7338 37.5748 24.7343 37.6898 24.7349C37.8077 24.7363 37.9256 24.7378 38.0435 24.7393C38.1624 24.7401 38.2813 24.7409 38.4002 24.7416C38.6913 24.7436 38.9824 24.7465 39.2735 24.75C39.2992 24.6685 39.3249 24.587 39.3514 24.503C39.5215 24.0165 39.8833 23.7363 40.3101 23.4663C40.8868 23.2576 41.6705 23.2568 42.2329 23.5039C42.8254 23.8675 43.2008 24.3773 43.3666 25.0498C43.4569 25.6609 43.3277 26.222 42.9688 26.7266C42.5594 27.1616 42.1791 27.4664 41.5706 27.5289C40.8359 27.537 40.3311 27.509 39.7891 26.9924C39.5158 26.6971 39.373 26.5231 39.2735 26.125C38.7346 26.125 38.1958 26.125 37.6406 26.125C37.5839 26.3802 37.5272 26.6355 37.4688 26.8984C37.4038 27.0988 37.3344 27.2978 37.2593 27.4946C37.224 27.5893 37.1886 27.6841 37.1522 27.7817C37.0391 28.0156 37.0391 28.0156 36.7813 28.1875C36.2141 28.1875 35.6469 28.1875 35.0625 28.1875C35.0625 29.5488 35.0625 30.91 35.0625 32.3125C36.4521 32.3125 37.8417 32.3125 39.2735 32.3125C39.3302 32.1423 39.3869 31.9722 39.4453 31.7969C39.7445 31.3903 40.1444 31.0373 40.6485 30.9375C41.3294 30.8725 41.9825 30.8395 42.5391 31.2813C43.0316 31.7139 43.3023 32.1771 43.3985 32.8281C43.419 33.3667 43.2817 33.8492 42.9688 34.2891C42.5594 34.7241 42.1791 35.0289 41.5706 35.0914C40.8359 35.0995 40.3311 35.0715 39.7891 34.5549C39.5158 34.2596 39.373 34.0856 39.2735 33.6875C37.8839 33.6875 36.4942 33.6875 35.0625 33.6875C35.0625 35.0488 35.0625 36.41 35.0625 37.8125C35.6297 37.8125 36.1969 37.8125 36.7813 37.8125C37.1683 38.1995 37.1683 38.1995 37.2714 38.5003C37.2935 38.564 37.3157 38.6276 37.3385 38.6932C37.3602 38.7588 37.382 38.8245 37.4043 38.8921C37.4389 38.991 37.4389 38.991 37.4741 39.092C37.5687 39.3688 37.6406 39.5798 37.6406 39.875C38.1795 39.875 38.7183 39.875 39.2735 39.875C39.3302 39.7048 39.3869 39.5347 39.4453 39.3594C39.7445 38.9528 40.1444 38.5998 40.6485 38.5C41.3294 38.435 41.9825 38.402 42.5391 38.8438C43.0316 39.2764 43.3023 39.7396 43.3985 40.3906C43.419 40.9292 43.2817 41.4117 42.9688 41.8516C42.5594 42.2866 42.1791 42.5914 41.5706 42.6539C40.8359 42.662 40.3311 42.634 39.7891 42.1174C39.5266 41.8338 39.3576 41.6294 39.2735 41.25C39.1998 41.2518 39.1261 41.2536 39.0501 41.2555C38.776 41.2613 38.5018 41.2656 38.2276 41.2689C38.109 41.2706 37.9905 41.273 37.872 41.2759C37.7014 41.2801 37.5307 41.2819 37.36 41.2836C37.2574 41.2854 37.1548 41.2872 37.0491 41.289C36.7251 41.2418 36.6328 41.1641 36.4375 40.9063C36.3512 40.7372 36.3512 40.7372 36.2912 40.5622C36.269 40.4985 36.2468 40.4349 36.224 40.3693C36.2023 40.3037 36.1806 40.238 36.1582 40.1704C36.1237 40.0715 36.1237 40.0715 36.0884 39.9705C35.9938 39.6937 35.9219 39.4827 35.9219 39.1875C35.6383 39.1875 35.3547 39.1875 35.0625 39.1875C35.0483 39.3009 35.0342 39.4144 35.0196 39.5313C34.9314 39.9751 34.7634 40.3537 34.563 40.7559C34.5345 40.8137 34.5061 40.8715 34.4767 40.9311C33.8592 42.1328 32.7829 42.8084 31.5267 43.2317C31.1517 43.3231 30.8173 43.3372 30.4335 43.3361C30.3214 43.3367 30.3214 43.3367 30.2071 43.3374C29.9578 43.3387 29.7086 43.3388 29.4593 43.3388C29.2801 43.3395 29.1009 43.3402 28.9217 43.341C28.4356 43.3429 27.9494 43.3436 27.4632 43.3441C27.159 43.3444 26.8548 43.3449 26.5507 43.3455C25.4883 43.3476 24.4259 43.3488 23.3634 43.3491C22.3753 43.3494 21.3871 43.352 20.399 43.3556C19.549 43.3585 18.6991 43.3599 17.8492 43.3599C17.3423 43.36 16.8354 43.3607 16.3285 43.3632C15.8511 43.3654 15.3737 43.3656 14.8963 43.3643C14.722 43.3641 14.5476 43.3647 14.3733 43.366C12.9478 43.3766 11.8004 43.2111 10.6563 42.2813C10.5847 42.2274 10.5131 42.1736 10.4394 42.1181C9.56754 41.3783 9.11337 40.2906 8.93752 39.1875C8.65393 39.1875 8.37034 39.1875 8.07815 39.1875C8.05865 39.2921 8.03915 39.3967 8.01907 39.5044C7.70169 40.9281 7.70169 40.9281 7.21877 41.25C6.96073 41.2695 6.96073 41.2695 6.64843 41.2668C6.53682 41.2662 6.42521 41.2657 6.31022 41.2651C6.19233 41.2637 6.07445 41.2622 5.95656 41.2607C5.83767 41.2599 5.71878 41.2591 5.59989 41.2584C5.30877 41.2564 5.01769 41.2535 4.72658 41.25C4.70085 41.3171 4.67511 41.3842 4.6486 41.4534C4.45538 41.9191 4.10791 42.2661 3.68996 42.5391C3.11072 42.7396 2.32984 42.7434 1.76711 42.4961C1.29897 42.2142 0.897498 41.7547 0.687522 41.25C0.547259 40.5849 0.592585 40.0381 0.918479 39.4346C1.26133 39.0083 1.6189 38.6668 2.14846 38.5C2.82174 38.4308 3.49091 38.4033 4.03908 38.8438C4.37883 39.1676 4.61129 39.4138 4.72658 39.875C5.26541 39.875 5.80424 39.875 6.3594 39.875C6.41612 39.6198 6.47284 39.3645 6.53127 39.1016C6.59621 38.9012 6.66563 38.7022 6.74075 38.5054C6.77608 38.4107 6.81142 38.3159 6.84783 38.2184C6.96096 37.9844 6.96096 37.9844 7.21877 37.8125C7.78596 37.8125 8.35315 37.8125 8.93752 37.8125C8.93752 36.4513 8.93752 35.09 8.93752 33.6875C7.54791 33.6875 6.1583 33.6875 4.72658 33.6875C4.66987 33.8293 4.61315 33.9711 4.55471 34.1172C4.24921 34.5573 3.89849 34.963 3.35158 35.0625C2.6739 35.1264 2.01343 35.1637 1.46096 34.7188C0.933638 34.2072 0.664062 33.7861 0.604606 33.051C0.597097 32.4971 0.768942 32.058 1.11721 31.625C1.61481 31.1298 2.01686 30.9132 2.73391 30.9053C3.36582 30.9172 3.75259 31.0082 4.21096 31.4451C4.48421 31.7404 4.62705 31.9144 4.72658 32.3125C6.11619 32.3125 7.5058 32.3125 8.93752 32.3125C8.93752 30.9513 8.93752 29.59 8.93752 28.1875C8.37034 28.1875 7.80315 28.1875 7.21877 28.1875C6.8318 27.8005 6.8318 27.8005 6.72866 27.4997C6.7065 27.436 6.68435 27.3724 6.66152 27.3068C6.63981 27.2412 6.6181 27.1755 6.59573 27.1079C6.56116 27.009 6.56116 27.009 6.5259 26.908C6.4313 26.6312 6.3594 26.4202 6.3594 26.125C5.82057 26.125 5.28174 26.125 4.72658 26.125C4.66987 26.2668 4.61315 26.4086 4.55471 26.5547C4.24921 26.9948 3.89849 27.4005 3.35158 27.5C2.6739 27.5639 2.01343 27.6012 1.46096 27.1563C0.933638 26.6447 0.664062 26.2236 0.604606 25.4885C0.597097 24.9346 0.768942 24.4955 1.11721 24.0625C1.61481 23.5673 2.01686 23.3507 2.73391 23.3428C3.36582 23.3547 3.75259 23.4457 4.21096 23.8826C4.47341 24.1662 4.64245 24.3706 4.72658 24.75C4.83713 24.7473 4.83713 24.7473 4.9499 24.7445C5.22409 24.7387 5.49825 24.7344 5.77248 24.7311C5.89102 24.7294 6.00955 24.7271 6.12806 24.7241C6.29869 24.7199 6.46937 24.7181 6.64004 24.7164C6.74265 24.7146 6.84525 24.7128 6.95097 24.711C7.27497 24.7582 7.36725 24.8359 7.56252 25.0938C7.64888 25.2628 7.64888 25.2628 7.70888 25.4378C7.73104 25.5015 7.7532 25.5651 7.77602 25.6307C7.79774 25.6963 7.81945 25.762 7.84182 25.8296C7.87638 25.9285 7.87638 25.9285 7.91164 26.0295C8.00625 26.3063 8.07815 26.5173 8.07815 26.8125C8.36174 26.8125 8.64534 26.8125 8.93752 26.8125C8.9517 26.6991 8.96588 26.5856 8.98049 26.4688C9.2359 25.1899 9.97384 24.1764 11.0232 23.4428C11.323 23.2463 11.6152 23.0837 11.9453 22.9453C12.024 22.911 12.024 22.911 12.1043 22.876C12.8953 22.5866 13.7404 22.65 14.57 22.6514ZM11.086 25.3516C10.3561 26.3487 10.2996 27.3774 10.3 28.5715C10.2998 28.6772 10.2995 28.7829 10.2992 28.8919C10.2985 29.1802 10.2982 29.4686 10.2981 29.757C10.2981 29.9377 10.2979 30.1184 10.2977 30.2991C10.2969 30.931 10.2965 31.563 10.2966 32.1949C10.2966 32.7815 10.2957 33.3681 10.2944 33.9546C10.2933 34.4603 10.2928 34.9659 10.2929 35.4716C10.2929 35.7727 10.2926 36.0737 10.2917 36.3748C10.2907 36.7112 10.2911 37.0477 10.2916 37.3841C10.2912 37.4821 10.2907 37.5802 10.2902 37.6813C10.2952 38.9742 10.5039 40.0237 11.4089 40.9885C12.2831 41.785 13.3073 41.9515 14.4522 41.949C14.553 41.9493 14.553 41.9493 14.6559 41.9496C14.8794 41.9501 15.1029 41.9501 15.3264 41.95C15.4873 41.9502 15.6483 41.9505 15.8093 41.9509C16.2454 41.9516 16.6815 41.9518 17.1176 41.9519C17.3904 41.9519 17.6633 41.9521 17.9361 41.9524C18.889 41.9531 19.8419 41.9535 20.7948 41.9534C21.6813 41.9534 22.5678 41.9543 23.4543 41.9556C24.2168 41.9568 24.9794 41.9572 25.7419 41.9572C26.1967 41.9571 26.6515 41.9574 27.1063 41.9583C27.5343 41.9591 27.9623 41.9591 28.3903 41.9585C28.5468 41.9584 28.7032 41.9586 28.8596 41.9592C30.3361 41.9638 31.6063 41.9032 32.7385 40.8411C33.6389 39.8529 33.7005 38.7 33.7 37.4286C33.7003 37.3228 33.7006 37.2171 33.7009 37.1082C33.7016 36.8198 33.7018 36.5314 33.7019 36.243C33.702 36.0623 33.7021 35.8816 33.7024 35.7009C33.7032 35.069 33.7035 34.437 33.7034 33.8051C33.7034 33.2185 33.7043 32.632 33.7057 32.0454C33.7068 31.5397 33.7072 31.0341 33.7072 30.5284C33.7072 30.2273 33.7074 29.9263 33.7083 29.6252C33.7093 29.2888 33.7089 28.9524 33.7084 28.6159C33.7089 28.5179 33.7094 28.4198 33.7099 28.3187C33.7048 27.0258 33.4962 25.9763 32.5911 25.0115C31.717 24.215 30.6927 24.0485 29.5479 24.051C29.447 24.0507 29.447 24.0507 29.3441 24.0504C29.1206 24.0499 28.8972 24.0499 28.6737 24.05C28.5127 24.0498 28.3517 24.0495 28.1907 24.0491C27.7546 24.0484 27.3185 24.0482 26.8824 24.0481C26.6096 24.0481 26.3368 24.0479 26.0639 24.0477C25.111 24.0469 24.1581 24.0465 23.2052 24.0466C22.3188 24.0466 21.4323 24.0457 20.5458 24.0444C19.7832 24.0432 19.0207 24.0428 18.2581 24.0428C17.8033 24.0429 17.3486 24.0426 16.8938 24.0417C16.4658 24.0409 16.0377 24.0409 15.6097 24.0415C15.4533 24.0416 15.2968 24.0414 15.1404 24.0409C13.5727 24.036 12.2089 24.1192 11.086 25.3516ZM2.28811 24.9756C2.1066 25.2409 2.09587 25.3798 2.14846 25.6953C2.27737 25.9102 2.27737 25.9102 2.49221 26.0391C2.80775 26.0917 2.94666 26.0809 3.21194 25.8994C3.39344 25.6341 3.40417 25.4952 3.35158 25.1797C3.22268 24.9648 3.22268 24.9648 3.00783 24.8359C2.6923 24.7834 2.55339 24.7941 2.28811 24.9756ZM40.7881 24.9756C40.6066 25.2409 40.5959 25.3798 40.6485 25.6953C40.7774 25.9102 40.7774 25.9102 40.9922 26.0391C41.3077 26.0917 41.4467 26.0809 41.7119 25.8994C41.8934 25.6341 41.9042 25.4952 41.8516 25.1797C41.7227 24.9648 41.7227 24.9648 41.5078 24.8359C41.1923 24.7834 41.0534 24.7941 40.7881 24.9756ZM2.28811 32.5381C2.1066 32.8034 2.09587 32.9423 2.14846 33.2578C2.27737 33.4727 2.27737 33.4727 2.49221 33.6016C2.80775 33.6542 2.94666 33.6434 3.21194 33.4619C3.39344 33.1966 3.40417 33.0577 3.35158 32.7422C3.22268 32.5273 3.22268 32.5273 3.00783 32.3984C2.6923 32.3459 2.55339 32.3566 2.28811 32.5381ZM40.7881 32.5381C40.6066 32.8034 40.5959 32.9423 40.6485 33.2578C40.7774 33.4727 40.7774 33.4727 40.9922 33.6016C41.3077 33.6542 41.4467 33.6434 41.7119 33.4619C41.8934 33.1966 41.9042 33.0577 41.8516 32.7422C41.7227 32.5273 41.7227 32.5273 41.5078 32.3984C41.1923 32.3459 41.0534 32.3566 40.7881 32.5381ZM2.28811 40.1006C2.1066 40.3659 2.09587 40.5048 2.14846 40.8203C2.27737 41.0352 2.27737 41.0352 2.49221 41.1641C2.80775 41.2167 2.94666 41.2059 3.21194 41.0244C3.39344 40.7591 3.40417 40.6202 3.35158 40.3047C3.22268 40.0898 3.22268 40.0898 3.00783 39.9609C2.6923 39.9084 2.55339 39.9191 2.28811 40.1006ZM40.7881 40.1006C40.6066 40.3659 40.5959 40.5048 40.6485 40.8203C40.7774 41.0352 40.7774 41.0352 40.9922 41.1641C41.3077 41.2167 41.4467 41.2059 41.7119 41.0244C41.8934 40.7591 41.9042 40.6202 41.8516 40.3047C41.7227 40.0898 41.7227 40.0898 41.5078 39.9609C41.1923 39.9084 41.0534 39.9191 40.7881 40.1006Z" fill="#58b347"/>
<path d="M28.3161 2.72417C28.5968 2.95308 28.8655 3.19308 29.1328 3.43752C29.2358 3.52991 29.2358 3.52991 29.3409 3.62417C30.3144 4.54236 30.9994 5.66094 31.5391 6.87502C31.6012 7.01244 31.6012 7.01244 31.6646 7.15264C32.68 9.58039 32.5921 12.459 31.6519 14.8887C31.1436 16.1249 30.462 17.1492 29.5625 18.1328C29.5009 18.2015 29.4393 18.2702 29.3759 18.341C28.4577 19.3144 27.3391 19.9994 26.125 20.5391C26.0334 20.5805 25.9418 20.6219 25.8474 20.6646C23.4253 21.6777 20.5322 21.5944 18.106 20.6519C16.8729 20.1425 15.849 19.4603 14.8672 18.5625C14.7985 18.5009 14.7298 18.4393 14.6591 18.3759C13.6856 17.4577 13.0006 16.3391 12.4609 15.125C12.4195 15.0334 12.3781 14.9418 12.3354 14.8474C11.32 12.4197 11.4079 9.54104 12.3481 7.11135C12.8564 5.87514 13.538 4.85085 14.4375 3.86721C14.4991 3.79853 14.5607 3.72984 14.6241 3.65908C15.5423 2.68566 16.6609 2.00062 17.875 1.46096C17.9666 1.41953 18.0582 1.3781 18.1526 1.33541C21.4237 -0.0327376 25.5336 0.531081 28.3161 2.72417ZM16.2422 4.21096C16.1817 4.25726 16.1212 4.30357 16.0589 4.35128C14.7444 5.41035 13.9108 7.01434 13.4062 8.59377C13.3622 8.72737 13.3622 8.72737 13.3173 8.86367C12.7169 11.0866 13.1903 13.5272 14.3032 15.501C14.5755 15.947 14.8756 16.3575 15.2109 16.7578C15.2609 16.8203 15.3109 16.8828 15.3623 16.9472C16.4523 18.2543 17.994 19.0828 19.5937 19.5938C19.6828 19.6231 19.7719 19.6525 19.8636 19.6827C22.0864 20.2831 24.5191 19.8089 26.4956 18.7022C26.979 18.4078 27.4119 18.0676 27.8437 17.7031C27.9199 17.6458 27.9199 17.6458 27.9975 17.5873C29.2969 16.5804 30.1048 14.9368 30.5937 13.4063C30.6231 13.3172 30.6525 13.2281 30.6827 13.1364C31.0922 11.6202 30.9995 9.82064 30.5078 8.33596C30.4747 8.23593 30.4416 8.13589 30.4074 8.03283C30.0295 6.98463 29.4811 6.11122 28.7891 5.24221C28.7395 5.17929 28.69 5.11636 28.639 5.05154C27.2285 3.3468 25.012 2.34871 22.8433 2.11623C20.3816 1.89783 18.1465 2.66831 16.2422 4.21096Z" fill="#58b347"/>
<path d="M16.6494 26.0856C17.0405 26.1648 17.3673 26.3713 17.7086 26.5708C17.7907 26.6172 17.8729 26.6636 17.9575 26.7115C18.1306 26.8095 18.3034 26.9081 18.4758 27.0074C18.7237 27.15 18.9725 27.2909 19.2219 27.4311C19.5491 27.6152 19.8759 27.8 20.2024 27.9854C20.7289 28.284 21.2569 28.5796 21.7852 28.875C22.5546 29.3052 23.3226 29.7376 24.0895 30.1721C24.5248 30.4186 24.9609 30.6637 25.3979 30.9069C28.0514 32.3839 28.0514 32.3839 28.1876 32.6562C28.2475 33.2659 28.2475 33.2659 28.0298 33.5485C27.6765 33.874 27.2353 34.0744 26.8126 34.2944C26.6253 34.3938 26.4381 34.4934 26.2509 34.5932C26.1572 34.643 26.0635 34.6929 25.9669 34.7443C25.5734 34.9563 25.1856 35.1775 24.7984 35.4008C24.1472 35.7756 23.4938 36.146 22.838 36.5127C22.7481 36.5629 22.6583 36.6131 22.5658 36.6649C22.3829 36.7671 22.2 36.8693 22.0171 36.9714C21.5637 37.2247 21.1105 37.4782 20.6573 37.7319C20.5252 37.8058 20.5252 37.8058 20.3905 37.8812C19.6855 38.2761 18.9818 38.6732 18.2787 39.0715C18.1293 39.1561 17.9799 39.2405 17.8303 39.3247C17.6871 39.4057 17.5445 39.4878 17.4023 39.5708C17.3347 39.6098 17.267 39.6488 17.1973 39.689C17.1083 39.7411 17.1083 39.7411 17.0175 39.7942C16.7089 39.9377 16.4921 39.9262 16.1563 39.875C15.9113 39.6915 15.823 39.5901 15.7693 39.2859C15.7692 39.1903 15.769 39.0947 15.7689 38.9963C15.7679 38.8864 15.767 38.7765 15.766 38.6633C15.7666 38.5417 15.7673 38.4201 15.7681 38.2985C15.7676 38.1704 15.767 38.0422 15.7663 37.914C15.7647 37.566 15.7653 37.218 15.7664 36.87C15.7673 36.5059 15.7664 36.1418 15.7659 35.7777C15.7653 35.1662 15.7661 34.5547 15.7677 33.9433C15.7696 33.2362 15.769 32.5292 15.7671 31.8221C15.7656 31.2152 15.7653 30.6083 15.7662 30.0013C15.7668 29.6388 15.7668 29.2762 15.7657 28.9137C15.7647 28.5728 15.7654 28.232 15.7674 27.8912C15.7678 27.766 15.7677 27.6409 15.767 27.5158C15.766 27.3451 15.7674 27.1743 15.7689 27.0036C15.769 26.9081 15.7692 26.8125 15.7693 26.7141C15.8566 26.219 16.1624 26.0589 16.6494 26.0856ZM17.1876 28.1015C17.1876 31.3345 17.1876 34.5675 17.1876 37.8984C17.5338 37.783 17.7725 37.7021 18.0728 37.5265C18.1758 37.4668 18.1758 37.4668 18.2808 37.406C18.3543 37.3629 18.4278 37.3198 18.5035 37.2754C18.6656 37.1815 18.8277 37.0877 18.9899 36.994C19.0747 36.945 19.1594 36.8959 19.2467 36.8454C19.6827 36.5948 20.1216 36.3496 20.5606 36.1045C20.6503 36.0543 20.74 36.0042 20.8324 35.9525C21.0154 35.8502 21.1984 35.7479 21.3815 35.6457C21.8349 35.3924 22.2881 35.1389 22.7413 34.8852C22.8289 34.8362 22.9165 34.7872 23.0067 34.7367C23.7299 34.3316 24.4517 33.9241 25.1727 33.5154C25.2503 33.4715 25.3278 33.4276 25.4077 33.3823C25.4759 33.3436 25.5441 33.3049 25.6145 33.2651C25.726 33.2028 25.8389 33.143 25.9532 33.0859C25.9532 33.0292 25.9532 32.9725 25.9532 32.914C25.9002 32.8856 25.8471 32.8571 25.7925 32.8278C24.7793 32.2836 23.7705 31.7335 22.7735 31.1599C22.1956 30.8276 21.6151 30.5001 21.0333 30.1748C20.9446 30.1252 20.8559 30.0756 20.7645 30.0245C20.4889 29.8704 20.2132 29.7164 19.9376 29.5625C19.5436 29.3423 19.1498 29.1221 18.7559 28.9018C18.6201 28.826 18.6201 28.826 18.4816 28.7486C18.3548 28.6777 18.3548 28.6777 18.2255 28.6054C18.1514 28.564 18.0774 28.5226 18.001 28.48C17.8514 28.3948 17.7038 28.3061 17.5577 28.2151C17.3727 28.0873 17.3727 28.0873 17.1876 28.1015Z" fill="#58b347"/>
<path d="M17.1874 5.50004C19.7244 5.36166 22.1874 6.33846 24.0692 8.02042C24.152 8.0962 24.2349 8.17197 24.3203 8.25004C24.3889 8.31163 24.4576 8.37322 24.5284 8.43668C25.5023 9.35531 26.1856 10.4735 26.7265 11.6875C26.7679 11.7782 26.8094 11.8688 26.8521 11.9621C27.3715 13.1931 27.553 14.4868 27.4999 15.8125C27.0178 15.8125 26.5357 15.8125 26.039 15.8125C26.0294 15.6563 26.0294 15.6563 26.0195 15.497C25.8654 13.4014 25.2052 11.6875 23.8906 10.0547C23.8506 10.0006 23.8106 9.94638 23.7694 9.89057C22.5384 8.29821 20.3307 7.34215 18.3906 7.04691C18.0883 7.01744 17.7872 6.99447 17.4839 6.9791C17.2734 6.96098 17.2734 6.96098 17.1874 6.87504C17.1812 6.6433 17.1795 6.41382 17.1821 6.18217C17.1825 6.11697 17.1828 6.05178 17.1832 5.98461C17.1843 5.82308 17.1858 5.66156 17.1874 5.50004Z" fill="#58b347"/>
<path d="M17.1874 8.24999C18.6536 8.1582 19.8825 8.5606 21.1406 9.28124C21.2137 9.32279 21.2868 9.36433 21.3621 9.40713C23.0103 10.4298 24.1555 12.1057 24.6157 13.9756C24.7568 14.5938 24.7791 15.1773 24.7499 15.8125C24.2678 15.8125 23.7857 15.8125 23.289 15.8125C23.2695 15.6122 23.25 15.4119 23.2299 15.2056C23.0283 13.4826 22.2247 12.041 20.8697 10.9453C19.8537 10.1957 18.7566 9.86999 17.5184 9.74181C17.2734 9.71093 17.2734 9.71093 17.1874 9.62499C17.1812 9.39326 17.1795 9.16377 17.1821 8.93212C17.1825 8.86693 17.1828 8.80174 17.1832 8.73457C17.1843 8.57304 17.1858 8.41152 17.1874 8.24999Z" fill="#58b347"/>
<path d="M17.1875 11C18.3729 10.9188 19.3632 11.2851 20.2812 12.0312C20.3528 12.0851 20.4244 12.1389 20.4981 12.1944C21.2593 12.8403 21.8086 13.8929 22 14.8672C22.0125 15.1838 22.0078 15.4953 22 15.8125C21.5179 15.8125 21.0358 15.8125 20.5391 15.8125C20.5196 15.6601 20.5001 15.5076 20.48 15.3506C20.3241 14.4302 19.892 13.6373 19.1275 13.0833C18.4857 12.6801 17.946 12.5557 17.1875 12.4609C17.1875 11.9788 17.1875 11.4967 17.1875 11Z" fill="#58b347"/>
</g>
<defs>
<clipPath id="clip0_2953_351">
<rect width="44" height="44" fill="white"/>
</clipPath>
</defs>
</svg>
