<svg width="44" height="44" viewBox="0 0 44 44" fill="none" xmlns="http://www.w3.org/2000/svg">
<g clip-path="url(#clip0_2953_1264)">
<path d="M20.2168 -0.0571119C20.36 -0.057402 20.5031 -0.0578196 20.6463 -0.0583576C20.945 -0.0589881 21.2437 -0.0580804 21.5425 -0.0560629C21.9233 -0.0536148 22.304 -0.0550261 22.6849 -0.0575979C22.9801 -0.0591588 23.2753 -0.0586527 23.5705 -0.057543C23.7108 -0.0572586 23.8512 -0.0576001 23.9915 -0.0586084C24.8544 -0.0634496 25.5913 -0.0261804 26.2781 0.560404C26.9659 1.27953 27.0358 2.15128 27.0368 3.10243C27.0382 3.21567 27.0396 3.3289 27.0411 3.44556C27.0448 3.74365 27.0465 4.04172 27.0478 4.33983C27.0495 4.6452 27.0531 4.95055 27.0566 5.25591C27.063 5.85287 27.0674 6.44984 27.0703 7.04683C27.1154 7.06546 27.1604 7.0841 27.2068 7.10329C28.8885 7.80053 28.8885 7.80053 29.5464 8.15328C29.6133 8.18888 29.6802 8.22449 29.7492 8.26118C30.3859 8.60784 30.9661 9.01039 31.5391 9.45308C31.6149 9.50969 31.6906 9.5663 31.7687 9.62462C35.057 12.1805 37.0935 15.9591 37.6729 20.0556C37.8959 22.118 37.8615 24.5876 37.0781 26.5452C36.8955 27.0903 36.9181 27.6357 36.9215 28.2051C36.9212 28.3269 36.9209 28.4486 36.9205 28.5704C36.9198 28.8312 36.9198 29.092 36.9205 29.3528C36.9215 29.7657 36.9204 30.1785 36.9191 30.5914C36.916 31.6165 36.9154 32.6416 36.9156 33.6667C36.9158 34.4644 36.9152 35.262 36.9122 36.0596C36.9108 36.4696 36.9109 36.8795 36.9123 37.2895C36.9128 37.545 36.9118 37.8004 36.9105 38.0558C36.9101 38.2297 36.9113 38.4036 36.9126 38.5775C36.9072 39.2584 36.8598 39.7803 36.3697 40.2939C36.0312 40.5013 35.7831 40.5838 35.3828 40.5732C35.3064 40.5716 35.23 40.5701 35.1514 40.5685C35.0648 40.5655 35.0648 40.5655 34.9766 40.5625C34.9784 40.6513 34.9802 40.7402 34.982 40.8317C34.9883 41.1625 34.9922 41.4932 34.9955 41.8239C34.9972 41.9669 34.9995 42.1098 35.0025 42.2528C35.0067 42.4586 35.0086 42.6644 35.0102 42.8703C35.0119 42.9339 35.0137 42.9975 35.0155 43.063C35.0157 43.3808 34.9863 43.5551 34.8134 43.8255C34.6328 44 34.6328 44 34.461 44.054C34.4042 44.0521 34.3475 44.0502 34.2891 44.0483C34.2324 44.0484 34.1757 44.0485 34.1172 44.0486C33.859 43.9755 33.765 43.8696 33.6016 43.6562C33.5716 43.4079 33.5614 43.1934 33.568 42.9459C33.5685 42.8777 33.569 42.8095 33.5695 42.7393C33.5714 42.5221 33.5757 42.305 33.5801 42.0878C33.5818 41.9404 33.5834 41.7929 33.5848 41.6454C33.5886 41.2844 33.5945 40.9234 33.6016 40.5625C33.5204 40.5639 33.4392 40.5653 33.3556 40.5668C33.0801 40.5624 32.9618 40.5323 32.7315 40.3906C32.6763 40.3587 32.6211 40.3268 32.5643 40.2939C32.0532 39.7972 32.0136 39.246 32.0027 38.5681C32.0025 38.4014 32.0025 38.4014 32.0023 38.2314C32.0011 38.1149 31.9996 37.9983 31.998 37.8818C31.9943 37.5772 31.9926 37.2726 31.9913 36.968C31.9896 36.6563 31.986 36.3446 31.9825 36.0329C31.9761 35.423 31.9718 34.8131 31.9688 34.2031C31.8583 34.2894 31.8583 34.2894 31.7455 34.3775C28.4175 36.9659 24.3139 38.1102 20.1165 37.6604C19.0547 37.5272 18.0352 37.2749 17.0157 36.9531C16.9549 36.9342 16.8942 36.9153 16.8317 36.8958C15.0634 36.3306 13.4713 35.3566 12.0313 34.2031C12.031 34.2672 12.0307 34.3314 12.0303 34.3975C12.0271 35.0043 12.0222 35.6111 12.0155 36.2179C12.0121 36.5299 12.0093 36.8418 12.008 37.1537C12.0067 37.4552 12.0037 37.7566 11.9996 38.0581C11.9977 38.2281 11.9976 38.3981 11.9974 38.5681C11.9864 39.2502 11.9388 39.7794 11.4478 40.2939C11.1093 40.5013 10.8612 40.5838 10.4609 40.5732C10.3845 40.5716 10.3082 40.5701 10.2295 40.5685C10.143 40.5655 10.143 40.5655 10.0547 40.5625C10.0565 40.6513 10.0583 40.7402 10.0602 40.8317C10.0664 41.1625 10.0703 41.4932 10.0736 41.8239C10.0753 41.9669 10.0777 42.1098 10.0806 42.2528C10.0848 42.4586 10.0868 42.6644 10.0883 42.8703C10.0901 42.9339 10.0918 42.9975 10.0937 43.063C10.0938 43.3808 10.0644 43.5551 9.89148 43.8255C9.71097 44 9.71097 44 9.53909 44.054C9.48237 44.0521 9.42565 44.0502 9.36722 44.0483C9.3105 44.0484 9.25378 44.0485 9.19534 44.0486C8.93708 43.9755 8.84309 43.8696 8.67972 43.6562C8.64971 43.4079 8.63948 43.1934 8.64615 42.9459C8.64663 42.8777 8.64712 42.8095 8.64762 42.7393C8.64954 42.5221 8.65385 42.305 8.65823 42.0878C8.65996 41.9404 8.66152 41.7929 8.66293 41.6454C8.66672 41.2844 8.67265 40.9234 8.67972 40.5625C8.59853 40.5639 8.51734 40.5653 8.43369 40.5668C8.15825 40.5624 8.03995 40.5323 7.8096 40.3906C7.75443 40.3587 7.69926 40.3268 7.64242 40.2939C7.22714 39.8904 7.11161 39.4612 7.09113 38.8994C7.08993 38.6818 7.09059 38.4641 7.09275 38.2465C7.0927 38.126 7.09249 38.0055 7.09215 37.885C7.0917 37.6265 7.0923 37.368 7.09371 37.1095C7.09588 36.6993 7.09533 36.2892 7.09436 35.879C7.09237 34.8596 7.09394 33.8403 7.09621 32.821C7.09793 32.0294 7.09864 31.2378 7.09647 30.4462C7.09563 30.106 7.09564 29.7658 7.09774 29.4255C7.1109 27.438 7.1109 27.438 6.61722 25.5234C6.5532 25.2674 6.50955 25.0161 6.46682 24.7553C6.45237 24.6715 6.45237 24.6715 6.43762 24.586C5.75483 20.4852 6.77572 16.3017 9.1094 12.8906C9.32673 12.5927 9.55531 12.3096 9.7969 12.0312C9.85373 11.965 9.91056 11.8987 9.96911 11.8305C10.1656 11.6069 10.3666 11.3888 10.5703 11.1718C10.6131 11.1262 10.6558 11.0805 10.6999 11.0334C12.4348 9.19506 14.5647 7.91986 16.9297 7.04683C16.93 6.98414 16.9303 6.92145 16.9307 6.85686C16.9339 6.26272 16.9388 5.6686 16.9455 5.07448C16.9489 4.76912 16.9517 4.46378 16.953 4.1584C16.9546 3.80638 16.9589 3.45443 16.9633 3.10243C16.9634 2.99408 16.9635 2.88573 16.9636 2.7741C16.9774 1.93648 17.1256 1.18392 17.7219 0.560404C18.4678 -0.0765695 19.2883 -0.0637838 20.2168 -0.0571119ZM18.7344 1.54683C18.437 1.9739 18.3403 2.29767 18.347 2.82025C18.3465 2.88526 18.3459 2.95028 18.3454 3.01726C18.344 3.23372 18.3451 3.4501 18.3462 3.66657C18.3457 3.82231 18.3451 3.97806 18.3443 4.1338C18.3428 4.55586 18.3434 4.97788 18.3445 5.39993C18.3453 5.84203 18.3445 6.28412 18.344 6.72621C18.3434 7.46857 18.3442 8.21092 18.3458 8.95328C18.3477 9.81103 18.3471 10.6687 18.3452 11.5265C18.3436 12.2635 18.3434 13.0005 18.3443 13.7375C18.3449 14.1774 18.3449 14.6174 18.3438 15.0573C18.3428 15.4709 18.3435 15.8845 18.3455 16.2982C18.3459 16.4498 18.3458 16.6014 18.345 16.7531C18.3441 16.9604 18.3453 17.1676 18.347 17.375C18.3462 17.4347 18.3455 17.4944 18.3447 17.5559C18.352 18.0173 18.4765 18.2782 18.7344 18.6484C19.3223 18.9792 19.9317 18.9437 20.5928 18.9404C20.7046 18.9407 20.8165 18.9409 20.9317 18.9412C21.1675 18.9416 21.4032 18.941 21.639 18.9398C21.9395 18.9383 22.2399 18.9392 22.5404 18.9407C22.8294 18.9419 23.1183 18.9411 23.4073 18.9404C23.5143 18.941 23.6214 18.9415 23.7317 18.942C24.2979 18.9375 24.7662 18.9295 25.2657 18.6484C25.5631 18.2213 25.6598 17.8976 25.6531 17.375C25.6539 17.2775 25.6539 17.2775 25.6547 17.178C25.656 16.9615 25.655 16.7451 25.6539 16.5287C25.6543 16.3729 25.655 16.2172 25.6557 16.0614C25.6573 15.6394 25.6567 15.2173 25.6556 14.7953C25.6547 14.3532 25.6555 13.9111 25.6561 13.469C25.6567 12.7267 25.6559 11.9843 25.6542 11.2419C25.6523 10.3842 25.653 9.52647 25.6548 8.66873C25.6564 7.93172 25.6566 7.19473 25.6557 6.45773C25.6552 6.0178 25.6551 5.57787 25.6563 5.13794C25.6572 4.72429 25.6566 4.31069 25.6546 3.89705C25.6541 3.74542 25.6542 3.59378 25.655 3.44216C25.6559 3.23481 25.6548 3.02759 25.6531 2.82025C25.6542 2.73071 25.6542 2.73071 25.6554 2.63935C25.648 2.17796 25.5235 1.91705 25.2657 1.54683C24.6778 1.21599 24.0683 1.25156 23.4073 1.25478C23.2954 1.25453 23.1836 1.25428 23.0683 1.25403C22.8326 1.25365 22.5968 1.2542 22.3611 1.25541C22.0606 1.25688 21.7601 1.25603 21.4596 1.25449C21.1707 1.25332 20.8817 1.25414 20.5928 1.25478C20.4857 1.25426 20.3786 1.25373 20.2683 1.2532C19.7021 1.25775 19.2338 1.26576 18.7344 1.54683ZM12.2891 11.4296C12.2436 11.4713 12.1982 11.513 12.1513 11.556C9.4369 14.075 7.76416 17.6974 7.62396 21.4024C7.55102 24.744 8.49449 28.0292 10.5703 30.6796C10.6263 30.7531 10.6822 30.8265 10.7399 30.9022C11.8886 32.3645 13.2575 33.533 14.8672 34.4609C15.011 34.5456 15.011 34.5456 15.1576 34.6321C16.526 35.4158 18.0439 35.9106 19.5938 36.1796C19.7023 36.1989 19.8109 36.2182 19.9228 36.2381C23.5064 36.7763 27.2824 35.8774 30.2339 33.7734C30.3834 33.6599 30.532 33.5453 30.6797 33.4296C30.7532 33.3737 30.8266 33.3178 30.9023 33.2601C32.3646 32.1113 33.5331 30.7425 34.461 29.1328C34.5175 29.0369 34.574 28.9411 34.6322 28.8424C35.416 27.4738 35.9101 25.9562 36.1797 24.4062C36.199 24.2986 36.2183 24.1911 36.2381 24.0802C36.7815 20.4891 35.8648 16.666 33.7374 13.721C33.246 13.0612 32.7117 12.4512 32.1407 11.8593C32.0774 11.7916 32.0141 11.724 31.949 11.6542C30.6615 10.3104 28.9615 9.28738 27.2422 8.59371C27.1571 8.59371 27.0721 8.59371 26.9844 8.59371C26.9844 9.30269 26.9844 10.0117 26.9844 10.7421C27.2201 10.8698 27.4559 10.9974 27.6988 11.1289C28.3264 11.4751 28.9162 11.8398 29.4766 12.289C29.5203 12.3237 29.564 12.3583 29.609 12.394C32.1582 14.4277 33.7962 17.3531 34.176 20.5998C34.4448 23.7837 33.6986 27.0249 31.668 29.5463C31.54 29.6957 31.4111 29.8444 31.2813 29.9921C31.2215 30.0634 31.1616 30.1346 31.1 30.208C29.1355 32.4915 26.1458 33.9173 23.164 34.1875C19.9587 34.4154 16.6994 33.5919 14.2264 31.4732C14.1543 31.4099 14.0821 31.3465 14.0078 31.2812C13.901 31.1915 13.901 31.1915 13.792 31.0999C11.5504 29.1715 10.0575 26.1647 9.80937 23.2257C9.59309 19.8504 10.4594 16.5797 12.7188 14.0078C12.7776 13.9375 12.8364 13.8673 12.897 13.7949C14.057 12.4441 15.4732 11.5991 17.0157 10.7421C17.0157 10.0332 17.0157 9.32417 17.0157 8.59371C15.4242 8.59371 13.4119 10.3921 12.2891 11.4296ZM14.0968 14.4291C12.0003 16.5807 11.0335 19.4831 11.0675 22.4511C11.145 25.3479 12.5017 28.0251 14.5536 30.0245C16.7697 32.1073 19.7034 33.006 22.7036 32.9257C25.5588 32.7874 28.2079 31.3792 30.1426 29.3208C32.1969 27.0482 33.0606 24.0788 32.9141 21.0546C32.6624 18.1534 31.2216 15.5503 29.066 13.6304C28.4296 13.1002 27.7266 12.6539 26.9844 12.289C26.7915 13.7052 26.7915 13.7052 27.1647 14.9971C27.4099 15.1837 27.6577 15.3244 27.9297 15.4687C29.555 16.8583 30.5992 19.0142 30.7657 21.1406C30.8935 23.4988 30.3602 25.7928 28.8096 27.6295C27.1214 29.5092 25.0371 30.6523 22.477 30.7978C20.1626 30.8762 17.9697 30.2027 16.2207 28.6601C16.0841 28.5318 15.948 28.4029 15.8125 28.2734C15.7545 28.2218 15.6964 28.1701 15.6366 28.117C14.2054 26.7945 13.3307 24.6807 13.2237 22.7525C13.1456 20.3317 13.7052 17.9836 15.3828 16.1616C16.3645 15.1287 16.3645 15.1287 16.8521 14.8501C17.0405 14.7033 17.0405 14.7033 17.0547 14.4451C17.052 14.2959 17.052 14.2959 17.0492 14.1437C17.0476 13.9821 17.0476 13.9821 17.0459 13.8173C17.043 13.7047 17.0401 13.592 17.0371 13.476C17.0354 13.3613 17.0338 13.2465 17.0324 13.1318C17.0284 12.8508 17.0227 12.5699 17.0157 12.289C16.099 12.289 14.7135 13.8173 14.0968 14.4291ZM16.586 16.8115C15.1832 18.2321 14.5011 20.1878 14.5021 22.1613C14.5322 24.3038 15.5213 26.1589 17.0301 27.6329C18.6422 29.0293 20.6691 29.6008 22.7735 29.4765C24.769 29.2676 26.5428 28.2284 27.8438 26.7265C29.0899 25.0731 29.6739 23.1107 29.4578 21.0474C29.2059 19.2642 28.3718 17.6468 26.9844 16.5C26.9832 16.5752 26.9832 16.5752 26.982 16.652C26.9369 18.8879 26.9369 18.8879 26.211 19.5937C25.6844 19.9686 25.3055 20.1195 24.6505 20.1259C24.5569 20.127 24.5569 20.127 24.4615 20.128C24.255 20.1302 24.0485 20.1316 23.842 20.1328C23.7712 20.1333 23.7005 20.1337 23.6276 20.1342C23.2527 20.1365 22.8778 20.1382 22.503 20.1394C22.1938 20.1406 21.8847 20.143 21.5755 20.1465C21.2013 20.1507 20.8272 20.1528 20.453 20.1534C20.311 20.154 20.1689 20.1553 20.0269 20.1574C19.244 20.1681 18.5288 20.1757 17.875 19.6796C17.2215 19.0033 17.0645 18.2716 17.0425 17.3593C17.0381 17.2349 17.0381 17.2349 17.0336 17.1079C17.0266 16.9053 17.0206 16.7027 17.0157 16.5C16.8411 16.5 16.7026 16.7001 16.586 16.8115ZM8.50784 30.164C8.50784 33.1418 8.50784 36.1195 8.50784 39.1875C8.82181 39.3444 9.19348 39.2893 9.53909 39.2895C9.65873 39.2911 9.65873 39.2911 9.78079 39.2927C9.89511 39.2929 9.89511 39.2929 10.0117 39.2932C10.0818 39.2936 10.1518 39.2939 10.2239 39.2943C10.418 39.2893 10.418 39.2893 10.5703 39.1015C10.6016 38.8335 10.6016 38.8335 10.6035 38.5132C10.6049 38.4527 10.6063 38.3922 10.6077 38.3298C10.612 38.1288 10.6149 37.9279 10.6173 37.7269C10.6183 37.658 10.6192 37.5892 10.6201 37.5183C10.6247 37.1534 10.628 36.7884 10.6305 36.4235C10.6328 36.1226 10.6376 35.8219 10.6446 35.521C10.6531 35.1569 10.6574 34.793 10.6586 34.4289C10.6597 34.2907 10.6623 34.1526 10.6665 34.0146C10.687 33.2888 10.6701 32.7693 10.154 32.2025C10.0069 32.0666 9.8593 31.9313 9.71097 31.7968C9.51206 31.5454 9.33182 31.2836 9.15237 31.018C9.06568 30.8916 8.97885 30.7653 8.89187 30.639C8.83662 30.5576 8.83662 30.5576 8.78026 30.4745C8.67611 30.3233 8.67611 30.3233 8.50784 30.164ZM35.4063 30.164C35.3069 30.309 35.211 30.4564 35.1162 30.6044C34.8357 31.0309 34.5402 31.4386 34.2246 31.8398C34.1852 31.8902 34.1457 31.9406 34.105 31.9926C33.9438 32.1957 33.7923 32.3831 33.5905 32.5471C33.3712 32.8131 33.3838 33.0434 33.3907 33.3728C33.3906 33.4357 33.3906 33.4987 33.3905 33.5635C33.3908 33.7709 33.3935 33.9782 33.3961 34.1856C33.3968 34.3296 33.3973 34.4737 33.3976 34.6177C33.3989 34.9963 33.4023 35.3749 33.4061 35.7536C33.4096 36.1401 33.4112 36.5266 33.4129 36.9131C33.4166 37.6713 33.4225 38.4294 33.4297 39.1875C33.7437 39.3444 34.1154 39.2893 34.461 39.2895C34.5806 39.2911 34.5806 39.2911 34.7027 39.2927C34.817 39.2929 34.817 39.2929 34.9336 39.2932C35.0036 39.2936 35.0736 39.2939 35.1458 39.2943C35.3398 39.2893 35.3398 39.2893 35.4922 39.1015C35.5178 38.9349 35.5178 38.9349 35.5129 38.7415C35.5131 38.6661 35.5134 38.5907 35.5136 38.513C35.513 38.43 35.5124 38.347 35.5117 38.2616C35.5118 38.1744 35.5118 38.0872 35.5118 37.9973C35.5117 37.7081 35.5103 37.4189 35.509 37.1297C35.5087 36.9295 35.5084 36.7294 35.5083 36.5293C35.5076 36.0017 35.5059 35.4742 35.504 34.9466C35.5023 34.4086 35.5015 33.8706 35.5006 33.3326C35.4988 32.2764 35.4958 31.2202 35.4922 30.164C35.4639 30.164 35.4355 30.164 35.4063 30.164Z" fill="#58b347"/>
<path d="M23.375 6.61724C23.6244 6.79446 23.7035 6.90026 23.7778 7.19732C23.6863 7.62996 23.4235 7.85627 23.1171 8.16412C23.0743 8.20752 23.0315 8.25091 22.9874 8.29563C22.6892 8.59789 22.3884 8.89736 22.0859 9.19537C22.1383 9.19662 22.1907 9.19788 22.2447 9.19917C22.4837 9.20559 22.7225 9.21389 22.9614 9.22222C23.0439 9.22416 23.1263 9.2261 23.2113 9.2281C23.9844 9.25753 23.9844 9.25753 24.3203 9.53912C24.4499 9.79846 24.4492 9.93643 24.4062 10.2266C24.2929 10.3818 24.2929 10.3818 24.1427 10.5467C24.0879 10.6071 24.0331 10.6675 23.9766 10.7298C23.5309 11.2075 23.0762 11.6757 22.6174 12.1409C22.4916 12.269 22.3665 12.3977 22.2419 12.527C22.0606 12.715 21.8775 12.901 21.6938 13.0867C21.6111 13.1737 21.6111 13.1737 21.5267 13.2625C21.2494 13.5385 21.1257 13.6551 20.7267 13.7059C20.4288 13.6604 20.3031 13.6373 20.1093 13.4063C20.0205 13.0866 19.9772 12.8971 20.1281 12.5954C20.2895 12.3631 20.4622 12.1745 20.6636 11.9759C20.7364 11.9036 20.8092 11.8314 20.8843 11.7569C20.96 11.6826 21.0357 11.6083 21.1137 11.5318C21.1904 11.4559 21.2672 11.3799 21.3462 11.3017C21.5351 11.1148 21.7244 10.9283 21.914 10.7422C21.8559 10.7419 21.7979 10.7415 21.738 10.7412C21.4744 10.7383 21.2108 10.7323 20.9472 10.7261C20.8558 10.7256 20.7644 10.7251 20.6703 10.7246C19.9932 10.7055 19.9932 10.7055 19.7062 10.4522C19.5603 10.1596 19.524 10.0343 19.5937 9.71099C20.043 9.07819 20.6654 8.53738 21.2131 7.98973C21.3725 7.83012 21.5312 7.66984 21.6899 7.50952C21.7918 7.40742 21.8937 7.30537 21.9956 7.20337C22.0427 7.15565 22.0898 7.10794 22.1383 7.05879C22.5531 6.64643 22.7895 6.44647 23.375 6.61724Z" fill="#58b347"/>
</g>
<defs>
<clipPath id="clip0_2953_1264">
<rect width="44" height="44" fill="white"/>
</clipPath>
</defs>
</svg>
