<svg width="44" height="44" viewBox="0 0 44 44" fill="none" xmlns="http://www.w3.org/2000/svg">
<path d="M2.39357 1.33178C2.49673 1.33103 2.49673 1.33103 2.60199 1.33027C2.83391 1.32901 3.06576 1.33021 3.29768 1.33139C3.46505 1.33099 3.63241 1.33045 3.79978 1.32976C4.26082 1.32832 4.72184 1.32904 5.18288 1.3301C5.67965 1.33088 6.17642 1.32968 6.67319 1.32873C7.6468 1.3272 8.62041 1.32754 9.59403 1.32853C10.3851 1.32931 11.1761 1.32941 11.9671 1.32904C12.1358 1.32896 12.1358 1.32896 12.3078 1.32888C12.5362 1.32877 12.7646 1.32866 12.9929 1.32854C15.075 1.32756 17.1572 1.32858 19.2393 1.33038C21.1409 1.33201 23.0424 1.33187 24.944 1.33022C27.0794 1.32838 29.2148 1.32766 31.3502 1.32871C31.5778 1.32882 31.8053 1.32893 32.0329 1.32904C32.2008 1.32912 32.2008 1.32912 32.3722 1.3292C33.1626 1.3295 33.953 1.32899 34.7434 1.32819C35.7062 1.32722 36.6689 1.32748 37.6317 1.32931C38.1233 1.33022 38.6148 1.33057 39.1064 1.32943C39.5559 1.32841 40.0054 1.32897 40.4549 1.3308C40.6179 1.33119 40.781 1.33099 40.9441 1.33016C41.1649 1.32912 41.3856 1.33018 41.6064 1.33178C41.7025 1.33057 41.7025 1.33057 41.8006 1.32934C42.0985 1.3337 42.2539 1.3538 42.4924 1.53887C42.6362 1.734 42.6717 1.82319 42.668 2.06254C42.6693 2.14762 42.6693 2.14762 42.6707 2.23441C42.6002 2.49976 42.5034 2.58574 42.2812 2.75004C42.0026 2.80173 41.7266 2.79489 41.4439 2.79138C41.3579 2.79167 41.272 2.79196 41.1835 2.79227C40.8948 2.79283 40.6061 2.79094 40.3174 2.78906C40.1107 2.78897 39.9041 2.78902 39.6974 2.78921C39.2522 2.78929 38.8069 2.78832 38.3616 2.78638C37.7178 2.78359 37.074 2.78269 36.4301 2.78226C35.3856 2.78151 34.341 2.77922 33.2965 2.77597C32.2818 2.77282 31.2671 2.77038 30.2524 2.76892C30.1586 2.76879 30.1586 2.76879 30.0629 2.76865C29.7491 2.7682 29.4354 2.76776 29.1216 2.76734C26.5186 2.76377 23.9155 2.75769 21.3125 2.75004C21.3133 2.80842 21.314 2.8668 21.3148 2.92696C21.3225 3.53761 21.3276 4.14826 21.3314 4.75895C21.3331 4.9865 21.3354 5.21405 21.3384 5.44159C21.3426 5.76969 21.3446 6.09775 21.3461 6.42588C21.3478 6.52671 21.3496 6.62754 21.3514 6.73143C21.3516 7.44544 21.2102 7.98026 20.8688 8.60475C20.7765 8.76881 20.7765 8.76881 20.8409 8.97044C21.3415 10.1381 22.05 11.1822 22.7842 12.2139C24.3794 14.4617 25.1064 16.7042 24.6996 19.4714C24.3084 21.7616 22.9621 23.8464 21.0857 25.195C19.0396 26.6261 16.6795 27.0769 14.2133 26.7729C11.9037 26.3517 9.77414 24.9916 8.41201 23.0786C7.03092 21.0367 6.52153 18.4877 6.93677 16.0552C7.00636 15.7362 7.10544 15.4314 7.21875 15.125C7.24888 15.0375 7.27901 14.95 7.31006 14.8598C7.6936 13.845 8.31135 12.9438 8.94772 12.073C10.1747 10.4551 10.1747 10.4551 10.8281 8.59379C10.7504 8.40882 10.7504 8.40882 10.624 8.24467C10.3475 7.8546 10.3017 7.55824 10.3027 7.08174C10.3028 6.93726 10.3028 6.93726 10.3028 6.78985C10.3032 6.68636 10.3037 6.58286 10.3041 6.47623C10.3042 6.3699 10.3044 6.26357 10.3045 6.15402C10.3049 5.87202 10.3056 5.59003 10.3066 5.30804C10.3075 5.02001 10.3079 4.73198 10.3083 4.44395C10.3093 3.87931 10.3107 3.31467 10.3125 2.75004C10.1522 2.75118 10.1522 2.75118 9.98856 2.75235C8.982 2.75931 7.97544 2.76447 6.96885 2.76785C6.45133 2.76964 5.93384 2.77208 5.41633 2.77597C4.91707 2.7797 4.41783 2.78176 3.91855 2.78265C3.72791 2.78329 3.53726 2.78453 3.34662 2.78638C3.07994 2.78887 2.81334 2.78922 2.54665 2.78906C2.46753 2.7903 2.38841 2.79153 2.30689 2.79281C1.77178 2.78933 1.77178 2.78933 1.49798 2.58647C1.36518 2.3919 1.32839 2.29584 1.33203 2.06254C1.3307 1.97746 1.3307 1.97746 1.32935 1.89066C1.47387 1.34657 1.9084 1.32569 2.39357 1.33178ZM11.6875 2.75004C11.3736 5.12035 11.3736 5.12035 12.187 7.90092C12.6331 8.18958 13.0173 8.2715 13.5448 8.27364C13.6561 8.27446 13.7674 8.27528 13.8821 8.27612C14.0026 8.2761 14.123 8.27602 14.2435 8.27589C14.3682 8.27622 14.493 8.27659 14.6178 8.277C14.8789 8.27764 15.1399 8.27762 15.401 8.27717C15.734 8.27667 16.0671 8.27812 16.4001 8.28012C16.6577 8.28139 16.9153 8.28146 17.1729 8.28119C17.2957 8.28124 17.4184 8.28168 17.5411 8.28255C18.6551 8.30388 18.6551 8.30388 19.583 7.7559C20.4725 6.39545 19.9375 3.83369 19.9375 2.75004C17.215 2.75004 14.4925 2.75004 11.6875 2.75004ZM12.1172 9.5391C11.8903 10.0212 11.6634 10.5033 11.4297 11C11.1922 11.3794 10.9554 11.7464 10.6992 12.1119C10.5763 12.2897 10.4536 12.4677 10.3313 12.6459C10.2515 12.7603 10.2515 12.7603 10.17 12.8769C10.0396 13.0504 10.0396 13.0504 10.0547 13.2344C13.4596 14.7357 17.294 14.7799 20.7969 13.5782C21.0619 13.4732 21.3142 13.3601 21.5703 13.2344C21.4288 12.8039 21.176 12.4643 20.9204 12.0957C20.382 11.3052 19.8123 10.4526 19.5078 9.5391C17.0689 9.5391 14.63 9.5391 12.1172 9.5391ZM9.19531 14.4375C9.099 14.6159 9.00446 14.795 8.91064 14.9746C8.83138 15.1242 8.83138 15.1242 8.75052 15.2768C8.37229 16.0903 8.29021 16.9235 8.29834 17.8106C8.29912 17.9124 8.29989 18.0143 8.30069 18.1192C8.337 19.9643 9.02293 21.5595 10.2266 22.9454C10.2821 23.0095 10.3376 23.0736 10.3947 23.1397C11.6184 24.451 13.448 25.2986 15.2307 25.3842C17.4035 25.4438 19.2308 24.8958 20.8828 23.461C20.947 23.4055 21.0111 23.35 21.0772 23.2928C22.4898 21.9745 23.2886 20.0181 23.378 18.1073C23.3654 16.7797 23.1342 15.5809 22.4297 14.4375C22.3514 14.4688 22.273 14.5 22.1924 14.5322C17.9411 16.196 13.4266 16.1826 9.19531 14.4375Z" fill="#58b347"/>
<path d="M31.866 19.9125C31.9586 19.912 32.0511 19.9114 32.1465 19.9108C32.4521 19.9092 32.7576 19.9088 33.0632 19.9086C33.2762 19.9081 33.4892 19.9075 33.7022 19.9069C34.1486 19.9059 34.595 19.9056 35.0415 19.9057C35.6123 19.9057 36.1831 19.9033 36.7538 19.9004C37.1938 19.8984 37.6338 19.8981 38.0738 19.8982C38.2842 19.898 38.4946 19.8972 38.7049 19.8959C38.9999 19.8942 39.2947 19.8947 39.5896 19.8957C39.6757 19.8948 39.7618 19.8938 39.8505 19.8928C40.62 19.8996 41.3129 20.1062 41.8858 20.6384C42.4608 21.3003 42.6379 21.8821 42.6377 22.7403C42.638 22.8157 42.6383 22.8912 42.6387 22.969C42.6396 23.2225 42.6399 23.4759 42.6403 23.7294C42.6408 23.9109 42.6414 24.0924 42.642 24.274C42.6438 24.8706 42.6447 25.4673 42.6455 26.0639C42.6459 26.2694 42.6462 26.4748 42.6466 26.6803C42.6482 27.6456 42.6494 28.6109 42.6502 29.5763C42.651 30.6902 42.6533 31.8041 42.6567 32.9181C42.6593 33.7793 42.6606 34.6405 42.6609 35.5017C42.6611 36.016 42.6619 36.5302 42.664 37.0444C42.666 37.5285 42.6664 38.0125 42.6655 38.4965C42.6655 38.6738 42.666 38.8511 42.6672 39.0284C42.68 41.0696 42.68 41.0696 41.912 41.8918C41.2247 42.5098 40.5353 42.6508 39.6341 42.65C39.5415 42.6505 39.449 42.6511 39.3536 42.6517C39.048 42.6533 38.7425 42.6537 38.4369 42.6539C38.2239 42.6544 38.0109 42.655 37.7979 42.6556C37.3515 42.6566 36.9051 42.657 36.4586 42.6568C35.8878 42.6568 35.317 42.6592 34.7462 42.6621C34.3062 42.6641 33.8663 42.6644 33.4263 42.6643C33.2159 42.6645 33.0055 42.6653 32.7952 42.6666C32.5002 42.6683 32.2054 42.6678 31.9105 42.6668C31.8244 42.6677 31.7383 42.6687 31.6496 42.6697C30.8696 42.6628 30.1863 42.4519 29.6082 41.912C29.0426 41.2829 28.8489 40.6332 28.8521 39.8016C28.8517 39.7259 28.8513 39.6503 28.8509 39.5724C28.8498 39.3195 28.8499 39.0665 28.8501 38.8136C28.8496 38.6321 28.849 38.4505 28.8483 38.2689C28.8468 37.776 28.8464 37.2831 28.8463 36.7902C28.8462 36.4821 28.8458 36.174 28.8454 35.8659C28.8438 34.7906 28.8431 33.7153 28.8432 32.6401C28.8433 31.6385 28.8415 30.6369 28.8388 29.6353C28.8365 28.7748 28.8356 27.9143 28.8357 27.0538C28.8358 26.5401 28.8353 26.0265 28.8334 25.5128C28.8318 25.0295 28.8318 24.5462 28.833 24.0628C28.8332 23.8858 28.8328 23.7088 28.8318 23.5318C28.8205 21.4924 28.8205 21.4924 29.5881 20.6707C30.2753 20.0527 30.9647 19.9117 31.866 19.9125ZM30.5992 21.8066C30.3754 22.1169 30.3754 22.1169 30.336 22.6875C33.9093 22.6875 37.4825 22.6875 41.1641 22.6875C41.0882 22.1564 41.0498 21.8976 40.6485 21.5703C40.1246 21.3287 39.6929 21.2752 39.1207 21.2791C38.999 21.2785 38.999 21.2785 38.8749 21.2778C38.6085 21.2766 38.3421 21.2774 38.0757 21.2783C37.8895 21.2781 37.7033 21.2778 37.5172 21.2775C37.1277 21.2771 36.7382 21.2777 36.3487 21.2789C35.8505 21.2804 35.3524 21.2795 34.8542 21.278C34.4699 21.277 34.0857 21.2773 33.7014 21.278C33.5178 21.2782 33.3341 21.278 33.1505 21.2774C32.8934 21.2767 32.6364 21.2777 32.3793 21.2791C32.3041 21.2786 32.229 21.2781 32.1515 21.2776C31.574 21.2835 31.0126 21.3629 30.5992 21.8066ZM30.336 24.0625C30.336 28.8269 30.336 33.5913 30.336 38.5C33.9376 38.5 37.5393 38.5 41.25 38.5C41.25 33.7356 41.25 28.9713 41.25 24.0625C37.6484 24.0625 34.0468 24.0625 30.336 24.0625ZM30.336 39.875C30.4278 40.5374 30.4278 40.5374 30.8516 40.9922C31.3752 41.2405 31.8865 41.2874 32.4579 41.2834C32.5372 41.2838 32.6166 41.2843 32.6983 41.2847C32.9583 41.2859 33.2181 41.2851 33.4781 41.2842C33.6601 41.2844 33.8421 41.2847 34.0241 41.285C34.4046 41.2854 34.7852 41.2848 35.1657 41.2836C35.652 41.2821 36.1383 41.283 36.6246 41.2845C37.0002 41.2855 37.3757 41.2852 37.7513 41.2845C37.9305 41.2843 38.1098 41.2845 38.289 41.2851C38.5401 41.2858 38.7911 41.2848 39.0422 41.2834C39.1153 41.2839 39.1885 41.2844 39.2639 41.2849C39.792 41.2794 40.3592 41.2184 40.7886 40.8826C41.1024 40.5446 41.0945 40.3622 41.1641 39.875C37.5908 39.875 34.0175 39.875 30.336 39.875Z" fill="#58b347"/>
<path d="M39.5049 10.0788C40.7525 11.0965 41.7168 12.4691 41.9375 14.0938C41.9569 14.3374 41.966 14.58 41.9698 14.8243C41.971 14.883 41.9722 14.9417 41.9734 15.0022C41.9709 15.2645 41.9507 15.4453 41.8217 15.6759C41.6099 15.8798 41.4549 15.8928 41.1641 15.8985C40.8848 15.8126 40.8848 15.8126 40.6485 15.6407C40.5234 15.3531 40.4847 15.1007 40.444 14.7907C40.2554 13.3838 39.735 12.2503 38.6075 11.3492C37.3989 10.4954 36.0007 10.296 34.5624 10.5402C33.9117 10.7236 33.3724 11.0338 32.8282 11.4297C32.7737 11.4664 32.7192 11.5031 32.663 11.5409C31.8229 12.1671 31.3173 13.2685 31.1094 14.2657C31.0649 14.5807 31.0254 14.8944 30.9966 15.2113C30.9267 15.5162 30.8429 15.627 30.5938 15.8126C30.4219 15.8582 30.4219 15.8582 30.25 15.8555C30.1933 15.8564 30.1366 15.8573 30.0782 15.8582C29.8187 15.7893 29.7209 15.6844 29.5625 15.4688C29.3438 14.0836 29.819 12.6565 30.5938 11.5157C31.5379 10.2665 32.856 9.31046 34.4026 8.97515C36.2224 8.75878 38.0073 8.94691 39.5049 10.0788Z" fill="#58b347"/>
<path d="M33.6183 28.4795C33.7734 28.5312 33.7734 28.5312 33.9453 28.6709C34.0747 28.9782 34.0851 29.1425 34.0312 29.4765C33.8934 29.7052 33.7393 29.916 33.5807 30.1308C33.0997 30.784 33.0985 31.4398 33.1719 32.2265C33.3259 32.8835 33.6596 33.4386 34.2243 33.8167C34.9685 34.2457 35.752 34.3447 36.6003 34.1444C37.4004 33.8482 37.8753 33.3871 38.2324 32.6112C38.478 31.8444 38.4426 31.0904 38.0918 30.3628C37.9522 30.1136 37.8086 29.9016 37.6255 29.682C37.4103 29.4 37.4247 29.2214 37.4687 28.875C37.5547 28.6709 37.5547 28.6709 37.7266 28.5312C38.0079 28.4406 38.1335 28.4002 38.4141 28.4453C39.1518 28.8711 39.5672 29.662 39.8122 30.4501C40.0571 31.6812 39.9486 32.9144 39.2466 33.9721C38.5572 34.8873 37.7538 35.5206 36.6094 35.75C35.4037 35.8817 34.2754 35.7744 33.2685 35.041C32.2776 34.1882 31.6528 33.1946 31.5421 31.8717C31.5255 30.5208 31.9639 29.5346 32.8657 28.5635C33.1424 28.415 33.3143 28.421 33.6183 28.4795Z" fill="#58b347"/>
<path d="M37.6766 12.1608C38.5328 12.7775 39.0212 13.5556 39.2362 14.5845C39.301 15.0385 39.2867 15.335 39.0157 15.7265C38.7467 15.861 38.4476 15.8723 38.1563 15.8124C37.819 15.5598 37.7556 15.3268 37.6836 14.9208C37.5361 14.2154 37.2679 13.8268 36.6954 13.4062C36.1762 13.157 35.587 13.1363 35.0327 13.2904C34.5378 13.5126 34.1655 13.8878 33.939 14.3804C33.8216 14.7181 33.7525 15.0642 33.6771 15.4133C33.6016 15.6406 33.6016 15.6406 33.3438 15.8124C32.7347 15.8704 32.7347 15.8704 32.4653 15.6711C32.1725 15.2831 32.2617 14.8144 32.3125 14.3515C32.5179 13.4243 33.0595 12.7111 33.8235 12.1608C34.9711 11.4451 36.529 11.4451 37.6766 12.1608Z" fill="#58b347"/>
<path d="M21.0547 20.0235C21.265 20.2198 21.3085 20.3219 21.3336 20.6093C21.2665 21.4778 20.3843 22.2368 19.7656 22.7735C19.0284 23.3254 18.0502 23.9342 17.1022 23.9202C16.9297 23.8907 16.9297 23.8907 16.6719 23.7081C16.5 23.461 16.5 23.461 16.4517 23.2032C16.5125 22.8785 16.6145 22.7528 16.8438 22.5157C17.12 22.3911 17.12 22.3911 17.4399 22.2847C18.6087 21.8556 19.3273 21.1162 20.0234 20.1094C20.361 19.7719 20.6344 19.8357 21.0547 20.0235Z" fill="#58b347"/>
<path d="M35.9303 27.4665C36.1855 27.5189 36.2917 27.6337 36.4375 27.8438C36.603 28.3206 36.5395 28.861 36.5394 29.3601C36.5396 29.5506 36.5411 29.741 36.5428 29.9315C36.543 30.0536 36.5432 30.1756 36.5433 30.2977C36.5436 30.408 36.544 30.5184 36.5443 30.632C36.5233 30.9394 36.4757 31.1717 36.3516 31.4532C36.0754 31.6373 35.9069 31.6509 35.5812 31.6647C35.3133 31.604 35.2278 31.501 35.0625 31.2813C35.0109 31.0237 35.0144 30.7699 35.0169 30.5079C35.0166 30.4329 35.0162 30.3579 35.0159 30.2806C35.0156 30.1223 35.0163 29.9639 35.0177 29.8056C35.0196 29.5634 35.0177 29.3214 35.0155 29.0792C35.0158 28.9252 35.0162 28.7712 35.0169 28.6172C35.0162 28.5449 35.0155 28.4726 35.0148 28.398C35.0228 27.8965 35.0228 27.8965 35.2265 27.6264C35.4761 27.4509 35.6338 27.451 35.9303 27.4665Z" fill="#58b347"/>
<path d="M24.9219 25.9532C25.1717 26.1329 25.3881 26.3415 25.6094 26.5547C25.667 26.604 25.7246 26.6533 25.7839 26.7041C26.0591 26.9494 26.2436 27.141 26.313 27.5108C26.2969 27.8438 26.2969 27.8438 26.168 28.0962C25.8852 28.3296 25.7172 28.3657 25.3516 28.3594C24.7762 28.0909 24.198 27.51 23.8641 26.9767C23.7658 26.7052 23.8256 26.4863 23.8906 26.211C24.1659 25.8357 24.4983 25.8253 24.9219 25.9532Z" fill="#58b347"/>
<path d="M7.47656 25.953C7.72208 26.1003 7.73574 26.2157 7.81494 26.4955C7.82344 26.9969 7.59898 27.1967 7.27414 27.5452C6.59731 28.242 6.59731 28.242 6.27344 28.3593C5.98496 28.3441 5.76089 28.3267 5.51074 28.1766C5.35551 27.9179 5.33322 27.7143 5.32812 27.4139C5.59663 26.8386 6.17755 26.2604 6.71085 25.9265C6.98239 25.8282 7.20127 25.8879 7.47656 25.953Z" fill="#58b347"/>
<path d="M28.8213 17.0748C28.9153 17.0727 28.9153 17.0727 29.0113 17.0706C29.4568 17.0702 29.7693 17.1498 30.1641 17.3594C30.2985 17.6284 30.3099 17.9275 30.25 18.2188C30.0677 18.4483 29.966 18.5515 29.6741 18.6057C29.5875 18.6055 29.501 18.6053 29.4118 18.6052C29.2698 18.6053 29.2698 18.6053 29.1249 18.6053C29.0265 18.6036 28.9281 18.6019 28.8267 18.6001C28.7279 18.6008 28.6291 18.6014 28.5274 18.602C27.8041 18.5965 27.8041 18.5965 27.6034 18.4494C27.4317 18.2092 27.4241 17.9935 27.4141 17.7032C27.5207 17.4365 27.5976 17.3131 27.8518 17.1775C28.1762 17.0789 28.4856 17.0733 28.8213 17.0748Z" fill="#58b347"/>
<path d="M16.1563 29.5624C16.3858 29.7447 16.489 29.8464 16.5432 30.1383C16.543 30.2249 16.5428 30.3115 16.5427 30.4007C16.5428 30.5426 16.5428 30.5426 16.5428 30.6875C16.5411 30.7859 16.5394 30.8844 16.5376 30.9858C16.5383 31.0845 16.5389 31.1833 16.5395 31.285C16.534 32.0083 16.534 32.0083 16.3869 32.209C16.1467 32.3807 15.931 32.3884 15.6407 32.3984C15.399 32.3071 15.399 32.3071 15.211 32.1406C15.0416 31.7426 15.0102 31.3699 15.0123 30.9428C15.0109 30.8846 15.0095 30.8264 15.0081 30.7664C15.0076 30.3262 15.096 30.0312 15.2969 29.6484C15.5659 29.5139 15.865 29.5025 16.1563 29.5624Z" fill="#58b347"/>
<path d="M2.73926 17.0855C2.84279 17.0839 2.84279 17.0839 2.9484 17.0823C3.32009 17.0814 3.61835 17.0921 3.95313 17.2735C4.17943 17.4998 4.18618 17.6452 4.21094 17.961C4.1208 18.2915 4.07298 18.3681 3.78126 18.5626C3.4406 18.6025 3.09812 18.5944 2.75538 18.5948C2.66105 18.5969 2.56672 18.599 2.46953 18.6012C2.33336 18.6017 2.33336 18.6017 2.19443 18.6022C2.11147 18.6029 2.0285 18.6036 1.94302 18.6043C1.65633 18.5509 1.55535 18.4429 1.37501 18.2188C1.31244 17.9833 1.32564 17.7693 1.37501 17.5313C1.73941 17.0413 2.18205 17.086 2.73926 17.0855Z" fill="#58b347"/>
<path d="M21.6562 17.1874C21.8476 17.321 21.8476 17.321 22 17.5312C22.0456 17.8316 22.0456 17.8316 22.0429 18.1703C22.0438 18.2819 22.0447 18.3934 22.0456 18.5084C21.9936 18.8638 21.9193 19.0083 21.6562 19.2499C21.3902 19.3296 21.1528 19.3089 20.8828 19.2499C20.6626 19.0942 20.6626 19.0942 20.539 18.8202C20.4634 18.2494 20.5132 17.7752 20.7968 17.2734C21.0658 17.1389 21.365 17.1275 21.6562 17.1874Z" fill="#58b347"/>
<path d="M36.0938 14.4375C36.3086 14.5664 36.3086 14.5664 36.4375 14.7813C36.5055 15.1268 36.4909 15.3798 36.3086 15.6836C36.0048 15.8659 35.7518 15.8805 35.4063 15.8125C35.1914 15.6836 35.1914 15.6836 35.0625 15.4688C34.9946 15.1232 35.0091 14.8703 35.1914 14.5664C35.4953 14.3841 35.7482 14.3696 36.0938 14.4375Z" fill="#58b347"/>
</svg>
