<svg width="44" height="44" viewBox="0 0 44 44" fill="none" xmlns="http://www.w3.org/2000/svg">
<path d="M20.4317 4.44195C20.993 4.84263 21.3464 5.36871 21.5703 6.01568C21.5703 6.12912 21.5703 6.24256 21.5703 6.35943C21.6675 6.35763 21.7646 6.35583 21.8647 6.35398C22.2253 6.34775 22.586 6.34381 22.9467 6.34055C23.1027 6.33882 23.2588 6.33648 23.4148 6.3335C23.6392 6.32932 23.8636 6.32738 24.088 6.32586C24.1577 6.32409 24.2274 6.32231 24.2991 6.32048C24.6139 6.32036 24.7952 6.32824 25.0492 6.52266C25.2903 6.85608 25.2748 7.07665 25.271 7.48736C25.2703 7.59747 25.2695 7.70759 25.2687 7.82104C25.2672 7.94832 25.2672 7.94832 25.2657 8.07818C25.3315 8.07742 25.3972 8.07665 25.465 8.07587C26.0859 8.06897 26.7067 8.06374 27.3275 8.06037C27.6467 8.05858 27.9658 8.05615 28.2849 8.05225C28.5931 8.04851 28.9012 8.04646 29.2094 8.04557C29.3268 8.04493 29.4442 8.04369 29.5616 8.04184C29.7264 8.03933 29.8911 8.0392 30.0559 8.03916C30.1496 8.03839 30.2433 8.03763 30.3398 8.03684C30.6646 8.0897 30.8032 8.17822 31.0235 8.42193C31.0751 8.67533 31.0751 8.67533 31.0722 8.97373C31.0722 9.08554 31.0722 9.19734 31.0721 9.31254C31.07 9.43417 31.0677 9.5558 31.0654 9.67742C31.0646 9.80217 31.064 9.92692 31.0636 10.0517C31.0619 10.3795 31.0577 10.7072 31.053 11.035C31.0486 11.3696 31.0466 11.7043 31.0444 12.039C31.0398 12.6953 31.0325 13.3516 31.0235 14.0079C31.0815 14.0132 31.1396 14.0185 31.1994 14.0239C31.2761 14.0312 31.3528 14.0385 31.4318 14.0459C31.5075 14.053 31.5833 14.0601 31.6614 14.0674C33.1908 14.25 34.4368 15.0903 35.4922 16.1563C35.5621 16.2243 35.632 16.2923 35.704 16.3624C36.9694 17.6645 37.5061 19.4792 37.4944 21.2643C37.4461 23.1647 36.6798 24.9548 35.3203 26.2969C34.8277 26.7492 33.8043 27.6719 33.086 27.6719C33.0867 27.756 33.0875 27.84 33.0883 27.9266C33.0953 28.7218 33.1004 29.5169 33.1038 30.3121C33.1056 30.7209 33.108 31.1296 33.1119 31.5383C33.1157 31.9334 33.1177 32.3284 33.1186 32.7235C33.1192 32.8736 33.1204 33.0237 33.1223 33.1738C33.1358 34.3019 33.071 35.2408 32.2521 36.0982C31.923 36.3775 31.4706 36.6954 31.0235 36.6954C31.0248 36.7821 31.0262 36.8688 31.0276 36.9581C31.0322 37.2804 31.0352 37.6026 31.0376 37.9249C31.0389 38.0642 31.0407 38.2036 31.0429 38.343C31.046 38.5435 31.0475 38.744 31.0486 38.9445C31.05 39.0067 31.0513 39.0688 31.0527 39.1328C31.0528 39.4011 31.0393 39.5884 30.9091 39.8258C30.6655 40.0554 30.4293 40.0577 30.1107 40.058C30.0287 40.0583 29.9466 40.0585 29.8621 40.0588C29.7718 40.0587 29.6815 40.0586 29.5885 40.0584C29.4927 40.0586 29.3969 40.0588 29.2982 40.059C28.9756 40.0596 28.653 40.0595 28.3304 40.0594C28.0998 40.0597 27.8692 40.06 27.6385 40.0603C27.0761 40.061 26.5137 40.0612 25.9514 40.0613C25.4944 40.0613 25.0373 40.0615 24.5803 40.0618C23.2853 40.0625 21.9903 40.0629 20.6953 40.0629C20.6255 40.0629 20.5556 40.0629 20.4837 40.0629C20.4138 40.0629 20.3438 40.0629 20.2718 40.0628C19.1381 40.0628 18.0044 40.0636 16.8707 40.0648C15.7073 40.0661 14.5439 40.0667 13.3805 40.0666C12.7271 40.0666 12.0737 40.0668 11.4202 40.0677C10.864 40.0685 10.3077 40.0687 9.75145 40.0681C9.46754 40.0678 9.18363 40.0679 8.89971 40.0686C8.59219 40.0692 8.28469 40.0688 7.97718 40.0682C7.88707 40.0686 7.79696 40.0691 7.70412 40.0695C7.62187 40.0691 7.53962 40.0687 7.45488 40.0683C7.34838 40.0684 7.34838 40.0684 7.23973 40.0684C7.01893 40.0438 6.88738 39.9994 6.70315 39.8751C6.5055 39.5959 6.50953 39.3411 6.50893 39.0057C6.50832 38.8972 6.50772 38.7887 6.50709 38.677C6.50728 38.5563 6.50749 38.4357 6.50772 38.3151C6.50734 38.1871 6.50688 38.0592 6.50636 37.9312C6.50514 37.5791 6.50499 37.227 6.50503 36.8749C6.50489 36.4953 6.50377 36.1158 6.50278 35.7363C6.50082 34.9062 6.50014 34.0761 6.4997 33.2461C6.49942 32.728 6.49886 32.2099 6.49824 31.6919C6.49656 30.2581 6.49515 28.8243 6.4949 27.3905C6.49488 27.2528 6.49488 27.2528 6.49485 27.1124C6.49482 26.9263 6.49479 26.7403 6.49476 26.5542C6.49474 26.4619 6.49473 26.3695 6.49471 26.2743C6.49469 26.1819 6.49468 26.0894 6.49466 25.9941C6.49436 24.4948 6.49204 22.9955 6.48882 21.4962C6.48555 19.9577 6.48389 18.4192 6.48386 16.8806C6.48381 16.0165 6.48308 15.1524 6.4806 14.2882C6.47849 13.5526 6.47786 12.817 6.47916 12.0813C6.47977 11.7058 6.47969 11.3304 6.47775 10.9549C6.47598 10.6113 6.47619 10.2678 6.47799 9.92428C6.47829 9.79983 6.47787 9.67537 6.47664 9.55093C6.47509 9.38205 6.47643 9.21316 6.47793 9.04428C6.47786 8.95039 6.47779 8.8565 6.47772 8.75976C6.5494 8.42264 6.69695 8.29227 6.96097 8.07818C7.21818 8.02651 7.21818 8.02651 7.50674 8.0294C7.6151 8.02943 7.72346 8.02947 7.83511 8.0295C7.95249 8.03169 8.06987 8.03393 8.18725 8.03622C8.30802 8.03702 8.4288 8.03763 8.54957 8.03806C8.86649 8.0397 9.18333 8.04391 9.50023 8.04868C9.82397 8.05308 10.1477 8.05504 10.4715 8.0572C11.106 8.0618 11.7405 8.06913 12.375 8.07818C12.371 7.98291 12.3671 7.88764 12.3629 7.78948C12.3597 7.66371 12.3566 7.53794 12.3535 7.41217C12.3507 7.34946 12.3478 7.28676 12.3448 7.22216C12.3396 6.93514 12.3543 6.73834 12.5015 6.48909C12.816 6.30144 13.1116 6.31682 13.4667 6.32586C13.5387 6.32635 13.6107 6.32683 13.6849 6.32734C13.9143 6.32926 14.1437 6.33357 14.3731 6.33795C14.5288 6.33967 14.6846 6.34124 14.8404 6.34265C15.2218 6.34643 15.6031 6.35236 15.9844 6.35943C15.9954 6.30644 16.0064 6.25346 16.0177 6.19887C16.04 6.09451 16.04 6.09451 16.0628 5.98805C16.0846 5.88464 16.0846 5.88464 16.1068 5.77915C16.2706 5.13911 16.7744 4.64339 17.3262 4.31271C18.3773 3.79146 19.4277 3.82372 20.4317 4.44195ZM17.6656 5.98345C17.4051 6.37942 17.398 6.74621 17.35 7.2131C17.2735 7.47662 17.2735 7.47662 17.0976 7.61925C16.7777 7.76443 16.4888 7.77543 16.1439 7.77841C16.0446 7.78072 16.0446 7.78072 15.9434 7.78308C15.7333 7.78772 15.5232 7.79064 15.313 7.79351C15.1701 7.79637 15.0271 7.79933 14.8842 7.80241C14.5348 7.8099 14.1854 7.81508 13.836 7.82037C13.836 8.61443 13.836 9.40849 13.836 10.2266C17.1257 10.2266 20.4153 10.2266 23.8047 10.2266C23.8047 9.43256 23.8047 8.63849 23.8047 7.82037C23.5854 7.81516 23.366 7.80996 23.14 7.80459C22.9273 7.79928 22.7146 7.79383 22.5018 7.78837C22.3541 7.78465 22.2064 7.78107 22.0587 7.77763C21.8462 7.77266 21.6338 7.76719 21.4213 7.76162C21.3554 7.76019 21.2895 7.75875 21.2216 7.75727C20.9239 7.74903 20.6539 7.72763 20.3672 7.64849C20.3556 7.55721 20.344 7.46593 20.332 7.37188C20.2256 6.63984 20.128 6.06176 19.5078 5.58599C18.8467 5.19895 18.156 5.4553 17.6656 5.98345ZM7.99222 9.53912C7.99222 19.1246 7.99222 28.7101 7.99222 38.586C15.1104 38.586 22.2286 38.586 29.5625 38.586C29.5625 37.9621 29.5625 37.3382 29.5625 36.6954C29.419 36.6245 29.2754 36.5536 29.1275 36.4805C28.4448 36.105 28.0218 35.639 27.7426 34.9105C27.5863 34.2966 27.6198 33.656 27.6195 33.0262C27.6182 32.8714 27.6168 32.7166 27.6152 32.5617C27.6115 32.1568 27.6098 31.7519 27.6085 31.347C27.6068 30.9328 27.6032 30.5186 27.5997 30.1044C27.5933 29.2936 27.5889 28.4828 27.586 27.6719C27.4969 27.6251 27.4079 27.5783 27.3162 27.5301C27.1985 27.4679 27.0808 27.4057 26.9631 27.3434C26.9045 27.3127 26.8459 27.2819 26.7855 27.2502C25.0716 26.3418 24.0507 24.7756 23.4751 22.9625C22.9488 21.16 23.2941 19.1692 24.1485 17.5313C24.3576 17.198 24.5874 16.8907 24.836 16.586C24.9169 16.484 24.9169 16.484 24.9995 16.3799C26.0814 15.0833 27.6046 14.4291 29.2188 14.0938C29.3322 14.0654 29.4457 14.0371 29.5625 14.0079C29.5625 12.5332 29.5625 11.0585 29.5625 9.53912C28.1446 9.53912 26.7266 9.53912 25.2657 9.53912C25.2373 10.0779 25.2089 10.6168 25.1797 11.1719C24.75 11.6016 24.75 11.6016 24.5129 11.655C24.4263 11.6548 24.3397 11.6546 24.2504 11.6544C24.1506 11.6553 24.0507 11.6561 23.9478 11.657C23.839 11.6557 23.7302 11.6544 23.6181 11.6531C23.5017 11.6533 23.3854 11.6536 23.269 11.6542C22.9537 11.655 22.6384 11.6532 22.323 11.6508C21.9929 11.6488 21.6627 11.6491 21.3326 11.649C20.7782 11.6486 20.2239 11.6466 19.6696 11.6435C19.0288 11.6399 18.388 11.6384 17.7472 11.6381C17.0648 11.6378 16.3824 11.6362 15.6999 11.634C15.5033 11.6335 15.3068 11.6332 15.1102 11.6329C14.8013 11.6324 14.4924 11.631 14.1835 11.6289C14.0161 11.628 13.8487 11.6279 13.6813 11.6278C13.5318 11.6265 13.5318 11.6265 13.3793 11.6252C13.2927 11.6248 13.2062 11.6244 13.117 11.624C12.8834 11.6009 12.7429 11.5569 12.5469 11.4297C12.2639 10.8637 12.4066 10.1711 12.375 9.53912C10.9287 9.53912 9.48237 9.53912 7.99222 9.53912ZM26.211 17.1876C26.1571 17.2384 26.1033 17.2893 26.0478 17.3416C25.029 18.3858 24.618 19.8741 24.628 21.2942C24.6754 22.8217 25.3017 24.1115 26.3828 25.1797C26.4419 25.2407 26.5009 25.3016 26.5618 25.3644C27.6175 26.3868 29.0561 26.8131 30.5009 26.8175C32.097 26.7736 33.5139 26.0041 34.6006 24.8629C35.647 23.6539 36.0988 22.2215 36.0232 20.632C35.885 19.0267 35.0581 17.6451 33.8564 16.6008C31.4431 14.833 28.3236 15.0859 26.211 17.1876ZM29.0469 28.1016C29.0389 28.9219 29.0328 29.7421 29.0291 30.5624C29.0273 30.9433 29.0249 31.3242 29.021 31.7051C29.0172 32.0728 29.0152 32.4406 29.0143 32.8084C29.0137 32.9485 29.0124 33.0886 29.0106 33.2288C29.0081 33.4254 29.0077 33.622 29.0079 33.8187C29.0071 33.9305 29.0064 34.0423 29.0056 34.1576C29.0683 34.6182 29.2793 34.8783 29.6216 35.1807C30.0381 35.385 30.4077 35.4105 30.8509 35.2636C31.2446 35.0685 31.4566 34.7779 31.625 34.3751C31.6741 34.0616 31.6741 34.0616 31.6641 33.7309C31.6641 33.639 31.6641 33.639 31.6642 33.5452C31.664 33.3448 31.6613 33.1444 31.6586 32.944C31.658 32.8042 31.6575 32.6644 31.6571 32.5246C31.6558 32.1583 31.6524 31.792 31.6486 31.4256C31.6451 31.0512 31.6435 30.6767 31.6418 30.3023C31.6381 29.5687 31.6323 28.8352 31.625 28.1016C31.5395 28.1107 31.5395 28.1107 31.4521 28.12C31.3383 28.1319 31.3383 28.1319 31.2222 28.1439C31.11 28.1557 31.11 28.1557 30.9956 28.1677C30.4766 28.2125 29.9674 28.1983 29.4497 28.1439C29.3739 28.136 29.298 28.1282 29.2198 28.12C29.1342 28.1109 29.1342 28.1109 29.0469 28.1016Z" fill="#58b347"/>
<path d="M10.6925 13.5238C10.8008 13.5232 10.9092 13.5226 11.0208 13.5219C11.3173 13.5203 11.6138 13.5214 11.9103 13.5231C12.2209 13.5246 12.5316 13.5238 12.8422 13.5234C13.3638 13.523 13.8853 13.5243 14.4069 13.5267C15.0096 13.5295 15.6122 13.5295 16.2148 13.528C16.795 13.5266 17.3752 13.5272 17.9555 13.5287C18.2022 13.5293 18.4489 13.5292 18.6956 13.5286C19.0402 13.5278 19.3847 13.5298 19.7293 13.5322C19.8827 13.5313 19.8827 13.5313 20.0392 13.5305C20.7256 13.5385 20.7256 13.5385 21.073 13.7313C21.3091 14.0242 21.3232 14.2909 21.3245 14.659C21.325 14.7376 21.3255 14.8161 21.326 14.897C21.3262 15.0253 21.3262 15.0253 21.3263 15.1562C21.3267 15.2468 21.3272 15.3374 21.3276 15.4308C21.3289 15.7305 21.3295 16.0303 21.3299 16.33C21.3304 16.5383 21.3309 16.7466 21.3314 16.9549C21.3323 17.3917 21.3328 17.8285 21.3331 18.2652C21.3336 18.8249 21.3357 19.3845 21.3381 19.9442C21.3397 20.3744 21.3401 20.8047 21.3403 21.2349C21.3405 21.4413 21.3412 21.6476 21.3424 21.8539C21.3438 22.1426 21.3437 22.4311 21.3431 22.7198C21.3439 22.805 21.3447 22.8901 21.3455 22.9779C21.3428 23.4286 21.3227 23.7665 21.0547 24.1483C20.7852 24.3209 20.5715 24.3419 20.2549 24.3426C20.1163 24.3435 20.1163 24.3435 19.9748 24.3445C19.8234 24.3441 19.8234 24.3441 19.6689 24.3438C19.5623 24.3443 19.4556 24.3447 19.3458 24.3451C19.0535 24.3461 18.7613 24.3464 18.469 24.3461C18.2249 24.346 17.9808 24.3465 17.7367 24.3469C17.1607 24.3478 16.5848 24.3479 16.0089 24.3473C15.415 24.3468 14.8211 24.3479 14.2272 24.3497C13.717 24.3512 13.2069 24.3517 12.6967 24.3515C12.3921 24.3513 12.0876 24.3515 11.783 24.3527C11.4433 24.354 11.1037 24.3532 10.764 24.3522C10.6632 24.3529 10.5625 24.3535 10.4586 24.3542C10.366 24.3536 10.2733 24.353 10.1779 24.3524C10.0976 24.3524 10.0173 24.3524 9.93461 24.3524C9.66427 24.3135 9.50162 24.2212 9.28122 24.0624C9.17827 23.8565 9.18359 23.7275 9.18206 23.4976C9.18132 23.4148 9.18058 23.332 9.17982 23.2467C9.17945 23.1556 9.17909 23.0645 9.17871 22.9706C9.17801 22.8749 9.17731 22.7792 9.17658 22.6805C9.17444 22.3627 9.17303 22.0448 9.17179 21.727C9.17133 21.6186 9.17087 21.5103 9.1704 21.3987C9.16858 20.9435 9.16693 20.4882 9.16596 20.033C9.16457 19.3807 9.16172 18.7284 9.15682 18.0761C9.15309 17.5621 9.15172 17.0481 9.15117 16.5341C9.15059 16.3154 9.14928 16.0968 9.14723 15.8782C9.14452 15.5724 9.1445 15.2667 9.14514 14.961C9.14373 14.8704 9.14232 14.7798 9.14087 14.6864C9.1441 14.3091 9.16068 14.0697 9.34654 13.7367C9.78292 13.488 10.1985 13.5189 10.6925 13.5238ZM10.6562 15.039C10.6562 17.6197 10.6562 20.2004 10.6562 22.8593C10.8831 22.8593 11.11 22.8593 11.3437 22.8593C11.3642 22.744 11.3642 22.744 11.385 22.6263C11.607 21.4758 11.9981 20.5532 12.9712 19.8515C13.058 19.7947 13.1449 19.738 13.2343 19.6796C13.2033 19.6089 13.1723 19.5382 13.1404 19.4654C12.795 18.6347 12.6494 17.974 12.9728 17.1159C13.271 16.4962 13.6829 16.0585 14.3314 15.8057C15.0276 15.6073 15.8189 15.6376 16.4782 15.945C16.9778 16.268 17.4068 16.7585 17.5826 17.3341C17.7189 18.1111 17.6451 18.7321 17.2734 19.4218C17.2451 19.5069 17.2167 19.5919 17.1875 19.6796C17.2363 19.714 17.2852 19.7485 17.3355 19.784C18.4057 20.5719 18.9259 21.5602 19.164 22.8593C19.3909 22.8593 19.6178 22.8593 19.8515 22.8593C19.8515 20.2786 19.8515 17.6979 19.8515 15.039C16.8171 15.039 13.7826 15.039 10.6562 15.039ZM14.2656 17.6171C14.1272 17.9748 14.1534 18.2314 14.2817 18.5893C14.5152 18.9354 14.6649 19.0479 15.0713 19.1532C15.439 19.1659 15.5966 19.1141 15.8984 18.9062C16.1381 18.6286 16.2332 18.4536 16.2851 18.0897C16.2267 17.6807 16.0748 17.412 15.748 17.1552C15.1109 16.9782 14.663 17.0765 14.2656 17.6171ZM13.2343 21.5702C12.9489 22.0137 12.8047 22.3257 12.8047 22.8593C14.4211 22.8593 16.0376 22.8593 17.7031 22.8593C17.529 22.0756 17.3571 21.5508 16.7111 21.0606C15.5105 20.3193 14.1729 20.4929 13.2343 21.5702Z" fill="#58b347"/>
<path d="M10.4846 29.2604C10.5712 29.2593 10.6578 29.2582 10.7471 29.2571C10.8889 29.2579 10.8889 29.2579 11.0335 29.2588C11.1334 29.258 11.2334 29.2573 11.3364 29.2565C11.6672 29.2546 11.9981 29.2551 12.329 29.2559C12.5006 29.2556 12.6723 29.2552 12.8439 29.2548C13.3836 29.2533 13.9233 29.2536 14.4629 29.2551C15.0194 29.2565 15.5757 29.2552 16.1321 29.2524C16.6102 29.2501 17.0882 29.2495 17.5663 29.2502C17.8517 29.2506 18.137 29.2502 18.4224 29.2487C18.7407 29.2472 19.0589 29.2484 19.3772 29.2504C19.5187 29.2489 19.5187 29.2489 19.663 29.2473C20.3004 29.2553 20.3004 29.2553 20.6408 29.5067C20.7968 29.7343 20.7968 29.7343 20.8452 29.9921C20.7862 30.3065 20.6742 30.452 20.4531 30.6796C20.2453 30.7835 20.1138 30.7768 19.8817 30.7776C19.7554 30.7783 19.7554 30.7783 19.6265 30.7791C19.5338 30.7792 19.4411 30.7793 19.3455 30.7794C19.1994 30.78 19.1994 30.78 19.0504 30.7807C18.7269 30.7819 18.4035 30.7825 18.0801 30.783C17.8559 30.7835 17.6318 30.784 17.4076 30.7845C16.9973 30.7853 16.5869 30.7858 16.1766 30.7861C15.5728 30.7864 14.969 30.788 14.3652 30.7904C13.8422 30.7925 13.3192 30.7932 12.7962 30.7933C12.5737 30.7936 12.3512 30.7943 12.1288 30.7954C11.8177 30.7969 11.5066 30.7967 11.1956 30.7962C11.0572 30.7974 11.0572 30.7974 10.9161 30.7986C10.1355 30.7942 10.1355 30.7942 9.79682 30.5077C9.63108 30.2892 9.62417 30.1826 9.63569 29.9062C9.77001 29.4457 10.0101 29.2619 10.4846 29.2604Z" fill="#58b347"/>
<path d="M10.7332 26.1031C10.8156 26.1026 10.898 26.1021 10.9829 26.1016C11.117 26.1021 11.117 26.1021 11.2537 26.1026C11.3487 26.1023 11.4436 26.102 11.5414 26.1017C11.8551 26.101 12.1687 26.1015 12.4824 26.1021C12.7004 26.1019 12.9184 26.1018 13.1364 26.1016C13.5933 26.1013 14.0501 26.1017 14.5069 26.1025C15.0346 26.1034 15.5622 26.1031 16.0899 26.1022C16.5982 26.1013 17.1064 26.1014 17.6147 26.1019C17.8307 26.102 18.0467 26.1019 18.2627 26.1015C18.5645 26.101 18.8663 26.1017 19.1681 26.1026C19.2574 26.1023 19.3468 26.1019 19.4389 26.1016C19.5625 26.1023 19.5625 26.1023 19.6886 26.1031C19.7599 26.1031 19.8312 26.1032 19.9047 26.1033C20.2226 26.1368 20.4641 26.2244 20.6948 26.4471C20.8322 26.7074 20.8384 26.8651 20.7968 27.1561C20.6844 27.384 20.6844 27.384 20.4531 27.5858C20.1247 27.6519 19.799 27.6436 19.465 27.6401C19.3641 27.6407 19.2631 27.6413 19.1592 27.6419C18.8827 27.6431 18.6063 27.6424 18.3298 27.6407C18.0404 27.6393 17.7509 27.6401 17.4615 27.6405C16.9754 27.6409 16.4894 27.6395 16.0033 27.6371C15.4416 27.6344 14.8798 27.6344 14.318 27.6358C13.7774 27.6372 13.2368 27.6366 12.6962 27.6352C12.4662 27.6346 12.2362 27.6347 12.0062 27.6353C11.685 27.6358 11.3639 27.634 11.0428 27.6317C10.8996 27.6325 10.8996 27.6325 10.7535 27.6334C10.666 27.6323 10.5786 27.6312 10.4884 27.63C10.4125 27.6298 10.3366 27.6296 10.2584 27.6293C9.98642 27.5713 9.88375 27.4554 9.7109 27.2421C9.61319 26.9359 9.59941 26.7889 9.72164 26.4901C9.99592 26.161 10.3179 26.1034 10.7332 26.1031Z" fill="#58b347"/>
<path d="M33.7734 19.0782C34.0205 19.2554 34.0205 19.2554 34.2031 19.5079C34.2598 19.8605 34.2591 20.0303 34.0511 20.3243C33.8746 20.5221 33.7037 20.6787 33.4942 20.8399C33.0964 21.1505 32.7036 21.4663 32.3125 21.7852C31.2095 22.682 31.2095 22.682 30.7656 23.0313C30.6788 23.1008 30.5919 23.1702 30.5025 23.2418C30.4112 23.3132 30.3199 23.3844 30.2285 23.4556C30.1465 23.5202 30.0646 23.5848 29.9801 23.6513C29.7087 23.8208 29.5384 23.8843 29.2188 23.8907C28.8593 23.7199 28.6977 23.5351 28.5021 23.1928C28.4515 23.1052 28.4009 23.0176 28.3488 22.9274C28.2974 22.8359 28.2459 22.7443 28.1929 22.65C28.1418 22.5614 28.0906 22.4728 28.038 22.3816C27.0216 20.6055 27.0216 20.6055 27.065 20.19C27.2019 19.8115 27.2019 19.8115 27.4141 19.6798C27.6975 19.5935 27.8634 19.5706 28.1445 19.669C28.7842 20.2127 29.156 21.1029 29.5625 21.8282C29.8108 21.8282 29.8977 21.7114 30.0889 21.5543C30.1656 21.4917 30.2424 21.4291 30.3215 21.3646C30.3646 21.3292 30.4076 21.2938 30.452 21.2573C30.7223 21.035 30.9937 20.8139 31.2651 20.5928C31.3236 20.5453 31.382 20.4977 31.4421 20.4487C33.2113 19.012 33.2113 19.012 33.7734 19.0782Z" fill="#58b347"/>
</svg>
