<svg width="40" height="40" viewBox="0 0 40 40" fill="none" xmlns="http://www.w3.org/2000/svg">
<g clip-path="url(#clip0_847_4370)">
<mask id="path-1-inside-1_847_4370" fill="white">
<path d="M38.764 14.7245C39.1221 15.0249 39.4775 15.3947 39.5602 15.8695C39.5734 16.354 39.4888 16.7871 39.364 17.2513C39.3466 17.3166 39.3291 17.3819 39.3111 17.4492C39.1288 18.1147 38.8993 18.7586 38.6572 19.4043C38.6081 19.5369 38.559 19.6695 38.5099 19.8021C38.3653 20.192 38.2195 20.5815 38.0734 20.9709C37.9791 21.2223 37.885 21.4737 37.7909 21.7252C37.5264 22.4321 37.2612 23.1388 36.9956 23.8453C36.9297 24.0209 36.8637 24.1965 36.7978 24.3721C36.374 25.5001 35.9478 26.6271 35.5026 27.7469C35.4715 27.8255 35.4405 27.904 35.4084 27.985C34.7705 29.5756 33.6729 30.6436 32.464 31.8179C32.2863 31.9908 32.1096 32.1648 31.933 32.3389C31.8792 32.3905 31.8255 32.4421 31.7702 32.4953C31.3877 32.8738 31.1141 33.2769 30.8594 33.75C30.8143 33.8292 30.8143 33.8292 30.7683 33.9099C30.6826 34.0828 30.6826 34.0828 30.7031 34.375C30.8424 34.514 30.9943 34.6214 31.1532 34.737C31.7378 35.3552 31.7782 36.0225 31.7627 36.8408C31.7635 36.9395 31.7644 37.0381 31.7653 37.1398C31.7594 37.8842 31.6365 38.5198 31.0937 39.0625C30.4769 39.5348 29.8552 39.6331 29.0967 39.6309C28.9887 39.6315 28.9887 39.6315 28.8786 39.6321C28.6422 39.6331 28.4059 39.6331 28.1695 39.6329C28.0042 39.6332 27.8388 39.6335 27.6734 39.6339C27.3273 39.6345 26.9812 39.6345 26.6352 39.6341C26.1931 39.6336 25.7512 39.6349 25.3092 39.6367C24.9677 39.6379 24.6263 39.638 24.2849 39.6377C24.122 39.6378 23.9591 39.6382 23.7962 39.639C23.5678 39.6399 23.3394 39.6394 23.111 39.6385C23.0446 39.6391 22.9783 39.6397 22.91 39.6403C22.1498 39.6337 21.4951 39.4368 20.9375 38.9063C20.4304 38.2658 20.4402 37.6352 20.4394 36.8506C20.4375 36.7506 20.4356 36.6505 20.4336 36.5474C20.4315 35.8447 20.5037 35.3202 20.9717 34.7803C21.0377 34.7239 21.1038 34.6675 21.1719 34.6094C21.2379 34.5514 21.304 34.4934 21.3721 34.4336C21.5538 34.3031 21.6618 34.2638 21.875 34.2188C21.8732 34.1598 21.8714 34.1007 21.8695 34.0399C21.8265 31.4154 22.2941 28.8094 24.1504 26.8408C24.4552 26.5444 24.7942 26.2902 25.1303 26.0307C25.4818 25.7581 25.8131 25.4698 26.1404 25.1685C26.3312 24.9973 26.528 24.8374 26.7285 24.6778C27.2222 24.2786 27.6788 23.8423 28.1396 23.4061C28.4406 23.1213 28.7455 22.8418 29.0555 22.5669C29.1582 22.4756 29.2599 22.3832 29.36 22.2891C29.8774 21.8148 30.5117 21.4743 31.2207 21.4698C31.2974 21.4686 31.3742 21.4675 31.4532 21.4664C31.7862 21.489 32.0985 21.5608 32.4219 21.6406C33.4839 19.608 33.4839 19.608 34.4623 17.5342C34.9931 16.3509 35.6114 15.1107 36.8506 14.5459C37.5223 14.3051 38.1631 14.3047 38.764 14.7245ZM37.6562 16.0156C36.7498 16.5077 36.292 17.442 35.8864 18.3486C35.7707 18.6067 35.6521 18.8634 35.5337 19.1202C35.4972 19.1997 35.4972 19.1997 35.4598 19.2809C35.1914 19.8625 34.9099 20.4375 34.624 21.0108C34.5871 21.0851 34.5871 21.0851 34.5494 21.161C34.2701 21.7219 33.9777 22.2663 33.6377 22.793C33.3951 23.1798 33.3089 23.4146 33.353 23.8663C33.3912 25.0378 32.4374 26.1246 31.7187 26.9531C31.6388 27.0474 31.6388 27.0474 31.5573 27.1436C31.2717 27.4745 30.9756 27.7689 30.6412 28.05C30.3517 28.3071 30.088 28.5907 29.8212 28.8709C29.5138 29.149 29.2765 29.3016 28.8574 29.2871C28.4391 29.1787 28.4391 29.1787 28.2812 28.9844C28.1753 28.6343 28.1615 28.3718 28.3154 28.0371C28.4699 27.8638 28.6142 27.7234 28.7897 27.5745C30.6458 26.0021 30.6458 26.0021 31.7969 23.9063C31.7969 23.6109 31.7539 23.4883 31.5869 23.2471C31.4128 23.1066 31.4128 23.1066 31.1914 23.1153C30.6092 23.3168 30.2039 23.7698 29.7818 24.202C29.5821 24.4024 29.3724 24.5865 29.1577 24.7705C28.9856 24.9208 28.8178 25.0751 28.6503 25.2305C28.25 25.6018 27.8409 25.9556 27.4155 26.2982C27.1036 26.5529 26.7996 26.8163 26.4951 27.0797C26.2252 27.3122 25.9508 27.5359 25.6689 27.7539C24.3813 28.7832 23.8305 30.2717 23.62 31.8662C23.5407 32.6013 23.5115 33.3234 23.5156 34.0625C23.5814 34.0637 23.6471 34.0648 23.7149 34.066C23.9612 34.0708 24.2073 34.0766 24.4535 34.083C24.5597 34.0856 24.6658 34.0878 24.772 34.0896C25.8926 34.1089 25.8926 34.1089 26.3281 34.375C26.4931 34.6225 26.5103 34.776 26.528 35.0678C26.4553 35.3454 26.319 35.4503 26.0937 35.625C25.8292 35.681 25.5698 35.6758 25.3003 35.672C25.1854 35.673 25.1854 35.673 25.0683 35.6739C24.8241 35.6757 24.5801 35.675 24.3359 35.6739C24.0918 35.6736 23.8477 35.6738 23.6035 35.6755C23.4518 35.6764 23.3001 35.6762 23.1484 35.6747C22.7252 35.6765 22.4243 35.7007 22.1094 36.0156C22.0876 36.2852 22.0913 36.5559 22.0898 36.8262C22.0882 36.9021 22.0866 36.9781 22.0849 37.0563C22.0845 37.1292 22.0841 37.2021 22.0837 37.2772C22.083 37.3443 22.0823 37.4113 22.0815 37.4803C22.1154 37.6942 22.1757 37.7588 22.3437 37.8906C22.6013 38.0194 22.8881 37.9817 23.1713 37.9826C23.2408 37.9831 23.3103 37.9836 23.3819 37.9842C23.6125 37.9857 23.8432 37.9866 24.0738 37.9874C24.1524 37.9877 24.2311 37.988 24.3122 37.9884C24.7285 37.99 25.1448 37.9911 25.5611 37.9918C25.9915 37.9927 26.4218 37.9954 26.8521 37.9985C27.1827 38.0005 27.5133 38.0012 27.8439 38.0015C28.0026 38.0018 28.1612 38.0028 28.3199 38.0042C28.5419 38.0061 28.7638 38.006 28.9858 38.0055C29.0842 38.007 29.0842 38.007 29.1845 38.0085C29.4975 38.0057 29.6516 37.9911 29.9236 37.8216C30.1079 37.6244 30.1267 37.5414 30.1245 37.2751C30.1243 37.2032 30.1241 37.1312 30.1239 37.0571C30.1217 36.9825 30.1195 36.9079 30.1172 36.8311C30.1174 36.7562 30.1176 36.6813 30.1178 36.6042C30.1304 36.2169 30.1304 36.2169 29.9733 35.8802C29.7292 35.6938 29.4998 35.693 29.2044 35.6894C29.1255 35.6876 29.0466 35.6857 28.9653 35.6838C28.7993 35.6804 28.6333 35.678 28.4672 35.6764C28.3487 35.6732 28.3487 35.6732 28.2278 35.6699C28.1557 35.6687 28.0835 35.6676 28.0092 35.6664C27.7551 35.6129 27.6602 35.5129 27.5 35.3125C27.4667 35.1193 27.4667 35.1193 27.4756 34.917C27.4775 34.85 27.4794 34.7831 27.4814 34.7141C27.5 34.5313 27.5 34.5313 27.5781 34.2969C28.0091 34.1318 28.4485 34.0975 28.9062 34.0625C28.9281 34.0057 28.9499 33.9489 28.9725 33.8904C29.3299 32.9939 29.7509 32.2402 30.4253 31.5494C30.639 31.3571 30.639 31.3571 30.7031 31.0938C30.7674 31.0674 30.7674 31.0674 30.833 31.0405C31.0692 30.9073 31.2471 30.7299 31.4371 30.5396C31.4969 30.4803 31.4969 30.4803 31.5579 30.4197C31.6422 30.3359 31.7263 30.2518 31.8102 30.1676C31.9366 30.041 32.0639 29.9155 32.1913 29.7901C33.2683 28.7203 33.854 27.5368 34.3687 26.123C34.5022 25.7565 34.6374 25.3907 34.7723 25.0247C34.8018 24.9445 34.8314 24.8642 34.8618 24.7815C35.1162 24.0907 35.3741 23.4013 35.6329 22.7121C35.6535 22.6573 35.6741 22.6025 35.6953 22.5461C35.8814 22.0505 36.0677 21.555 36.254 21.0595C36.514 20.3681 36.7732 19.6765 37.0312 18.9844C37.0633 18.8985 37.0953 18.8126 37.1283 18.7241C37.2161 18.4883 37.3032 18.2522 37.3901 18.0161C37.4152 17.9488 37.4402 17.8815 37.466 17.8122C37.6626 17.2746 37.7979 16.7376 37.8906 16.1719C37.8133 16.1203 37.7359 16.0688 37.6562 16.0156Z"/>
</mask>
<path d="M38.764 14.7245C39.1221 15.0249 39.4775 15.3947 39.5602 15.8695C39.5734 16.354 39.4888 16.7871 39.364 17.2513C39.3466 17.3166 39.3291 17.3819 39.3111 17.4492C39.1288 18.1147 38.8993 18.7586 38.6572 19.4043C38.6081 19.5369 38.559 19.6695 38.5099 19.8021C38.3653 20.192 38.2195 20.5815 38.0734 20.9709C37.9791 21.2223 37.885 21.4737 37.7909 21.7252C37.5264 22.4321 37.2612 23.1388 36.9956 23.8453C36.9297 24.0209 36.8637 24.1965 36.7978 24.3721C36.374 25.5001 35.9478 26.6271 35.5026 27.7469C35.4715 27.8255 35.4405 27.904 35.4084 27.985C34.7705 29.5756 33.6729 30.6436 32.464 31.8179C32.2863 31.9908 32.1096 32.1648 31.933 32.3389C31.8792 32.3905 31.8255 32.4421 31.7702 32.4953C31.3877 32.8738 31.1141 33.2769 30.8594 33.75C30.8143 33.8292 30.8143 33.8292 30.7683 33.9099C30.6826 34.0828 30.6826 34.0828 30.7031 34.375C30.8424 34.514 30.9943 34.6214 31.1532 34.737C31.7378 35.3552 31.7782 36.0225 31.7627 36.8408C31.7635 36.9395 31.7644 37.0381 31.7653 37.1398C31.7594 37.8842 31.6365 38.5198 31.0937 39.0625C30.4769 39.5348 29.8552 39.6331 29.0967 39.6309C28.9887 39.6315 28.9887 39.6315 28.8786 39.6321C28.6422 39.6331 28.4059 39.6331 28.1695 39.6329C28.0042 39.6332 27.8388 39.6335 27.6734 39.6339C27.3273 39.6345 26.9812 39.6345 26.6352 39.6341C26.1931 39.6336 25.7512 39.6349 25.3092 39.6367C24.9677 39.6379 24.6263 39.638 24.2849 39.6377C24.122 39.6378 23.9591 39.6382 23.7962 39.639C23.5678 39.6399 23.3394 39.6394 23.111 39.6385C23.0446 39.6391 22.9783 39.6397 22.91 39.6403C22.1498 39.6337 21.4951 39.4368 20.9375 38.9063C20.4304 38.2658 20.4402 37.6352 20.4394 36.8506C20.4375 36.7506 20.4356 36.6505 20.4336 36.5474C20.4315 35.8447 20.5037 35.3202 20.9717 34.7803C21.0377 34.7239 21.1038 34.6675 21.1719 34.6094C21.2379 34.5514 21.304 34.4934 21.3721 34.4336C21.5538 34.3031 21.6618 34.2638 21.875 34.2188C21.8732 34.1598 21.8714 34.1007 21.8695 34.0399C21.8265 31.4154 22.2941 28.8094 24.1504 26.8408C24.4552 26.5444 24.7942 26.2902 25.1303 26.0307C25.4818 25.7581 25.8131 25.4698 26.1404 25.1685C26.3312 24.9973 26.528 24.8374 26.7285 24.6778C27.2222 24.2786 27.6788 23.8423 28.1396 23.4061C28.4406 23.1213 28.7455 22.8418 29.0555 22.5669C29.1582 22.4756 29.2599 22.3832 29.36 22.2891C29.8774 21.8148 30.5117 21.4743 31.2207 21.4698C31.2974 21.4686 31.3742 21.4675 31.4532 21.4664C31.7862 21.489 32.0985 21.5608 32.4219 21.6406C33.4839 19.608 33.4839 19.608 34.4623 17.5342C34.9931 16.3509 35.6114 15.1107 36.8506 14.5459C37.5223 14.3051 38.1631 14.3047 38.764 14.7245ZM37.6562 16.0156C36.7498 16.5077 36.292 17.442 35.8864 18.3486C35.7707 18.6067 35.6521 18.8634 35.5337 19.1202C35.4972 19.1997 35.4972 19.1997 35.4598 19.2809C35.1914 19.8625 34.9099 20.4375 34.624 21.0108C34.5871 21.0851 34.5871 21.0851 34.5494 21.161C34.2701 21.7219 33.9777 22.2663 33.6377 22.793C33.3951 23.1798 33.3089 23.4146 33.353 23.8663C33.3912 25.0378 32.4374 26.1246 31.7187 26.9531C31.6388 27.0474 31.6388 27.0474 31.5573 27.1436C31.2717 27.4745 30.9756 27.7689 30.6412 28.05C30.3517 28.3071 30.088 28.5907 29.8212 28.8709C29.5138 29.149 29.2765 29.3016 28.8574 29.2871C28.4391 29.1787 28.4391 29.1787 28.2812 28.9844C28.1753 28.6343 28.1615 28.3718 28.3154 28.0371C28.4699 27.8638 28.6142 27.7234 28.7897 27.5745C30.6458 26.0021 30.6458 26.0021 31.7969 23.9063C31.7969 23.6109 31.7539 23.4883 31.5869 23.2471C31.4128 23.1066 31.4128 23.1066 31.1914 23.1153C30.6092 23.3168 30.2039 23.7698 29.7818 24.202C29.5821 24.4024 29.3724 24.5865 29.1577 24.7705C28.9856 24.9208 28.8178 25.0751 28.6503 25.2305C28.25 25.6018 27.8409 25.9556 27.4155 26.2982C27.1036 26.5529 26.7996 26.8163 26.4951 27.0797C26.2252 27.3122 25.9508 27.5359 25.6689 27.7539C24.3813 28.7832 23.8305 30.2717 23.62 31.8662C23.5407 32.6013 23.5115 33.3234 23.5156 34.0625C23.5814 34.0637 23.6471 34.0648 23.7149 34.066C23.9612 34.0708 24.2073 34.0766 24.4535 34.083C24.5597 34.0856 24.6658 34.0878 24.772 34.0896C25.8926 34.1089 25.8926 34.1089 26.3281 34.375C26.4931 34.6225 26.5103 34.776 26.528 35.0678C26.4553 35.3454 26.319 35.4503 26.0937 35.625C25.8292 35.681 25.5698 35.6758 25.3003 35.672C25.1854 35.673 25.1854 35.673 25.0683 35.6739C24.8241 35.6757 24.5801 35.675 24.3359 35.6739C24.0918 35.6736 23.8477 35.6738 23.6035 35.6755C23.4518 35.6764 23.3001 35.6762 23.1484 35.6747C22.7252 35.6765 22.4243 35.7007 22.1094 36.0156C22.0876 36.2852 22.0913 36.5559 22.0898 36.8262C22.0882 36.9021 22.0866 36.9781 22.0849 37.0563C22.0845 37.1292 22.0841 37.2021 22.0837 37.2772C22.083 37.3443 22.0823 37.4113 22.0815 37.4803C22.1154 37.6942 22.1757 37.7588 22.3437 37.8906C22.6013 38.0194 22.8881 37.9817 23.1713 37.9826C23.2408 37.9831 23.3103 37.9836 23.3819 37.9842C23.6125 37.9857 23.8432 37.9866 24.0738 37.9874C24.1524 37.9877 24.2311 37.988 24.3122 37.9884C24.7285 37.99 25.1448 37.9911 25.5611 37.9918C25.9915 37.9927 26.4218 37.9954 26.8521 37.9985C27.1827 38.0005 27.5133 38.0012 27.8439 38.0015C28.0026 38.0018 28.1612 38.0028 28.3199 38.0042C28.5419 38.0061 28.7638 38.006 28.9858 38.0055C29.0842 38.007 29.0842 38.007 29.1845 38.0085C29.4975 38.0057 29.6516 37.9911 29.9236 37.8216C30.1079 37.6244 30.1267 37.5414 30.1245 37.2751C30.1243 37.2032 30.1241 37.1312 30.1239 37.0571C30.1217 36.9825 30.1195 36.9079 30.1172 36.8311C30.1174 36.7562 30.1176 36.6813 30.1178 36.6042C30.1304 36.2169 30.1304 36.2169 29.9733 35.8802C29.7292 35.6938 29.4998 35.693 29.2044 35.6894C29.1255 35.6876 29.0466 35.6857 28.9653 35.6838C28.7993 35.6804 28.6333 35.678 28.4672 35.6764C28.3487 35.6732 28.3487 35.6732 28.2278 35.6699C28.1557 35.6687 28.0835 35.6676 28.0092 35.6664C27.7551 35.6129 27.6602 35.5129 27.5 35.3125C27.4667 35.1193 27.4667 35.1193 27.4756 34.917C27.4775 34.85 27.4794 34.7831 27.4814 34.7141C27.5 34.5313 27.5 34.5313 27.5781 34.2969C28.0091 34.1318 28.4485 34.0975 28.9062 34.0625C28.9281 34.0057 28.9499 33.9489 28.9725 33.8904C29.3299 32.9939 29.7509 32.2402 30.4253 31.5494C30.639 31.3571 30.639 31.3571 30.7031 31.0938C30.7674 31.0674 30.7674 31.0674 30.833 31.0405C31.0692 30.9073 31.2471 30.7299 31.4371 30.5396C31.4969 30.4803 31.4969 30.4803 31.5579 30.4197C31.6422 30.3359 31.7263 30.2518 31.8102 30.1676C31.9366 30.041 32.0639 29.9155 32.1913 29.7901C33.2683 28.7203 33.854 27.5368 34.3687 26.123C34.5022 25.7565 34.6374 25.3907 34.7723 25.0247C34.8018 24.9445 34.8314 24.8642 34.8618 24.7815C35.1162 24.0907 35.3741 23.4013 35.6329 22.7121C35.6535 22.6573 35.6741 22.6025 35.6953 22.5461C35.8814 22.0505 36.0677 21.555 36.254 21.0595C36.514 20.3681 36.7732 19.6765 37.0312 18.9844C37.0633 18.8985 37.0953 18.8126 37.1283 18.7241C37.2161 18.4883 37.3032 18.2522 37.3901 18.0161C37.4152 17.9488 37.4402 17.8815 37.466 17.8122C37.6626 17.2746 37.7979 16.7376 37.8906 16.1719C37.8133 16.1203 37.7359 16.0688 37.6562 16.0156Z" fill="#58b347" stroke="#58b347" stroke-width="4" mask="url(#path-1-inside-1_847_4370)"/>
<mask id="path-2-inside-2_847_4370" fill="white">
<path d="M3.98925 15.0781C4.69163 15.7452 5.1348 16.6229 5.5371 17.4902C5.58392 17.5893 5.63083 17.6883 5.67782 17.7873C5.79518 18.035 5.91161 18.283 6.02779 18.5312C6.20123 18.9011 6.37694 19.2699 6.55273 19.6387C6.58724 19.7112 6.62175 19.7838 6.65731 19.8585C6.94628 20.4625 7.25488 21.0543 7.57812 21.6406C7.6748 21.6148 7.77148 21.589 7.87109 21.5625C8.62798 21.3985 9.31495 21.4143 9.99999 21.7969C10.4402 22.0871 10.8095 22.4395 11.1761 22.8161C11.3662 23.007 11.5676 23.1809 11.7718 23.3563C11.9563 23.5184 12.1359 23.6847 12.3153 23.8523C12.7328 24.2421 13.1576 24.6151 13.6032 24.9731C13.9123 25.2248 14.2133 25.4855 14.5151 25.7459C14.8013 25.9923 15.0915 26.2328 15.3857 26.4697C17.0977 27.8743 17.8181 29.8736 18.0469 32.0312C18.113 32.7611 18.1361 33.4862 18.125 34.2187C18.1846 34.2418 18.2442 34.2649 18.3057 34.2886C18.7937 34.4894 19.1242 34.7745 19.375 35.2344C19.5786 35.7617 19.56 36.2626 19.5605 36.8213C19.5625 36.9213 19.5644 37.0214 19.5663 37.1245C19.5686 37.8524 19.4475 38.322 19.0527 38.9258C18.4371 39.5146 17.7518 39.6209 16.9358 39.6219C16.8639 39.6223 16.7919 39.6227 16.7178 39.6231C16.4802 39.6243 16.2426 39.6248 16.0049 39.6252C15.8392 39.6257 15.6735 39.6261 15.5078 39.6266C15.1603 39.6274 14.8128 39.6279 14.4653 39.6281C14.0215 39.6286 13.5777 39.6304 13.1338 39.6327C12.7914 39.6341 12.449 39.6345 12.1065 39.6346C11.943 39.6349 11.7794 39.6355 11.6159 39.6365C11.3863 39.6379 11.1568 39.6377 10.9272 39.6372C10.8605 39.6379 10.7938 39.6386 10.7251 39.6394C10.046 39.6347 9.42256 39.4805 8.88732 39.0481C8.2745 38.4149 8.26095 37.7039 8.25194 36.8701C8.24756 36.7194 8.24756 36.7194 8.24309 36.5657C8.23725 35.9298 8.29789 35.4483 8.67187 34.9219C8.83439 34.7577 8.99254 34.6435 9.18151 34.5129C9.23861 34.4446 9.23861 34.4446 9.29687 34.375C9.18396 33.1531 8.04785 32.3068 7.22655 31.5137C7.02922 31.3223 6.83221 31.1306 6.6359 30.9381C6.51452 30.8192 6.39256 30.7009 6.26989 30.5833C5.7013 30.0277 5.26033 29.4086 4.91515 28.6929C4.88898 28.6395 4.8628 28.5861 4.83584 28.531C4.5838 28.0084 4.37183 27.4724 4.16991 26.9287C4.12836 26.8183 4.08675 26.708 4.0451 26.5977C3.92271 26.2729 3.80134 25.9476 3.68014 25.6223C3.58561 25.3688 3.49086 25.1154 3.39606 24.862C3.09978 24.0698 2.80364 23.2776 2.50898 22.4848C2.49057 22.4353 2.47216 22.3857 2.4532 22.3347C2.36192 22.0891 2.27066 21.8436 2.1794 21.598C1.9722 21.0409 1.76334 20.4845 1.55242 19.9289C0.203447 16.3693 0.203447 16.3693 0.538016 15.5292C0.807267 15.0515 1.21944 14.6778 1.71874 14.4531C2.57199 14.2348 3.32134 14.5454 3.98925 15.0781ZM2.26562 16.0156C2.16355 16.1344 2.16355 16.1344 2.10937 16.3281C2.1516 16.5646 2.20403 16.7775 2.27355 17.0062C2.29455 17.0772 2.31555 17.1482 2.33719 17.2214C2.66472 18.292 3.07727 19.3349 3.47735 20.3799C3.59169 20.679 3.70528 20.9784 3.81889 21.2778C3.86459 21.3982 3.9103 21.5187 3.95601 21.6391C3.97855 21.6984 4.00109 21.7578 4.02431 21.819C4.09211 21.9975 4.16002 22.176 4.22794 22.3545C4.62638 23.4017 5.01781 24.4514 5.40578 25.5025C5.63575 26.1255 5.86723 26.7477 6.11114 27.3654C6.14699 27.4562 6.18285 27.5471 6.2198 27.6407C6.66646 28.6714 7.48047 29.4462 8.27209 30.2191C8.31825 30.2643 8.3644 30.3095 8.41196 30.356C8.60122 30.5411 8.79055 30.726 8.98143 30.9094C9.86759 31.7624 10.5384 32.6161 10.9473 33.793C10.9979 33.9778 10.9979 33.9778 11.0937 34.0625C11.2723 34.0917 11.4515 34.1171 11.6309 34.1406C12.1629 34.2105 12.1629 34.2105 12.4219 34.2969C12.4966 34.5209 12.5177 34.683 12.5244 34.917C12.5288 35.0171 12.5288 35.0171 12.5333 35.1193C12.4884 35.3799 12.3904 35.4595 12.1875 35.625C11.9933 35.6639 11.9933 35.6639 11.7776 35.6644C11.6993 35.6658 11.621 35.6673 11.5404 35.6688C11.459 35.6688 11.3777 35.6689 11.2939 35.6689C10.544 35.646 10.544 35.646 9.92187 36.0156C9.89575 36.2834 9.89648 36.5524 9.89257 36.8213C9.88965 36.8966 9.88673 36.9718 9.88372 37.0494C9.88281 37.1221 9.88191 37.1947 9.88097 37.2696C9.87942 37.3362 9.87788 37.4028 9.87628 37.4714C9.94496 37.7499 10.071 37.8184 10.3125 37.9687C10.5458 38.0132 10.7747 38.0099 11.0117 38.0067C11.1162 38.0071 11.1162 38.0071 11.2228 38.0076C11.4525 38.0082 11.6822 38.0065 11.9119 38.0047C12.0718 38.0046 12.2316 38.0045 12.3914 38.0045C12.7262 38.0043 13.0609 38.003 13.3956 38.0009C13.8248 37.9982 14.254 37.9976 14.6832 37.9978C15.0131 37.9977 15.3431 37.9969 15.673 37.9957C15.8313 37.9952 15.9895 37.9949 16.1478 37.9948C16.3689 37.9945 16.5899 37.9931 16.8109 37.9914C16.9091 37.9915 16.9091 37.9915 17.0093 37.9916C17.4366 37.9915 17.4366 37.9915 17.8125 37.8125C17.9594 37.5186 17.9084 37.1642 17.9101 36.8408C17.9126 36.7274 17.9126 36.7274 17.915 36.6118C17.9154 36.5392 17.9158 36.4667 17.9163 36.3919C17.9173 36.2921 17.9173 36.2921 17.9185 36.1903C17.8843 35.9759 17.8276 35.9109 17.6562 35.7812C17.4373 35.7082 17.305 35.6934 17.0787 35.6933C17.0096 35.693 16.9405 35.6927 16.8693 35.6924C16.7949 35.6923 16.7204 35.6922 16.6437 35.6921C16.486 35.6907 16.3283 35.6892 16.1706 35.6875C15.922 35.6853 15.6735 35.6836 15.4249 35.6835C15.1849 35.6833 14.9451 35.6806 14.7052 35.6775C14.631 35.678 14.5569 35.6786 14.4805 35.6791C14.1184 35.6725 13.9578 35.6652 13.6642 35.4365C13.4786 35.184 13.4577 35.063 13.4772 34.7604C13.5439 34.4984 13.6959 34.3765 13.9062 34.2187C14.1806 34.1233 14.4565 34.1247 14.7449 34.1159C14.8967 34.111 14.8967 34.111 15.0516 34.106C15.1581 34.1029 15.2646 34.0998 15.3711 34.0967C15.4788 34.0933 15.5865 34.0899 15.6943 34.0864C15.9576 34.0782 16.221 34.0702 16.4844 34.0625C16.5094 31.9513 16.2728 29.7335 14.7656 28.125C14.3475 27.7161 13.8876 27.3543 13.4341 26.9858C12.8034 26.47 12.1851 25.9413 11.582 25.3934C11.4258 25.252 11.2677 25.1134 11.1084 24.9756C10.8231 24.7274 10.5458 24.471 10.2685 24.2139C9.56768 23.4593 9.56768 23.4593 8.66698 23.1299C8.42887 23.1848 8.42887 23.1848 8.28612 23.3691C8.14846 23.7416 8.21348 23.9858 8.367 24.3365C8.8658 25.3119 9.6382 26.0668 10.4101 26.8262C10.494 26.9092 10.5778 26.9923 10.6616 27.0755C10.8151 27.2277 10.9689 27.3797 11.1228 27.5315C11.1906 27.5985 11.2583 27.6654 11.3281 27.7344C11.3997 27.8042 11.4713 27.8741 11.545 27.946C11.7933 28.2018 11.7933 28.2018 11.8039 28.4393C11.7817 28.7816 11.7652 28.9367 11.5185 29.1894C11.1975 29.3179 10.9521 29.3126 10.625 29.2187C10.4435 29.0897 10.3087 28.9792 10.1562 28.8232C10.1164 28.7845 10.0765 28.7459 10.0354 28.706C9.9181 28.5917 9.80269 28.4758 9.68749 28.3594C9.62636 28.2992 9.56523 28.2391 9.50225 28.1772C9.35427 28.0309 9.20808 27.883 9.06249 27.7344C8.99804 27.6699 8.93359 27.6055 8.86718 27.539C8.80273 27.4746 8.73827 27.4101 8.67187 27.3437C8.62725 27.3027 8.58264 27.2618 8.53667 27.2195C7.67298 26.4041 6.83266 25.2532 6.64062 24.0625C6.64686 24.008 6.6531 23.9535 6.65954 23.8974C6.71588 23.3894 6.55665 23.0984 6.29424 22.6819C5.85972 21.9679 5.48255 21.2322 5.1123 20.4834C5.04688 20.3521 4.98144 20.2208 4.91599 20.0895C4.58407 19.4213 4.26219 18.7508 3.96484 18.0664C3.6076 17.245 3.16402 16.4485 2.34374 16.0156C2.31796 16.0156 2.29218 16.0156 2.26562 16.0156Z"/>
</mask>
<path d="M3.98925 15.0781C4.69163 15.7452 5.1348 16.6229 5.5371 17.4902C5.58392 17.5893 5.63083 17.6883 5.67782 17.7873C5.79518 18.035 5.91161 18.283 6.02779 18.5312C6.20123 18.9011 6.37694 19.2699 6.55273 19.6387C6.58724 19.7112 6.62175 19.7838 6.65731 19.8585C6.94628 20.4625 7.25488 21.0543 7.57812 21.6406C7.6748 21.6148 7.77148 21.589 7.87109 21.5625C8.62798 21.3985 9.31495 21.4143 9.99999 21.7969C10.4402 22.0871 10.8095 22.4395 11.1761 22.8161C11.3662 23.007 11.5676 23.1809 11.7718 23.3563C11.9563 23.5184 12.1359 23.6847 12.3153 23.8523C12.7328 24.2421 13.1576 24.6151 13.6032 24.9731C13.9123 25.2248 14.2133 25.4855 14.5151 25.7459C14.8013 25.9923 15.0915 26.2328 15.3857 26.4697C17.0977 27.8743 17.8181 29.8736 18.0469 32.0312C18.113 32.7611 18.1361 33.4862 18.125 34.2187C18.1846 34.2418 18.2442 34.2649 18.3057 34.2886C18.7937 34.4894 19.1242 34.7745 19.375 35.2344C19.5786 35.7617 19.56 36.2626 19.5605 36.8213C19.5625 36.9213 19.5644 37.0214 19.5663 37.1245C19.5686 37.8524 19.4475 38.322 19.0527 38.9258C18.4371 39.5146 17.7518 39.6209 16.9358 39.6219C16.8639 39.6223 16.7919 39.6227 16.7178 39.6231C16.4802 39.6243 16.2426 39.6248 16.0049 39.6252C15.8392 39.6257 15.6735 39.6261 15.5078 39.6266C15.1603 39.6274 14.8128 39.6279 14.4653 39.6281C14.0215 39.6286 13.5777 39.6304 13.1338 39.6327C12.7914 39.6341 12.449 39.6345 12.1065 39.6346C11.943 39.6349 11.7794 39.6355 11.6159 39.6365C11.3863 39.6379 11.1568 39.6377 10.9272 39.6372C10.8605 39.6379 10.7938 39.6386 10.7251 39.6394C10.046 39.6347 9.42256 39.4805 8.88732 39.0481C8.2745 38.4149 8.26095 37.7039 8.25194 36.8701C8.24756 36.7194 8.24756 36.7194 8.24309 36.5657C8.23725 35.9298 8.29789 35.4483 8.67187 34.9219C8.83439 34.7577 8.99254 34.6435 9.18151 34.5129C9.23861 34.4446 9.23861 34.4446 9.29687 34.375C9.18396 33.1531 8.04785 32.3068 7.22655 31.5137C7.02922 31.3223 6.83221 31.1306 6.6359 30.9381C6.51452 30.8192 6.39256 30.7009 6.26989 30.5833C5.7013 30.0277 5.26033 29.4086 4.91515 28.6929C4.88898 28.6395 4.8628 28.5861 4.83584 28.531C4.5838 28.0084 4.37183 27.4724 4.16991 26.9287C4.12836 26.8183 4.08675 26.708 4.0451 26.5977C3.92271 26.2729 3.80134 25.9476 3.68014 25.6223C3.58561 25.3688 3.49086 25.1154 3.39606 24.862C3.09978 24.0698 2.80364 23.2776 2.50898 22.4848C2.49057 22.4353 2.47216 22.3857 2.4532 22.3347C2.36192 22.0891 2.27066 21.8436 2.1794 21.598C1.9722 21.0409 1.76334 20.4845 1.55242 19.9289C0.203447 16.3693 0.203447 16.3693 0.538016 15.5292C0.807267 15.0515 1.21944 14.6778 1.71874 14.4531C2.57199 14.2348 3.32134 14.5454 3.98925 15.0781ZM2.26562 16.0156C2.16355 16.1344 2.16355 16.1344 2.10937 16.3281C2.1516 16.5646 2.20403 16.7775 2.27355 17.0062C2.29455 17.0772 2.31555 17.1482 2.33719 17.2214C2.66472 18.292 3.07727 19.3349 3.47735 20.3799C3.59169 20.679 3.70528 20.9784 3.81889 21.2778C3.86459 21.3982 3.9103 21.5187 3.95601 21.6391C3.97855 21.6984 4.00109 21.7578 4.02431 21.819C4.09211 21.9975 4.16002 22.176 4.22794 22.3545C4.62638 23.4017 5.01781 24.4514 5.40578 25.5025C5.63575 26.1255 5.86723 26.7477 6.11114 27.3654C6.14699 27.4562 6.18285 27.5471 6.2198 27.6407C6.66646 28.6714 7.48047 29.4462 8.27209 30.2191C8.31825 30.2643 8.3644 30.3095 8.41196 30.356C8.60122 30.5411 8.79055 30.726 8.98143 30.9094C9.86759 31.7624 10.5384 32.6161 10.9473 33.793C10.9979 33.9778 10.9979 33.9778 11.0937 34.0625C11.2723 34.0917 11.4515 34.1171 11.6309 34.1406C12.1629 34.2105 12.1629 34.2105 12.4219 34.2969C12.4966 34.5209 12.5177 34.683 12.5244 34.917C12.5288 35.0171 12.5288 35.0171 12.5333 35.1193C12.4884 35.3799 12.3904 35.4595 12.1875 35.625C11.9933 35.6639 11.9933 35.6639 11.7776 35.6644C11.6993 35.6658 11.621 35.6673 11.5404 35.6688C11.459 35.6688 11.3777 35.6689 11.2939 35.6689C10.544 35.646 10.544 35.646 9.92187 36.0156C9.89575 36.2834 9.89648 36.5524 9.89257 36.8213C9.88965 36.8966 9.88673 36.9718 9.88372 37.0494C9.88281 37.1221 9.88191 37.1947 9.88097 37.2696C9.87942 37.3362 9.87788 37.4028 9.87628 37.4714C9.94496 37.7499 10.071 37.8184 10.3125 37.9687C10.5458 38.0132 10.7747 38.0099 11.0117 38.0067C11.1162 38.0071 11.1162 38.0071 11.2228 38.0076C11.4525 38.0082 11.6822 38.0065 11.9119 38.0047C12.0718 38.0046 12.2316 38.0045 12.3914 38.0045C12.7262 38.0043 13.0609 38.003 13.3956 38.0009C13.8248 37.9982 14.254 37.9976 14.6832 37.9978C15.0131 37.9977 15.3431 37.9969 15.673 37.9957C15.8313 37.9952 15.9895 37.9949 16.1478 37.9948C16.3689 37.9945 16.5899 37.9931 16.8109 37.9914C16.9091 37.9915 16.9091 37.9915 17.0093 37.9916C17.4366 37.9915 17.4366 37.9915 17.8125 37.8125C17.9594 37.5186 17.9084 37.1642 17.9101 36.8408C17.9126 36.7274 17.9126 36.7274 17.915 36.6118C17.9154 36.5392 17.9158 36.4667 17.9163 36.3919C17.9173 36.2921 17.9173 36.2921 17.9185 36.1903C17.8843 35.9759 17.8276 35.9109 17.6562 35.7812C17.4373 35.7082 17.305 35.6934 17.0787 35.6933C17.0096 35.693 16.9405 35.6927 16.8693 35.6924C16.7949 35.6923 16.7204 35.6922 16.6437 35.6921C16.486 35.6907 16.3283 35.6892 16.1706 35.6875C15.922 35.6853 15.6735 35.6836 15.4249 35.6835C15.1849 35.6833 14.9451 35.6806 14.7052 35.6775C14.631 35.678 14.5569 35.6786 14.4805 35.6791C14.1184 35.6725 13.9578 35.6652 13.6642 35.4365C13.4786 35.184 13.4577 35.063 13.4772 34.7604C13.5439 34.4984 13.6959 34.3765 13.9062 34.2187C14.1806 34.1233 14.4565 34.1247 14.7449 34.1159C14.8967 34.111 14.8967 34.111 15.0516 34.106C15.1581 34.1029 15.2646 34.0998 15.3711 34.0967C15.4788 34.0933 15.5865 34.0899 15.6943 34.0864C15.9576 34.0782 16.221 34.0702 16.4844 34.0625C16.5094 31.9513 16.2728 29.7335 14.7656 28.125C14.3475 27.7161 13.8876 27.3543 13.4341 26.9858C12.8034 26.47 12.1851 25.9413 11.582 25.3934C11.4258 25.252 11.2677 25.1134 11.1084 24.9756C10.8231 24.7274 10.5458 24.471 10.2685 24.2139C9.56768 23.4593 9.56768 23.4593 8.66698 23.1299C8.42887 23.1848 8.42887 23.1848 8.28612 23.3691C8.14846 23.7416 8.21348 23.9858 8.367 24.3365C8.8658 25.3119 9.6382 26.0668 10.4101 26.8262C10.494 26.9092 10.5778 26.9923 10.6616 27.0755C10.8151 27.2277 10.9689 27.3797 11.1228 27.5315C11.1906 27.5985 11.2583 27.6654 11.3281 27.7344C11.3997 27.8042 11.4713 27.8741 11.545 27.946C11.7933 28.2018 11.7933 28.2018 11.8039 28.4393C11.7817 28.7816 11.7652 28.9367 11.5185 29.1894C11.1975 29.3179 10.9521 29.3126 10.625 29.2187C10.4435 29.0897 10.3087 28.9792 10.1562 28.8232C10.1164 28.7845 10.0765 28.7459 10.0354 28.706C9.9181 28.5917 9.80269 28.4758 9.68749 28.3594C9.62636 28.2992 9.56523 28.2391 9.50225 28.1772C9.35427 28.0309 9.20808 27.883 9.06249 27.7344C8.99804 27.6699 8.93359 27.6055 8.86718 27.539C8.80273 27.4746 8.73827 27.4101 8.67187 27.3437C8.62725 27.3027 8.58264 27.2618 8.53667 27.2195C7.67298 26.4041 6.83266 25.2532 6.64062 24.0625C6.64686 24.008 6.6531 23.9535 6.65954 23.8974C6.71588 23.3894 6.55665 23.0984 6.29424 22.6819C5.85972 21.9679 5.48255 21.2322 5.1123 20.4834C5.04688 20.3521 4.98144 20.2208 4.91599 20.0895C4.58407 19.4213 4.26219 18.7508 3.96484 18.0664C3.6076 17.245 3.16402 16.4485 2.34374 16.0156C2.31796 16.0156 2.29218 16.0156 2.26562 16.0156Z" fill="#58b347" stroke="#58b347" stroke-width="4" mask="url(#path-2-inside-2_847_4370)"/>
<path d="M21.9162 9.14771C21.6828 9.11833 21.448 9.09706 21.2121 9.08228C21.3036 9.0519 21.3951 9.02054 21.4855 8.98462L21.9162 9.14771ZM18.5695 9.00024C18.6354 9.02556 18.7017 9.04943 18.7687 9.07153C18.5863 9.08278 18.4058 9.10082 18.2267 9.12134L18.5695 9.00024Z" fill="#58b347" stroke="#58b347" stroke-width="2"/>
<path d="M23.1672 25.0649C23.1509 25.0825 23.1404 25.0944 23.1321 25.1011C23.1269 25.1053 23.1198 25.1092 23.1106 25.1147C22.9513 25.1277 22.8114 25.1084 22.6409 25.0454L23.1799 25.0122C23.1765 25.0302 23.1716 25.0475 23.1672 25.0649ZM20.1467 15.5845C20.1693 15.5977 20.1981 15.6185 20.2415 15.6538C20.2877 15.7307 20.3269 15.8011 20.3635 15.8755H19.6741C19.7307 15.7435 19.7845 15.6522 19.8459 15.5796C19.8847 15.5746 19.9324 15.5705 20.0002 15.5698H20.0217C20.0513 15.5689 20.0809 15.5668 20.1106 15.5659C20.124 15.5714 20.1356 15.578 20.1467 15.5845Z" fill="#58b347" stroke="#58b347" stroke-width="2"/>
</g>
<defs>
<clipPath id="clip0_847_4370">
<rect width="40" height="40" fill="white"/>
</clipPath>
</defs>
</svg>
