<svg width="44" height="44" viewBox="0 0 44 44" fill="none" xmlns="http://www.w3.org/2000/svg">
<g clip-path="url(#clip0_2953_1364)">
<path d="M4.77494 0.171886C5.37174 0.524812 5.66384 1.01376 5.8744 1.6584C5.97852 2.09545 5.961 2.53438 5.9549 2.9813C5.95454 3.08321 5.95417 3.18512 5.9538 3.29012C5.95236 3.6132 5.94913 3.93623 5.94584 4.25929C5.94455 4.47933 5.94337 4.69938 5.94232 4.91943C5.93948 5.45673 5.93504 5.99398 5.92973 6.53126C6.38348 6.53126 6.83723 6.53126 7.30473 6.53126C7.30248 6.38737 7.30023 6.24349 7.29791 6.09524C7.29095 5.61675 7.28603 5.13828 7.28246 4.65976C7.28023 4.36997 7.27721 4.08024 7.27231 3.79049C7.26707 3.45641 7.26466 3.1224 7.26277 2.78828C7.26055 2.68557 7.25833 2.58286 7.25605 2.47703C7.2558 1.75113 7.38272 1.15857 7.88399 0.609654C8.47701 0.053985 9.041 -0.0547382 9.83888 -0.0352365C10.4993 0.0418994 10.9836 0.34477 11.4079 0.847637C11.801 1.51744 11.8083 2.11528 11.7987 2.87623C11.7983 2.98589 11.7979 3.09555 11.7975 3.20854C11.7964 3.49789 11.794 3.78719 11.7912 4.07654C11.7885 4.37266 11.7874 4.66879 11.7861 4.96492C11.7832 5.54434 11.7789 6.12373 11.7735 6.70314C11.8407 6.72906 11.9078 6.75498 11.9771 6.78169C12.4966 6.99613 12.8765 7.37298 13.1055 7.88478C13.3224 8.51914 13.3377 9.19039 13.0659 9.81031C12.833 10.2235 12.6018 10.5151 12.1541 10.6906C11.9407 10.8123 11.8719 10.8691 11.8053 11.1089C11.7869 11.3676 11.7875 11.6206 11.794 11.8799C11.7937 11.9755 11.7935 12.0712 11.7932 12.1697C11.7928 12.4763 11.7963 12.7828 11.8003 13.0894C11.8184 15.0952 11.7863 16.7488 10.3323 18.2856C9.8949 18.7215 9.47357 19.0323 8.93754 19.3359C8.92949 21.087 8.92344 22.8381 8.91973 24.5892C8.91796 25.4023 8.91555 26.2155 8.91161 27.0286C8.90817 27.7377 8.90596 28.4469 8.9052 29.156C8.90475 29.5311 8.90371 29.9062 8.9012 30.2813C8.89884 30.6352 8.89815 30.9891 8.89866 31.343C8.89857 31.4721 8.89789 31.6012 8.89656 31.7303C8.88497 32.9145 9.10905 33.9117 9.79692 34.8906C9.83469 34.9453 9.87247 34.9999 9.91139 35.0561C10.5351 35.8668 11.5664 36.3273 12.5469 36.5234C13.0007 36.5518 13.4544 36.5802 13.9219 36.6094C13.9219 33.5182 13.9219 30.427 13.9219 27.2422C13.7518 27.3273 13.5816 27.4124 13.4063 27.5C12.9505 27.5778 12.5736 27.5534 12.1548 27.355C11.7396 27.0043 11.4256 26.5366 11.1069 26.0995C11.0041 25.9586 10.8997 25.8189 10.7953 25.6792C10.3877 25.1299 10.1577 24.769 10.2266 24.0625C10.4843 23.2378 11.4275 22.725 12.0919 22.2328C12.4993 21.9306 12.8987 21.6203 13.2935 21.3018C13.725 20.9539 14.1595 20.6113 14.5997 20.2744C14.9965 19.9707 15.3913 19.6644 15.7857 19.3574C15.8511 19.3065 15.9166 19.2555 15.984 19.2031C16.1179 19.0988 16.2518 18.9946 16.3857 18.8903C16.7102 18.6377 17.0348 18.3853 17.3594 18.1328C17.4883 18.0326 17.6172 17.9323 17.7461 17.832C20.4532 15.7266 20.4532 15.7266 23.1602 13.6211C23.2241 13.5714 23.2879 13.5217 23.3537 13.4705C23.482 13.3708 23.6103 13.2711 23.7386 13.1714C24.0711 12.9131 24.4031 12.654 24.7343 12.3938C24.8026 12.3403 24.8709 12.2868 24.9412 12.2317C25.0703 12.1305 25.1992 12.0292 25.3279 11.9275C26.6079 10.926 26.6079 10.926 27.1241 10.9463C27.1978 10.947 27.2716 10.9476 27.3476 10.9483C27.9336 11.0754 28.379 11.4831 28.8267 11.8594C29.2962 12.2476 29.7715 12.6243 30.2608 12.9873C30.7574 13.3558 31.2468 13.7319 31.7319 14.1156C32.093 14.4009 32.4582 14.6794 32.8282 14.9531C32.8408 14.7946 32.8408 14.7946 32.8537 14.6329C32.8666 14.4926 32.8796 14.3522 32.8926 14.2119C32.8979 14.1425 32.9033 14.073 32.9087 14.0014C32.9643 13.4317 33.1304 13.0786 33.5694 12.6919C33.8433 12.4973 33.986 12.4498 34.3168 12.4444C34.3938 12.443 34.4707 12.4416 34.5499 12.4402C34.9031 12.4364 35.2563 12.4328 35.6095 12.4309C35.7954 12.4294 35.9813 12.4271 36.1671 12.4238C36.4356 12.4191 36.7041 12.4172 36.9726 12.416C37.055 12.414 37.1374 12.4121 37.2223 12.4101C37.7804 12.4118 38.1564 12.5257 38.586 12.8906C38.9181 13.3299 38.9401 13.7071 38.9269 14.2468C38.9244 14.3668 38.9219 14.4868 38.9195 14.6068C38.9181 14.6702 38.9168 14.7336 38.9153 14.7989C38.9076 15.2077 38.9061 15.6166 38.9036 16.0255C38.9011 16.3838 38.8963 16.7417 38.8864 17.0999C38.7563 18.7243 38.7563 18.7243 39.2916 20.1742C39.5505 20.4078 39.8261 20.5714 40.1421 20.7163C40.4069 20.8475 40.6185 21.0295 40.8472 21.2158C40.9368 21.2844 41.0265 21.353 41.1188 21.4236C41.4863 21.7051 41.8515 21.9896 42.2168 22.2739C42.3113 22.3474 42.3113 22.3474 42.4076 22.4224C42.5316 22.5189 42.6553 22.6156 42.779 22.7125C42.9111 22.8147 43.0445 22.9153 43.1788 23.0147C43.9346 23.5797 43.9346 23.5797 44.0494 24.125C44.08 24.9082 43.8064 25.2852 43.3125 25.8672C43.2307 25.9716 43.1493 26.0765 43.0685 26.1817C42.1532 27.3708 42.1532 27.3708 41.7657 27.5C41.6101 27.5102 41.4542 27.5151 41.2984 27.5161C41.217 27.5173 41.1355 27.5186 41.0516 27.5198C40.8137 27.4994 40.6838 27.4396 40.4766 27.3281C40.4763 27.4441 40.4763 27.4441 40.476 27.5624C40.4709 29.4445 40.4644 31.3266 40.4563 33.2087C40.4525 34.1188 40.4491 35.029 40.4468 35.9392C40.4449 36.7326 40.442 37.5259 40.438 38.3193C40.436 38.7393 40.4344 39.1593 40.4338 39.5794C40.4333 39.9749 40.4316 40.3705 40.429 40.7661C40.4282 40.911 40.4279 41.0559 40.4281 41.2009C40.4292 42.859 40.4292 42.859 39.8912 43.4683C39.8516 43.5149 39.8121 43.5616 39.7713 43.6096C39.265 44.0453 38.7724 44.0369 38.1372 44.0333C38.0397 44.0338 37.9422 44.0342 37.8417 44.0347C37.5148 44.036 37.1879 44.0353 36.8609 44.0347C36.6266 44.0351 36.3922 44.0358 36.1579 44.0365C35.5873 44.038 35.0168 44.0381 34.4462 44.0376C33.9823 44.0373 33.5185 44.0374 33.0547 44.0379C32.9886 44.0379 32.9226 44.038 32.8546 44.0381C32.7204 44.0382 32.5862 44.0383 32.4521 44.0384C31.1941 44.0396 29.9362 44.0392 28.6782 44.0382C27.5278 44.0373 26.3774 44.0384 25.227 44.0405C24.0454 44.0426 22.8637 44.0434 21.6821 44.0428C21.0188 44.0425 20.3556 44.0427 19.6924 44.0442C19.1277 44.0455 18.5631 44.0456 17.9984 44.0441C17.7104 44.0433 17.4225 44.0433 17.1345 44.0445C16.8221 44.0456 16.5096 44.0446 16.1972 44.0431C16.1066 44.0439 16.016 44.0447 15.9226 44.0456C15.2963 44.0393 14.8024 43.932 14.3466 43.4814C14.3075 43.4239 14.2684 43.3664 14.2281 43.3071C14.1874 43.2494 14.1468 43.1917 14.1049 43.1322C13.9432 42.8599 13.9114 42.6382 13.9135 42.3286C13.9138 42.2558 13.9141 42.1829 13.9144 42.1079C13.9151 42.0322 13.9158 41.9564 13.9165 41.8784C13.9169 41.8017 13.9173 41.725 13.9177 41.646C13.9187 41.4567 13.9201 41.2674 13.9219 41.0781C13.8727 41.0799 13.8236 41.0817 13.7729 41.0836C11.0639 41.169 8.9928 40.3913 6.95091 38.598C5.46712 37.2036 4.46382 35.0736 4.36843 33.0356C4.36442 32.6765 4.36576 32.3178 4.36909 31.9588C4.3697 31.8214 4.37022 31.6841 4.37066 31.5468C4.3717 31.253 4.37321 30.9592 4.37503 30.6654C4.37775 30.2006 4.37841 29.7358 4.37861 29.2709C4.37866 29.1923 4.3787 29.1136 4.37875 29.0325C4.37884 28.8718 4.37892 28.711 4.37901 28.5503C4.37968 27.4694 4.38188 26.3886 4.38902 25.3077C4.39384 24.5766 4.39561 23.8457 4.3939 23.1146C4.39312 22.7283 4.39391 22.3421 4.39844 21.9558C4.40267 21.5929 4.40292 21.2303 4.40012 20.8674C4.3998 20.7345 4.40095 20.6015 4.40369 20.4686C4.41126 20.0787 4.40806 19.7135 4.29691 19.3359C4.03994 19.0775 3.76944 18.9597 3.43754 18.8203C2.43411 18.1201 1.77565 16.959 1.49975 15.7834C1.45945 15.5457 1.45144 15.3264 1.45288 15.0854C1.45311 14.9936 1.45333 14.9018 1.45357 14.8073C1.45402 14.7091 1.45447 14.6109 1.45493 14.5097C1.4542 14.3012 1.4533 14.0926 1.45225 13.8841C1.45081 13.5557 1.45024 13.2275 1.45242 12.8991C1.45421 12.5819 1.45223 12.2649 1.44956 11.9477C1.4518 11.8001 1.4518 11.8001 1.45409 11.6495C1.46654 11.1727 1.46654 11.1727 1.24263 10.7798C1.06228 10.6721 1.06228 10.6721 0.773476 10.5703C0.589181 10.4015 0.589181 10.4015 0.44584 10.2319C0.397429 10.1762 0.349019 10.1205 0.299142 10.0631C-0.104824 9.49072 -0.057655 8.83432 3.89181e-05 8.16407C0.190319 7.48421 0.698683 7.05739 1.2891 6.70314C1.34582 6.70314 1.40254 6.70314 1.46098 6.70314C1.46021 6.64006 1.45945 6.57699 1.45866 6.51201C1.45175 5.91531 1.44653 5.31861 1.44317 4.72188C1.44138 4.41515 1.43896 4.10845 1.43504 3.80174C1.43129 3.5053 1.42925 3.20889 1.42836 2.91243C1.42743 2.74525 1.42475 2.57809 1.42203 2.41093C1.42185 1.68388 1.49678 1.20645 1.99238 0.647899C2.0563 0.593618 2.12022 0.539336 2.18607 0.48341C2.24977 0.427799 2.31347 0.372188 2.3791 0.314892C3.04306 -0.162084 4.04161 -0.159114 4.77494 0.171886ZM3.1627 1.69138C2.9738 1.93446 2.96598 2.05086 2.96883 2.35566C2.96885 2.44854 2.96888 2.54142 2.96891 2.63712C2.97068 2.73685 2.97245 2.83659 2.97428 2.93934C2.97477 3.04186 2.97526 3.14438 2.97576 3.25C2.97768 3.57751 2.982 3.90494 2.98637 4.23243C2.98809 4.45444 2.98966 4.67644 2.99107 4.89845C2.99486 5.44275 3.00079 5.98699 3.00785 6.53126C3.4616 6.53126 3.91535 6.53126 4.38285 6.53126C4.38923 5.90271 4.3939 5.27418 4.39701 4.64561C4.39831 4.4318 4.40007 4.21799 4.4023 4.00418C4.40543 3.69679 4.40689 3.38942 4.40803 3.08201C4.40936 2.98648 4.41069 2.89095 4.41206 2.79253C4.41208 2.70309 4.4121 2.61365 4.41212 2.52151C4.41269 2.44308 4.41326 2.36464 4.41385 2.28383C4.37609 2.01425 4.28313 1.85253 4.12504 1.63282C3.7949 1.46775 3.45711 1.46619 3.1627 1.69138ZM8.8516 1.97657C8.79136 2.3229 8.80166 2.66428 8.80964 3.01487C8.81025 3.11536 8.81086 3.21585 8.81148 3.31938C8.81389 3.6399 8.81928 3.96029 8.82475 4.28077C8.8269 4.49824 8.82886 4.71572 8.83062 4.93319C8.83536 5.46593 8.84277 5.99857 8.8516 6.53126C9.30535 6.53126 9.7591 6.53126 10.2266 6.53126C10.2372 5.89048 10.245 5.24974 10.2502 4.60889C10.2524 4.39091 10.2553 4.17293 10.259 3.95496C10.2642 3.64158 10.2667 3.32829 10.2686 3.01487C10.2708 2.91746 10.273 2.82005 10.2753 2.71969C10.2799 2.17218 10.2799 2.17218 10.0252 1.70019C9.80535 1.53177 9.80535 1.53177 9.5391 1.49318C9.17416 1.56921 9.07222 1.67375 8.8516 1.97657ZM1.63285 8.33595C1.5 8.60164 1.52168 8.81671 1.54691 9.10939C1.6584 9.31563 1.6584 9.31563 1.89066 9.45314C2.18761 9.50545 2.48188 9.50095 2.78275 9.49898C2.87347 9.49972 2.9642 9.50046 3.05767 9.50122C3.35787 9.50318 3.658 9.50259 3.9582 9.50181C4.16669 9.50226 4.37519 9.5028 4.58368 9.50343C5.02083 9.50432 5.45795 9.50393 5.89509 9.50267C6.45555 9.50119 7.01593 9.50321 7.57638 9.50624C8.007 9.50812 8.43761 9.508 8.86823 9.50729C9.07488 9.50722 9.28152 9.50781 9.48816 9.50907C9.77704 9.51057 10.0658 9.50933 10.3546 9.50737C10.4829 9.50888 10.4829 9.50888 10.6138 9.51042C11.0124 9.50492 11.1998 9.49566 11.5291 9.25437C11.7169 9.0273 11.7169 9.0273 11.6875 8.71193C11.5902 8.38045 11.5902 8.38045 11.3438 8.16407C11.1051 8.08452 10.9617 8.06703 10.7153 8.06607C10.6396 8.06558 10.564 8.06509 10.486 8.06458C10.3619 8.06444 10.3619 8.06444 10.2352 8.06429C10.1478 8.06386 10.0605 8.06344 9.97048 8.063C9.681 8.06174 9.39152 8.06115 9.10203 8.06068C8.90112 8.06019 8.70021 8.05969 8.4993 8.0592C8.07783 8.05829 7.65637 8.05779 7.2349 8.05749C6.69459 8.05702 6.1543 8.05495 5.614 8.05251C5.19894 8.05091 4.78388 8.05046 4.36882 8.05033C4.16961 8.05007 3.9704 8.04938 3.77119 8.04825C3.49263 8.04679 3.21412 8.04695 2.93555 8.0475C2.85313 8.04671 2.7707 8.04592 2.68578 8.0451C2.26659 8.04774 1.96974 8.05584 1.63285 8.33595ZM3.00785 11C3.00076 11.7037 2.99367 12.4073 2.98637 13.1323C2.98324 13.3525 2.98011 13.5728 2.97688 13.7996C2.97588 13.977 2.975 14.1544 2.97428 14.3318C2.97252 14.4216 2.97076 14.5114 2.96895 14.6039C2.96849 15.6014 3.29996 16.434 3.95316 17.1875C4.75977 17.9448 5.69829 18.3593 6.81159 18.3316C7.61009 18.2404 8.31574 17.9499 8.93754 17.4453C8.99127 17.4022 9.045 17.3591 9.10035 17.3147C9.76661 16.7182 10.1813 15.7939 10.2415 14.9045C10.2464 14.6547 10.246 14.4054 10.2434 14.1555C10.2432 14.0751 10.243 13.9947 10.2429 13.9119C10.242 13.6144 10.2396 13.317 10.2373 13.0195C10.2338 12.3531 10.2303 11.6867 10.2266 11C7.84441 11 5.46223 11 3.00785 11ZM26.7068 12.841C26.6527 12.886 26.5986 12.9311 26.5428 12.9776C26.4556 13.0515 26.4556 13.0515 26.3667 13.127C25.8923 13.5215 25.4128 13.9042 24.9165 14.271C24.4059 14.6495 23.9065 15.0394 23.4117 15.4383C23.0341 15.7424 22.6526 16.0403 22.2676 16.335C21.8707 16.6387 21.4759 16.945 21.0816 17.252C21.0161 17.3029 20.9507 17.3539 20.8833 17.4063C20.7494 17.5106 20.6155 17.6148 20.4816 17.7191C20.1571 17.9717 19.8325 18.2241 19.5079 18.4766C19.3789 18.5768 19.25 18.6771 19.1211 18.7774C17.8321 19.78 16.543 20.7826 15.2539 21.7852C15.1901 21.8349 15.1262 21.8845 15.0604 21.9357C14.9322 22.0354 14.804 22.1351 14.6758 22.2348C14.3426 22.4939 14.0097 22.753 13.6769 23.0125C13.6082 23.066 13.5395 23.1195 13.4687 23.1746C13.3387 23.2759 13.2086 23.3773 13.0787 23.4787C12.6757 23.7926 12.2691 24.1012 11.8594 24.4063C12.1952 24.932 12.5537 25.408 12.9766 25.8672C13.3316 25.6665 13.6474 25.4285 13.9649 25.1743C14.0727 25.0888 14.1806 25.0033 14.2885 24.9179C14.3695 24.8536 14.3695 24.8536 14.4521 24.7881C14.682 24.6068 14.9142 24.4286 15.1465 24.2505C15.7913 23.7561 16.4321 23.2567 17.0732 22.7575C17.3977 22.5049 17.7223 22.2525 18.0469 22C18.1104 21.9506 18.174 21.9012 18.2394 21.8503C18.5659 21.5963 18.8925 21.3424 19.2192 21.0886C19.8034 20.6346 20.3874 20.1803 20.9688 19.7227C21.8741 19.0101 22.7832 18.3023 23.6973 17.6011C24.0789 17.3082 24.4581 17.0125 24.836 16.7149C25.2409 16.396 25.647 16.0788 26.0552 15.7642C26.1451 15.6949 26.2349 15.6257 26.3275 15.5544C26.8649 15.1487 26.8649 15.1487 27.2325 15.164C27.6146 15.2628 27.9066 15.5368 28.2099 15.7793C28.3753 15.9111 28.5424 16.0405 28.7099 16.1697C29.0419 16.4262 29.3727 16.6843 29.7032 16.9429C30.0283 17.1969 30.354 17.45 30.6797 17.7031C30.8086 17.8034 30.9375 17.9037 31.0664 18.0039C31.1303 18.0535 31.1941 18.1032 31.2598 18.1543C33.5157 19.9089 35.7715 21.6634 38.0274 23.418C38.0913 23.4677 38.1552 23.5174 38.221 23.5686C38.349 23.6681 38.477 23.7677 38.605 23.8673C38.9411 24.1287 39.2773 24.3901 39.6135 24.6513C39.6834 24.7056 39.7532 24.7599 39.8252 24.8158C39.9586 24.9194 40.0919 25.0231 40.2253 25.1267C40.2858 25.1736 40.3462 25.2206 40.4085 25.269C40.465 25.3127 40.5216 25.3563 40.5799 25.4013C40.7155 25.5085 40.8468 25.6213 40.9771 25.7349C41.0388 25.7786 41.1005 25.8222 41.1641 25.8672C41.448 25.7726 41.487 25.7245 41.6539 25.4909C41.6957 25.433 41.7375 25.3751 41.7806 25.3155C41.8235 25.2547 41.8665 25.194 41.9107 25.1314C41.9546 25.0703 41.9985 25.0092 42.0438 24.9462C42.1522 24.7953 42.2598 24.6438 42.3672 24.4922C42.0439 24.1561 41.7019 23.8624 41.336 23.5737C41.2791 23.5286 41.2223 23.4834 41.1637 23.4369C40.7229 23.0877 40.278 22.7439 39.8314 22.4022C39.4811 22.1339 39.1329 21.8629 38.7847 21.5918C38.6865 21.5154 38.6865 21.5154 38.5864 21.4374C38.4525 21.3332 38.3186 21.2289 38.1847 21.1247C37.8602 20.8721 37.5356 20.6196 37.211 20.3672C37.0821 20.2669 36.9532 20.1667 36.8243 20.0664C36.7605 20.0168 36.6966 19.9672 36.6309 19.916C31.4102 15.8555 31.4102 15.8555 31.2168 15.7051C31.088 15.6049 30.9592 15.5047 30.8303 15.4045C30.5068 15.153 30.1835 14.9013 29.8603 14.6493C29.54 14.3996 29.2191 14.1505 28.8981 13.9016C28.695 13.7437 28.4927 13.5849 28.2903 13.4261C28.1576 13.3228 28.0249 13.2195 27.8921 13.1162C27.7998 13.0433 27.7998 13.0433 27.7056 12.9688C27.6485 12.9246 27.5914 12.8804 27.5326 12.8349C27.4826 12.7958 27.4326 12.7566 27.3811 12.7163C27.0952 12.5444 26.9344 12.6481 26.7068 12.841ZM34.5469 14.0078C34.3606 15.3914 34.3606 15.3914 34.7413 16.7229C34.9833 16.9002 35.2148 17.038 35.4819 17.1713C35.8503 17.3779 36.1687 17.6589 36.4966 17.9234C36.6292 18.0277 36.762 18.1316 36.8951 18.2352C36.9519 18.2797 37.0087 18.3242 37.0672 18.37C37.21 18.4823 37.21 18.4823 37.3829 18.5625C37.3829 17.0595 37.3829 15.5564 37.3829 14.0078C36.447 14.0078 35.5111 14.0078 34.5469 14.0078ZM26.4527 17.3809C26.3914 17.4273 26.3301 17.4737 26.2669 17.5215C25.7963 17.8795 25.3333 18.2466 24.8729 18.6177C24.4953 18.922 24.1137 19.2199 23.7285 19.5147C23.3317 19.8184 22.9369 20.1247 22.5425 20.4317C22.4771 20.4826 22.4116 20.5335 22.3442 20.586C22.2103 20.6903 22.0764 20.7945 21.9425 20.8988C21.618 21.1514 21.2934 21.4038 20.9688 21.6563C20.8399 21.7565 20.711 21.8568 20.5821 21.957C18.2618 23.7617 18.2618 23.7617 18.068 23.9124C17.9403 24.0117 17.8126 24.1111 17.6849 24.2104C17.3446 24.4752 17.0041 24.7398 16.6635 25.0041C16.5921 25.0596 16.5207 25.115 16.4472 25.1721C16.3093 25.2792 16.1715 25.3861 16.0336 25.4931C15.9721 25.5409 15.9105 25.5887 15.8471 25.6379C15.7926 25.6802 15.7381 25.7225 15.6819 25.7661C15.558 25.8607 15.558 25.8607 15.4688 25.9531C15.4604 26.1651 15.4576 26.3746 15.4585 26.5866C15.4584 26.6537 15.4583 26.7208 15.4582 26.7899C15.4581 27.0165 15.4586 27.2431 15.459 27.4697C15.4591 27.6314 15.459 27.7931 15.459 27.9548C15.459 28.3953 15.4595 28.8358 15.4601 29.2763C15.4606 29.7361 15.4607 30.1959 15.4608 30.6558C15.461 31.5271 15.4617 32.3985 15.4626 33.2699C15.4636 34.2616 15.464 35.2534 15.4645 36.2451C15.4654 38.2858 15.4669 40.3265 15.4688 42.3672C15.7262 42.5151 15.9108 42.5606 16.2066 42.5609C16.2858 42.5614 16.3649 42.5619 16.4465 42.5625C16.5764 42.562 16.5764 42.562 16.709 42.5615C16.8013 42.5618 16.8936 42.5621 16.9887 42.5625C17.299 42.5634 17.6092 42.563 17.9195 42.5627C18.1415 42.563 18.3636 42.5635 18.5856 42.564C19.1267 42.5651 19.6678 42.5653 20.2089 42.5651C20.6486 42.5649 21.0884 42.5651 21.5281 42.5654C21.622 42.5655 21.622 42.5655 21.7177 42.5656C21.8448 42.5657 21.9719 42.5658 22.0989 42.5659C23.291 42.5668 24.4831 42.5666 25.6752 42.5661C26.766 42.5657 27.8569 42.5666 28.9477 42.5683C30.0675 42.5699 31.1873 42.5706 32.3071 42.5703C32.9359 42.5702 33.5647 42.5704 34.1935 42.5716C34.7846 42.5727 35.3758 42.5725 35.967 42.5714C36.1842 42.5712 36.4015 42.5714 36.6187 42.5721C36.9147 42.573 37.2107 42.5723 37.5067 42.5712C37.6364 42.5722 37.6364 42.5722 37.7687 42.5732C38.0998 42.5706 38.3668 42.5551 38.6818 42.4483C38.9199 42.2028 38.9069 41.9632 38.9059 41.6385C38.9073 41.5724 38.9088 41.5064 38.9103 41.4383C38.9146 41.2163 38.9159 40.9943 38.9171 40.7722C38.9195 40.6133 38.9221 40.4543 38.9248 40.2954C38.9316 39.8628 38.9354 39.4302 38.9383 38.9976C38.9401 38.7271 38.9424 38.4565 38.9448 38.186C38.9521 37.3388 38.9574 36.4916 38.9602 35.6443C38.9635 34.6677 38.9733 33.6915 38.9887 32.715C39.0002 31.9596 39.0057 31.2042 39.0068 30.4487C39.0076 29.9977 39.0109 29.5472 39.0205 29.0964C39.1665 27.1844 39.1665 27.1844 38.5154 25.4798C38.2055 25.205 37.8784 25.0198 37.5016 24.852C37.1374 24.6705 36.8364 24.4056 36.5235 24.1484C36.3948 24.0478 36.266 23.9475 36.1368 23.8477C33.5496 21.8354 30.9624 19.8232 28.3752 17.8109C28.317 17.7658 28.2588 17.7207 28.1989 17.6743C28.0668 17.5712 27.9354 17.4671 27.8046 17.3624C27.7352 17.3072 27.6658 17.2521 27.5944 17.1952C27.5311 17.1445 27.4679 17.0937 27.4027 17.0415C27.0281 16.7806 26.7569 17.1485 26.4527 17.3809ZM5.92973 19.7656C5.92174 21.4884 5.91562 23.2111 5.91192 24.9338C5.91015 25.7339 5.90774 26.5339 5.90379 27.3339C5.90035 28.0318 5.89815 28.7298 5.89738 29.4277C5.89694 29.7967 5.89591 30.1657 5.89338 30.5346C5.89102 30.8832 5.89034 31.2317 5.89085 31.5802C5.89075 31.7069 5.89009 31.8337 5.88875 31.9604C5.86802 34.0298 6.54851 35.8438 7.97544 37.3627C8.0377 37.426 8.09996 37.4894 8.1641 37.5547C8.21572 37.6074 8.26735 37.6602 8.32054 37.7145C9.16724 38.5135 10.2364 39.0352 11.3438 39.3594C11.4117 39.3804 11.4796 39.4015 11.5496 39.4232C12.3133 39.6185 13.1401 39.5449 13.9219 39.5313C13.9219 39.0775 13.9219 38.6238 13.9219 38.1563C13.8262 38.154 13.7305 38.1518 13.6319 38.1495C11.7788 38.0886 10.1774 37.6213 8.84187 36.2512C8.48511 35.8376 8.21568 35.3896 7.96537 34.9067C7.93739 34.8539 7.9094 34.8011 7.88057 34.7466C7.41111 33.7935 7.35224 32.7797 7.35351 31.7364C7.35273 31.605 7.35184 31.4736 7.35085 31.3422C7.3485 30.9891 7.34769 30.636 7.34717 30.2829C7.34636 29.9126 7.34411 29.5422 7.34201 29.1719C7.33828 28.4722 7.33581 27.7725 7.33382 27.0729C7.33149 26.2756 7.32772 25.4784 7.32383 24.6811C7.31587 23.0426 7.30975 21.4041 7.30473 19.7656C6.85098 19.7656 6.39723 19.7656 5.92973 19.7656Z" fill="#58b347"/>
<path d="M29.6377 23.563C29.9289 23.8113 30.1284 24.0413 30.25 24.4062C30.2821 25.1046 30.1877 25.7854 30.0996 26.4771C30.0842 26.6012 30.0688 26.7254 30.0534 26.8495C30.0131 27.1738 29.9723 27.498 29.9313 27.8222C29.8895 28.154 29.8482 28.4859 29.8069 28.8177C29.726 29.4671 29.6444 30.1164 29.5625 30.7656C29.6444 30.7629 29.6444 30.7629 29.7279 30.7601C29.9771 30.753 30.2263 30.7485 30.4756 30.7441C30.5615 30.7412 30.6473 30.7383 30.7358 30.7354C31.2642 30.7284 31.567 30.7559 31.9688 31.1093C32.2697 31.4518 32.3225 31.7467 32.3491 32.1983C32.2367 32.8128 31.7584 33.2525 31.3404 33.6821C31.2296 33.7974 31.1189 33.9127 31.0084 34.0282C30.9537 34.0853 30.899 34.1424 30.8427 34.2012C30.6292 34.4289 30.4247 34.6637 30.2203 34.8996C30.0095 35.1411 29.7917 35.3757 29.5733 35.6103C29.2015 36.0113 28.8336 36.4154 28.4685 36.8225C28.132 37.196 27.7915 37.5658 27.4514 37.936C27.325 38.0737 27.199 38.2118 27.073 38.3499C27.0312 38.3957 26.9894 38.4416 26.9463 38.4888C26.8302 38.6159 26.7143 38.7431 26.5984 38.8702C25.8952 39.6248 25.8952 39.6248 25.2871 39.6494C24.9075 39.6433 24.6536 39.5882 24.3656 39.3342C24.0797 39.0144 23.9792 38.6048 23.9734 38.1819C23.9931 37.9226 24.0234 37.667 24.0582 37.4093C24.0696 37.3145 24.081 37.2196 24.0927 37.1219C24.1294 36.8201 24.1684 36.5187 24.2076 36.2173C24.2323 36.0171 24.2568 35.817 24.2812 35.6169C24.3393 35.1433 24.3994 34.6701 24.4602 34.1969C24.4895 33.9666 24.5178 33.7363 24.5455 33.5059C24.5532 33.4416 24.561 33.3774 24.569 33.3112C24.5888 33.1462 24.6085 32.9813 24.6281 32.8164C24.6641 32.5703 24.6641 32.5703 24.75 32.3125C24.6981 32.3138 24.6461 32.3152 24.5925 32.3166C24.355 32.3219 24.1175 32.3253 23.8799 32.3286C23.7982 32.3307 23.7164 32.3329 23.6322 32.3351C23.0553 32.3411 22.68 32.2711 22.231 31.8828C22.0014 31.6107 21.9785 31.3524 21.9624 31.0073C21.9572 30.9299 21.952 30.8524 21.9467 30.7726C22.0825 30.0987 22.7367 29.5688 23.1978 29.0898C23.5916 28.6784 23.9782 28.2638 24.3512 27.8334C24.5616 27.5924 24.7791 27.3582 24.9971 27.124C25.3687 26.7232 25.7364 26.3194 26.1012 25.9125C26.3621 25.6229 26.6258 25.336 26.8896 25.0491C27.214 24.6957 27.535 24.3393 27.8545 23.9816C28.3458 23.4422 28.93 23.2706 29.6377 23.563ZM28.5313 25.5234C28.6172 25.6953 28.6172 25.6953 28.6172 25.6953L28.5313 25.5234ZM28.2889 25.8403C27.927 26.2034 27.5765 26.5706 27.2426 26.9595C27.0215 27.212 26.7937 27.458 26.5655 27.7041C26.1943 28.1045 25.8266 28.5076 25.4627 28.9146C25.3173 29.0756 25.1709 29.2352 25.0229 29.3939C24.9603 29.4614 24.9603 29.4614 24.8964 29.5302C24.7785 29.657 24.6602 29.7835 24.5419 29.9099C24.3028 30.1842 24.0977 30.4666 23.8907 30.7656C23.9487 30.7677 24.0068 30.7699 24.0666 30.7721C24.3303 30.7821 24.5939 30.7926 24.8575 30.8032C24.9488 30.8066 25.0402 30.8099 25.1344 30.8134C25.2665 30.8188 25.2665 30.8188 25.4013 30.8243C25.5228 30.8291 25.5228 30.8291 25.6468 30.8339C25.8451 30.8498 26.0203 30.8823 26.211 30.9375C26.585 32.0634 26.0951 33.7589 25.9478 34.9067C25.9114 35.1919 25.8751 35.4772 25.8392 35.7624C25.817 35.9384 25.7946 36.1143 25.7718 36.2901C25.7218 36.6858 25.6816 37.0688 25.6953 37.4687C25.7923 37.3718 25.8892 37.2748 25.9861 37.1777C26.0854 37.0785 26.1853 36.9799 26.2855 36.8816C26.6182 36.5534 26.9341 36.2179 27.2389 35.8638C27.4611 35.6104 27.6898 35.3633 27.919 35.1162C28.2898 34.7161 28.6572 34.3134 29.0207 33.9067C29.1694 33.7421 29.3192 33.5792 29.4706 33.4172C29.5349 33.348 29.5349 33.348 29.6006 33.2774C29.6842 33.1878 29.768 33.0984 29.8523 33.0093C30.0581 32.788 30.2084 32.5853 30.336 32.3125C30.2779 32.3112 30.2198 32.31 30.16 32.3087C29.8963 32.3023 29.6328 32.294 29.3692 32.2856C29.2778 32.2837 29.1864 32.2817 29.0922 32.2797C28.9601 32.2752 28.9601 32.2752 28.8253 32.2705C28.7443 32.2683 28.6633 32.266 28.5799 32.2637C28.3119 32.2185 28.1987 32.171 28.0157 31.9687C27.8498 31.4017 27.9774 30.818 28.0529 30.2422C28.0731 30.08 28.0731 30.08 28.0937 29.9145C28.1295 29.6281 28.1659 29.3417 28.2027 29.0554C28.2543 28.6527 28.3052 28.2499 28.3556 27.8471C28.3824 27.6331 28.4096 27.4191 28.4374 27.2052C28.5013 26.6973 28.5471 26.2072 28.5313 25.6953C28.4203 25.6855 28.4203 25.6855 28.2889 25.8403Z" fill="#58b347"/>
</g>
<defs>
<clipPath id="clip0_2953_1364">
<rect width="44" height="44" fill="white"/>
</clipPath>
</defs>
</svg>
